<?xml version="1.0" encoding="UTF-8" standalone="no"?>
<!-- Created with Inkscape (http://www.inkscape.org/) -->

<svg
   xmlns:dc="http://purl.org/dc/elements/1.1/"
   xmlns:cc="http://creativecommons.org/ns#"
   xmlns:rdf="http://www.w3.org/1999/02/22-rdf-syntax-ns#"
   xmlns:svg="http://www.w3.org/2000/svg"
   xmlns="http://www.w3.org/2000/svg"
   xmlns:sodipodi="http://sodipodi.sourceforge.net/DTD/sodipodi-0.dtd"
   xmlns:inkscape="http://www.inkscape.org/namespaces/inkscape"
   version="1.1"
   id="svg32517"
   xml:space="preserve"
   width="1066.6667"
   height="1066.6667"
   viewBox="0 0 1066.6667 1066.6667"
   sodipodi:docname="chicken-clip-art-publicdomainvectors.org.svg"
   inkscape:version="0.92.4 (5da689c313, 2019-01-14)"><metadata
     id="metadata32523"><rdf:RDF><cc:Work
         rdf:about=""><dc:format>image/svg+xml</dc:format><dc:type
           rdf:resource="http://purl.org/dc/dcmitype/StillImage" /><dc:title></dc:title></cc:Work></rdf:RDF></metadata><defs
     id="defs32521"><clipPath
       clipPathUnits="userSpaceOnUse"
       id="clipPath32533"><path
         d="M 0,800 H 800 V 0 H 0 Z"
         id="path32531"
         inkscape:connector-curvature="0" /></clipPath></defs><sodipodi:namedview
     pagecolor="#ffffff"
     bordercolor="#666666"
     borderopacity="1"
     objecttolerance="10"
     gridtolerance="10"
     guidetolerance="10"
     inkscape:pageopacity="0"
     inkscape:pageshadow="2"
     inkscape:window-width="797"
     inkscape:window-height="480"
     id="namedview32519"
     showgrid="false"
     inkscape:zoom="0.22124998"
     inkscape:cx="533.33337"
     inkscape:cy="533.33337"
     inkscape:window-x="0"
     inkscape:window-y="0"
     inkscape:window-maximized="0"
     inkscape:current-layer="g32525" /><g
     id="g32525"
     inkscape:groupmode="layer"
     inkscape:label="chicken-clip-art-publicdomainvectors.org"
     transform="matrix(1.3333333,0,0,-1.3333333,0,1066.6667)"><g
       id="g32527"><g
         id="g32529"
         clip-path="url(#clipPath32533)"><path
           d="m 554.717,132.056 c 0.34,-1.401 0.074,-2.247 0.124,-2.229 -0.052,0 0.3,0.671 0.231,2.067 l -0.359,0.174 c 0,-0.004 0.002,-0.008 0.004,-0.012"
           style="fill:#b40e00;fill-opacity:1;fill-rule:nonzero;stroke:none"
           id="path32535"
           inkscape:connector-curvature="0" /><path
           d="m 521.049,107.238 c 5.857,0.516 11.271,1.28 16.25,1.943 9.912,1.307 18.222,2.422 23.827,1.39 2.799,-0.441 4.674,-1.915 5.028,-3.444 0.396,-1.473 0.11,-2.357 0.165,-2.348 -0.055,0 0.359,0.801 0.161,2.422 -0.115,0.801 -0.556,1.796 -1.45,2.634 -0.88,0.847 -2.136,1.482 -3.573,1.979 -5.828,1.907 -14.42,1.916 -24.453,1.99 -5.024,0.037 -10.452,0.037 -16.084,0.322 -5.037,0.274 -10.401,0.739 -15.211,2.079 l -1.844,-8.953 c 6.24,-0.828 11.875,-0.431 17.184,-0.014"
           style="fill:#b40e00;fill-opacity:1;fill-rule:nonzero;stroke:none"
           id="path32537"
           inkscape:connector-curvature="0" /><path
           d="m 516.504,142.148 c 4.241,-0.81 8.184,-1.27 11.788,-1.722 3.596,-0.451 6.86,-0.884 9.683,-1.492 2.809,-0.608 5.203,-1.399 6.851,-2.55 0.709,-0.451 1.202,-0.995 1.588,-1.547 -5.354,-0.682 -11.998,-2.607 -19.655,-4.605 -4.6,-1.207 -9.568,-2.486 -14.78,-3.435 -1.375,-0.243 -2.795,-0.47 -4.224,-0.653 l -1.739,-8.451 c 2.75,0.629 5.32,1.41 7.767,2.253 5.332,1.832 10.135,3.886 14.531,5.783 7.515,3.232 13.87,6.151 18.887,7.514 0.057,-0.212 0.121,-0.424 0.144,-0.607 0.152,-1.106 0.032,-1.723 0.032,-1.723 0,0 0.212,0.58 0.249,1.741 0.009,0.211 -0.005,0.442 -0.037,0.7 0.7,0.174 1.372,0.332 2.021,0.442 0.429,0.069 0.846,0.119 1.247,0.147 l -2.297,1.118 c -0.46,-0.029 -0.931,-0.069 -1.414,-0.123 -0.159,0.367 -0.362,0.741 -0.617,1.11 l -15.902,7.735 c -0.511,0.152 -1.025,0.303 -1.547,0.455 -3.49,1.023 -7.262,2.1 -11.042,3.482 -1.803,0.663 -3.643,1.415 -5.37,2.29 l -1.367,-6.642 c 1.782,-0.504 3.523,-0.876 5.203,-1.22"
           style="fill:#b40e00;fill-opacity:1;fill-rule:nonzero;stroke:none"
           id="path32539"
           inkscape:connector-curvature="0" /><path
           d="m 528.016,87.107 c 4.572,-0.57 8.707,-1.114 12.289,-1.887 3.564,-0.774 6.603,-1.768 8.693,-3.224 2.154,-1.408 3.021,-3.379 3.199,-4.769 0.185,-1.4 0.037,-2.183 0.037,-2.183 0,0 0.272,0.727 0.319,2.21 0.059,1.436 -0.543,3.831 -2.69,5.793 -2.062,1.988 -5.147,3.563 -8.711,4.963 -3.582,1.399 -7.689,2.634 -12.128,3.941 -4.438,1.299 -9.218,2.661 -14.01,4.411 -4.298,1.589 -8.77,3.559 -12.108,6.231 l -2.015,-9.786 c 4.211,-1.827 8.322,-2.722 12.174,-3.517 5.378,-1.031 10.378,-1.602 14.951,-2.183"
           style="fill:#b40e00;fill-opacity:1;fill-rule:nonzero;stroke:none"
           id="path32541"
           inkscape:connector-curvature="0" /><path
           d="m 42.273,504.669 c 0,0 0.516,-0.304 1.51,-0.875 0.846,-0.451 2.04,-1.113 3.672,-1.757 l 0.261,2.451 c -3.479,-0.088 -5.443,0.181 -5.443,0.181"
           style="fill:#ae001a;fill-opacity:1;fill-rule:nonzero;stroke:none"
           id="path32543"
           inkscape:connector-curvature="0" /><path
           d="m 503,146.965 c 2.816,-1.764 5.605,-2.833 8.301,-3.597 l 1.367,6.642 c -0.908,0.461 -1.783,0.955 -2.604,1.489 l -9.697,-2.495 c 0.85,-0.78 1.738,-1.453 2.633,-2.039"
           style="fill:#b2764c;fill-opacity:1;fill-rule:nonzero;stroke:none"
           id="path32545"
           inkscape:connector-curvature="0" /><path
           d="m 501.922,103.426 c -0.838,0.773 -1.556,1.583 -2.122,2.421 -0.17,0.23 -0.212,0.369 -0.313,0.525 l -0.483,0.848 c -0.037,0.183 -0.212,0.672 -0.336,1.114 1.1,-0.313 2.178,-0.571 3.213,-0.783 0.67,-0.115 1.329,-0.212 1.984,-0.299 l 1.844,8.953 c -0.52,0.145 -1.034,0.297 -1.539,0.463 -0.391,0.129 -0.778,0.275 -1.156,0.433 0.765,0.128 1.515,0.266 2.248,0.423 0.253,0.054 0.502,0.113 0.754,0.169 l 1.739,8.451 c -3.712,-0.477 -7.476,-0.646 -10.621,0.045 0,2.441 0.037,4.9 0.11,7.368 0.162,4.939 0.432,9.905 0.759,14.838 l -21.677,-5.579 c 0.666,-3.183 1.451,-6.381 2.445,-9.61 0.295,-0.967 0.636,-1.942 1.009,-2.928 0.738,-3.508 1.538,-7.017 2.463,-10.525 l -0.068,-0.249 -0.093,-0.276 -0.064,-0.212 c 0.06,0.083 -0.147,-0.248 0.125,0.184 l -0.024,-0.055 -0.833,-1.621 -0.561,-0.976 c -0.931,-1.464 -2.215,-2.827 -3.698,-3.979 -2.984,-2.32 -6.773,-3.867 -10.406,-5.101 -3.67,-1.243 -7.234,-2.183 -10.392,-3.416 -3.113,-1.189 -5.986,-2.827 -7.321,-5.149 -1.345,-2.283 -1.092,-4.345 -0.912,-5.551 0.226,-1.245 0.424,-1.87 0.424,-1.87 0,0 -0.055,0.672 0,1.887 0.064,1.189 0.336,3.085 1.787,4.568 1.39,1.51 3.899,2.33 6.934,2.772 3.043,0.461 6.648,0.599 10.709,1.013 4.052,0.461 8.679,1.095 13.564,3.315 1.584,0.728 3.168,1.667 4.693,2.799 0.575,-1.371 1.219,-2.753 2.006,-4.181 0.503,-0.865 0.977,-1.602 1.728,-2.634 l 0.782,-0.957 c 0.351,-0.415 0.728,-0.875 1.051,-1.188 1.344,-1.381 2.795,-2.514 4.258,-3.462 1.662,-1.044 3.318,-1.896 4.959,-2.607 l 2.015,9.786 c -0.339,0.27 -0.67,0.547 -0.984,0.833"
           style="fill:#b2764c;fill-opacity:1;fill-rule:nonzero;stroke:none"
           id="path32547"
           inkscape:connector-curvature="0" /><path
           d="m 522.799,156.283 c 4.619,0.415 8.887,1.014 12.809,1.53 7.81,1.04 14.357,1.915 18.777,1.104 2.211,-0.35 3.683,-1.51 3.969,-2.717 0.304,-1.169 0.083,-1.859 0.125,-1.85 -0.042,0 0.28,0.635 0.124,1.915 -0.087,0.627 -0.433,1.409 -1.142,2.063 -0.691,0.672 -1.686,1.169 -2.818,1.566 -4.586,1.501 -11.36,1.509 -19.274,1.574 -3.96,0.018 -8.228,0.018 -12.672,0.249 -0.422,0.022 -0.848,0.048 -1.276,0.075 l -5.115,-5.868 c 2.247,0.038 4.401,0.197 6.493,0.359"
           style="fill:#c32600;fill-opacity:1;fill-rule:nonzero;stroke:none"
           id="path32549"
           inkscape:connector-curvature="0" /><path
           d="m 549.427,174.092 c -10e-4,10e-4 0,0.003 0,0.005 0,-0.002 -10e-4,-0.004 0,-0.005"
           style="fill:#c32600;fill-opacity:1;fill-rule:nonzero;stroke:none"
           id="path32551"
           inkscape:connector-curvature="0" /><path
           d="m 545.305,177.215 c 1.041,0.176 1.999,0.212 2.716,-0.027 0.756,-0.212 1.161,-0.811 1.317,-1.345 0.246,-1.017 0.087,-1.658 0.089,-1.746 0.003,0.086 0.268,0.674 0.175,1.801 -0.071,0.599 -0.466,1.437 -1.346,1.832 -0.842,0.424 -1.901,0.526 -3.033,0.516 -3.088,-0.08 -6.891,-0.943 -11.27,-2.076 l -4.156,-4.769 c 6.336,2.746 11.578,5.122 15.508,5.814"
           style="fill:#c32600;fill-opacity:1;fill-rule:nonzero;stroke:none"
           id="path32553"
           inkscape:connector-curvature="0" /><path
           d="m 545.508,137.222 c -1.625,1.565 -4.053,2.808 -6.865,3.913 -2.394,0.94 -5.106,1.787 -8.016,2.648 l 15.902,-7.735 c -0.274,0.4 -0.61,0.796 -1.021,1.174"
           style="fill:#c32600;fill-opacity:1;fill-rule:nonzero;stroke:none"
           id="path32555"
           inkscape:connector-curvature="0" /><path
           d="m 553.059,133.75 c 0.952,-0.266 1.457,-1.013 1.654,-1.682 l 0.359,-0.174 c -0.004,0.076 -0.008,0.154 -0.015,0.235 -0.082,0.746 -0.588,1.814 -1.703,2.311 -1.073,0.553 -2.414,0.672 -3.855,0.664 -0.307,-0.008 -0.621,-0.023 -0.939,-0.043 l 2.297,-1.118 c 0.827,0.059 1.582,0.018 2.202,-0.193"
           style="fill:#c32600;fill-opacity:1;fill-rule:nonzero;stroke:none"
           id="path32557"
           inkscape:connector-curvature="0" /><path
           d="m 549.431,174.084 c -0.003,0.001 -0.004,0.004 -0.004,0.008 10e-4,-0.005 10e-4,-0.008 0.004,-0.008"
           style="fill:#c32600;fill-opacity:1;fill-rule:nonzero;stroke:none"
           id="path32559"
           inkscape:connector-curvature="0" /><path
           d="m 498.207,151.385 0.604,-0.755 c 0.28,-0.323 0.58,-0.682 0.837,-0.931 0.236,-0.241 0.476,-0.472 0.719,-0.695 l 9.697,2.495 c -0.846,0.551 -1.636,1.143 -2.339,1.782 -0.614,0.562 -1.135,1.157 -1.565,1.767 l -89.414,35.345 c -0.879,-3.105 -1.434,-5.341 -1.519,-6.308 -1.815,-20.72 34.385,-20.554 58.319,-24.44 0.225,-1.649 0.456,-3.297 0.704,-4.963 -0.889,-0.286 -1.758,-0.58 -2.587,-0.903 -2.459,-0.939 -4.692,-2.228 -5.747,-4.061 -1.059,-1.805 -0.847,-3.426 -0.703,-4.374 0.179,-0.977 0.335,-1.483 0.335,-1.483 0,0 -0.036,0.534 0.01,1.501 0.046,0.93 0.266,2.431 1.409,3.601 1.091,1.187 3.07,1.823 5.465,2.173 0.727,0.11 1.509,0.203 2.316,0.276 0.472,-2.861 0.977,-5.723 1.578,-8.596 l 21.677,5.579 c 0.065,0.998 0.134,1.995 0.204,2.99"
           style="fill:#9bc365;fill-opacity:1;fill-rule:nonzero;stroke:none"
           id="path32561"
           inkscape:connector-curvature="0" /><path
           d="m 447.85,181.479 c -6.599,6.943 7.789,22.101 12.357,34.247 0.147,0.396 0.231,0.737 0.35,1.096 2.219,-1.115 4.328,-2.238 6.318,-3.352 0.682,-3.859 1.404,-8.519 2.154,-13.721 0.336,-2.431 0.691,-4.964 1.059,-7.588 0.027,-0.415 0.064,-0.82 0.101,-1.234 0.489,-5.544 1.022,-11.29 1.639,-17.128 -8.969,2.588 -21.658,5.23 -23.978,7.68 m 58.203,-26.282 c -0.133,0.165 -0.17,0.285 -0.248,0.406 l -0.378,0.671 c -0.032,0.148 -0.171,0.543 -0.268,0.893 0.862,-0.248 1.709,-0.46 2.532,-0.626 1.917,-0.333 3.757,-0.508 5.538,-0.581 l 0.165,6.766 c -1.34,0.258 -2.648,0.581 -3.897,0.989 -0.309,0.101 -0.595,0.23 -0.889,0.349 0.589,0.093 1.169,0.204 1.75,0.324 1.066,0.229 2.095,0.493 3.095,0.777 l 0.156,6.351 c -3.578,-0.269 -9.642,-0.049 -13.699,0.349 0.972,10.48 1.883,20.278 2.676,28.749 0.022,0.258 0.045,0.497 0.064,0.755 2.977,4.901 7.032,11.12 12.132,17.942 l 1.141,46.466 -88.045,-39.507 c -4.138,-13.106 -8.786,-27.589 -11.132,-35.877 l 89.414,-35.345 c -0.035,0.05 -0.074,0.099 -0.107,0.149"
           style="fill:#c8c22c;fill-opacity:1;fill-rule:nonzero;stroke:none"
           id="path32563"
           inkscape:connector-curvature="0" /><path
           d="m 240.97,229.88 c -0.953,-1.566 -1.671,-2.864 -2.298,-3.609 -0.589,-0.812 -0.893,-1.226 -0.893,-1.226 0,0 0.447,0.258 1.304,0.765 0.897,0.488 2.131,1.326 3.687,2.579 1.625,1.371 3.543,3.314 5.532,5.847 l -5.209,0.352 c -0.67,-1.852 -1.385,-3.434 -2.123,-4.708"
           style="fill:#0097de;fill-opacity:1;fill-rule:nonzero;stroke:none"
           id="path32565"
           inkscape:connector-curvature="0" /><path
           d="m 297.894,226.096 c -0.88,-1.53 -1.547,-2.791 -2.146,-3.519 -0.553,-0.782 -0.838,-1.187 -0.838,-1.187 0,0 0.424,0.239 1.261,0.717 0.871,0.47 2.082,1.262 3.578,2.497 0.609,0.509 1.26,1.114 1.934,1.804 l -3.19,0.876 c -0.195,-0.421 -0.394,-0.819 -0.599,-1.188"
           style="fill:#0097e2;fill-opacity:1;fill-rule:nonzero;stroke:none"
           id="path32567"
           inkscape:connector-curvature="0" /><path
           d="m 516.306,155.924 5.115,5.868 c -2.664,0.169 -5.406,0.428 -8.027,0.934 l -0.165,-6.766 c 1.044,-0.044 2.07,-0.053 3.077,-0.036"
           style="fill:#ce5d00;fill-opacity:1;fill-rule:nonzero;stroke:none"
           id="path32569"
           inkscape:connector-curvature="0" /><path
           d="m 514.782,219.311 c 7.485,10.007 17.224,21.311 29.132,31.656 l -27.991,14.81 z"
           style="fill:#ce5d00;fill-opacity:1;fill-rule:nonzero;stroke:none"
           id="path32571"
           inkscape:connector-curvature="0" /><path
           d="m 517.071,166.303 c 4.208,1.445 7.993,3.066 11.455,4.549 0.429,0.184 0.852,0.368 1.271,0.549 l 4.156,4.769 c -2.092,-0.542 -4.311,-1.145 -6.651,-1.755 -3.628,-0.948 -7.924,-1.97 -12.031,-2.707 -0.457,-0.081 -1.019,-0.145 -1.662,-0.192 l -0.156,-6.351 c 1.248,0.354 2.451,0.739 3.618,1.138"
           style="fill:#ce5d00;fill-opacity:1;fill-rule:nonzero;stroke:none"
           id="path32573"
           inkscape:connector-curvature="0" /><path
           d="m 79.227,592.126 c -1.247,-6.628 -2.232,-13.011 -3.089,-19.11 -1.003,-6.961 -1.837,-13.546 -2.601,-19.744 -0.834,-6.169 -1.579,-11.943 -2.491,-17.22 -0.419,-2.427 -0.866,-4.754 -1.355,-6.964 l 10.037,28.065 z"
           style="fill:#ac768a;fill-opacity:1;fill-rule:nonzero;stroke:none"
           id="path32575"
           inkscape:connector-curvature="0" /><path
           d="m 62.919,511.668 c -3.744,-5.351 -9.794,-6.916 -13.993,-7.137 -0.422,-0.019 -0.825,-0.033 -1.21,-0.043 l -0.261,-2.451 c 0.332,-0.131 0.679,-0.262 1.048,-0.389 2.182,-0.727 5.027,-1.538 8.711,-1.529 0.693,-0.002 1.416,0.041 2.163,0.127 l 4.672,13.065 c -0.362,-0.581 -0.737,-1.129 -1.13,-1.643"
           style="fill:#ac768a;fill-opacity:1;fill-rule:nonzero;stroke:none"
           id="path32577"
           inkscape:connector-curvature="0" /><path
           d="m 502.669,290.852 c 0,0 0.419,-0.018 1.214,-0.049 L 467.186,367.08 358.224,327.395 515.923,265.777 504.09,290.373 c -0.928,0.312 -1.421,0.479 -1.421,0.479"
           style="fill:#d4e20a;fill-opacity:1;fill-rule:nonzero;stroke:none"
           id="path32579"
           inkscape:connector-curvature="0" /><path
           d="m 175.546,262.967 c -1.804,-2.532 -3.932,-4.338 -6.206,-5.451 -2.284,-1.096 -4.6,-1.502 -6.502,-1.621 -1.92,-0.12 -3.453,-0.055 -4.484,0.027 -1.032,0.101 -1.566,0.157 -1.566,0.157 0,0 0.475,-0.258 1.4,-0.746 0.939,-0.452 2.348,-1.206 4.379,-1.777 2.012,-0.58 4.668,-1.105 7.983,-0.792 3.283,0.295 7.198,1.648 10.706,4.291 1.884,1.383 3.658,3.058 5.317,4.948 l -6.15,12.3 c -1.235,-4.565 -2.82,-8.43 -4.877,-11.336"
           style="fill:#008ad9;fill-opacity:1;fill-rule:nonzero;stroke:none"
           id="path32581"
           inkscape:connector-curvature="0" /><path
           d="m 337.984,302.301 c 2.45,-5.416 4.812,-10.587 6.994,-15.52 4.07,-9.246 7.597,-17.654 10.028,-25.177 1.225,-3.749 2.16,-7.284 2.846,-10.572 0.631,-3.278 0.939,-6.299 1.003,-9.052 0.056,-2.762 -0.321,-5.166 -0.754,-7.339 -0.553,-2.09 -1.198,-3.914 -1.916,-5.323 -0.369,-0.718 -0.7,-1.344 -0.98,-1.879 -0.341,-0.524 -0.631,-0.958 -0.862,-1.307 -0.474,-0.718 -0.722,-1.087 -0.722,-1.087 0,0 0.391,0.212 1.146,0.617 0.792,0.387 1.925,1.023 3.288,2.1 2.748,2.053 6.51,6.068 9.047,12.45 1.94,4.681 3.183,10.437 3.717,16.809 l -12.595,70.374 z"
           style="fill:#2ae0e0;fill-opacity:1;fill-rule:nonzero;stroke:none"
           id="path32583"
           inkscape:connector-curvature="0" /><path
           d="m 301.55,240.553 c -0.479,-5.585 -1.61,-10.131 -3.057,-13.269 l 3.19,-0.876 c 2.576,2.639 5.508,6.602 7.924,11.981 3.039,6.731 5.337,15.443 6.667,25.342 0.606,4.236 1.051,8.697 1.367,13.347 l -16.549,-20.517 c 0.625,-6.022 0.781,-11.382 0.458,-16.008"
           style="fill:#2ae0e0;fill-opacity:1;fill-rule:nonzero;stroke:none"
           id="path32585"
           inkscape:connector-curvature="0" /><path
           d="m 358.224,327.395 12.595,-70.374 c 0.186,2.215 0.288,4.503 0.303,6.848 0.129,9.135 -0.926,19.173 -2.625,29.773 -0.626,3.913 -1.363,7.937 -2.145,11.998 14.572,-25.498 31.116,-57.499 62.941,-74.876 -0.462,-1.472 -0.936,-2.974 -1.415,-4.494 l 88.045,39.507 z"
           style="fill:#8ddf37;fill-opacity:1;fill-rule:nonzero;stroke:none"
           id="path32587"
           inkscape:connector-curvature="0" /><path
           d="m 639.455,373.38 c -1.653,-6.014 -3.799,-12.267 -6.602,-18.5 -2.694,-6.29 -6.162,-12.488 -10.046,-18.566 -0.028,-0.043 -0.055,-0.085 -0.082,-0.127 l 17.783,-16.59 c 15.61,17.783 26.767,39.048 28.14,63.151 l -27.072,-0.812 c -0.563,-2.792 -1.246,-5.657 -2.121,-8.556"
           style="fill:#df2200;fill-opacity:1;fill-rule:nonzero;stroke:none"
           id="path32589"
           inkscape:connector-curvature="0" /><path
           d="m 622.898,359.714 c 2.938,5.608 5.618,11.17 7.727,16.631 0.746,1.786 1.393,3.566 2.009,5.322 l -56.835,-1.706 37.946,-35.398 c 3.351,4.981 6.504,10.012 9.153,15.151"
           style="fill:#df2200;fill-opacity:1;fill-rule:nonzero;stroke:none"
           id="path32591"
           inkscape:connector-curvature="0" /><path
           d="m 182.679,285.74 c -0.587,-4.138 -1.322,-7.987 -2.256,-11.437 l 6.15,-12.3 c 1.458,1.661 2.828,3.487 4.104,5.431 2.753,4.152 5.129,8.867 7.265,13.96 0.629,1.462 1.233,2.963 1.818,4.492 l -15.95,10.54 c -0.3,-3.744 -0.667,-7.316 -1.131,-10.686"
           style="fill:#009be2;fill-opacity:1;fill-rule:nonzero;stroke:none"
           id="path32593"
           inkscape:connector-curvature="0" /><path
           d="m 245.735,244.844 c -0.711,-3.99 -1.622,-7.438 -2.642,-10.256 l 5.209,-0.352 c 1.709,2.177 3.469,4.787 5.141,7.864 1.043,1.938 2.059,4.046 3.04,6.302 l -9.632,6.366 c -0.267,-3.6 -0.635,-6.916 -1.116,-9.924"
           style="fill:#009be2;fill-opacity:1;fill-rule:nonzero;stroke:none"
           id="path32595"
           inkscape:connector-curvature="0" /><path
           d="m 242.461,340.394 c 0.42,-6.953 0.981,-13.684 1.497,-20.167 0.516,-6.446 1.004,-12.68 1.483,-18.666 0.396,-5.94 0.783,-11.631 1.151,-17.037 0.285,-5.386 0.497,-10.488 0.58,-15.258 0.037,-4.752 -0.027,-9.2 -0.235,-13.288 -0.027,-0.408 -0.056,-0.81 -0.086,-1.21 l 9.632,-6.366 c 2.379,5.469 4.548,11.821 6.367,18.856 1.349,4.982 2.509,10.286 3.554,15.886 1.096,5.588 2.059,11.483 2.897,17.597 0.893,6.114 1.685,12.469 2.385,19.017 0.746,6.547 1.473,13.287 2.099,20.167 0.876,8.675 1.7,17.597 2.617,26.652 l -34.531,-16.904 c 0.181,-3.135 0.378,-6.23 0.59,-9.279"
           style="fill:#00afec;fill-opacity:1;fill-rule:nonzero;stroke:none"
           id="path32597"
           inkscape:connector-curvature="0" /><path
           d="m 278.774,367.738 c 0.852,-5.679 1.859,-11.218 2.857,-16.625 1.271,-7.045 2.712,-13.85 4.162,-20.416 1.414,-6.575 2.846,-12.91 4.301,-19.007 1.362,-5.893 2.679,-11.594 3.945,-17.08 l 18.233,89.528 z"
           style="fill:#00afec;fill-opacity:1;fill-rule:nonzero;stroke:none"
           id="path32599"
           inkscape:connector-curvature="0" /><path
           d="m 184.935,319.122 c -0.246,-8.101 -0.566,-15.706 -1.125,-22.696 l 15.95,-10.54 c 1.445,3.771 2.769,7.728 4.021,11.843 1.804,5.775 3.402,11.862 4.908,18.207 1.536,6.279 2.944,12.831 4.27,19.583 l -27.974,-13.696 c -0.016,-0.905 -0.033,-1.806 -0.05,-2.701"
           style="fill:#00afec;fill-opacity:1;fill-rule:nonzero;stroke:none"
           id="path32601"
           inkscape:connector-curvature="0" /><path
           d="m 585.57,314.131 c 5.107,4.089 10.144,8.472 14.615,13.435 4.536,4.899 8.812,10.075 12.565,15.526 0.334,0.49 0.664,0.98 0.995,1.471 l -37.946,35.398 2.816,-70.881 c 2.364,1.568 4.693,3.245 6.955,5.051"
           style="fill:#dc2b00;fill-opacity:1;fill-rule:nonzero;stroke:none"
           id="path32603"
           inkscape:connector-curvature="0" /><path
           d="m 609.334,319.029 c -4.982,-5.424 -10.591,-10.295 -16.457,-14.604 -4.371,-3.283 -9.03,-6.073 -13.74,-8.487 l 0.854,-21.51 c 20.825,10.283 43.359,25.622 60.517,45.169 l -17.783,16.59 c -3.839,-6.058 -8.471,-11.744 -13.391,-17.158"
           style="fill:#dc2b00;fill-opacity:1;fill-rule:nonzero;stroke:none"
           id="path32605"
           inkscape:connector-curvature="0" /><path
           d="m 529.949,291.274 c 1.16,0.129 2.354,0.258 3.569,0.406 1.197,0.203 2.431,0.414 3.693,0.635 5.032,0.81 10.322,2.339 15.82,4.015 5.41,1.989 11.041,4.218 16.493,7.284 3.05,1.672 6.099,3.482 9.091,5.466 l -2.816,70.881 -46.553,-88.777 c 0.233,0.03 0.467,0.059 0.703,0.09"
           style="fill:#df5e00;fill-opacity:1;fill-rule:nonzero;stroke:none"
           id="path32607"
           inkscape:connector-curvature="0" /><path
           d="m 574.432,293.65 c -6.266,-3.011 -12.782,-4.789 -18.896,-6.326 -6.198,-1.307 -12.118,-2.099 -17.593,-2.164 -2.73,-0.111 -5.338,-0.156 -7.818,0.065 -1.328,0.074 -2.616,0.157 -3.861,0.271 l -10.341,-19.719 27.991,-14.81 c 9.657,8.387 20.737,16.144 33.197,22.065 0.956,0.454 1.916,0.92 2.88,1.396 l -0.854,21.51 c -1.566,-0.803 -3.137,-1.564 -4.705,-2.288"
           style="fill:#df5e00;fill-opacity:1;fill-rule:nonzero;stroke:none"
           id="path32609"
           inkscape:connector-curvature="0" /><path
           d="M 312.272,384.138 294.039,294.61 c 0.035,-0.154 0.071,-0.309 0.107,-0.463 2.514,-11.188 4.687,-21.373 6.022,-30.37 0.378,-2.502 0.685,-4.906 0.924,-7.216 l 16.549,20.517 c 0.424,6.238 0.614,12.818 0.641,19.666 0.074,5.986 -0.064,12.165 -0.249,18.52 -0.147,6.363 -0.423,12.882 -0.737,19.531 -0.294,6.612 -0.598,13.39 -0.901,20.333 -0.019,0.396 -0.029,0.801 -0.047,1.197 0.364,-1.151 0.728,-2.311 1.096,-3.453 2.118,-6.492 4.461,-12.689 6.824,-18.639 2.33,-5.967 4.724,-11.686 7.155,-17.156 2.212,-5.12 4.42,-10.042 6.561,-14.776 l 20.24,25.094 z"
           style="fill:#09c7ef;fill-opacity:1;fill-rule:nonzero;stroke:none"
           id="path32611"
           inkscape:connector-curvature="0" /><path
           d="m 115.865,314.011 c -2.413,-1.198 -4.876,-1.639 -6.898,-1.786 -2.04,-0.139 -3.674,-0.046 -4.77,0.027 -1.096,0.11 -1.667,0.166 -1.667,0.166 0,0 0.507,-0.268 1.492,-0.792 1.004,-0.47 2.5,-1.28 4.664,-1.879 2.141,-0.599 4.987,-1.151 8.514,-0.782 3.51,0.303 7.616,1.829 11.316,4.624 l -11.598,0.999 c -0.348,-0.207 -0.699,-0.401 -1.053,-0.577"
           style="fill:#0074d4;fill-opacity:1;fill-rule:nonzero;stroke:none"
           id="path32613"
           inkscape:connector-curvature="0" /><path
           d="m 523.14,285.879 c -4.374,0.45 -8.085,1.39 -11.124,2.09 -3.044,0.672 -5.342,1.621 -6.935,2.071 -0.372,0.125 -0.702,0.236 -0.991,0.333 l 11.833,-24.596 10.341,19.719 c -1.074,0.099 -2.117,0.221 -3.124,0.383"
           style="fill:#e88100;fill-opacity:1;fill-rule:nonzero;stroke:none"
           id="path32615"
           inkscape:connector-curvature="0" /><path
           d="m 512.352,290.437 c 3.066,-0.019 6.753,-0.056 10.959,0.23 1.881,0.033 3.865,0.252 5.935,0.517 l 46.553,88.777 -108.613,-12.881 36.697,-76.277 c 0.367,-0.016 0.816,-0.032 1.341,-0.053 1.662,-0.056 4.065,-0.286 7.128,-0.313"
           style="fill:#e88100;fill-opacity:1;fill-rule:nonzero;stroke:none"
           id="path32617"
           inkscape:connector-curvature="0" /><path
           d="M 387.466,419.646 358.224,327.395 467.186,367.08 Z"
           style="fill:#cef02c;fill-opacity:1;fill-rule:nonzero;stroke:none"
           id="path32619"
           inkscape:connector-curvature="0" /><path
           d="m 193.936,456.332 c -1.602,-8.656 -2.882,-17.193 -3.955,-25.582 -0.99,-8.407 -1.713,-16.668 -2.339,-24.744 -1.142,-16.18 -1.699,-31.659 -1.956,-46.228 -0.249,-13.395 -0.481,-26.122 -0.701,-37.955 l 27.974,13.696 c 0.01,0.05 0.02,0.1 0.03,0.151 1.377,6.805 2.717,13.812 3.96,20.996 2.505,14.19 5.148,29.164 7.883,44.644 1.354,7.653 2.854,15.351 4.484,23.041 1.155,5.717 2.401,11.436 3.776,17.109 l -36.691,26.562 c -0.92,-3.911 -1.75,-7.807 -2.465,-11.69"
           style="fill:#00b0ed;fill-opacity:1;fill-rule:nonzero;stroke:none"
           id="path32621"
           inkscape:connector-curvature="0" /><path
           d="m 244,433.563 c -1.195,-8.452 -1.995,-16.756 -2.546,-24.886 -0.443,-8.159 -0.627,-16.143 -0.673,-23.934 0.029,-12.183 0.447,-23.892 1.09,-35.07 l 34.531,16.904 c 0.352,3.47 0.716,6.956 1.103,10.458 0.176,-1.381 0.35,-2.763 0.544,-4.125 0.224,-1.737 0.468,-3.461 0.725,-5.172 l 33.498,16.4 z"
           style="fill:#00b0ed;fill-opacity:1;fill-rule:nonzero;stroke:none"
           id="path32623"
           inkscape:connector-curvature="0" /><path
           d="m 73.808,401.19 c -4.143,-0.166 -6.492,0.185 -6.492,0.185 0,0 0.502,-0.295 1.474,-0.848 1.003,-0.515 2.481,-1.344 4.613,-2.062 2.114,-0.719 4.881,-1.465 8.421,-1.511 1.93,-0.056 4.099,0.226 6.351,0.882 l -5.04,5.931 c -3.206,-1.823 -6.664,-2.469 -9.327,-2.577"
           style="fill:#0069d5;fill-opacity:1;fill-rule:nonzero;stroke:none"
           id="path32625"
           inkscape:connector-curvature="0" /><path
           d="m 130.534,344.133 c -1.713,-10.259 -4.19,-18.814 -8.057,-24.283 -1.642,-2.326 -3.541,-4.059 -5.559,-5.262 l 11.598,-0.999 c 0.004,0.003 0.007,0.005 0.01,0.008 5.988,4.444 10.798,11.275 14.917,19.2 l -12.4,14.592 c -0.163,-1.103 -0.332,-2.192 -0.509,-3.256"
           style="fill:#0069d5;fill-opacity:1;fill-rule:nonzero;stroke:none"
           id="path32627"
           inkscape:connector-curvature="0" /><path
           d="m 96.729,431.118 c -1.906,-10.129 -4.642,-18.381 -8.804,-23.298 -1.416,-1.757 -3.067,-3.074 -4.79,-4.053 l 5.04,-5.931 c 1.859,0.541 3.773,1.336 5.658,2.415 4.19,2.376 7.96,6.068 11.317,10.323 3.297,4.31 6.212,9.209 8.864,14.522 5.257,10.636 9.641,22.819 13.85,35.924 0.407,1.258 0.811,2.53 1.216,3.806 l -28.408,-4.183 c -1.16,-10.968 -2.28,-20.93 -3.943,-29.525"
           style="fill:#0080dd;fill-opacity:1;fill-rule:nonzero;stroke:none"
           id="path32629"
           inkscape:connector-curvature="0" /><path
           d="m 137.662,423.272 c -1.474,-15.599 -2.404,-30.195 -3.398,-43.51 -0.884,-11.929 -1.806,-22.832 -3.221,-32.373 l 12.4,-14.592 c 1.069,2.058 2.093,4.188 3.077,6.372 4.793,10.673 8.735,22.93 12.501,36.182 7.505,26.503 13.906,57.305 22.949,88.45 0.922,3.075 1.86,6.154 2.823,9.23 l -41.463,-6.106 c -2.671,-15.188 -4.345,-29.822 -5.668,-43.653"
           style="fill:#0080dd;fill-opacity:1;fill-rule:nonzero;stroke:none"
           id="path32631"
           inkscape:connector-curvature="0" /><path
           d="m 198.275,475.546 c -0.662,-2.515 -1.286,-5.022 -1.874,-7.524 l 36.691,-26.562 c 0.478,1.974 0.971,3.942 1.482,5.903 1.989,7.597 4.02,15.139 6.502,22.423 1.425,4.136 2.922,8.208 4.513,12.177 l -1.897,2.781 z"
           style="fill:#49ebcf;fill-opacity:1;fill-rule:nonzero;stroke:none"
           id="path32633"
           inkscape:connector-curvature="0" /><path
           d="m 252.913,471.219 c -1.376,-3.985 -2.579,-7.979 -3.632,-11.958 -2.288,-8.648 -4.112,-17.202 -5.277,-25.665 L 244,433.563 312.272,384.138 Z"
           style="fill:#49ebcf;fill-opacity:1;fill-rule:nonzero;stroke:none"
           id="path32635"
           inkscape:connector-curvature="0" /><path
           d="M 575.799,379.961 487.725,424.52 467.186,367.08 Z"
           style="fill:#f38800;fill-opacity:1;fill-rule:nonzero;stroke:none"
           id="path32637"
           inkscape:connector-curvature="0" /><path
           d="m 312.272,384.138 45.952,-56.743 29.242,92.251 z"
           style="fill:#8df395;fill-opacity:1;fill-rule:nonzero;stroke:none"
           id="path32639"
           inkscape:connector-curvature="0" /><path
           d="m 90.383,632.851 c -1.822,-4.747 -3.395,-9.449 -4.779,-14.049 -2.744,-9.242 -4.776,-18.162 -6.377,-26.676 l 0.501,-34.973 z"
           style="fill:#b1311d;fill-opacity:1;fill-rule:nonzero;stroke:none"
           id="path32641"
           inkscape:connector-curvature="0" /><path
           d="m 640.449,411.029 c 0.364,2.001 0.677,3.837 0.875,5.485 0.471,3.01 0.7,5.461 0.885,7.109 0.202,1.648 0.304,2.532 0.304,2.532 0,0 0.147,-0.884 0.409,-2.523 0.217,-1.649 0.715,-4.025 0.881,-7.155 0.188,-1.944 0.316,-4.152 0.375,-6.597 l 23.373,-7.206 c -0.514,3.097 -1.192,6.234 -2.043,9.41 1.559,-1.86 3.162,-3.628 4.773,-5.295 2.942,-2.914 5.865,-5.558 8.882,-7.696 l 21.942,-6.766 c -0.824,0.573 -1.812,1.321 -2.92,2.242 -0.806,0.608 -1.664,1.308 -2.501,2.202 -0.848,0.883 -1.832,1.647 -2.717,2.734 -0.903,1.041 -1.92,2.008 -2.826,3.26 -0.95,1.188 -1.963,2.385 -2.887,3.785 -1.977,2.634 -3.864,5.727 -5.844,8.96 -1.933,3.297 -3.895,6.814 -5.843,10.562 -1.993,3.702 -3.881,7.69 -5.926,11.667 -1.431,2.929 -2.881,5.904 -4.328,8.868 0.451,-0.432 0.908,-0.865 1.373,-1.27 1.39,-1.096 2.818,-2.108 4.199,-3.058 2.652,-2.025 5.719,-3.232 8.334,-4.429 1.307,-0.617 2.642,-1.032 3.951,-1.307 1.307,-0.305 2.504,-0.608 3.646,-0.82 2.214,-0.589 4.319,-0.46 5.957,-0.47 1.64,-0.036 2.938,0.12 3.786,0.157 0.865,0.065 1.317,0.129 1.317,0.129 0,0 -0.359,0.313 -1.032,0.911 -0.681,0.534 -1.629,1.428 -2.854,2.33 -1.207,0.949 -2.676,1.99 -4.107,3.518 -0.729,0.69 -1.502,1.428 -2.32,2.201 -0.402,0.359 -0.811,0.736 -1.235,1.114 -0.405,0.414 -0.765,0.903 -1.156,1.354 -1.086,1.324 -2.303,2.539 -3.438,3.944 L 559.438,436.008 Z"
           style="fill:#ef3500;fill-opacity:1;fill-rule:nonzero;stroke:none"
           id="path32643"
           inkscape:connector-curvature="0" /><path
           d="m 679.693,398.723 c 3.127,-2.266 6.298,-3.989 9.2,-5.222 1.408,-0.663 2.849,-1.105 4.148,-1.492 1.28,-0.424 2.504,-0.672 3.614,-0.857 2.151,-0.506 3.937,-0.451 5.097,-0.487 1.16,0.009 1.773,0.009 1.773,0.009 0,0 -0.506,0.359 -1.468,1.021 -0.284,0.178 -0.604,0.391 -0.952,0.632 l -21.942,6.766 c 0.177,-0.125 0.353,-0.249 0.53,-0.37"
           style="fill:#f43800;fill-opacity:1;fill-rule:nonzero;stroke:none"
           id="path32645"
           inkscape:connector-curvature="0" /><path
           d="m 644.207,405.178 c -0.092,-2.183 -0.193,-4.513 -0.305,-6.962 -0.23,-2.449 -0.478,-5.028 -0.855,-7.708 -0.412,-2.746 -0.875,-5.619 -1.471,-8.572 l 27.072,0.812 c 0.367,6.443 0.036,13.089 -1.097,19.926 l -23.373,7.206 c 0.036,-1.483 0.047,-3.052 0.029,-4.702"
           style="fill:#f43800;fill-opacity:1;fill-rule:nonzero;stroke:none"
           id="path32647"
           inkscape:connector-curvature="0" /><path
           d="m 632.634,381.667 c 0.318,0.907 0.63,1.808 0.942,2.698 0.998,2.588 1.671,5.176 2.473,7.635 1.394,4.954 2.531,9.559 3.416,13.693 0.341,1.888 0.68,3.669 0.984,5.336 l -81.011,24.979 16.361,-56.047 z"
           style="fill:#f43800;fill-opacity:1;fill-rule:nonzero;stroke:none"
           id="path32649"
           inkscape:connector-curvature="0" /><path
           d="M 559.438,436.008 487.725,424.52 575.799,379.961 Z"
           style="fill:#f77700;fill-opacity:1;fill-rule:nonzero;stroke:none"
           id="path32651"
           inkscape:connector-curvature="0" /><path
           d="m 467.186,367.08 20.539,57.44 -100.259,-4.874 z"
           style="fill:#f2d000;fill-opacity:1;fill-rule:nonzero;stroke:none"
           id="path32653"
           inkscape:connector-curvature="0" /><path
           d="m 559.438,436.008 122.296,14.903 c -0.467,0.577 -0.921,1.186 -1.345,1.848 -0.756,1.087 -1.631,2.072 -2.405,3.196 -0.699,1.225 -1.509,2.375 -2.273,3.572 -1.604,2.33 -2.957,5.084 -4.559,7.671 -1.418,2.79 -3.058,5.47 -4.49,8.436 -0.367,0.644 -0.726,1.298 -1.082,1.97 1.769,-1.621 3.573,-3.02 5.447,-4.061 1.23,-0.746 2.446,-1.354 3.661,-1.814 1.188,-0.515 2.321,-0.92 3.435,-1.169 2.141,-0.673 4.117,-0.765 5.654,-0.949 1.547,-0.148 2.809,0.028 3.619,0.028 0.825,0.055 1.262,0.091 1.262,0.091 0,0 -1.469,1.096 -3.812,2.809 -1.133,0.94 -2.506,1.981 -3.86,3.344 -0.709,0.635 -1.422,1.325 -2.081,2.136 -0.709,0.746 -1.409,1.538 -2.026,2.459 -1.367,1.685 -2.494,3.738 -3.618,5.838 -1.013,2.228 -2.022,4.521 -2.809,7.127 -0.811,2.578 -1.52,5.323 -2.165,8.233 -0.417,1.935 -0.833,3.938 -1.223,5.983 l -68.985,47.406 z"
           style="fill:#fb6100;fill-opacity:1;fill-rule:nonzero;stroke:none"
           id="path32655"
           inkscape:connector-curvature="0" /><path
           d="m 352.306,526.867 -40.034,-142.729 75.194,35.508 z"
           style="fill:#c2f848;fill-opacity:1;fill-rule:nonzero;stroke:none"
           id="path32657"
           inkscape:connector-curvature="0" /><path
           d="m 245.589,481.963 c 0.565,1.41 1.141,2.808 1.733,4.189 l -3.63,-1.408 z"
           style="fill:#a3f59d;fill-opacity:1;fill-rule:nonzero;stroke:none"
           id="path32659"
           inkscape:connector-curvature="0" /><path
           d="m 352.306,526.867 -90.513,-35.102 c -1.154,-2.192 -2.245,-4.398 -3.275,-6.61 -2.14,-4.606 -3.992,-9.265 -5.605,-13.936 l 59.359,-87.081 z"
           style="fill:#a3f59d;fill-opacity:1;fill-rule:nonzero;stroke:none"
           id="path32661"
           inkscape:connector-curvature="0" /><path
           d="m 667.064,507.659 c -0.195,1.02 -0.384,2.046 -0.562,3.087 -0.609,3.178 -1.226,6.355 -1.824,9.477 -0.276,1.426 -0.585,2.845 -0.903,4.254 -6.105,-0.166 -11.695,5.341 -15.847,13.426 -2.926,5.703 -5.134,12.684 -6.298,19.858 l -43.551,-2.696 z"
           style="fill:#f55a00;fill-opacity:1;fill-rule:nonzero;stroke:none"
           id="path32663"
           inkscape:connector-curvature="0" /><path
           d="m 675.613,533.677 c 2.436,2.698 4.306,5.258 5.733,7.725 4.029,6.941 4.359,13.073 2.501,18.971 l -39.71,-2.457 c 4.509,-21.287 17.967,-39.209 31.476,-24.239"
           style="fill:#f55a00;fill-opacity:1;fill-rule:nonzero;stroke:none"
           id="path32665"
           inkscape:connector-curvature="0" /><path
           d="m 69.691,529.088 c -1.42,-6.425 -3.194,-11.849 -5.642,-15.777 l -4.672,-13.065 c 3.183,0.37 6.781,1.563 10.167,3.741 4.172,2.699 7.911,6.613 11.12,11.097 3.172,4.512 6.073,9.549 8.615,14.991 2.248,4.696 4.374,9.661 6.402,14.847 l -15.953,12.231 z"
           style="fill:#30a2c4;fill-opacity:1;fill-rule:nonzero;stroke:none"
           id="path32667"
           inkscape:connector-curvature="0" /><path
           d="m 150.443,499.106 c -2.467,-8.905 -4.456,-17.708 -6.046,-26.355 -0.373,-1.951 -0.727,-3.893 -1.067,-5.826 l 41.463,6.106 c 0.299,0.956 0.601,1.912 0.905,2.867 l -34.375,26.359 c -0.299,-1.052 -0.593,-2.103 -0.88,-3.151"
           style="fill:#30a2c4;fill-opacity:1;fill-rule:nonzero;stroke:none"
           id="path32669"
           inkscape:connector-curvature="0" /><path
           d="m 106.729,510.498 c -2.532,-15.747 -4.023,-30.481 -5.424,-43.852 -0.214,-2.034 -0.424,-4.033 -0.633,-6.003 l 28.408,4.183 c 3.8,11.996 7.531,24.721 11.588,37.78 0.658,2.087 1.326,4.183 2.003,6.285 l -31.679,24.29 c -1.721,-7.755 -3.103,-15.337 -4.263,-22.683"
           style="fill:#30a2c4;fill-opacity:1;fill-rule:nonzero;stroke:none"
           id="path32671"
           inkscape:connector-curvature="0" /><path
           d="m 510.569,556.983 c -0.893,-0.709 -1.721,-1.372 -2.467,-1.961 -1.557,-1.022 -2.883,-2.016 -3.877,-2.376 -1.013,-0.497 -1.556,-0.764 -1.556,-0.764 0,0 0.552,-0.203 1.676,-0.487 1.137,-0.342 2.822,-0.553 5.073,-0.572 0.318,0.014 0.652,0.032 0.994,0.056 l 1.282,7.136 c -0.387,-0.354 -0.764,-0.699 -1.125,-1.032"
           style="fill:#ffd100;fill-opacity:1;fill-rule:nonzero;stroke:none"
           id="path32673"
           inkscape:connector-curvature="0" /><path
           d="m 487.725,424.52 20.281,112.958 c -2.36,-2.23 -4.703,-4.39 -7.106,-6.325 -3.342,-2.864 -6.75,-5.286 -10.055,-7.56 -3.362,-2.118 -6.631,-4.079 -9.822,-5.544 -1.587,-0.755 -3.135,-1.528 -4.664,-2.053 -1.514,-0.58 -2.974,-1.217 -4.383,-1.594 -1.437,-0.432 -2.781,-0.847 -4.015,-1.224 -1.289,-0.295 -2.469,-0.572 -3.537,-0.82 -2.163,-0.506 -3.913,-0.69 -5.129,-0.92 -1.225,-0.231 -1.879,-0.351 -1.879,-0.351 0,0 0.609,-0.248 1.75,-0.727 1.16,-0.359 2.855,-1.28 5.139,-1.741 1.156,-0.258 2.431,-0.553 3.822,-0.875 1.418,-0.304 2.956,-0.358 4.622,-0.553 3.329,-0.266 7.165,-0.202 11.295,0.397 4.157,0.543 8.536,1.74 13.072,3.333 1.777,0.71 3.591,1.493 5.405,2.33 -0.681,-0.645 -1.344,-1.316 -2.035,-1.952 -3.334,-3.177 -6.865,-6.069 -10.433,-8.748 -3.555,-2.726 -7.252,-5.028 -10.89,-7.266 -3.725,-2.035 -7.39,-4.006 -11.059,-5.516 -1.829,-0.801 -3.624,-1.575 -5.415,-2.173 -1.783,-0.672 -3.513,-1.335 -5.226,-1.814 -2.984,-1.022 -5.82,-1.731 -8.44,-2.431 -0.327,0.432 -0.63,0.865 -0.971,1.289 -2.624,3.288 -5.935,6.658 -10.157,9.558 -0.838,0.581 -1.723,1.133 -2.634,1.667 -1.999,4.108 -4.351,8.307 -7.367,12.506 -2.441,3.416 -5.29,6.869 -8.74,10.166 -0.681,0.654 -1.413,1.299 -2.154,1.934 1.086,3.453 2.182,7.026 3.283,10.728 1.211,3.961 2.385,8.055 3.543,12.268 l -71.52,-16.6 z"
           style="fill:#ffd100;fill-opacity:1;fill-rule:nonzero;stroke:none"
           id="path32675"
           inkscape:connector-curvature="0" /><path
           d="M 487.725,424.52 352.306,526.867 387.466,419.646 Z"
           style="fill:#f9eb00;fill-opacity:1;fill-rule:nonzero;stroke:none"
           id="path32677"
           inkscape:connector-curvature="0" /><path
           d="m 559.438,436.008 -40.829,112.125 c -2.517,-2.699 -5.095,-5.284 -7.625,-7.836 -1,-0.945 -1.99,-1.888 -2.978,-2.819 L 487.725,424.52 Z"
           style="fill:#fd9d00;fill-opacity:1;fill-rule:nonzero;stroke:none"
           id="path32679"
           inkscape:connector-curvature="0" /><path
           d="m 513.295,559.47 c -0.556,-0.503 -1.088,-0.988 -1.601,-1.455 l -1.282,-7.136 c 0.828,0.056 1.721,0.14 2.672,0.258 1.262,0.207 2.658,0.496 4.12,0.855 l -3.038,8.344 c -0.294,-0.293 -0.585,-0.583 -0.871,-0.866"
           style="fill:#fd9d00;fill-opacity:1;fill-rule:nonzero;stroke:none"
           id="path32681"
           inkscape:connector-curvature="0" /><path
           d="m 598.079,555.065 -80.702,8.564 c -1.112,-1.178 -2.187,-2.27 -3.211,-3.293 l 3.038,-8.344 c 0.026,0.007 0.052,0.012 0.079,0.019 2.192,0.59 4.559,1.382 6.998,2.385 -1.127,-1.261 -2.256,-2.533 -3.402,-3.776 -0.748,-0.842 -1.506,-1.669 -2.27,-2.487 l 40.829,-112.125 z"
           style="fill:#ff9300;fill-opacity:1;fill-rule:nonzero;stroke:none"
           id="path32683"
           inkscape:connector-curvature="0" /><path
           d="m 297.514,532.725 c -0.956,-0.662 -1.903,-1.345 -2.852,-2.06 -8.003,-5.894 -15.241,-12.976 -21.273,-20.747 -4.481,-5.77 -8.301,-11.898 -11.596,-18.153 l 90.513,35.102 z"
           style="fill:#aff33d;fill-opacity:1;fill-rule:nonzero;stroke:none"
           id="path32685"
           inkscape:connector-curvature="0" /><path
           d="m 243.692,484.744 3.63,1.408 c 0.663,1.551 1.342,3.085 2.042,4.593 6.271,13.214 14.025,24.607 23.445,32.111 2.367,1.86 4.784,3.573 7.312,5.083 l 1.648,0.94 2.357,1.196 5.065,2.404 c 0.687,0.308 1.372,0.613 2.055,0.916 l -39.895,4.264 z"
           style="fill:#aff33d;fill-opacity:1;fill-rule:nonzero;stroke:none"
           id="path32687"
           inkscape:connector-curvature="0" /><path
           d="m 110.992,533.181 31.679,-24.29 c 4.003,12.419 8.389,25.041 13.634,37.328 1.459,3.384 2.984,6.74 4.579,10.052 l -43.634,0.475 c -2.504,-7.99 -4.549,-15.863 -6.258,-23.565"
           style="fill:#5dcf85;fill-opacity:1;fill-rule:nonzero;stroke:none"
           id="path32689"
           inkscape:connector-curvature="0" /><path
           d="m 95.681,544.922 c 0.315,0.805 0.627,1.614 0.937,2.43 1.231,3.123 2.432,6.322 3.628,9.579 l -20.518,0.222 z"
           style="fill:#5dcf85;fill-opacity:1;fill-rule:nonzero;stroke:none"
           id="path32691"
           inkscape:connector-curvature="0" /><path
           d="m 174.344,556.125 c -6.079,-9.781 -10.983,-19.951 -14.973,-30.064 -3.218,-7.931 -5.804,-15.913 -8.048,-23.804 l 34.375,-26.359 c 0.583,1.828 1.175,3.653 1.779,5.473 l -11.668,74.738 z"
           style="fill:#5dcf85;fill-opacity:1;fill-rule:nonzero;stroke:none"
           id="path32693"
           inkscape:connector-curvature="0" /><path
           d="m 251.351,537.659 -49.95,-51.06 c -0.419,-1.363 -0.823,-2.725 -1.212,-4.086 -0.666,-2.328 -1.303,-4.65 -1.914,-6.967 l 45.417,9.198 z"
           style="fill:#5cea70;fill-opacity:1;fill-rule:nonzero;stroke:none"
           id="path32695"
           inkscape:connector-curvature="0" /><path
           d="m 230.902,542.653 c -2.287,-2.628 -4.444,-5.332 -6.466,-8.084 -5.986,-8.214 -10.655,-16.943 -14.623,-25.673 -3.368,-7.389 -6.122,-14.843 -8.412,-22.297 l 49.95,51.06 z"
           style="fill:#68e25a;fill-opacity:1;fill-rule:nonzero;stroke:none"
           id="path32697"
           inkscape:connector-curvature="0" /><path
           d="m 187.477,481.371 c 0.626,1.887 1.265,3.769 1.919,5.645 2.708,7.671 5.755,15.203 9.006,22.533 3.27,7.33 7.05,14.31 11.106,20.895 3.263,5.296 6.823,10.286 10.703,14.821 l -44.402,10.844 z"
           style="fill:#68e25a;fill-opacity:1;fill-rule:nonzero;stroke:none"
           id="path32699"
           inkscape:connector-curvature="0" /><path
           d="m 352.306,526.867 71.52,16.6 c 0.79,2.879 1.573,5.811 2.355,8.802 3.812,14.707 7.243,30.757 9.342,47.655 0.467,4.039 0.85,8.127 1.123,12.249 l -51.269,32.359 z"
           style="fill:#ffce00;fill-opacity:1;fill-rule:nonzero;stroke:none"
           id="path32701"
           inkscape:connector-curvature="0" /><path
           d="m 385.377,644.532 -129.152,33.419 -0.192,-5.529 c 4.565,-1.014 9.069,-2.275 13.47,-3.828 7.482,-2.578 14.822,-5.609 21.811,-9.32 2.722,-1.483 5.396,-3.047 8.044,-4.65 -13.185,6.01 -27.826,10.395 -43.537,11.713 l -1.418,-40.813 c 10.222,-0.364 20.634,-2.454 30.663,-5.912 -10.436,-0.18 -20.901,-1.659 -31.015,-4.239 l -1.58,-45.477 0.466,0.219 2.762,1.152 2.661,0.994 c 7.092,2.652 14.228,4.587 21.264,5.893 6.216,1.133 12.349,1.474 18.367,1.382 -8.8,-2.008 -17.272,-4.715 -25.393,-8.003 -2.054,-0.838 -4.108,-1.685 -6.166,-2.542 l -3.218,-1.435 -3.822,-1.916 c -2.465,-1.3 -4.875,-2.717 -7.216,-4.24 l -0.825,-23.741 z"
           style="fill:#f0c500;fill-opacity:1;fill-rule:nonzero;stroke:none"
           id="path32703"
           inkscape:connector-curvature="0" /><path
           d="m 385.377,644.532 -134.026,-106.873 39.895,-4.264 c 6.029,2.668 11.91,5.084 17.634,6.92 1.602,0.507 3.186,0.968 4.756,1.401 l -0.29,-0.129 -2.657,-1.243 -1.339,-0.627 -1.769,-0.947 c -3.771,-1.993 -6.972,-3.904 -10.067,-6.045 l 54.792,-5.858 z"
           style="fill:#f6e000;fill-opacity:1;fill-rule:nonzero;stroke:none"
           id="path32705"
           inkscape:connector-curvature="0" /><path
           d="m 641.63,557.761 c -1.866,11.498 -1.05,23.49 3.802,31.509 -3.567,-8.698 -3.602,-20.466 -1.295,-31.354 l 39.71,2.457 c -2.628,8.346 -9.638,16.226 -16.765,25.269 2.205,0.537 4.589,1.106 7.039,1.671 l -16.132,13.411 c -1.199,-3.644 -2.104,-7.381 -2.192,-10.534 -0.222,1.971 -0.047,4.273 0.395,6.713 0.261,1.457 0.615,2.96 1.026,4.462 l -12.759,10.608 c -0.959,0.261 -1.749,0.928 -2.175,1.808 l -45.385,37.733 c -3.46,0.077 -6.998,-0.041 -10.483,-0.311 l 1.355,-11.171 c 6.087,-0.522 11.619,-1.378 15.567,-2.776 -0.419,-0.036 -0.833,-0.065 -1.262,-0.119 -4.41,-0.496 -9,-1.861 -13.507,-3.684 l 9.51,-78.388 z"
           style="fill:#fb6800;fill-opacity:1;fill-rule:nonzero;stroke:none"
           id="path32707"
           inkscape:connector-curvature="0" /><path
           d="m 252.176,561.4 c -2.119,-1.379 -4.182,-2.844 -6.169,-4.398 -5.578,-4.306 -10.601,-9.176 -15.105,-14.349 l 20.449,-4.994 z"
           style="fill:#b7df21;fill-opacity:1;fill-rule:nonzero;stroke:none"
           id="path32709"
           inkscape:connector-curvature="0" /><path
           d="m 254.926,666.411 c -2.021,0.158 -4.057,0.267 -6.105,0.322 l -32.941,-49.91 1.188,0.607 2.423,1.141 1.132,0.526 1.492,0.626 c 3.435,1.446 6.502,2.476 9.904,3.361 6.686,1.686 13.67,2.56 20.798,2.486 0.528,-0.009 1.057,-0.027 1.586,-0.046 l 1.418,40.813 c -0.298,0.025 -0.596,0.052 -0.895,0.074"
           style="fill:#b7df21;fill-opacity:1;fill-rule:nonzero;stroke:none"
           id="path32711"
           inkscape:connector-curvature="0" /><path
           d="m 252.996,673.059 c 1.015,-0.201 2.027,-0.413 3.037,-0.637 l 0.192,5.529 z"
           style="fill:#b7df21;fill-opacity:1;fill-rule:nonzero;stroke:none"
           id="path32713"
           inkscape:connector-curvature="0" /><path
           d="m 244.409,612.549 -3.619,-1.179 -3.453,-1.262 -4.02,-1.629 -3.688,-1.639 c -4.903,-2.247 -9.623,-4.954 -14.186,-7.901 -9.112,-5.903 -17.446,-12.994 -24.624,-20.867 -0.685,-0.757 -1.359,-1.521 -2.025,-2.288 l -12.985,-19.675 44.402,-10.844 c 0.944,1.103 1.907,2.181 2.89,3.228 4.972,5.405 10.327,10.204 16.22,14.108 2.934,1.989 6.009,3.702 9.131,5.341 l 2.371,1.179 1.648,0.775 1.58,45.477 c -3.255,-0.829 -6.473,-1.772 -9.642,-2.824"
           style="fill:#b7df21;fill-opacity:1;fill-rule:nonzero;stroke:none"
           id="path32715"
           inkscape:connector-curvature="0" /><path
           d="m 436.646,612.173 c 0.302,4.534 0.471,9.109 0.465,13.71 0.014,8.786 -0.81,17.736 -2.476,26.411 -1.528,7.843 -3.806,15.51 -6.987,22.477 l -31.693,-22.672 c -0.006,-1.237 -0.02,-2.483 -0.053,-3.746 -0.064,-3.067 -0.22,-6.244 -0.432,-9.485 -0.91,3.569 -1.875,7.167 -2.956,10.77 l -7.137,-5.106 z"
           style="fill:#feb200;fill-opacity:1;fill-rule:nonzero;stroke:none"
           id="path32717"
           inkscape:connector-curvature="0" /><path
           d="m 699.354,591.259 c 0.05,0.543 -0.157,1.169 -0.54,1.85 -4.231,7.551 -32.396,22.701 -34.191,23.059 0,0 -4.018,-7.498 -6.634,-15.444 l 16.132,-13.411 c 9.486,2.181 19.988,4.267 25.233,3.946"
           style="fill:#f35c00;fill-opacity:1;fill-rule:nonzero;stroke:none"
           id="path32719"
           inkscape:connector-curvature="0" /><path
           d="m 641.941,615.266 c 0,0.138 0.028,0.276 0.047,0.414 0.202,1.685 1.619,3.003 3.369,3.003 1.889,0 3.418,-1.53 3.418,-3.417 0,-0.452 -0.092,-0.884 -0.257,-1.28 -0.503,-1.253 -1.728,-2.136 -3.161,-2.136 -0.31,0 -0.611,0.045 -0.898,0.123 l 12.759,-10.608 c 0.941,3.448 2.189,6.895 3.352,9.793 1.75,4.374 3.307,7.525 3.307,7.525 0.819,-0.166 7.22,-3.509 14.357,-7.81 14.793,7.357 27.961,29.155 17.275,46.395 0,0 -7.827,-19.57 -19.37,-18.391 -5.073,0.516 5.216,21.158 4.836,33.236 l -6.918,-0.785 c -2.432,-7.222 -6.314,-15.484 -14.274,-13.785 0.672,4.105 0.885,8.242 0.752,12.25 l -13.744,-1.56 c -1.107,-1.541 -2.514,-2.48 -4.242,-2.753 -0.378,0.669 -0.791,1.383 -1.232,2.132 l -15.672,-1.779 c -0.268,-1.803 -1.03,-3.085 -2.461,-3.612 -1.466,0.872 -3.097,1.81 -4.838,2.783 l -16.971,-1.926 c 4.729,-5.411 7.473,-10.36 7.857,-12.855 -3.82,0.794 -8.016,1.194 -12.333,1.291 l 45.385,-37.733 c -0.218,0.449 -0.343,0.951 -0.343,1.485"
           style="fill:#f35c00;fill-opacity:1;fill-rule:nonzero;stroke:none"
           id="path32721"
           inkscape:connector-curvature="0" /><path
           d="m 118.429,560.418 c -0.405,-1.227 -0.796,-2.45 -1.179,-3.672 l 43.634,-0.475 c 2.05,4.255 4.223,8.432 6.539,12.492 l -26.061,39.32 c -10.471,-15.437 -17.716,-31.811 -22.933,-47.665"
           style="fill:#b3b97d;fill-opacity:1;fill-rule:nonzero;stroke:none"
           id="path32723"
           inkscape:connector-curvature="0" /><path
           d="m 175.052,557.251 c -0.237,-0.375 -0.474,-0.749 -0.708,-1.126 l 1.465,-0.016 z"
           style="fill:#b3b97d;fill-opacity:1;fill-rule:nonzero;stroke:none"
           id="path32725"
           inkscape:connector-curvature="0" /><path
           d="m 90.383,632.851 -10.655,-75.698 20.518,-0.222 c 1.117,3.042 2.23,6.135 3.358,9.27 4.728,12.957 9.636,26.678 15.788,40.04 3.073,6.676 6.462,13.257 10.264,19.503 l -24.271,36.62 c -6.406,-9.7 -11.236,-19.703 -15.002,-29.513"
           style="fill:#b3b97d;fill-opacity:1;fill-rule:nonzero;stroke:none"
           id="path32727"
           inkscape:connector-curvature="0" /><path
           d="m 165.426,635.433 c -7.998,-7.044 -15.052,-14.918 -21.134,-23.169 -1.005,-1.385 -1.979,-2.78 -2.93,-4.181 l 26.061,-39.32 c 2.896,5.075 6.018,9.961 9.411,14.573 l 2.353,62.495 c -4.808,-3.181 -9.417,-6.658 -13.761,-10.398"
           style="fill:#c2a626;fill-opacity:1;fill-rule:nonzero;stroke:none"
           id="path32729"
           inkscape:connector-curvature="0" /><path
           d="m 124.725,685.253 c -5.435,-4.996 -10.327,-10.41 -14.533,-16.07 -1.696,-2.251 -3.294,-4.527 -4.807,-6.819 l 24.271,-36.62 c 3.798,6.238 8.009,12.142 12.73,17.471 9.416,10.709 20.853,18.887 34.463,24.264 1.054,0.404 2.121,0.793 3.197,1.17 l 1.333,35.412 z"
           style="fill:#c2a626;fill-opacity:1;fill-rule:nonzero;stroke:none"
           id="path32731"
           inkscape:connector-curvature="0" /><path
           d="m 175.902,558.579 c -0.285,-0.441 -0.569,-0.884 -0.85,-1.328 l 0.757,-1.142 z"
           style="fill:#c2a626;fill-opacity:1;fill-rule:nonzero;stroke:none"
           id="path32733"
           inkscape:connector-curvature="0" /><path
           d="m 181.379,704.061 -1.333,-35.412 c 5.891,2.065 12.117,3.719 18.638,4.872 3.853,0.681 7.795,1.188 11.81,1.538 l 3.02,0.295 2.845,0.22 3.408,0.174 c 0.755,0.065 1.929,0.028 2.873,0.047 8.016,0.276 15.959,-0.479 23.805,-1.603 2.192,-0.326 4.377,-0.704 6.551,-1.133 l 3.229,4.892 z"
           style="fill:#d3b200;fill-opacity:1;fill-rule:nonzero;stroke:none"
           id="path32735"
           inkscape:connector-curvature="0" /><path
           d="m 222.479,664.339 c -5.355,-1.133 -10.894,-2.808 -15.857,-4.632 l -1.654,-0.607 -1.984,-0.784 c -1.368,-0.525 -2.541,-1.04 -3.771,-1.555 -2.449,-1.032 -4.853,-2.201 -7.229,-3.417 -4.388,-2.264 -8.666,-4.78 -12.797,-7.513 l -2.353,-62.495 c 0.72,0.979 1.448,1.95 2.193,2.904 4.549,5.967 9.614,11.391 15.172,16.143 5.465,4.852 11.469,9.052 17.943,12.533 l 3.738,1.907 32.941,49.91 c -8.692,0.239 -17.585,-0.471 -26.342,-2.394"
           style="fill:#d3b200;fill-opacity:1;fill-rule:nonzero;stroke:none"
           id="path32737"
           inkscape:connector-curvature="0" /><path
           d="m 188.794,575.784 c -4.782,-5.508 -9.06,-11.276 -12.892,-17.205 l -0.093,-2.47 z"
           style="fill:#d3b200;fill-opacity:1;fill-rule:nonzero;stroke:none"
           id="path32739"
           inkscape:connector-curvature="0" /><path
           d="m 576.887,650.093 -6.932,-9.298 c 5.862,-0.074 12.086,-0.272 17.816,-0.763 l -1.355,11.171 c -3.258,-0.251 -6.471,-0.634 -9.529,-1.11"
           style="fill:#ff8500;fill-opacity:1;fill-rule:nonzero;stroke:none"
           id="path32741"
           inkscape:connector-curvature="0" /><path
           d="m 588.569,633.453 c -2.108,-0.852 -4.199,-1.805 -6.245,-2.817 -3.219,-1.575 -6.396,-3.316 -9.448,-5.103 -3.094,-1.74 -6.068,-3.655 -9.043,-5.368 -2.919,-1.823 -5.848,-3.536 -8.675,-5.23 -1.428,-0.838 -2.845,-1.612 -4.226,-2.469 -1.213,-0.678 -2.416,-1.355 -3.603,-2.021 l -15.411,-20.672 c 0.52,-0.037 1.045,-0.069 1.582,-0.089 2.375,-0.12 4.936,-0.083 7.606,0.129 -2.321,-2.45 -4.577,-4.89 -6.731,-7.275 -2.754,-3.076 -5.406,-6.041 -7.926,-8.85 -2.49,-2.818 -4.824,-5.479 -7.03,-7.846 -0.694,-0.773 -1.374,-1.506 -2.042,-2.213 l 80.702,-8.564 z"
           style="fill:#ff8500;fill-opacity:1;fill-rule:nonzero;stroke:none"
           id="path32743"
           inkscape:connector-curvature="0" /><path
           d="m 546.778,610.137 c -2.753,-1.483 -5.424,-2.975 -8.048,-4.264 -1.29,-0.7 -2.584,-1.326 -3.845,-1.925 -1.252,-0.644 -2.481,-1.234 -3.688,-1.777 -4.779,-2.32 -9.052,-4.126 -12.118,-5.581 -3.076,-1.344 -4.927,-2.32 -4.927,-2.32 0,0 1.805,-0.893 5.133,-2.073 1.663,-0.524 3.707,-1.076 6.102,-1.565 1.958,-0.347 4.149,-0.687 6.531,-0.859 l 15.411,20.672 c -0.183,-0.102 -0.368,-0.207 -0.551,-0.308"
           style="fill:#fe9400;fill-opacity:1;fill-rule:nonzero;stroke:none"
           id="path32745"
           inkscape:connector-curvature="0" /><path
           d="m 555.195,640.829 c 4.143,0 9.295,0.036 14.76,-0.034 l 6.932,9.298 c -14.673,-2.288 -25.828,-6.743 -21.692,-9.264"
           style="fill:#fe9400;fill-opacity:1;fill-rule:nonzero;stroke:none"
           id="path32747"
           inkscape:connector-curvature="0" /><path
           d="m 596.309,676.114 -3.555,-4.759 c 3.348,-2.707 6.236,-5.55 8.621,-8.277 l 16.971,1.926 c -6.643,3.714 -14.92,7.953 -22.037,11.11"
           style="fill:#f04f00;fill-opacity:1;fill-rule:nonzero;stroke:none"
           id="path32749"
           inkscape:connector-curvature="0" /><path
           d="m 648.747,701.479 c 2.11,-16.252 1.739,-28.105 -1.956,-33.246 l 13.744,1.56 c -0.562,17.006 -7.353,31.686 -11.788,31.686"
           style="fill:#f04f00;fill-opacity:1;fill-rule:nonzero;stroke:none"
           id="path32751"
           inkscape:connector-curvature="0" /><path
           d="m 676.921,679.957 c -0.812,-1.729 -1.659,-5.052 -2.864,-8.629 l 6.918,0.785 c -0.118,3.68 -1.223,6.565 -4.054,7.844"
           style="fill:#f04f00;fill-opacity:1;fill-rule:nonzero;stroke:none"
           id="path32753"
           inkscape:connector-curvature="0" /><path
           d="m 615.494,698.937 c 3.68,-8.826 11.273,-25.549 10.151,-33.104 l 15.672,1.779 c -6.01,10.206 -17.497,27.155 -25.823,31.325"
           style="fill:#f04f00;fill-opacity:1;fill-rule:nonzero;stroke:none"
           id="path32755"
           inkscape:connector-curvature="0" /><path
           d="m 585.244,680.306 -0.009,-3.657 c 2.712,-1.645 5.223,-3.436 7.519,-5.294 l 3.555,4.759 c -4.33,1.92 -8.227,3.438 -11.065,4.192"
           style="fill:#f64e00;fill-opacity:1;fill-rule:nonzero;stroke:none"
           id="path32757"
           inkscape:connector-curvature="0" /><path
           d="m 378.139,718.561 c -2.008,0.551 -3.085,0.782 -3.085,0.782 0,0 0.534,-0.976 1.542,-2.809 0.972,-1.832 2.611,-4.245 4.287,-7.533 0.828,-1.647 1.879,-3.296 2.818,-5.221 0.598,-1.346 1.286,-2.69 1.979,-4.086 l 0.09,16.337 c -3.133,1.344 -5.834,1.984 -7.631,2.53"
           style="fill:#fb9b00;fill-opacity:1;fill-rule:nonzero;stroke:none"
           id="path32759"
           inkscape:connector-curvature="0" /><path
           d="m 385.377,644.532 0.133,24.27 c -5.56,13.006 -12.885,25.742 -21.976,37.225 -5.249,6.861 -11.217,13.141 -17.469,19.016 -3.214,2.818 -6.363,5.737 -9.734,8.297 l -1.577,1.246 -37.154,-26.796 0.671,-0.372 c 1.225,-0.746 2.432,-1.52 3.693,-2.211 l 4.651,-2.965 0.598,-0.377 0.037,-0.028 0.092,-0.065 0.985,-0.727 1.971,-1.445 c 2.698,-1.87 5.139,-4.015 7.694,-6.06 4.834,-4.347 9.752,-8.665 14.002,-13.638 4.291,-4.853 8.278,-10.001 11.86,-15.48 -3.222,3.324 -6.602,6.594 -10.147,9.78 -7.105,6.289 -14.79,12.293 -23.151,17.662 -6.279,4.007 -12.906,7.702 -19.828,10.97 l -34.503,-24.883 z"
           style="fill:#fb9b00;fill-opacity:1;fill-rule:nonzero;stroke:none"
           id="path32761"
           inkscape:connector-curvature="0" /><path
           d="m 426.633,676.918 c -3.675,7.515 -8.027,14.182 -12.912,19.458 -2.321,2.727 -4.908,4.982 -7.256,7.128 -2.469,2.054 -4.895,3.831 -7.164,5.442 -2.4,1.474 -4.605,2.819 -6.699,3.942 -2.105,1.114 -4.113,1.97 -5.913,2.735 -0.311,0.144 -0.617,0.277 -0.919,0.408 l -0.09,-16.337 c 0.326,-0.657 0.653,-1.324 0.972,-2.01 1.856,-4.393 3.859,-9.126 5.268,-14.338 1.625,-5.102 2.578,-10.692 3.278,-16.475 0.565,-4.674 0.781,-9.603 0.757,-14.772 l 31.693,22.672 c -0.33,0.723 -0.666,1.44 -1.015,2.147"
           style="fill:#ffa300;fill-opacity:1;fill-rule:nonzero;stroke:none"
           id="path32763"
           inkscape:connector-curvature="0" /><path
           d="m 392.514,649.638 c -1.222,4.075 -2.591,8.154 -4.2,12.196 -0.878,2.328 -1.814,4.652 -2.804,6.968 l -0.133,-24.27 z"
           style="fill:#ffa300;fill-opacity:1;fill-rule:nonzero;stroke:none"
           id="path32765"
           inkscape:connector-curvature="0" /><path
           d="m 580.666,679.174 c 1.58,-0.789 3.104,-1.636 4.569,-2.525 l 0.009,3.657 c -3.355,0.89 -5.229,0.715 -4.578,-1.132"
           style="fill:#fd7700;fill-opacity:1;fill-rule:nonzero;stroke:none"
           id="path32767"
           inkscape:connector-curvature="0" /><path
           d="m 333.836,735.311 -1.253,0.986 -1.552,1.169 -4.581,3.388 c -1.883,1.299 -3.826,2.515 -5.737,3.749 l -5.488,3.232 c -3.68,2.044 -7.368,4.024 -11.111,5.783 -7.537,3.407 -15.116,6.289 -22.676,8.638 -6.954,1.995 -13.837,3.654 -20.646,4.867 l -2.193,-42.821 c 3.154,-0.96 6.307,-1.993 9.431,-3.163 5.93,-2.1 11.828,-4.457 17.543,-7.22 2.905,-1.299 5.732,-2.726 8.545,-4.199 l 3.482,-1.93 37.154,26.796 z"
           style="fill:#f56500;fill-opacity:1;fill-rule:nonzero;stroke:none"
           id="path32769"
           inkscape:connector-curvature="0" /><path
           d="m 290.728,702.834 c -2.307,1.089 -4.645,2.13 -7.016,3.119 -8.216,3.401 -16.818,6.168 -25.631,8.229 l -1.856,-36.231 z"
           style="fill:#f56500;fill-opacity:1;fill-rule:nonzero;stroke:none"
           id="path32771"
           inkscape:connector-curvature="0" /><path
           d="m 170.409,711.568 c -3.334,-1.063 -6.637,-2.268 -9.891,-3.634 -13.26,-5.267 -25.503,-13.223 -35.793,-22.681 l 56.654,18.808 z"
           style="fill:#bc3600;fill-opacity:1;fill-rule:nonzero;stroke:none"
           id="path32773"
           inkscape:connector-curvature="0" /><path
           d="m 129.401,737.098 c -1.4,-1.253 -2.449,-2.22 -3.13,-2.91 -0.691,-0.672 -1.05,-1.013 -1.05,-1.013 0,0 0.497,0.064 1.455,0.202 0.967,0.11 2.366,0.332 4.157,0.644 1.594,0.218 3.498,0.473 5.686,0.741 l -5.463,3.739 c -0.598,-0.5 -1.151,-0.969 -1.655,-1.403"
           style="fill:#bc3600;fill-opacity:1;fill-rule:nonzero;stroke:none"
           id="path32775"
           inkscape:connector-curvature="0" /><path
           d="m 258.876,767.459 c -7.44,1.16 -14.724,2.017 -21.838,2.274 -3.128,0.142 -6.214,0.202 -9.259,0.192 l -24.348,-34.562 c 1.19,-0.123 2.388,-0.259 3.596,-0.429 2.73,-0.258 5.501,-0.627 8.306,-1.023 5.599,-0.912 11.359,-1.703 17.179,-2.974 5.81,-1.29 11.764,-2.441 17.681,-4.208 2.791,-0.777 5.599,-1.573 8.406,-2.427 l 2.193,42.821 c -0.639,0.114 -1.278,0.23 -1.916,0.336"
           style="fill:#e07100;fill-opacity:1;fill-rule:nonzero;stroke:none"
           id="path32777"
           inkscape:connector-curvature="0" /><path
           d="m 256.225,677.951 1.856,36.231 c -11.563,2.705 -23.489,4.195 -35.386,4.304 -1.362,0.028 -2.495,0.092 -4.052,0.075 l -3.518,-0.01 c -2.752,-0.055 -5.414,-0.147 -7.965,-0.285 -5.194,-0.369 -10.41,-0.94 -15.637,-1.778 -0.522,-0.082 -1.045,-0.168 -1.568,-0.255 l -8.576,-12.172 z"
           style="fill:#e07100;fill-opacity:1;fill-rule:nonzero;stroke:none"
           id="path32779"
           inkscape:connector-curvature="0" /><path
           d="m 165.209,758.36 c -9.204,-3.702 -16.837,-7.698 -22.764,-11.529 -3.006,-1.796 -5.511,-3.775 -7.716,-5.323 -1.376,-1.106 -2.599,-2.109 -3.673,-3.007 l 5.463,-3.739 c 2.813,0.345 6.096,0.714 9.79,1.055 6.57,0.562 14.411,1.142 23.298,1.133 1.063,0.017 2.142,0.025 3.235,0.027 l -5.734,22.104 c -0.639,-0.239 -1.273,-0.479 -1.899,-0.721"
           style="fill:#c22c00;fill-opacity:1;fill-rule:nonzero;stroke:none"
           id="path32781"
           inkscape:connector-curvature="0" /><path
           d="m 178.816,713.941 c -2.817,-0.697 -5.623,-1.484 -8.407,-2.373 l 10.97,-7.507 z"
           style="fill:#c22c00;fill-opacity:1;fill-rule:nonzero;stroke:none"
           id="path32783"
           inkscape:connector-curvature="0" /><path
           d="m 197.334,767.283 c -11.288,-1.922 -21.431,-4.918 -30.226,-8.202 l 5.734,-22.104 c 8.013,0.006 16.794,-0.399 26.114,-1.168 1.478,-0.155 2.97,-0.289 4.475,-0.446 l 24.348,34.562 c -10.781,-0.033 -21.009,-0.983 -30.445,-2.642"
           style="fill:#d54200;fill-opacity:1;fill-rule:nonzero;stroke:none"
           id="path32785"
           inkscape:connector-curvature="0" /><path
           d="m 189.955,716.233 c -3.717,-0.618 -7.437,-1.377 -11.139,-2.292 l 2.563,-9.88 z"
           style="fill:#d54200;fill-opacity:1;fill-rule:nonzero;stroke:none"
           id="path32787"
           inkscape:connector-curvature="0" /></g></g></g></svg>