<?xml version="1.0" encoding="UTF-8" standalone="no"?>
<!-- Created with Inkscape (http://www.inkscape.org/) -->

<svg
   xmlns:dc="http://purl.org/dc/elements/1.1/"
   xmlns:cc="http://creativecommons.org/ns#"
   xmlns:rdf="http://www.w3.org/1999/02/22-rdf-syntax-ns#"
   xmlns:svg="http://www.w3.org/2000/svg"
   xmlns="http://www.w3.org/2000/svg"
   xmlns:sodipodi="http://sodipodi.sourceforge.net/DTD/sodipodi-0.dtd"
   xmlns:inkscape="http://www.inkscape.org/namespaces/inkscape"
   version="1.1"
   id="svg24005"
   xml:space="preserve"
   width="800"
   height="800"
   viewBox="0 0 800 800"
   sodipodi:docname="cheetah-silhouette-publicdomainvectors.org.svg"
   inkscape:version="0.92.4 (5da689c313, 2019-01-14)"><metadata
     id="metadata24011"><rdf:RDF><cc:Work
         rdf:about=""><dc:format>image/svg+xml</dc:format><dc:type
           rdf:resource="http://purl.org/dc/dcmitype/StillImage" /><dc:title></dc:title></cc:Work></rdf:RDF></metadata><defs
     id="defs24009"><clipPath
       clipPathUnits="userSpaceOnUse"
       id="clipPath24021"><path
         d="M 0,600 H 600 V 0 H 0 Z"
         id="path24019"
         inkscape:connector-curvature="0" /></clipPath></defs><sodipodi:namedview
     pagecolor="#ffffff"
     bordercolor="#666666"
     borderopacity="1"
     objecttolerance="10"
     gridtolerance="10"
     guidetolerance="10"
     inkscape:pageopacity="0"
     inkscape:pageshadow="2"
     inkscape:window-width="797"
     inkscape:window-height="480"
     id="namedview24007"
     showgrid="false"
     inkscape:zoom="0.295"
     inkscape:cx="400"
     inkscape:cy="400"
     inkscape:window-x="0"
     inkscape:window-y="0"
     inkscape:window-maximized="0"
     inkscape:current-layer="g24013" /><g
     id="g24013"
     inkscape:groupmode="layer"
     inkscape:label="cheetah-silhouette-publicdomainvectors.org"
     transform="matrix(1.3333333,0,0,-1.3333333,0,800)"><g
       id="g24015"><g
         id="g24017"
         clip-path="url(#clipPath24021)"><path
           d="m 583.806,326.533 c 5.523,12.663 2.221,30.096 -4.892,42.226 -0.004,0.008 -0.009,0.016 -0.014,0.023 l -22.116,-3.703 z"
           style="fill:#af001f;fill-opacity:1;fill-rule:nonzero;stroke:none"
           id="path24023"
           inkscape:connector-curvature="0" /><path
           d="m 535.168,320.637 c 5.867,-0.253 12.15,0.651 17.603,-0.346 6.792,-1.247 9.077,-9.754 17.132,-8.728 4.641,0.601 6.623,4.835 9.45,7.978 1.871,2.082 3.34,4.44 4.453,6.992 l -27.022,38.546 z"
           style="fill:#b40e00;fill-opacity:1;fill-rule:nonzero;stroke:none"
           id="path24025"
           inkscape:connector-curvature="0" /><path
           d="m 580.979,178.586 c 4.726,-0.734 11.246,-1.632 12.93,4.261 1.909,6.66 -5.801,11.893 -14.528,16.283 l -20.576,-14.168 c 6.89,-3.774 12.88,-4.945 22.174,-6.376"
           style="fill:#003ccc;fill-opacity:1;fill-rule:nonzero;stroke:none"
           id="path24027"
           inkscape:connector-curvature="0" /><path
           d="m 551.611,189.599 c 2.592,-1.892 4.941,-3.403 7.194,-4.637 l 20.576,14.168 c -7.438,3.741 -15.613,6.872 -19.205,9.749 -7.528,6.019 -14.367,12.969 -20.695,20.47 l -2.93,-25.117 c 4.751,-5.113 9.309,-10.444 15.06,-14.633"
           style="fill:#0074c4;fill-opacity:1;fill-rule:nonzero;stroke:none"
           id="path24029"
           inkscape:connector-curvature="0" /><path
           d="m 578.9,368.782 c -2.518,4.307 -5.905,10.513 -10.84,12.412 l -11.276,-16.115 z"
           style="fill:#aa002b;fill-opacity:1;fill-rule:nonzero;stroke:none"
           id="path24031"
           inkscape:connector-curvature="0" /><path
           d="m 568.06,381.194 c -0.2,0.076 -0.4,0.149 -0.603,0.211 -6.475,1.982 -11.678,-1.898 -18.3,1.407 -2.361,1.178 -4.668,2.202 -6.942,3.11 l 14.569,-20.843 z"
           style="fill:#ad0020;fill-opacity:1;fill-rule:nonzero;stroke:none"
           id="path24033"
           inkscape:connector-curvature="0" /><path
           d="m 507.911,228.108 c 6.107,-6.558 14.549,-10.786 21.308,-16.634 2.601,-2.252 4.99,-4.721 7.332,-7.242 l 2.93,25.117 c -3.062,3.63 -6.004,7.391 -8.847,11.24 l -23.45,-11.673 c 0.239,-0.272 0.48,-0.542 0.727,-0.808"
           style="fill:#0dc5cd;fill-opacity:1;fill-rule:nonzero;stroke:none"
           id="path24035"
           inkscape:connector-curvature="0" /><path
           d="m 479.123,344.664 25.279,-22.036 c 4.936,2.538 11.122,3.994 15.379,5.737 3.794,-5.992 9.371,-7.469 15.387,-7.728 l 21.616,44.442 z"
           style="fill:#c32500;fill-opacity:1;fill-rule:nonzero;stroke:none"
           id="path24037"
           inkscape:connector-curvature="0" /><path
           d="m 556.784,365.079 -14.569,20.843 c -13.688,5.461 -26.12,6.523 -41.277,9.161 l -21.815,-50.419 z"
           style="fill:#c10600;fill-opacity:1;fill-rule:nonzero;stroke:none"
           id="path24039"
           inkscape:connector-curvature="0" /><path
           d="m 507.184,228.916 23.45,11.673 c -6.446,8.727 -12.374,17.902 -18.015,27.022 l -11.85,-29.98 c 2.061,-2.963 4.038,-6 6.415,-8.715"
           style="fill:#93c353;fill-opacity:1;fill-rule:nonzero;stroke:none"
           id="path24041"
           inkscape:connector-curvature="0" /><path
           d="m 500.938,395.083 c -0.248,0.043 -0.492,0.085 -0.741,0.128 -7.235,1.285 -13.697,4.945 -20.803,6.197 -1.898,0.332 -3.865,0.621 -5.888,0.868 l 5.617,-57.612 z"
           style="fill:#c60800;fill-opacity:1;fill-rule:nonzero;stroke:none"
           id="path24043"
           inkscape:connector-curvature="0" /><path
           d="m 479.041,258.166 c 4.967,-4.134 10.157,-8.1 14.915,-12.371 2.665,-2.395 4.781,-5.243 6.813,-8.164 l 11.85,29.98 c -2.959,4.786 -5.838,9.556 -8.672,14.241 -3.055,5.054 -6.802,13.921 -7.874,22.102 l -37.996,0.932 z"
           style="fill:#c8c010;fill-opacity:1;fill-rule:nonzero;stroke:none"
           id="path24045"
           inkscape:connector-curvature="0" /><path
           d="m 458.077,304.886 37.996,-0.932 c -0.643,4.917 -0.32,9.587 1.703,13.031 1.41,2.402 3.817,4.198 6.626,5.643 l -25.279,22.036 z"
           style="fill:#ce5c00;fill-opacity:1;fill-rule:nonzero;stroke:none"
           id="path24047"
           inkscape:connector-curvature="0" /><path
           d="m 400.951,277.402 c -0.509,-3.405 -0.838,-6.876 -1.057,-10.382 l 16.83,-46.211 c 1.731,3.106 3.617,6.163 4.485,9.635 3.822,15.286 2.195,42.499 16.086,53.234 3.359,2.599 8.866,3.131 13.893,3.577 l 6.889,17.631 z"
           style="fill:#d4e200;fill-opacity:1;fill-rule:nonzero;stroke:none"
           id="path24049"
           inkscape:connector-curvature="0" /><path
           d="m 451.188,287.255 c 2.226,0.198 4.358,0.379 6.168,0.716 3.07,-12.952 11.948,-21.7 21.685,-29.805 l -20.964,46.72 z"
           style="fill:#7fdf17;fill-opacity:1;fill-rule:nonzero;stroke:none"
           id="path24051"
           inkscape:connector-curvature="0" /><path
           d="m 447.168,403.391 c -11.918,-0.27 -23.875,-1.447 -33.872,-3.209 -8.243,-1.446 -14.046,-8.056 -22.036,-9.966 -1.209,-0.288 -2.433,-0.521 -3.668,-0.715 l 1.454,-48.416 z"
           style="fill:#df2200;fill-opacity:1;fill-rule:nonzero;stroke:none"
           id="path24053"
           inkscape:connector-curvature="0" /><path
           d="m 391.82,179.039 c 2.434,-12.872 23.348,-26.943 35.883,-17.455 6.304,4.773 4.71,8.761 0.4,11.714 l -36.565,7.446 c 0.083,-0.568 0.176,-1.138 0.282,-1.705"
           style="fill:#00afec;fill-opacity:1;fill-rule:nonzero;stroke:none"
           id="path24055"
           inkscape:connector-curvature="0" /><path
           d="m 479.123,344.664 -5.617,57.612 c -8.164,0.999 -17.239,1.321 -26.338,1.115 l -58.122,-62.306 z"
           style="fill:#dc2b00;fill-opacity:1;fill-rule:nonzero;stroke:none"
           id="path24057"
           inkscape:connector-curvature="0" /><path
           d="m 479.123,344.664 -90.077,-3.579 69.031,-36.199 z"
           style="fill:#df5e00;fill-opacity:1;fill-rule:nonzero;stroke:none"
           id="path24059"
           inkscape:connector-curvature="0" /><path
           d="m 391.538,180.744 36.565,-7.446 c -5.25,3.596 -14.532,5.659 -18.488,5.741 3.478,7.228 3.011,15.727 3.101,23.941 l -21.592,-17.487 c 0.054,-1.584 0.188,-3.166 0.414,-4.749"
           style="fill:#00c5ef;fill-opacity:1;fill-rule:nonzero;stroke:none"
           id="path24061"
           inkscape:connector-curvature="0" /><path
           d="m 389.046,341.085 6.735,-56.791 c 2.206,0.005 4.372,0.011 6.49,0.011 -0.541,-2.265 -0.972,-4.569 -1.32,-6.903 l 57.126,27.484 z"
           style="fill:#e88200;fill-opacity:1;fill-rule:nonzero;stroke:none"
           id="path24063"
           inkscape:connector-curvature="0" /><path
           d="m 398.25,227.999 c -0.424,-3.544 -1.123,-7.107 -1.921,-10.686 l 16.952,-5.375 c 0.008,0.05 0.014,0.1 0.022,0.15 0.47,3.163 1.884,5.962 3.421,8.721 l -16.83,46.211 c -0.816,-12.987 -0.15,-26.472 -1.644,-39.021"
           style="fill:#c8f008;fill-opacity:1;fill-rule:nonzero;stroke:none"
           id="path24065"
           inkscape:connector-curvature="0" /><path
           d="m 362.107,287.839 9.186,-3.284 c 8.418,-0.284 16.704,-0.278 24.488,-0.261 l -6.735,56.791 z"
           style="fill:#f38900;fill-opacity:1;fill-rule:nonzero;stroke:none"
           id="path24067"
           inkscape:connector-curvature="0" /><path
           d="m 391.124,185.493 21.592,17.487 c 0.035,3.052 0.146,6.065 0.565,8.958 l -16.952,5.375 c -2.351,-10.533 -5.567,-21.192 -5.205,-31.82"
           style="fill:#7bf383;fill-opacity:1;fill-rule:nonzero;stroke:none"
           id="path24069"
           inkscape:connector-curvature="0" /><path
           d="m 372.938,388.844 c -8.385,0.328 -16.923,1.496 -25.027,1.85 l 7.25,-59.501 z"
           style="fill:#ef3500;fill-opacity:1;fill-rule:nonzero;stroke:none"
           id="path24071"
           inkscape:connector-curvature="0" /><path
           d="m 389.046,341.085 -1.454,48.416 c -4.748,-0.748 -9.673,-0.853 -14.654,-0.657 l -17.777,-57.651 z"
           style="fill:#f43800;fill-opacity:1;fill-rule:nonzero;stroke:none"
           id="path24073"
           inkscape:connector-curvature="0" /><path
           d="m 389.046,341.085 -33.885,-9.892 6.946,-43.354 z"
           style="fill:#f77700;fill-opacity:1;fill-rule:nonzero;stroke:none"
           id="path24075"
           inkscape:connector-curvature="0" /><path
           d="m 362.246,284.982 c 3.021,-0.188 6.041,-0.327 9.047,-0.427 l -9.186,3.284 z"
           style="fill:#f2cf00;fill-opacity:1;fill-rule:nonzero;stroke:none"
           id="path24077"
           inkscape:connector-curvature="0" /><path
           d="m 355.161,331.193 -7.25,59.501 c -1.479,0.065 -2.945,0.102 -4.391,0.102 -12.597,0 -24.843,-1.163 -37.065,-2.377 l -23.271,-33.864 z"
           style="fill:#fb6100;fill-opacity:1;fill-rule:nonzero;stroke:none"
           id="path24079"
           inkscape:connector-curvature="0" /><path
           d="m 306.455,388.419 c -8.387,-0.833 -16.763,-1.688 -25.23,-2.209 l 1.959,-31.655 z"
           style="fill:#f55a00;fill-opacity:1;fill-rule:nonzero;stroke:none"
           id="path24081"
           inkscape:connector-curvature="0" /><path
           d="m 310.403,297.122 c 0.802,-0.473 1.639,-0.926 2.52,-1.354 13.652,-6.644 30.33,-9.459 47.135,-10.642 l 2.049,2.713 z"
           style="fill:#ffd100;fill-opacity:1;fill-rule:nonzero;stroke:none"
           id="path24083"
           inkscape:connector-curvature="0" /><path
           d="m 288.776,255.326 c 2.89,6.422 7.489,12.467 8.965,19.18 1.471,6.706 -0.01,16.492 -2.093,25.265 l -17.936,3.22 z"
           style="fill:#ffd100;fill-opacity:1;fill-rule:nonzero;stroke:none"
           id="path24085"
           inkscape:connector-curvature="0" /><path
           d="m 360.058,285.126 c 0.729,-0.051 1.459,-0.099 2.188,-0.144 l -0.139,2.857 z"
           style="fill:#f9ea00;fill-opacity:1;fill-rule:nonzero;stroke:none"
           id="path24087"
           inkscape:connector-curvature="0" /><path
           d="m 295.648,299.771 c -0.75,3.158 -1.578,6.183 -2.376,8.887 l -15.56,-5.667 z"
           style="fill:#fd9d00;fill-opacity:1;fill-rule:nonzero;stroke:none"
           id="path24089"
           inkscape:connector-curvature="0" /><path
           d="m 355.161,331.193 -59.533,-21.677 c 4.883,-4.358 8.875,-8.922 14.775,-12.394 l 51.704,-9.283 z"
           style="fill:#fd9d00;fill-opacity:1;fill-rule:nonzero;stroke:none"
           id="path24091"
           inkscape:connector-curvature="0" /><path
           d="m 283.184,354.555 -5.472,-51.564 15.56,5.667 c -0.398,1.353 -0.79,2.628 -1.16,3.796 1.242,-0.959 2.402,-1.943 3.516,-2.938 l 59.533,21.677 z"
           style="fill:#ff9300;fill-opacity:1;fill-rule:nonzero;stroke:none"
           id="path24093"
           inkscape:connector-curvature="0" /><path
           d="m 304.352,170.466 -3.667,-1.226 c -0.956,2.494 -2.292,3.922 -3.875,4.714 l -1.876,-17.544 c 6.648,1.419 11.477,5.263 9.418,14.056"
           style="fill:#a3f31b;fill-opacity:1;fill-rule:nonzero;stroke:none"
           id="path24095"
           inkscape:connector-curvature="0" /><path
           d="m 246.252,253.147 c 0.914,-2.242 1.516,-4.512 1.683,-6.791 0.6,-8.15 -0.653,-16.905 -3.534,-24.695 l 21.769,-6.119 c 4.268,5.744 11.759,10.337 14.866,16.13 3.434,6.403 4.221,13.987 6.596,20.81 0.335,0.957 0.722,1.905 1.144,2.844 l -11.064,47.665 z"
           style="fill:#ffce00;fill-opacity:1;fill-rule:nonzero;stroke:none"
           id="path24097"
           inkscape:connector-curvature="0" /><path
           d="m 233.619,201.057 c 0.012,-6.365 8.429,-14.86 12.374,-19.573 8.333,-9.94 21.513,-24.147 35.108,-25.463 1.288,-0.125 2.628,-0.221 3.985,-0.273 l -45.414,56.951 c -2.752,-3.712 -6.053,-7.593 -6.053,-11.642"
           style="fill:#f0c500;fill-opacity:1;fill-rule:nonzero;stroke:none"
           id="path24099"
           inkscape:connector-curvature="0" /><path
           d="m 242.417,216.98 c -0.677,-1.401 -1.669,-2.828 -2.745,-4.281 l 45.414,-56.951 c 3.339,-0.13 6.786,0.008 9.848,0.662 l 1.876,17.544 c -4.918,2.459 -12.245,-1.223 -18.163,1.74 -8.223,4.125 -15.581,22.547 -15.595,31.45 -0.003,3.151 1.249,5.885 3.118,8.398 l -21.769,6.119 c -0.593,-1.605 -1.255,-3.171 -1.984,-4.681"
           style="fill:#f6e100;fill-opacity:1;fill-rule:nonzero;stroke:none"
           id="path24101"
           inkscape:connector-curvature="0" /><path
           d="m 283.184,354.555 -1.959,31.655 c -1.671,-0.103 -3.345,-0.193 -5.024,-0.268 -8.366,-0.368 -16.743,-0.326 -25.085,-0.537 l -32.123,-38.637 z"
           style="fill:#fb6800;fill-opacity:1;fill-rule:nonzero;stroke:none"
           id="path24103"
           inkscape:connector-curvature="0" /><path
           d="m 189.95,280.684 21.38,-29.887 c 8.066,7.251 14.349,15.87 15.911,27.389 5.986,-6.872 15.21,-15.706 19.011,-25.039 l 31.46,49.844 z"
           style="fill:#feb200;fill-opacity:1;fill-rule:nonzero;stroke:none"
           id="path24105"
           inkscape:connector-curvature="0" /><path
           d="m 251.116,385.405 c -12.12,-0.308 -24.166,-1.149 -35.991,-4.56 l 3.868,-34.077 z"
           style="fill:#f35c00;fill-opacity:1;fill-rule:nonzero;stroke:none"
           id="path24107"
           inkscape:connector-curvature="0" /><path
           d="m 283.184,354.555 -64.191,-7.787 58.719,-43.777 z"
           style="fill:#ff8500;fill-opacity:1;fill-rule:nonzero;stroke:none"
           id="path24109"
           inkscape:connector-curvature="0" /><path
           d="m 218.993,346.768 -29.043,-66.084 87.762,22.307 z"
           style="fill:#fe9400;fill-opacity:1;fill-rule:nonzero;stroke:none"
           id="path24111"
           inkscape:connector-curvature="0" /><path
           d="m 215.125,380.845 c -1.27,-0.366 -2.537,-0.762 -3.802,-1.189 -7.239,-2.462 -14.367,-6.623 -21.219,-11.306 l 28.889,-21.582 z"
           style="fill:#f04f00;fill-opacity:1;fill-rule:nonzero;stroke:none"
           id="path24113"
           inkscape:connector-curvature="0" /><path
           d="m 190.104,368.35 c -7.163,-4.896 -14.024,-10.365 -20.395,-15.069 -2.824,-2.087 -5.624,-4.215 -8.404,-6.375 l 57.688,-0.138 z"
           style="fill:#f64e00;fill-opacity:1;fill-rule:nonzero;stroke:none"
           id="path24115"
           inkscape:connector-curvature="0" /><path
           d="m 160.995,214.296 c 0.464,0.215 0.924,0.43 1.375,0.645 5.924,2.812 10.393,7.203 15.249,11.304 l -25.342,0.14 z"
           style="fill:#fb9b00;fill-opacity:1;fill-rule:nonzero;stroke:none"
           id="path24117"
           inkscape:connector-curvature="0" /><path
           d="m 152.277,226.385 25.342,-0.14 c 1.398,1.181 2.828,2.338 4.335,3.426 9.319,6.744 20.441,13.095 29.376,21.126 l -21.38,29.887 z"
           style="fill:#ffa300;fill-opacity:1;fill-rule:nonzero;stroke:none"
           id="path24119"
           inkscape:connector-curvature="0" /><path
           d="m 173.382,314.9 c 0,-4.646 -0.165,-9.72 -0.589,-14.985 l 17.157,-19.231 29.043,66.084 -57.688,0.138 c -5.969,-4.64 -11.847,-9.431 -17.689,-14.282 l 22.055,-24.725 c 2.611,2.256 5.183,4.584 7.711,7.001"
           style="fill:#fd7700;fill-opacity:1;fill-rule:nonzero;stroke:none"
           id="path24121"
           inkscape:connector-curvature="0" /><path
           d="m 144.473,206.9 c 5.679,2.689 11.46,5.053 16.522,7.396 l -8.718,12.089 z"
           style="fill:#f56500;fill-opacity:1;fill-rule:nonzero;stroke:none"
           id="path24123"
           inkscape:connector-curvature="0" /><path
           d="m 125.513,153.342 c 7.801,3.454 5.987,7.687 2.173,11.652 l -4.988,-12.453 c 0.97,0.144 1.914,0.403 2.815,0.801"
           style="fill:#f56500;fill-opacity:1;fill-rule:nonzero;stroke:none"
           id="path24125"
           inkscape:connector-curvature="0" /><path
           d="m 189.95,280.684 -20.418,-2.12 c -2.926,-12.285 -7.875,-23.899 -15.992,-31.95 -2.099,-2.081 -4.968,-3.973 -8.22,-5.811 l 6.957,-14.418 z"
           style="fill:#ff8800;fill-opacity:1;fill-rule:nonzero;stroke:none"
           id="path24127"
           inkscape:connector-curvature="0" /><path
           d="m 172.793,299.915 c -0.56,-6.971 -1.574,-14.271 -3.261,-21.351 l 20.418,2.12 z"
           style="fill:#fd7400;fill-opacity:1;fill-rule:nonzero;stroke:none"
           id="path24129"
           inkscape:connector-curvature="0" /><path
           d="m 165.671,307.899 -22.055,24.725 c -4.479,-3.72 -8.938,-7.475 -13.399,-11.225 l -0.946,-40.818 c 12.521,8.728 24.838,17.323 36.4,27.318"
           style="fill:#fd7400;fill-opacity:1;fill-rule:nonzero;stroke:none"
           id="path24131"
           inkscape:connector-curvature="0" /><path
           d="m 122.05,275.537 c 2.412,1.693 4.82,3.371 7.221,5.044 l 0.946,40.818 c -11.685,-9.825 -23.393,-19.615 -35.558,-28.647 l -7.625,-11.438 z"
           style="fill:#fa6200;fill-opacity:1;fill-rule:nonzero;stroke:none"
           id="path24133"
           inkscape:connector-curvature="0" /><path
           d="m 145.32,240.803 c -6.251,-3.532 -13.918,-6.857 -20.256,-10.918 l 27.213,-3.5 z"
           style="fill:#ff7200;fill-opacity:1;fill-rule:nonzero;stroke:none"
           id="path24135"
           inkscape:connector-curvature="0" /><path
           d="m 125.064,229.885 c -8.534,-5.467 -14.656,-12.267 -11.661,-22.697 -4.221,-2.975 -3.382,-7.597 -4.776,-12.238 -0.824,-2.731 -2.172,-5.409 -3.562,-8.098 l 17.43,-34.338 c 0.068,0.007 0.135,0.017 0.203,0.027 l 4.988,12.453 c -3.392,3.527 -8.366,6.842 -9.558,9.203 -2.53,5.035 1.498,14.15 4.803,18.023 5.294,6.199 13.31,10.782 21.542,14.68 l 7.804,19.485 z"
           style="fill:#fc6300;fill-opacity:1;fill-rule:nonzero;stroke:none"
           id="path24137"
           inkscape:connector-curvature="0" /><path
           d="m 100.481,168.065 c 2.062,-7.925 13.135,-16.698 22.014,-15.551 l -17.43,34.338 c -3.076,-5.956 -6.354,-11.974 -4.584,-18.787"
           style="fill:#f23700;fill-opacity:1;fill-rule:nonzero;stroke:none"
           id="path24139"
           inkscape:connector-curvature="0" /><path
           d="m 82.554,250.933 c 3.486,1.274 6.866,2.621 10.039,4.04 10.167,4.557 19.048,13.233 28.156,19.649 0.434,0.306 0.868,0.61 1.301,0.915 l -35.016,5.777 z"
           style="fill:#fa6800;fill-opacity:1;fill-rule:nonzero;stroke:none"
           id="path24141"
           inkscape:connector-curvature="0" /><path
           d="m 94.659,292.752 c -2.315,-1.72 -4.646,-3.413 -6.997,-5.071 l -0.628,-6.367 z"
           style="fill:#f64d00;fill-opacity:1;fill-rule:nonzero;stroke:none"
           id="path24143"
           inkscape:connector-curvature="0" /><path
           d="m 21.464,215.082 c 2.594,0.712 3.733,2.397 4.377,4.426 l -5.733,8.349 -2.489,-13.031 c 1.159,-0.191 2.441,-0.129 3.845,0.256"
           style="fill:#e21c00;fill-opacity:1;fill-rule:nonzero;stroke:none"
           id="path24145"
           inkscape:connector-curvature="0" /><path
           d="m 25.841,219.508 c 0.724,2.282 0.822,5 1.652,7.263 0.264,0.721 0.573,1.444 0.924,2.162 l -8.309,-1.076 z"
           style="fill:#f24600;fill-opacity:1;fill-rule:nonzero;stroke:none"
           id="path24147"
           inkscape:connector-curvature="0" /><path
           d="m 87.034,281.314 -4.58,2.774 c -0.294,-0.199 -0.585,-0.4 -0.879,-0.597 -15.174,-10.163 -36.257,-5.145 -52.887,-12.725 l 1.943,-3.763 z"
           style="fill:#e94c00;fill-opacity:1;fill-rule:nonzero;stroke:none"
           id="path24149"
           inkscape:connector-curvature="0" /><path
           d="m 87.662,287.681 c -1.725,-1.217 -3.462,-2.413 -5.208,-3.593 l 4.58,-2.774 z"
           style="fill:#ed4100;fill-opacity:1;fill-rule:nonzero;stroke:none"
           id="path24151"
           inkscape:connector-curvature="0" /><path
           d="m 30.631,267.003 34.437,-21.742 c 5.815,1.701 11.79,3.59 17.486,5.672 l 4.48,30.381 z"
           style="fill:#f55e00;fill-opacity:1;fill-rule:nonzero;stroke:none"
           id="path24153"
           inkscape:connector-curvature="0" /><path
           d="m 20.108,227.857 8.309,1.076 c 2.377,4.876 6.636,9.492 11.54,11.478 4.622,1.872 9.898,0.633 14.688,1.93 3.345,0.903 6.854,1.876 10.423,2.92 l -34.437,21.742 z"
           style="fill:#f15700;fill-opacity:1;fill-rule:nonzero;stroke:none"
           id="path24155"
           inkscape:connector-curvature="0" /><path
           d="m 30.631,267.003 -1.943,3.763 c -4.601,-2.098 -8.86,-5.158 -12.559,-9.77 -1.072,-1.336 -1.999,-2.828 -2.799,-4.433 l 6.778,-28.706 z"
           style="fill:#e24b00;fill-opacity:1;fill-rule:nonzero;stroke:none"
           id="path24157"
           inkscape:connector-curvature="0" /><path
           d="m 13.33,256.563 c -4.507,-9.041 -4.925,-21.718 -3.747,-31.011 0.625,-4.923 3.315,-9.945 8.036,-10.726 l 2.489,13.031 z"
           style="fill:#e24d00;fill-opacity:1;fill-rule:nonzero;stroke:none"
           id="path24159"
           inkscape:connector-curvature="0" /></g></g></g></svg>