<?xml version="1.0" encoding="UTF-8" standalone="no"?>
<!-- Created with Inkscape (http://www.inkscape.org/) -->

<svg
   xmlns:dc="http://purl.org/dc/elements/1.1/"
   xmlns:cc="http://creativecommons.org/ns#"
   xmlns:rdf="http://www.w3.org/1999/02/22-rdf-syntax-ns#"
   xmlns:svg="http://www.w3.org/2000/svg"
   xmlns="http://www.w3.org/2000/svg"
   xmlns:sodipodi="http://sodipodi.sourceforge.net/DTD/sodipodi-0.dtd"
   xmlns:inkscape="http://www.inkscape.org/namespaces/inkscape"
   version="1.1"
   id="svg4747"
   xml:space="preserve"
   width="800"
   height="800"
   viewBox="0 0 800 800"
   sodipodi:docname="Camel-Silhouette-Color-publicdomainvectors.org.svg"
   inkscape:version="0.92.4 (5da689c313, 2019-01-14)"><metadata
     id="metadata4753"><rdf:RDF><cc:Work
         rdf:about=""><dc:format>image/svg+xml</dc:format><dc:type
           rdf:resource="http://purl.org/dc/dcmitype/StillImage" /><dc:title></dc:title></cc:Work></rdf:RDF></metadata><defs
     id="defs4751"><clipPath
       clipPathUnits="userSpaceOnUse"
       id="clipPath4763"><path
         d="M 0,600 H 600 V 0 H 0 Z"
         id="path4761"
         inkscape:connector-curvature="0" /></clipPath></defs><sodipodi:namedview
     pagecolor="#ffffff"
     bordercolor="#666666"
     borderopacity="1"
     objecttolerance="10"
     gridtolerance="10"
     guidetolerance="10"
     inkscape:pageopacity="0"
     inkscape:pageshadow="2"
     inkscape:window-width="797"
     inkscape:window-height="480"
     id="namedview4749"
     showgrid="false"
     inkscape:zoom="0.31263521"
     inkscape:cx="400"
     inkscape:cy="400"
     inkscape:window-x="-8"
     inkscape:window-y="-8"
     inkscape:window-maximized="1"
     inkscape:current-layer="g4755" /><g
     id="g4755"
     inkscape:groupmode="layer"
     inkscape:label="Camel-Silhouette-Color-publicdomainvectors.org"
     transform="matrix(1.3333333,0,0,-1.3333333,0,800)"><g
       id="g4757"><g
         id="g4759"
         clip-path="url(#clipPath4763)"><path
           d="m 470.5,562.309 c -0.161,-0.021 -0.32,-0.047 -0.481,-0.072 l 2.426,-0.096 z"
           style="fill:#d41e25;fill-opacity:1;fill-rule:nonzero;stroke:none"
           id="path4765"
           inkscape:connector-curvature="0" /><path
           d="m 484.202,561.342 c -1.173,0.255 -2.332,0.479 -3.482,0.663 l -8.275,0.136 z"
           style="fill:#aa1c23;fill-opacity:1;fill-rule:nonzero;stroke:none"
           id="path4767"
           inkscape:connector-curvature="0" /><path
           d="m 480.72,562.005 c -3.514,0.564 -6.912,0.754 -10.22,0.304 l 1.945,-0.168 z"
           style="fill:#bb1d24;fill-opacity:1;fill-rule:nonzero;stroke:none"
           id="path4769"
           inkscape:connector-curvature="0" /><path
           d="m 192.848,118.313 c 11.339,-4.277 25.201,-2.895 37.409,-2.895 l -0.031,-0.021 c 4.881,0.547 6.744,2.107 6.778,4.124 l -54.22,5.773 c 3.131,-3.603 4.354,-4.813 10.064,-6.981"
           style="fill:#ae1a30;fill-opacity:1;fill-rule:nonzero;stroke:none"
           id="path4771"
           inkscape:connector-curvature="0" /><path
           d="m 572.994,499.042 c 0.36,0.716 0.62,1.424 0.806,2.127 l -2.89,-4.13 c 0.831,0.284 1.539,0.912 2.084,2.003"
           style="fill:#a91a2e;fill-opacity:1;fill-rule:nonzero;stroke:none"
           id="path4773"
           inkscape:connector-curvature="0" /><path
           d="m 570.91,497.039 2.89,4.13 c 0.935,3.577 -0.167,7.008 -1.098,10.718 -1.653,6.627 6.349,8.795 6.134,15.187 -0.375,10.899 -18.007,22.4 -27.157,24.231 -8.149,1.631 -16.812,-0.332 -25.504,-0.83 l 34.423,-49.245 c 3.772,-2.478 7.662,-5.096 10.312,-4.191"
           style="fill:#ac1c24;fill-opacity:1;fill-rule:nonzero;stroke:none"
           id="path4775"
           inkscape:connector-curvature="0" /><path
           d="m 449.2,130.578 c 3.918,2.378 5.122,4.92 4.683,7.53 l -25.508,-8.907 c 7.643,-1.066 16.549,-1.222 20.825,1.377"
           style="fill:#3a62b7;fill-opacity:1;fill-rule:nonzero;stroke:none"
           id="path4777"
           inkscape:connector-curvature="0" /><path
           d="m 501.731,451.597 c 2.634,6.964 4.828,13.955 7.62,21.17 0.741,1.924 1.264,3.256 1.696,4.228 l -29.543,-7.766 z"
           style="fill:#c32723;fill-opacity:1;fill-rule:nonzero;stroke:none"
           id="path4779"
           inkscape:connector-curvature="0" /><path
           d="m 511.047,476.995 c 1.443,3.262 1.836,2.46 5.892,6.284 3.064,2.889 7.686,4.909 11.094,8.171 8.988,8.616 10.631,17.025 25.694,13.433 1.985,-0.474 4.403,-2.033 6.871,-3.653 l -34.423,49.245 c -3.136,-0.179 -6.278,-0.164 -9.4,0.278 l -35.271,-81.524 z"
           style="fill:#c11e24;fill-opacity:1;fill-rule:nonzero;stroke:none"
           id="path4781"
           inkscape:connector-curvature="0" /><path
           d="m 481.504,469.229 35.271,81.524 c -0.532,0.076 -1.064,0.158 -1.593,0.26 -9.905,1.894 -18.512,7.256 -28.029,9.636 -0.994,0.25 -1.976,0.481 -2.951,0.693 l -11.757,0.799 z"
           style="fill:#c61e25;fill-opacity:1;fill-rule:nonzero;stroke:none"
           id="path4783"
           inkscape:connector-curvature="0" /><path
           d="m 467.449,404.885 c 7.21,5.91 13.901,12.191 19.722,19.733 l -28.895,0.71 z"
           style="fill:#c2c65e;fill-opacity:1;fill-rule:nonzero;stroke:none"
           id="path4785"
           inkscape:connector-curvature="0" /><path
           d="m 458.276,425.328 28.895,-0.71 c 3.436,4.454 6.572,9.347 9.333,14.865 2.025,4.053 3.7,8.08 5.227,12.114 l -20.227,17.632 z"
           style="fill:#ce5f1d;fill-opacity:1;fill-rule:nonzero;stroke:none"
           id="path4787"
           inkscape:connector-curvature="0" /><path
           d="m 181.75,126.483 c 0.37,-0.422 0.712,-0.819 1.034,-1.189 l 54.22,-5.773 c 0.078,4.487 -8.881,11.239 -13.808,14.177 l -44.643,-0.638 c 1.141,-2.322 2.472,-5.74 3.197,-6.577"
           style="fill:#a98798;fill-opacity:1;fill-rule:nonzero;stroke:none"
           id="path4789"
           inkscape:connector-curvature="0" /><path
           d="m 390.684,392.809 8.869,-24.348 c 14.106,7.436 30.105,11.428 43.957,19.074 l 14.766,37.793 z"
           style="fill:#d4e752;fill-opacity:1;fill-rule:nonzero;stroke:none"
           id="path4791"
           inkscape:connector-curvature="0" /><path
           d="m 443.51,387.535 c 2.984,1.647 5.868,3.463 8.612,5.52 5.277,3.96 10.424,7.81 15.327,11.83 l -9.173,20.443 z"
           style="fill:#afde6f;fill-opacity:1;fill-rule:nonzero;stroke:none"
           id="path4793"
           inkscape:connector-curvature="0" /><path
           d="m 470.019,562.237 c -3.528,-0.549 -6.955,-1.843 -10.312,-4.215 -3.879,-2.743 -5.323,-7.722 -8.759,-10.512 -2.91,-2.361 -5.444,-1.701 -8.762,-4.089 -8.162,-5.878 -10.183,-14.073 -1.288,-15.098 l 31.547,33.818 z"
           style="fill:#e02324;fill-opacity:1;fill-rule:nonzero;stroke:none"
           id="path4795"
           inkscape:connector-curvature="0" /><path
           d="m 389.637,273.061 c -0.796,1.023 -2.044,1.724 -3.432,2.282 l 6.848,-13.989 c 0.731,3.288 0.326,6.913 -3.416,11.707"
           style="fill:#59bfef;fill-opacity:1;fill-rule:nonzero;stroke:none"
           id="path4797"
           inkscape:connector-curvature="0" /><path
           d="m 472.445,562.141 -31.547,-33.818 c 2.002,-0.231 4.554,-0.099 7.716,0.504 -3.664,-15.202 -14.509,-43.379 -29.423,-62.073 l 62.313,2.475 z"
           style="fill:#dd2824;fill-opacity:1;fill-rule:nonzero;stroke:none"
           id="path4799"
           inkscape:connector-curvature="0" /><path
           d="m 481.504,469.229 -62.313,-2.475 c -4.4,-5.515 -9.154,-10.205 -14.182,-13.492 l 53.267,-27.934 z"
           style="fill:#df4f1e;fill-opacity:1;fill-rule:nonzero;stroke:none"
           id="path4801"
           inkscape:connector-curvature="0" /><path
           d="m 428.375,129.201 25.508,8.907 c -0.987,5.871 -10.294,12.09 -15.781,17.577 -3.782,3.784 -7.769,7.45 -11.727,11.162 l -3.166,-36.756 c 1.599,-0.331 3.347,-0.637 5.166,-0.89"
           style="fill:#3f6ebf;fill-opacity:1;fill-rule:nonzero;stroke:none"
           id="path4803"
           inkscape:connector-curvature="0" /><path
           d="m 458.276,425.328 -53.267,27.934 c -6.579,-4.303 -13.63,-6.203 -20.972,-4.411 l 6.647,-56.042 z"
           style="fill:#e67e16;fill-opacity:1;fill-rule:nonzero;stroke:none"
           id="path4805"
           inkscape:connector-curvature="0" /><path
           d="m 355.609,339.617 23.092,-7.32 c 1.087,12.358 4.083,25.533 13.565,31.856 2.353,1.57 4.79,2.993 7.287,4.308 l -8.869,24.348 z"
           style="fill:#d7eb6f;fill-opacity:1;fill-rule:nonzero;stroke:none"
           id="path4807"
           inkscape:connector-curvature="0" /><path
           d="m 389.346,247.071 c -0.63,5.658 2.675,9.633 3.707,14.283 l -6.848,13.989 c -3.639,1.466 -8.247,1.956 -8.247,4.723 0,2.488 -0.016,4.979 -0.037,7.47 l -25.682,-35.474 c 3.029,-3.947 8.021,-6.895 11.12,-10.536 6.423,-7.537 10.847,-17.045 14.312,-26.279 1.992,-5.318 3.627,-11.726 5.226,-18.54 l 20.491,-3.328 c -9.693,16.513 -11.95,34.857 -14.042,53.692"
           style="fill:#64c9f0;fill-opacity:1;fill-rule:nonzero;stroke:none"
           id="path4809"
           inkscape:connector-curvature="0" /><path
           d="m 400.735,146.921 c 1.944,-2.251 7.298,-0.922 9.341,-2.915 4.653,-4.549 -1.247,-9.513 7.884,-12.554 1.385,-0.462 3.192,-0.933 5.249,-1.361 l 3.166,36.756 c -3.881,3.639 -7.731,7.326 -11.334,11.207 l -21.763,-18.492 c 2.064,-4.87 4.493,-9.203 7.457,-12.641"
           style="fill:#3e64b8;fill-opacity:1;fill-rule:nonzero;stroke:none"
           id="path4811"
           inkscape:connector-curvature="0" /><path
           d="m 415.041,178.054 c -3.52,3.791 -6.8,7.77 -9.637,12.082 -0.704,1.073 -1.377,2.153 -2.016,3.243 l -20.491,3.328 c 2.912,-12.397 5.714,-26.143 10.381,-37.145 z"
           style="fill:#4785cd;fill-opacity:1;fill-rule:nonzero;stroke:none"
           id="path4813"
           inkscape:connector-curvature="0" /><path
           d="m 273.999,555.828 c -3.016,0.36 -6.299,0.335 -9.915,-0.141 -4.909,-0.646 -9.519,-1.817 -13.905,-3.386 l 10.66,-0.844 z"
           style="fill:#e6431f;fill-opacity:1;fill-rule:nonzero;stroke:none"
           id="path4815"
           inkscape:connector-curvature="0" /><path
           d="m 377.913,288.497 -25.486,-17.372 c 0.021,-4.432 -3.845,-8.719 -2.5,-14.417 0.407,-1.727 1.237,-3.249 2.312,-4.646 l 25.682,35.474 c -0.003,0.321 -0.005,0.642 -0.008,0.961"
           style="fill:#a1dfce;fill-opacity:1;fill-rule:nonzero;stroke:none"
           id="path4817"
           inkscape:connector-curvature="0" /><path
           d="m 390.684,392.809 -6.647,56.042 c -2.763,0.674 -5.567,1.877 -8.405,3.667 l -23.275,-46.004 z"
           style="fill:#f28214;fill-opacity:1;fill-rule:nonzero;stroke:none"
           id="path4819"
           inkscape:connector-curvature="0" /><path
           d="m 377.873,292.471 c -0.082,7.938 -0.158,15.885 0.085,23.799 0.143,4.64 0.234,10.243 0.743,16.027 l -23.092,7.32 z"
           style="fill:#bfe7af;fill-opacity:1;fill-rule:nonzero;stroke:none"
           id="path4821"
           inkscape:connector-curvature="0" /><path
           d="m 170.237,142.569 c 0.322,-0.506 0.654,-1 1.001,-1.479 1.82,-2.519 4.701,-3.91 6.424,-6.428 0.271,-0.397 0.573,-0.958 0.891,-1.602 l 44.643,0.638 c -0.66,0.396 -1.249,0.721 -1.734,0.964 -4.475,2.241 -8.621,4.611 -12.427,7.336 l -24.384,3.433 z"
           style="fill:#af5d59;fill-opacity:1;fill-rule:nonzero;stroke:none"
           id="path4823"
           inkscape:connector-curvature="0" /><path
           d="m 351.629,476.861 c -3.802,4.393 -7.563,8.836 -11.3,13.301 l 4.361,-35.799 z"
           style="fill:#ee2d21;fill-opacity:1;fill-rule:nonzero;stroke:none"
           id="path4825"
           inkscape:connector-curvature="0" /><path
           d="m 366.187,460.638 c -4.947,5.279 -9.787,10.709 -14.558,16.223 l -6.939,-22.498 z"
           style="fill:#ef2f21;fill-opacity:1;fill-rule:nonzero;stroke:none"
           id="path4827"
           inkscape:connector-curvature="0" /><path
           d="m 352.357,406.514 23.275,46.004 c -2.894,1.827 -5.821,4.264 -8.772,7.397 -0.226,0.24 -0.448,0.483 -0.673,0.723 l -21.497,-6.275 z"
           style="fill:#f36618;fill-opacity:1;fill-rule:nonzero;stroke:none"
           id="path4829"
           inkscape:connector-curvature="0" /><path
           d="m 352.357,406.514 3.252,-66.897 35.075,53.192 z"
           style="fill:#eddf3e;fill-opacity:1;fill-rule:nonzero;stroke:none"
           id="path4831"
           inkscape:connector-curvature="0" /><path
           d="m 344.69,454.363 -4.361,35.799 c -8.707,10.402 -17.292,20.906 -26.02,31.074 -4.024,4.681 -7.601,9.521 -11.164,14.052 l -37.892,-55.142 z"
           style="fill:#f14f1b;fill-opacity:1;fill-rule:nonzero;stroke:none"
           id="path4833"
           inkscape:connector-curvature="0" /><path
           d="m 377.873,292.471 -22.264,47.146 -71.542,-23.461 27.935,-7.834 c 0.995,2.888 1.976,5.739 2.892,8.535 8,24.397 18.455,0.649 25.466,-16.489 l 37.539,-10.53 c -0.008,0.877 -0.017,1.755 -0.026,2.633"
           style="fill:#d6ec85;fill-opacity:1;fill-rule:nonzero;stroke:none"
           id="path4835"
           inkscape:connector-curvature="0" /><path
           d="m 305.703,260.37 c -1.015,5.227 -4.158,9.667 -3.362,14.439 1.84,11.038 5.876,22.547 9.661,33.513 l -27.935,7.834 z"
           style="fill:#cbebb7;fill-opacity:1;fill-rule:nonzero;stroke:none"
           id="path4837"
           inkscape:connector-curvature="0" /><path
           d="m 377.899,289.838 -37.539,10.53 c 1.938,-4.735 3.612,-8.968 4.897,-11.54 2.345,-4.69 4.041,-9.83 6.429,-14.604 0.527,-1.054 0.736,-2.08 0.741,-3.099 l 25.486,17.372 c -0.005,0.447 -0.009,0.894 -0.014,1.341"
           style="fill:#cbebb7;fill-opacity:1;fill-rule:nonzero;stroke:none"
           id="path4839"
           inkscape:connector-curvature="0" /><path
           d="m 265.253,480.146 37.892,55.142 c -8.1,10.298 -16.128,18.99 -29.146,20.54 l -13.16,-4.371 z"
           style="fill:#f14a1c;fill-opacity:1;fill-rule:nonzero;stroke:none"
           id="path4841"
           inkscape:connector-curvature="0" /><path
           d="m 292.704,146.346 c 3.235,6.461 -2.672,10.455 -8.857,14.003 L 270.27,142.644 c 7.916,-1.086 20.263,-0.622 22.434,3.702"
           style="fill:#78b6c4;fill-opacity:1;fill-rule:nonzero;stroke:none"
           id="path4843"
           inkscape:connector-curvature="0" /><path
           d="m 259.213,423.237 24.854,-107.081 68.29,90.358 z"
           style="fill:#f9cf08;fill-opacity:1;fill-rule:nonzero;stroke:none"
           id="path4845"
           inkscape:connector-curvature="0" /><path
           d="m 284.067,316.156 71.542,23.461 -3.252,66.897 z"
           style="fill:#f1f02a;fill-opacity:1;fill-rule:nonzero;stroke:none"
           id="path4847"
           inkscape:connector-curvature="0" /><path
           d="m 344.69,454.363 -85.477,-31.126 93.144,-16.723 z"
           style="fill:#f79310;fill-opacity:1;fill-rule:nonzero;stroke:none"
           id="path4849"
           inkscape:connector-curvature="0" /><path
           d="m 265.253,480.146 -6.04,-56.909 85.477,31.126 z"
           style="fill:#f68612;fill-opacity:1;fill-rule:nonzero;stroke:none"
           id="path4851"
           inkscape:connector-curvature="0" /><path
           d="m 276.867,248.796 23.964,-3.47 c 1.704,2.147 3.193,4.345 4.138,6.711 1.218,3.05 1.228,5.786 0.734,8.333 l -21.636,55.786 z"
           style="fill:#cae87a;fill-opacity:1;fill-rule:nonzero;stroke:none"
           id="path4853"
           inkscape:connector-curvature="0" /><path
           d="m 263.968,144.36 c 0.231,-0.121 0.466,-0.24 0.708,-0.354 1.175,-0.555 3.178,-1.032 5.594,-1.362 l 13.577,17.705 c -4.389,2.518 -8.917,4.812 -10.412,7.6 -3.81,7.101 -1.394,19.742 2.894,32.28 l -11.773,-1.838 z"
           style="fill:#8fd79c;fill-opacity:1;fill-rule:nonzero;stroke:none"
           id="path4855"
           inkscape:connector-curvature="0" /><path
           d="m 291.805,234.183 c 2.529,3.927 6.095,7.454 9.026,11.143 l -23.964,3.47 z"
           style="fill:#a2dc96;fill-opacity:1;fill-rule:nonzero;stroke:none"
           id="path4857"
           inkscape:connector-curvature="0" /><path
           d="m 264.556,198.391 11.773,1.838 c 4.484,13.114 11.019,26.115 14.621,32.539 0.267,0.477 0.555,0.949 0.855,1.415 l -14.938,14.613 z"
           style="fill:#a1db87;fill-opacity:1;fill-rule:nonzero;stroke:none"
           id="path4859"
           inkscape:connector-curvature="0" /><path
           d="m 259.213,423.237 -53.657,-85.014 5.03,-1.413 c 1.139,1.759 2.325,3.482 3.578,5.152 4.084,5.45 2.649,10.512 8.465,11.099 2.833,0.283 10.078,-5.352 12.559,-7.011 7.162,-4.778 15.841,-7.05 22.771,-11.678 3.544,-2.366 10.225,-0.638 13.141,-2.921 3.415,-2.679 5.112,-7.646 5.866,-13.298 l 7.101,-1.997 z"
           style="fill:#facc09;fill-opacity:1;fill-rule:nonzero;stroke:none"
           id="path4861"
           inkscape:connector-curvature="0" /><path
           d="m 263.978,264.959 c -0.3,-1.465 -0.469,-3.035 -0.469,-4.745 0,-3.894 0.185,-7.506 0.411,-10.969 l 12.947,-0.449 z"
           style="fill:#ecd433;fill-opacity:1;fill-rule:nonzero;stroke:none"
           id="path4863"
           inkscape:connector-curvature="0" /><path
           d="m 200.183,317.454 c 2.682,5.709 5.486,11.317 8.688,16.612 l -3.315,4.157 z"
           style="fill:#ecd433;fill-opacity:1;fill-rule:nonzero;stroke:none"
           id="path4865"
           inkscape:connector-curvature="0" /><path
           d="m 208.871,334.066 c 0.559,0.924 1.13,1.839 1.715,2.744 l -5.03,1.413 z"
           style="fill:#f0eb32;fill-opacity:1;fill-rule:nonzero;stroke:none"
           id="path4867"
           inkscape:connector-curvature="0" /><path
           d="m 284.067,316.156 -7.101,1.997 c 1.095,-8.223 0.195,-17.897 -0.317,-24.074 -1.098,-13.13 -10.459,-18.263 -12.671,-29.12 l 12.889,-16.163 z"
           style="fill:#f0eb32;fill-opacity:1;fill-rule:nonzero;stroke:none"
           id="path4869"
           inkscape:connector-curvature="0" /><path
           d="m 260.839,551.457 -66.432,-79.906 70.846,8.595 z"
           style="fill:#f2561a;fill-opacity:1;fill-rule:nonzero;stroke:none"
           id="path4871"
           inkscape:connector-curvature="0" /><path
           d="m 276.867,248.796 -12.947,0.449 c 0.776,-11.913 2.029,-22.045 -2.165,-35.746 -1.032,-3.376 -2.577,-6.895 -4.231,-10.467 l 7.032,-4.641 z"
           style="fill:#c2e460;fill-opacity:1;fill-rule:nonzero;stroke:none"
           id="path4873"
           inkscape:connector-curvature="0" /><path
           d="m 205.556,338.223 53.657,85.014 -96.86,-24.622 z"
           style="fill:#f9aa0c;fill-opacity:1;fill-rule:nonzero;stroke:none"
           id="path4875"
           inkscape:connector-curvature="0" /><path
           d="m 260.839,551.457 -10.66,0.844 c -18.536,-6.631 -33.069,-20.414 -49.159,-32.237 -3.656,-2.685 -7.456,-4.9 -11.344,-6.835 l 4.731,-41.678 z"
           style="fill:#f14c1c;fill-opacity:1;fill-rule:nonzero;stroke:none"
           id="path4877"
           inkscape:connector-curvature="0" /><path
           d="m 251.727,189.89 c -1.066,-2.89 -1.885,-5.743 -2.237,-8.513 -1.036,-8.187 0.492,-7.947 2.921,-15.767 2.778,-8.917 3.521,-17.024 11.557,-21.25 l 0.588,54.031 z"
           style="fill:#b1ba8d;fill-opacity:1;fill-rule:nonzero;stroke:none"
           id="path4879"
           inkscape:connector-curvature="0" /><path
           d="m 209.035,141.998 c -4.516,3.233 -8.552,6.97 -12.094,11.578 l -12.29,-8.145 z"
           style="fill:#b1ba8d;fill-opacity:1;fill-rule:nonzero;stroke:none"
           id="path4881"
           inkscape:connector-curvature="0" /><path
           d="m 184.651,145.431 12.29,8.145 c -0.805,1.048 -1.586,2.139 -2.339,3.28 -8.558,12.98 -13.729,29.231 -17.795,44.839 l -10.971,0.413 z"
           style="fill:#bcb35b;fill-opacity:1;fill-rule:nonzero;stroke:none"
           id="path4883"
           inkscape:connector-curvature="0" /><path
           d="m 255.518,198.731 c -1.373,-2.951 -2.709,-5.916 -3.791,-8.841 l 12.829,8.501 z"
           style="fill:#bcb35b;fill-opacity:1;fill-rule:nonzero;stroke:none"
           id="path4885"
           inkscape:connector-curvature="0" /><path
           d="m 176.807,201.695 c -1.147,4.404 -2.206,8.757 -3.229,12.971 -0.488,2.014 -0.96,3.895 -1.379,5.681 l -6.363,-18.239 z"
           style="fill:#ccc146;fill-opacity:1;fill-rule:nonzero;stroke:none"
           id="path4887"
           inkscape:connector-curvature="0" /><path
           d="m 257.524,203.032 c -0.66,-1.428 -1.337,-2.863 -2.006,-4.301 l 9.038,-0.34 z"
           style="fill:#ccc146;fill-opacity:1;fill-rule:nonzero;stroke:none"
           id="path4889"
           inkscape:connector-curvature="0" /><path
           d="m 194.407,471.551 64.806,-48.314 6.04,56.909 z"
           style="fill:#f57515;fill-opacity:1;fill-rule:nonzero;stroke:none"
           id="path4891"
           inkscape:connector-curvature="0" /><path
           d="m 162.353,398.615 96.86,24.622 -64.806,48.314 z"
           style="fill:#f68712;fill-opacity:1;fill-rule:nonzero;stroke:none"
           id="path4893"
           inkscape:connector-curvature="0" /><path
           d="m 189.676,513.229 c -10.697,-5.324 -22.069,-8.522 -32.997,-13.493 l 37.728,-28.185 z"
           style="fill:#ef401e;fill-opacity:1;fill-rule:nonzero;stroke:none"
           id="path4895"
           inkscape:connector-curvature="0" /><path
           d="m 156.679,499.736 c -2.774,-1.261 -5.519,-2.637 -8.217,-4.192 -10.3,-5.937 -19.983,-14.153 -27.595,-23.816 l 73.54,-0.177 z"
           style="fill:#f03f1e;fill-opacity:1;fill-rule:nonzero;stroke:none"
           id="path4897"
           inkscape:connector-curvature="0" /><path
           d="m 123.173,335.362 4.247,-5.889 c 0.015,1.255 0.367,2.671 1.188,4.313 0.666,1.332 1.373,3.022 2.155,4.847 l -6.036,0.033 c -0.415,-1.078 -0.955,-2.199 -1.554,-3.304"
           style="fill:#f79010;fill-opacity:1;fill-rule:nonzero;stroke:none"
           id="path4899"
           inkscape:connector-curvature="0" /><path
           d="m 154.331,338.503 c 1.228,-12.126 -2.213,-29.107 -4.737,-39.777 l 28.592,-39.645 c -1.45,5.937 -4.163,11.845 0.941,18.649 8.908,11.874 14.645,26.084 21.056,39.724 l 5.373,20.769 z"
           style="fill:#f79010;fill-opacity:1;fill-rule:nonzero;stroke:none"
           id="path4901"
           inkscape:connector-curvature="0" /><path
           d="m 162.353,398.615 -37.484,-54.026 c 1.106,-1.251 0.805,-3.471 -0.142,-5.923 l 6.036,-0.033 c 3.353,7.823 8.108,18.119 17.115,13.256 3.927,-2.118 5.816,-7.099 6.453,-13.386 l 51.225,-0.28 z"
           style="fill:#f7990f;fill-opacity:1;fill-rule:nonzero;stroke:none"
           id="path4903"
           inkscape:connector-curvature="0" /><path
           d="m 194.407,471.551 -73.54,0.177 c -3.848,-4.885 -7.166,-10.141 -9.767,-15.658 l 51.253,-57.455 z"
           style="fill:#f36518;fill-opacity:1;fill-rule:nonzero;stroke:none"
           id="path4905"
           inkscape:connector-curvature="0" /><path
           d="m 147.878,291.749 c -3.867,-15.393 -16.166,-24.698 -16.752,-37.031 l 47.667,-2.443 c 0.308,2.306 -0.059,4.559 -0.607,6.806 l -28.592,39.645 c -0.673,-2.843 -1.281,-5.243 -1.716,-6.977"
           style="fill:#f2541b;fill-opacity:1;fill-rule:nonzero;stroke:none"
           id="path4907"
           inkscape:connector-curvature="0" /><path
           d="m 118.683,328.53 c -1.233,-1.58 -2.472,-2.937 -3.651,-4.177 l -6.637,-16.571 c 0.233,-0.984 0.543,-2.043 0.944,-3.185 2.953,-8.441 11.44,-13.937 17.518,-19.856 -6.12,13.227 5.225,14.212 8.761,23.938 4.135,11.383 -8.283,13.16 -8.198,20.794 l -4.247,5.889 c -1.452,-2.674 -3.255,-5.247 -4.49,-6.832"
           style="fill:#f2541b;fill-opacity:1;fill-rule:nonzero;stroke:none"
           id="path4909"
           inkscape:connector-curvature="0" /><path
           d="m 165.836,202.108 -8.521,-12.453 c 4.713,-14.902 4.975,-34.612 12.922,-47.086 l 14.414,2.862 z"
           style="fill:#bc4b2b;fill-opacity:1;fill-rule:nonzero;stroke:none"
           id="path4911"
           inkscape:connector-curvature="0" /><path
           d="m 135.618,240.359 c 5.392,-8.377 9.191,-16.91 12.642,-25.869 l 17.576,-12.382 6.363,18.239 c -2.282,9.726 -2.97,16.55 4.007,25.849 1.566,2.087 2.324,4.103 2.587,6.079 l -47.667,2.443 c -0.203,-4.292 1.008,-8.949 4.492,-14.359"
           style="fill:#df651b;fill-opacity:1;fill-rule:nonzero;stroke:none"
           id="path4913"
           inkscape:connector-curvature="0" /><path
           d="m 98.414,391.979 c -0.307,-1.618 -0.643,-3.234 -1.012,-4.847 l 20.809,-43.131 c 2.114,1.174 3.93,1.791 5.142,1.47 0.666,-0.179 1.163,-0.481 1.516,-0.882 l 37.484,54.026 z"
           style="fill:#f57914;fill-opacity:1;fill-rule:nonzero;stroke:none"
           id="path4915"
           inkscape:connector-curvature="0" /><path
           d="m 111.1,456.07 c -1.382,-2.932 -2.563,-5.937 -3.512,-9.002 -5.806,-18.742 -5.757,-37.047 -9.174,-55.089 l 63.939,6.636 z"
           style="fill:#f36218;fill-opacity:1;fill-rule:nonzero;stroke:none"
           id="path4917"
           inkscape:connector-curvature="0" /><path
           d="m 109.922,163.275 c -3.204,3.726 -8.011,5.96 -12.664,8.557 l 13.927,-26.633 c 5.841,2.822 5.515,10.201 -1.263,18.076"
           style="fill:#c23022;fill-opacity:1;fill-rule:nonzero;stroke:none"
           id="path4919"
           inkscape:connector-curvature="0" /><path
           d="m 153.938,199.021 c 0.779,-2.152 1.577,-4.332 2.407,-6.546 0.344,-0.917 0.666,-1.859 0.97,-2.82 l 8.521,12.453 z"
           style="fill:#c23022;fill-opacity:1;fill-rule:nonzero;stroke:none"
           id="path4921"
           inkscape:connector-curvature="0" /><path
           d="m 148.26,214.49 c 1.928,-5.007 3.749,-10.148 5.678,-15.469 l 11.898,3.087 z"
           style="fill:#d63822;fill-opacity:1;fill-rule:nonzero;stroke:none"
           id="path4923"
           inkscape:connector-curvature="0" /><path
           d="m 87.731,361.813 c -3.653,-6.345 -7.884,-11.978 -12.388,-17.28 l 36.739,-4.727 c 2.135,1.663 4.25,3.151 6.129,4.195 l -20.809,43.131 c -1.941,-8.488 -4.837,-16.922 -9.671,-25.319"
           style="fill:#f36019;fill-opacity:1;fill-rule:nonzero;stroke:none"
           id="path4925"
           inkscape:connector-curvature="0" /><path
           d="m 54.853,322.277 22.419,-44.17 c 0.174,0.27 0.351,0.535 0.532,0.791 6.19,8.79 14.003,8.842 14.599,22.191 0.533,11.909 -4.36,16.071 6.424,26.86 2.004,2.003 7.695,7.526 13.255,11.857 l -36.739,4.727 c -6.564,-7.726 -13.705,-14.75 -20.49,-22.256"
           style="fill:#f1511b;fill-opacity:1;fill-rule:nonzero;stroke:none"
           id="path4927"
           inkscape:connector-curvature="0" /><path
           d="m 108.395,307.782 6.637,16.571 c -4.824,-5.081 -8.611,-8.204 -6.637,-16.571"
           style="fill:#f1511b;fill-opacity:1;fill-rule:nonzero;stroke:none"
           id="path4929"
           inkscape:connector-curvature="0" /><path
           d="m 62.038,173.2 c 5.209,-11.81 4.359,-16.961 16.936,-21.605 7.127,-2.632 19.246,-7.909 26.86,-7.589 2.146,0.089 3.93,0.507 5.351,1.193 l -13.927,26.633 c -3.258,1.818 -6.439,3.814 -8.943,6.625 -0.832,0.934 -1.642,1.956 -2.427,3.058 l -25.022,-5.851 c 0.394,-0.773 0.787,-1.588 1.172,-2.464"
           style="fill:#be1e24;fill-opacity:1;fill-rule:nonzero;stroke:none"
           id="path4931"
           inkscape:connector-curvature="0" /><path
           d="m 52.111,319.191 c -6.557,-7.528 -10.949,-17.946 -8.761,-28.028 1.508,-6.941 6.426,-8.25 6.426,-16.354 0,-9.565 -0.334,-19.063 -0.354,-28.585 l 20.803,5.766 c 0.73,10.555 2.983,19.864 7.047,26.117 l -22.419,44.17 c -0.921,-1.02 -1.836,-2.047 -2.742,-3.086"
           style="fill:#ef2e21;fill-opacity:1;fill-rule:nonzero;stroke:none"
           id="path4933"
           inkscape:connector-curvature="0" /><path
           d="m 49.64,233.571 27.109,-32.855 c -5.124,15.574 -7.654,34.917 -6.524,51.274 l -20.803,-5.766 c -0.009,-4.21 0.046,-8.425 0.218,-12.653"
           style="fill:#dc2a23;fill-opacity:1;fill-rule:nonzero;stroke:none"
           id="path4935"
           inkscape:connector-curvature="0" /><path
           d="m 49.684,232.438 c 0.571,-12.595 1.54,-24.986 3.322,-37.465 1.369,-9.601 4.667,-13.035 7.86,-19.309 l 25.022,5.851 c -3.574,5.007 -6.66,11.663 -9.139,19.201 L 49.64,233.571 c 0.014,-0.377 0.027,-0.755 0.044,-1.133"
           style="fill:#cb1e25;fill-opacity:1;fill-rule:nonzero;stroke:none"
           id="path4937"
           inkscape:connector-curvature="0" /></g></g></g></svg>