<?xml version="1.0" encoding="UTF-8" standalone="no"?>
<!-- Created with Inkscape (http://www.inkscape.org/) -->

<svg
   xmlns:dc="http://purl.org/dc/elements/1.1/"
   xmlns:cc="http://creativecommons.org/ns#"
   xmlns:rdf="http://www.w3.org/1999/02/22-rdf-syntax-ns#"
   xmlns:svg="http://www.w3.org/2000/svg"
   xmlns="http://www.w3.org/2000/svg"
   xmlns:sodipodi="http://sodipodi.sourceforge.net/DTD/sodipodi-0.dtd"
   xmlns:inkscape="http://www.inkscape.org/namespaces/inkscape"
   version="1.1"
   id="svg70422"
   xml:space="preserve"
   width="800"
   height="800"
   viewBox="0 0 800 800"
   sodipodi:docname="logotype-concept-56-publicdomainvectors.org.svg"
   inkscape:version="0.92.4 (5da689c313, 2019-01-14)"><metadata
     id="metadata70428"><rdf:RDF><cc:Work
         rdf:about=""><dc:format>image/svg+xml</dc:format><dc:type
           rdf:resource="http://purl.org/dc/dcmitype/StillImage" /><dc:title></dc:title></cc:Work></rdf:RDF></metadata><defs
     id="defs70426"><clipPath
       clipPathUnits="userSpaceOnUse"
       id="clipPath70438"><path
         d="M 0,600 H 600 V 0 H 0 Z"
         id="path70436"
         inkscape:connector-curvature="0" /></clipPath><linearGradient
       x1="0"
       y1="0"
       x2="1"
       y2="0"
       gradientUnits="userSpaceOnUse"
       gradientTransform="matrix(459.33496,0,0,-459.33496,91.710937,310.99805)"
       spreadMethod="pad"
       id="linearGradient70462"><stop
         style="stop-opacity:1;stop-color:#1aaeec"
         offset="0"
         id="stop70452" /><stop
         style="stop-opacity:1;stop-color:#4253a7"
         offset="0.297753"
         id="stop70454" /><stop
         style="stop-opacity:1;stop-color:#e70c8d"
         offset="0.646067"
         id="stop70456" /><stop
         style="stop-opacity:1;stop-color:#e33c47"
         offset="0.955056"
         id="stop70458" /><stop
         style="stop-opacity:1;stop-color:#e33c47"
         offset="1"
         id="stop70460" /></linearGradient></defs><sodipodi:namedview
     pagecolor="#ffffff"
     bordercolor="#666666"
     borderopacity="1"
     objecttolerance="10"
     gridtolerance="10"
     guidetolerance="10"
     inkscape:pageopacity="0"
     inkscape:pageshadow="2"
     inkscape:window-width="797"
     inkscape:window-height="480"
     id="namedview70424"
     showgrid="false"
     inkscape:zoom="0.295"
     inkscape:cx="400"
     inkscape:cy="400"
     inkscape:window-x="0"
     inkscape:window-y="0"
     inkscape:window-maximized="0"
     inkscape:current-layer="g70430" /><g
     id="g70430"
     inkscape:groupmode="layer"
     inkscape:label="logotype-concept-56-publicdomainvectors.org"
     transform="matrix(1.3333333,0,0,-1.3333333,0,800)"><g
       id="g70432"><g
         id="g70434"
         clip-path="url(#clipPath70438)"><g
           id="g70440"><g
             id="g70442"><g
               id="g70448"><g
                 id="g70450"><path
                   d="m 344.357,226.468 c 2.121,-2.136 4.414,-4.451 6.926,-6.919 7.556,-7.538 16.86,-15.431 28.266,-22.969 -10.061,20.813 -15.981,45.874 -16.836,73.453 -0.565,19.803 1.549,40.589 6.205,61.771 7.379,35.9 22.04,72.284 42.237,107.23 3.898,6.771 8.019,13.508 12.404,20.206 -7.761,-16.344 -13.521,-33.303 -16.981,-50.373 -18.079,-41.745 -27.012,-82.16 -27.84,-118.331 -0.895,-43.057 10.331,-80.79 29.843,-107.185 9.686,-13.242 22.005,-23.924 35.613,-31.718 -1.872,0.085 -3.746,0.151 -5.594,0.301 -13.353,2.143 -25.274,5.369 -35.812,8.986 -28.297,9.893 -47.842,23.527 -61.892,34.957 z m 64.456,101.612 c -0.09,-0.995 -0.265,-1.958 -0.358,-2.974 -4.622,-38.629 -0.256,-74.84 13.062,-103.708 10.018,-23.449 25.416,-41.66 42.597,-53.65 6.31,-3.957 12.482,-7.354 18.554,-9.814 3.421,-1.538 7.15,-2.487 10.806,-3.52 19.181,2.815 38.489,7.659 57.572,14.265 -9.118,-0.516 -18.518,0.025 -27.817,1.995 -31.87,6.409 -61.83,30.293 -77.765,65.479 -5.388,12.821 -9.596,27.375 -12.055,43.529 -11.179,14.181 -19.545,30.733 -24.596,48.398 m -75.917,2.435 c 0.793,2.902 1.653,6.046 2.536,9.457 2.748,10.31 4.931,22.318 5.751,35.961 -12.99,-19.112 -31.736,-36.775 -55.191,-51.301 -16.866,-10.398 -35.925,-18.956 -56.599,-25.516 -34.777,-11.559 -73.621,-17.052 -113.982,-17.037 -7.811,-0.009 -15.706,0.189 -23.7,0.643 18.033,1.447 35.599,4.937 52.114,10.478 45.193,5.216 84.661,17.689 116.399,35.053 37.733,20.759 64.801,49.347 77.905,79.436 6.625,15.011 9.719,31.022 9.658,46.704 0.865,-1.663 1.742,-3.316 2.541,-4.997 4.817,-12.637 7.988,-24.57 10.12,-35.508 5.583,-29.45 3.547,-53.19 0.673,-71.075 z m -120.222,5.015 c 0.904,0.418 1.829,0.749 2.754,1.175 35.763,15.313 64.939,37.198 83.28,63.164 15.298,20.401 23.374,42.844 25.164,63.716 0.273,7.443 0.13,14.488 -0.778,20.977 -0.371,3.731 -1.42,7.436 -2.355,11.116 -12.024,15.205 -25.876,29.504 -41.138,42.729 5.004,-7.637 9.239,-16.05 12.181,-25.086 10.386,-30.805 4.679,-68.695 -17.821,-100.088 -8.415,-11.079 -18.914,-21.999 -31.675,-32.207 -6.688,-16.769 -16.839,-32.29 -29.612,-45.496 m 35.847,-66.963 c -2.91,-0.769 -6.064,-1.591 -9.458,-2.538 -10.304,-2.771 -21.791,-6.885 -34.02,-12.998 23.046,-1.69 47.715,-9.096 72.023,-22.145 17.438,-9.409 34.381,-21.636 50.401,-36.259 27.395,-24.337 51.577,-55.23 71.744,-90.189 3.913,-6.76 7.691,-13.701 11.295,-20.849 -10.274,14.893 -22.079,28.362 -35.135,39.894 -27.109,36.53 -57.646,64.472 -88.557,83.275 -36.839,22.302 -75.134,31.446 -107.743,27.747 -16.314,-1.766 -31.727,-7.094 -45.277,-14.981 1.006,1.577 2,3.165 3.057,4.698 8.535,10.487 17.287,19.199 25.69,26.517 22.71,19.558 44.292,29.667 61.218,36.124 z m 1.558,-103.728 c -15.22,5.945 -29.924,9.58 -43.724,11.325 -38.438,3.793 -74.106,-10.211 -95.59,-34.609 -6.355,-7.068 -11.525,-14.939 -15.635,-23.089 3.82,19.827 9.278,38.97 16.433,56.989 2.721,2.649 5.405,5.406 8.451,7.599 5.165,4.03 11.195,7.675 17.777,11.16 18.972,8.889 42.445,13.114 67.762,10.066 31.657,-2.901 65.195,-17.226 96.343,-40.544 0.836,-0.586 1.581,-1.219 2.392,-1.796 -17.821,4.463 -36.339,5.491 -54.209,2.899"
                   style="fill:url(#linearGradient70462);fill-rule:evenodd;stroke:none"
                   id="path70464"
                   inkscape:connector-curvature="0" /></g></g></g></g></g></g></g></svg>