<?xml version="1.0" encoding="UTF-8" standalone="no"?>
<!-- Created with Inkscape (http://www.inkscape.org/) -->

<svg
   xmlns:dc="http://purl.org/dc/elements/1.1/"
   xmlns:cc="http://creativecommons.org/ns#"
   xmlns:rdf="http://www.w3.org/1999/02/22-rdf-syntax-ns#"
   xmlns:svg="http://www.w3.org/2000/svg"
   xmlns="http://www.w3.org/2000/svg"
   xmlns:sodipodi="http://sodipodi.sourceforge.net/DTD/sodipodi-0.dtd"
   xmlns:inkscape="http://www.inkscape.org/namespaces/inkscape"
   version="1.1"
   id="svg36925"
   xml:space="preserve"
   width="800"
   height="800"
   viewBox="0 0 800 800"
   sodipodi:docname="elephant-color-publicdomainvectors.org.svg"
   inkscape:version="0.92.4 (5da689c313, 2019-01-14)"><metadata
     id="metadata36931"><rdf:RDF><cc:Work
         rdf:about=""><dc:format>image/svg+xml</dc:format><dc:type
           rdf:resource="http://purl.org/dc/dcmitype/StillImage" /><dc:title></dc:title></cc:Work></rdf:RDF></metadata><defs
     id="defs36929"><clipPath
       clipPathUnits="userSpaceOnUse"
       id="clipPath36941"><path
         d="M 0,600 H 600 V 0 H 0 Z"
         id="path36939"
         inkscape:connector-curvature="0" /></clipPath></defs><sodipodi:namedview
     pagecolor="#ffffff"
     bordercolor="#666666"
     borderopacity="1"
     objecttolerance="10"
     gridtolerance="10"
     guidetolerance="10"
     inkscape:pageopacity="0"
     inkscape:pageshadow="2"
     inkscape:window-width="1920"
     inkscape:window-height="1018"
     id="namedview36927"
     showgrid="false"
     inkscape:zoom="1.0013867"
     inkscape:cx="400"
     inkscape:cy="400"
     inkscape:window-x="-8"
     inkscape:window-y="-8"
     inkscape:window-maximized="1"
     inkscape:current-layer="g36933" /><g
     id="g36933"
     inkscape:groupmode="layer"
     inkscape:label="elephant-color-publicdomainvectors.org"
     transform="matrix(1.3333333,0,0,-1.3333333,0,800)"><g
       id="g36935"><g
         id="g36937"
         clip-path="url(#clipPath36941)"><path
           d="m 531.34,388.846 c -5.491,17.3 -14.403,34.082 -26.935,49.873 l -7.185,-1.203 z"
           style="fill:#af001f;fill-opacity:1;fill-rule:nonzero;stroke:none"
           id="path36943"
           inkscape:connector-curvature="0" /><path
           d="m 466.193,373.727 71.216,-14.663 c -0.952,10.037 -2.962,19.993 -6.069,29.782 l -34.12,48.67 z"
           style="fill:#b4281c;fill-opacity:1;fill-rule:nonzero;stroke:none"
           id="path36945"
           inkscape:connector-curvature="0" /><path
           d="m 531.089,299.842 c 4.689,15.361 7.052,30.928 6.963,46.391 l -56.671,-31.521 z"
           style="fill:#ab8fa7;fill-opacity:1;fill-rule:nonzero;stroke:none"
           id="path36947"
           inkscape:connector-curvature="0" /><path
           d="m 496.303,235.119 c 7.058,8.913 13.265,18.086 18.586,27.444 l -43.055,-29.648 z"
           style="fill:#003ccc;fill-opacity:1;fill-rule:nonzero;stroke:none"
           id="path36949"
           inkscape:connector-curvature="0" /><path
           d="m 520.588,160.721 c 10.16,12.555 -5.579,42.122 -26.018,30.736 -6.007,-4.813 -12.013,-5.202 -16.537,-3.074 l -11.406,-6.889 z"
           style="fill:#0056c8;fill-opacity:1;fill-rule:nonzero;stroke:none"
           id="path36951"
           inkscape:connector-curvature="0" /><path
           d="m 476.928,213.447 c 7.038,7.013 13.5,14.253 19.375,21.672 l -24.469,-2.204 -5.207,-51.421 11.406,6.889 c -8.208,3.861 -11.532,16.013 -1.105,25.064"
           style="fill:#006ad4;fill-opacity:1;fill-rule:nonzero;stroke:none"
           id="path36953"
           inkscape:connector-curvature="0" /><path
           d="m 471.834,232.915 43.055,29.648 c 6.921,12.173 12.346,24.657 16.2,37.279 l -49.708,14.87 z"
           style="fill:#5898c4;fill-opacity:1;fill-rule:nonzero;stroke:none"
           id="path36955"
           inkscape:connector-curvature="0" /><path
           d="m 466.08,159.8 c 13.411,-4.104 29.413,-3.659 42.941,-4.353 5.437,0.35 9.203,2.352 11.567,5.274 l -53.961,20.773 z"
           style="fill:#0063c3;fill-opacity:1;fill-rule:nonzero;stroke:none"
           id="path36957"
           inkscape:connector-curvature="0" /><path
           d="m 481.381,314.712 56.671,31.521 c -0.025,4.288 -0.239,8.567 -0.643,12.831 l -71.216,14.663 z"
           style="fill:#b28e76;fill-opacity:1;fill-rule:nonzero;stroke:none"
           id="path36959"
           inkscape:connector-curvature="0" /><path
           d="m 504.405,438.719 c -1.111,1.4 -2.254,2.792 -3.422,4.177 l -3.763,-5.38 z"
           style="fill:#aa002b;fill-opacity:1;fill-rule:nonzero;stroke:none"
           id="path36961"
           inkscape:connector-curvature="0" /><path
           d="m 500.983,442.896 c -7.091,8.403 -15.237,16.507 -24.466,24.239 l 20.703,-29.619 z"
           style="fill:#ad0020;fill-opacity:1;fill-rule:nonzero;stroke:none"
           id="path36963"
           inkscape:connector-curvature="0" /><path
           d="m 481.381,314.712 -47.95,-23.866 9.298,-14.027 c 11.615,4.744 20.1,5.222 20.52,-1.868 0.282,-4.738 -2.378,-11.717 -6.125,-19.846 l 14.71,-22.19 z"
           style="fill:#6dc9cd;fill-opacity:1;fill-rule:nonzero;stroke:none"
           id="path36965"
           inkscape:connector-curvature="0" /><path
           d="M 497.22,437.516 417.158,416.47 466.193,373.727 Z"
           style="fill:#c32500;fill-opacity:1;fill-rule:nonzero;stroke:none"
           id="path36967"
           inkscape:connector-curvature="0" /><path
           d="m 497.22,437.516 -20.703,29.619 c -1.567,1.312 -3.162,2.615 -4.79,3.906 -7.637,4.402 -16.505,8.188 -26.107,11.214 L 417.158,416.47 Z"
           style="fill:#c10600;fill-opacity:1;fill-rule:nonzero;stroke:none"
           id="path36969"
           inkscape:connector-curvature="0" /><path
           d="m 442.1,179.806 c 4.949,-11.047 13.704,-16.862 23.98,-20.006 l 0.547,21.694 z"
           style="fill:#007fd1;fill-opacity:1;fill-rule:nonzero;stroke:none"
           id="path36971"
           inkscape:connector-curvature="0" /><path
           d="m 433.431,290.846 47.95,23.866 -15.188,59.015 z"
           style="fill:#abc38b;fill-opacity:1;fill-rule:nonzero;stroke:none"
           id="path36973"
           inkscape:connector-curvature="0" /><path
           d="m 445.62,482.255 c -11.13,3.506 -23.247,5.988 -35.58,7.22 l 7.118,-73.005 z"
           style="fill:#c60800;fill-opacity:1;fill-rule:nonzero;stroke:none"
           id="path36975"
           inkscape:connector-curvature="0" /><path
           d="m 395.462,375.463 37.969,-84.617 32.762,82.881 z"
           style="fill:#c8c46c;fill-opacity:1;fill-rule:nonzero;stroke:none"
           id="path36977"
           inkscape:connector-curvature="0" /><path
           d="m 437.699,209.044 c -2.276,-9.673 -2.126,-18.526 2.83,-25.168 0.469,-1.431 0.994,-2.785 1.571,-4.07 l 24.527,1.688 z"
           style="fill:#0097de;fill-opacity:1;fill-rule:nonzero;stroke:none"
           id="path36979"
           inkscape:connector-curvature="0" /><path
           d="m 471.834,232.915 -26.107,-1.74 c -3.361,-7.451 -6.352,-15.013 -8.028,-22.131 l 28.928,-27.55 z"
           style="fill:#008dde;fill-opacity:1;fill-rule:nonzero;stroke:none"
           id="path36981"
           inkscape:connector-curvature="0" /><path
           d="m 457.124,255.105 c -3.369,-7.309 -7.616,-15.549 -11.397,-23.93 l 26.107,1.74 z"
           style="fill:#169ee2;fill-opacity:1;fill-rule:nonzero;stroke:none"
           id="path36983"
           inkscape:connector-curvature="0" /><path
           d="m 427.493,269.227 c 5.372,3.08 10.558,5.682 15.236,7.592 l -9.298,14.027 z"
           style="fill:#169ee2;fill-opacity:1;fill-rule:nonzero;stroke:none"
           id="path36985"
           inkscape:connector-curvature="0" /><path
           d="M 466.193,373.727 417.158,416.47 395.462,375.463 Z"
           style="fill:#ce620a;fill-opacity:1;fill-rule:nonzero;stroke:none"
           id="path36987"
           inkscape:connector-curvature="0" /><path
           d="m 332.324,345.087 24.735,-67.91 38.403,98.286 z"
           style="fill:#dae262;fill-opacity:1;fill-rule:nonzero;stroke:none"
           id="path36989"
           inkscape:connector-curvature="0" /><path
           d="m 392.231,125.045 c 4.485,3.044 7.976,8.205 9.78,16.705 2.213,10.421 -0.317,19.686 -4.663,28.211 l -29.875,-14.938 z"
           style="fill:#008ad9;fill-opacity:1;fill-rule:nonzero;stroke:none"
           id="path36991"
           inkscape:connector-curvature="0" /><path
           d="m 357.059,277.177 38.155,-30.776 c 9.728,8.371 21.385,16.578 32.279,22.826 l 5.938,21.619 z"
           style="fill:#74e0e0;fill-opacity:1;fill-rule:nonzero;stroke:none"
           id="path36993"
           inkscape:connector-curvature="0" /><path
           d="m 357.059,277.177 76.372,13.669 -37.969,84.617 z"
           style="fill:#afdf7b;fill-opacity:1;fill-rule:nonzero;stroke:none"
           id="path36995"
           inkscape:connector-curvature="0" /><path
           d="m 396.618,490.309 c -25.935,0.622 -51.594,-4.599 -69.889,-17.746 -1.364,-1.275 -2.738,-2.461 -4.121,-3.567 l 1.688,-56.215 z"
           style="fill:#df2200;fill-opacity:1;fill-rule:nonzero;stroke:none"
           id="path36997"
           inkscape:connector-curvature="0" /><path
           d="m 397.348,169.961 c -2.769,5.432 -6.274,10.562 -9.76,15.502 l -20.115,-30.44 z"
           style="fill:#009be2;fill-opacity:1;fill-rule:nonzero;stroke:none"
           id="path36999"
           inkscape:connector-curvature="0" /><path
           d="m 367.473,155.023 20.115,30.44 c -8.067,11.427 -16.029,21.826 -14.527,32.536 0.686,4.901 4.853,11.166 11.047,17.826 l -62.416,12.712 z"
           style="fill:#14b4ec;fill-opacity:1;fill-rule:nonzero;stroke:none"
           id="path37001"
           inkscape:connector-curvature="0" /><path
           d="m 417.158,416.47 -7.118,73.005 c -4.458,0.444 -8.943,0.726 -13.422,0.834 l -72.322,-77.528 z"
           style="fill:#dc2b00;fill-opacity:1;fill-rule:nonzero;stroke:none"
           id="path37003"
           inkscape:connector-curvature="0" /><path
           d="m 417.158,416.47 -92.862,-3.689 71.166,-37.318 z"
           style="fill:#df5e00;fill-opacity:1;fill-rule:nonzero;stroke:none"
           id="path37005"
           inkscape:connector-curvature="0" /><path
           d="m 321.692,248.537 62.416,-12.712 c 3.222,3.464 6.991,7.034 11.106,10.576 l -38.155,30.776 z"
           style="fill:#67d7ef;fill-opacity:1;fill-rule:nonzero;stroke:none"
           id="path37007"
           inkscape:connector-curvature="0" /><path
           d="m 364.614,121.834 c 9.82,-1.049 20.111,-1.887 27.617,3.211 l -24.758,29.978 z"
           style="fill:#0074d4;fill-opacity:1;fill-rule:nonzero;stroke:none"
           id="path37009"
           inkscape:connector-curvature="0" /><path
           d="m 395.462,375.463 -71.166,37.318 8.028,-67.694 z"
           style="fill:#e88200;fill-opacity:1;fill-rule:nonzero;stroke:none"
           id="path37011"
           inkscape:connector-curvature="0" /><path
           d="m 299.563,295.402 57.496,-18.225 -24.735,67.91 z"
           style="fill:#dcf07c;fill-opacity:1;fill-rule:nonzero;stroke:none"
           id="path37013"
           inkscape:connector-curvature="0" /><path
           d="m 321.692,248.537 -21.356,-29.501 c 1.986,-0.461 3.911,-1.261 5.768,-2.487 14.885,-9.833 17.755,-35.183 11.893,-53.49 l 49.476,-8.036 z"
           style="fill:#31bded;fill-opacity:1;fill-rule:nonzero;stroke:none"
           id="path37015"
           inkscape:connector-curvature="0" /><path
           d="m 329.478,122.737 c 5.033,-1.174 10.786,-1.299 16.776,-0.274 5.219,0.894 11.681,0.085 18.36,-0.629 l 2.859,33.189 z"
           style="fill:#0069d5;fill-opacity:1;fill-rule:nonzero;stroke:none"
           id="path37017"
           inkscape:connector-curvature="0" /><path
           d="m 317.997,163.059 c -0.707,-2.208 -1.54,-4.315 -2.495,-6.279 -9.029,-18.568 -0.513,-30.663 13.976,-34.043 l 37.995,32.286 z"
           style="fill:#0181dd;fill-opacity:1;fill-rule:nonzero;stroke:none"
           id="path37019"
           inkscape:connector-curvature="0" /><path
           d="m 267.991,211.931 c 11.896,3.734 22.834,9.309 32.345,7.105 l 21.356,29.501 z"
           style="fill:#8bebdb;fill-opacity:1;fill-rule:nonzero;stroke:none"
           id="path37021"
           inkscape:connector-curvature="0" /><path
           d="m 332.324,345.087 -8.028,67.694 -27.771,-54.892 z"
           style="fill:#f38900;fill-opacity:1;fill-rule:nonzero;stroke:none"
           id="path37023"
           inkscape:connector-curvature="0" /><path
           d="m 321.692,248.537 35.367,28.64 -57.496,18.225 z"
           style="fill:#b7f3bb;fill-opacity:1;fill-rule:nonzero;stroke:none"
           id="path37025"
           inkscape:connector-curvature="0" /><path
           d="m 307.078,460.032 c -7.636,-2.886 -15.666,-3.932 -24.265,-3.678 l 6.552,-53.77 z"
           style="fill:#ef3500;fill-opacity:1;fill-rule:nonzero;stroke:none"
           id="path37027"
           inkscape:connector-curvature="0" /><path
           d="m 324.296,412.781 -1.688,56.215 c -5.023,-4.016 -10.18,-6.941 -15.53,-8.964 l -17.713,-57.448 z"
           style="fill:#f43800;fill-opacity:1;fill-rule:nonzero;stroke:none"
           id="path37029"
           inkscape:connector-curvature="0" /><path
           d="m 324.296,412.781 -34.931,-10.197 7.16,-44.695 z"
           style="fill:#f77700;fill-opacity:1;fill-rule:nonzero;stroke:none"
           id="path37031"
           inkscape:connector-curvature="0" /><path
           d="m 299.563,295.402 32.761,49.685 -35.799,12.802 z"
           style="fill:#f2da4a;fill-opacity:1;fill-rule:nonzero;stroke:none"
           id="path37033"
           inkscape:connector-curvature="0" /><path
           d="m 289.365,402.584 -6.552,53.77 c -5.767,0.171 -11.788,0.925 -18.119,2.103 -9.145,0.403 -18.486,0.299 -27.902,-0.313 l -21.63,-31.477 z"
           style="fill:#fb6100;fill-opacity:1;fill-rule:nonzero;stroke:none"
           id="path37035"
           inkscape:connector-curvature="0" /><path
           d="m 232.736,273.488 88.956,-24.951 -22.129,46.865 z"
           style="fill:#d8f890;fill-opacity:1;fill-rule:nonzero;stroke:none"
           id="path37037"
           inkscape:connector-curvature="0" /><path
           d="m 232.736,273.488 24.852,-64.081 c 3.538,0.543 7.01,1.458 10.403,2.524 l 53.701,36.606 z"
           style="fill:#c5f5c1;fill-opacity:1;fill-rule:nonzero;stroke:none"
           id="path37039"
           inkscape:connector-curvature="0" /><path
           d="m 236.792,458.144 c -7.779,-0.506 -15.608,-1.361 -23.419,-2.565 l 1.789,-28.912 z"
           style="fill:#f55a00;fill-opacity:1;fill-rule:nonzero;stroke:none"
           id="path37041"
           inkscape:connector-curvature="0" /><path
           d="m 209.521,373.51 23.215,-100.022 63.789,84.401 z"
           style="fill:#ffd100;fill-opacity:1;fill-rule:nonzero;stroke:none"
           id="path37043"
           inkscape:connector-curvature="0" /><path
           d="m 296.525,357.889 -63.789,-84.401 66.827,21.914 z"
           style="fill:#f9ed2d;fill-opacity:1;fill-rule:nonzero;stroke:none"
           id="path37045"
           inkscape:connector-curvature="0" /><path
           d="m 296.525,357.889 -7.16,44.695 -79.844,-29.074 z"
           style="fill:#fd9d00;fill-opacity:1;fill-rule:nonzero;stroke:none"
           id="path37047"
           inkscape:connector-curvature="0" /><path
           d="m 289.365,402.584 -74.203,24.083 -5.641,-53.157 z"
           style="fill:#ff9300;fill-opacity:1;fill-rule:nonzero;stroke:none"
           id="path37049"
           inkscape:connector-curvature="0" /><path
           d="m 226.126,211.649 c 4.874,0.429 10.071,0.049 15.175,-1.425 5.555,-1.605 10.996,-1.627 16.287,-0.817 l -24.852,64.081 z"
           style="fill:#cbf387;fill-opacity:1;fill-rule:nonzero;stroke:none"
           id="path37051"
           inkscape:connector-curvature="0" /><path
           d="m 214.098,125.443 c 15.736,3.633 14.906,23.015 8.711,39.338 l -8.298,-1.296 z"
           style="fill:#8bcfa3;fill-opacity:1;fill-rule:nonzero;stroke:none"
           id="path37053"
           inkscape:connector-curvature="0" /><path
           d="m 222.809,164.781 c -1.5,3.95 -3.314,7.721 -5.284,11.046 l -3.014,-12.342 z"
           style="fill:#9ae292;fill-opacity:1;fill-rule:nonzero;stroke:none"
           id="path37055"
           inkscape:connector-curvature="0" /><path
           d="M 159.401,294.1 232.736,273.488 209.521,373.51 Z"
           style="fill:#ffce00;fill-opacity:1;fill-rule:nonzero;stroke:none"
           id="path37057"
           inkscape:connector-curvature="0" /><path
           d="m 138.572,213.605 81.873,-2.844 c 1.54,0.35 3.137,0.62 4.774,0.8 L 159.401,294.1 Z"
           style="fill:#f0d03c;fill-opacity:1;fill-rule:nonzero;stroke:none"
           id="path37059"
           inkscape:connector-curvature="0" /><path
           d="m 159.401,294.1 65.818,-82.539 c 0.301,0.032 0.603,0.061 0.907,0.088 l 6.61,61.839 z"
           style="fill:#f6e63a;fill-opacity:1;fill-rule:nonzero;stroke:none"
           id="path37061"
           inkscape:connector-curvature="0" /><path
           d="m 215.162,426.667 -1.789,28.912 c -14.21,-2.19 -28.359,-5.539 -42.038,-10.058 L 148.987,418.64 Z"
           style="fill:#fb6800;fill-opacity:1;fill-rule:nonzero;stroke:none"
           id="path37063"
           inkscape:connector-curvature="0" /><path
           d="m 214.511,163.485 3.014,12.342 c -3.004,5.073 -6.371,9.11 -9.536,11.159 -13.012,8.434 -3.187,20.221 12.456,23.775 l -81.873,2.844 z"
           style="fill:#c7df6f;fill-opacity:1;fill-rule:nonzero;stroke:none"
           id="path37065"
           inkscape:connector-curvature="0" /><path
           d="m 119.045,350.512 40.356,-56.412 50.12,79.41 z"
           style="fill:#feb200;fill-opacity:1;fill-rule:nonzero;stroke:none"
           id="path37067"
           inkscape:connector-curvature="0" /><path
           d="m 171.335,445.521 c -8.311,-2.747 -16.447,-5.925 -24.317,-9.539 l 1.969,-17.342 z"
           style="fill:#f35c00;fill-opacity:1;fill-rule:nonzero;stroke:none"
           id="path37069"
           inkscape:connector-curvature="0" /><path
           d="m 154.79,123.902 c 18.752,-3.599 39.224,-1.339 57.381,1.188 0.668,0.093 1.31,0.211 1.927,0.353 l 0.413,38.042 z"
           style="fill:#b5b995;fill-opacity:1;fill-rule:nonzero;stroke:none"
           id="path37071"
           inkscape:connector-curvature="0" /><path
           d="m 122.375,166.954 c -0.008,-0.049 -0.017,-0.098 -0.025,-0.146 l 11.916,-35.896 c 6.439,-3.402 13.356,-5.633 20.524,-7.01 l 59.721,39.583 z"
           style="fill:#c2b266;fill-opacity:1;fill-rule:nonzero;stroke:none"
           id="path37073"
           inkscape:connector-curvature="0" /><path
           d="m 138.572,213.605 -16.116,-46.201 c -0.027,-0.15 -0.054,-0.3 -0.081,-0.45 l 92.136,-3.469 z"
           style="fill:#d3bf53;fill-opacity:1;fill-rule:nonzero;stroke:none"
           id="path37075"
           inkscape:connector-curvature="0" /><path
           d="m 215.162,426.667 -66.175,-8.027 60.534,-45.13 z"
           style="fill:#ff8500;fill-opacity:1;fill-rule:nonzero;stroke:none"
           id="path37077"
           inkscape:connector-curvature="0" /><path
           d="m 148.987,418.64 -29.942,-68.128 90.476,22.998 z"
           style="fill:#fe9400;fill-opacity:1;fill-rule:nonzero;stroke:none"
           id="path37079"
           inkscape:connector-curvature="0" /><path
           d="m 147.018,435.982 c -4.33,-1.988 -8.58,-4.107 -12.734,-6.359 l 14.703,-10.983 z"
           style="fill:#f04f00;fill-opacity:1;fill-rule:nonzero;stroke:none"
           id="path37081"
           inkscape:connector-curvature="0" /><path
           d="m 134.284,429.623 c -6.166,-3.344 -12.121,-6.978 -17.813,-10.906 l 32.516,-0.077 z"
           style="fill:#f64e00;fill-opacity:1;fill-rule:nonzero;stroke:none"
           id="path37083"
           inkscape:connector-curvature="0" /><path
           d="m 159.401,294.1 -57.197,0.313 c 7.694,-15.78 15.786,-33.407 22.917,-47.625 3.583,-7.145 5.235,-14.652 5.664,-22.384 l 7.787,-10.799 z"
           style="fill:#fb9b00;fill-opacity:1;fill-rule:nonzero;stroke:none"
           id="path37085"
           inkscape:connector-curvature="0" /><path
           d="M 119.045,350.512 92.886,312.808 c 2.971,-5.557 6.11,-11.815 9.318,-18.395 l 57.197,-0.313 z"
           style="fill:#ffa300;fill-opacity:1;fill-rule:nonzero;stroke:none"
           id="path37087"
           inkscape:connector-curvature="0" /><path
           d="m 148.987,418.64 -32.516,0.077 C 104.347,410.351 93.414,400.657 84.158,389.62 l 34.887,-39.108 z"
           style="fill:#fd7700;fill-opacity:1;fill-rule:nonzero;stroke:none"
           id="path37089"
           inkscape:connector-curvature="0" /><path
           d="m 130.785,224.404 c 0.19,-3.425 0.14,-6.894 -0.092,-10.395 l 7.879,-0.404 z"
           style="fill:#f56500;fill-opacity:1;fill-rule:nonzero;stroke:none"
           id="path37091"
           inkscape:connector-curvature="0" /><path
           d="m 120.181,149.071 h -0.01 c -0.223,-4.722 2.02,-10.061 5.908,-12.977 2.624,-1.971 5.359,-3.689 8.187,-5.182 l -11.916,35.896 c -1.071,-5.99 -1.892,-11.921 -2.169,-17.737"
           style="fill:#bc5024;fill-opacity:1;fill-rule:nonzero;stroke:none"
           id="path37093"
           inkscape:connector-curvature="0" /><path
           d="m 130.693,214.009 c -1.006,-15.253 -5.427,-31.116 -8.237,-46.605 l 16.116,46.201 z"
           style="fill:#e07000;fill-opacity:1;fill-rule:nonzero;stroke:none"
           id="path37095"
           inkscape:connector-curvature="0" /><path
           d="m 58.999,344.278 c -0.374,-1.174 -0.734,-2.356 -1.078,-3.549 l 11.996,-24.866 c 5.901,8.283 11.5,15.588 13.493,12.807 2.833,-3.957 6.043,-9.441 9.476,-15.862 l 26.159,37.704 z"
           style="fill:#ff8800;fill-opacity:1;fill-rule:nonzero;stroke:none"
           id="path37097"
           inkscape:connector-curvature="0" /><path
           d="M 84.158,389.62 C 73.1,376.432 64.437,361.326 58.999,344.278 l 60.046,6.234 z"
           style="fill:#fd7400;fill-opacity:1;fill-rule:nonzero;stroke:none"
           id="path37099"
           inkscape:connector-curvature="0" /><path
           d="m 52.575,298.871 c 0.06,-0.315 0.138,-0.583 0.23,-0.811 l 2.77,-0.357 c 3.383,2.321 8.987,10.644 14.342,18.16 l -11.996,24.866 c -3.71,-12.875 -5.608,-26.823 -5.346,-41.858"
           style="fill:#ff7200;fill-opacity:1;fill-rule:nonzero;stroke:none"
           id="path37101"
           inkscape:connector-curvature="0" /><path
           d="m 55.575,297.703 -2.77,0.357 c 0.506,-1.253 1.475,-1.246 2.77,-0.357"
           style="fill:#fc6300;fill-opacity:1;fill-rule:nonzero;stroke:none"
           id="path37103"
           inkscape:connector-curvature="0" /></g></g></g></svg>