<?xml version="1.0" encoding="UTF-8" standalone="no"?>
<!-- Created with Inkscape (http://www.inkscape.org/) -->

<svg
   xmlns:dc="http://purl.org/dc/elements/1.1/"
   xmlns:cc="http://creativecommons.org/ns#"
   xmlns:rdf="http://www.w3.org/1999/02/22-rdf-syntax-ns#"
   xmlns:svg="http://www.w3.org/2000/svg"
   xmlns="http://www.w3.org/2000/svg"
   xmlns:sodipodi="http://sodipodi.sourceforge.net/DTD/sodipodi-0.dtd"
   xmlns:inkscape="http://www.inkscape.org/namespaces/inkscape"
   version="1.1"
   id="svg41709"
   xml:space="preserve"
   width="800"
   height="800"
   viewBox="0 0 800 800"
   sodipodi:docname="greyhound-color-publicdomainvectors.org.svg"
   inkscape:version="0.92.4 (5da689c313, 2019-01-14)"><metadata
     id="metadata41715"><rdf:RDF><cc:Work
         rdf:about=""><dc:format>image/svg+xml</dc:format><dc:type
           rdf:resource="http://purl.org/dc/dcmitype/StillImage" /><dc:title></dc:title></cc:Work></rdf:RDF></metadata><defs
     id="defs41713"><clipPath
       clipPathUnits="userSpaceOnUse"
       id="clipPath41725"><path
         d="M 0,600 H 600 V 0 H 0 Z"
         id="path41723"
         inkscape:connector-curvature="0" /></clipPath></defs><sodipodi:namedview
     pagecolor="#ffffff"
     bordercolor="#666666"
     borderopacity="1"
     objecttolerance="10"
     gridtolerance="10"
     guidetolerance="10"
     inkscape:pageopacity="0"
     inkscape:pageshadow="2"
     inkscape:window-width="797"
     inkscape:window-height="480"
     id="namedview41711"
     showgrid="false"
     inkscape:zoom="0.295"
     inkscape:cx="400"
     inkscape:cy="400"
     inkscape:window-x="0"
     inkscape:window-y="0"
     inkscape:window-maximized="0"
     inkscape:current-layer="g41717" /><g
     id="g41717"
     inkscape:groupmode="layer"
     inkscape:label="greyhound-color-publicdomainvectors.org"
     transform="matrix(1.3333333,0,0,-1.3333333,0,800)"><g
       id="g41719"><g
         id="g41721"
         clip-path="url(#clipPath41725)"><path
           d="m 426.871,117.936 c 1.112,0.219 2.024,0.531 2.8,0.868 l -20.015,-1.36 c 1.074,-0.427 2.348,-0.783 3.766,-1.02 l 5.542,-0.266 c 2.531,0.157 5.232,0.698 7.907,1.778"
           style="fill:#2d3394;fill-opacity:1;fill-rule:nonzero;stroke:none"
           id="path41727"
           inkscape:connector-curvature="0" /><path
           d="m 413.422,116.424 c 1.678,-0.278 3.557,-0.389 5.542,-0.266 z"
           style="fill:#2d3394;fill-opacity:1;fill-rule:nonzero;stroke:none"
           id="path41729"
           inkscape:connector-curvature="0" /><path
           d="m 575.068,443.257 c 4.03,1.399 6.912,1.596 7.491,8.586 -3.068,2.192 -5.378,3.591 -12.879,5.586 -3.413,1.701 -7.722,3.292 -12.126,5.187 l 15.161,-21.627 c 0.847,0.707 1.641,1.464 2.353,2.268"
           style="fill:#8e1754;fill-opacity:1;fill-rule:nonzero;stroke:none"
           id="path41731"
           inkscape:connector-curvature="0" /><path
           d="m 537.204,436.075 c 5.372,1 17.107,-1.994 21.523,-1.394 3.704,0.33 9.582,2.633 13.988,6.308 l -15.161,21.627 c -5.468,2.351 -11.082,5.172 -15.319,9.255 L 525.751,437.98 c 2.066,-2.253 4.723,-3.093 11.453,-1.905"
           style="fill:#931858;fill-opacity:1;fill-rule:nonzero;stroke:none"
           id="path41733"
           inkscape:connector-curvature="0" /><path
           d="m 435.514,120.721 c 0.212,2.681 -1.628,4.785 -4.119,6.344 l -23.126,-8.073 c 0.247,-0.387 0.488,-0.805 0.72,-1.26 0.213,-0.099 0.437,-0.196 0.667,-0.288 l 20.015,1.36 c 2.711,1.184 3.755,2.705 5.843,1.917"
           style="fill:#28429f;fill-opacity:1;fill-rule:nonzero;stroke:none"
           id="path41735"
           inkscape:connector-curvature="0" /><path
           d="m 491.932,429.622 c 3.173,6.411 5.714,11.677 7.599,10.443 7.879,-3.788 20.747,0.804 25.187,-0.798 0.34,-0.469 0.678,-0.898 1.033,-1.287 l 16.484,33.891 c -1.575,1.518 -2.96,3.211 -4.076,5.12 -0.03,0.091 -0.061,0.179 -0.093,0.268 l -77.432,-20.355 z"
           style="fill:#a9175e;fill-opacity:1;fill-rule:nonzero;stroke:none"
           id="path41737"
           inkscape:connector-curvature="0" /><path
           d="m 538.066,477.259 c -4.146,11.908 -18.391,11.961 -23.923,18.895 -2.889,3.197 -3.081,6.783 -3.665,9.58 -6.148,1.394 -11.721,0 -14.994,-5.989 -4.023,1.797 -7.287,5.989 -12.104,2.988 -1.198,-1.749 -2.558,-3.188 -4.828,-4.413 l -17.918,-41.416 z"
           style="fill:#a6175d;fill-opacity:1;fill-rule:nonzero;stroke:none"
           id="path41739"
           inkscape:connector-curvature="0" /><path
           d="m 478.552,498.32 c -1.348,-0.725 -3.016,-1.376 -5.163,-1.97 -1.932,-4.192 -2.494,-7.587 -3.069,-13.173 -2.727,-2.37 -6.659,-5.552 -11.341,-9.302 l 1.655,-16.971 z"
           style="fill:#ad175f;fill-opacity:1;fill-rule:nonzero;stroke:none"
           id="path41741"
           inkscape:connector-curvature="0" /><path
           d="m 456.884,370.144 c 5.528,11.762 14.265,22.174 20.349,34.799 2.541,1.703 3.886,3.043 4.022,7.24 l -43.716,1.073 z"
           style="fill:#9db69b;fill-opacity:1;fill-rule:nonzero;stroke:none"
           id="path41743"
           inkscape:connector-curvature="0" /><path
           d="m 437.539,413.256 43.716,-1.073 c 0.008,0.238 0.013,0.483 0.013,0.739 4.108,3.585 7.669,10.652 10.664,16.7 l -31.298,27.282 z"
           style="fill:#b41863;fill-opacity:1;fill-rule:nonzero;stroke:none"
           id="path41745"
           inkscape:connector-curvature="0" /><path
           d="m 370.334,380.923 26.328,-72.285 40.877,104.618 z"
           style="fill:#b4e3a4;fill-opacity:1;fill-rule:nonzero;stroke:none"
           id="path41747"
           inkscape:connector-curvature="0" /><path
           d="m 418.924,290.682 c 4.875,5.9 9.959,14.682 14.879,24.604 l -37.141,-6.648 z"
           style="fill:#49c4f4;fill-opacity:1;fill-rule:nonzero;stroke:none"
           id="path41749"
           inkscape:connector-curvature="0" /><path
           d="m 396.662,308.638 37.141,6.648 c 7.569,15.264 14.748,33.229 20.172,47.546 0.804,2.512 1.794,4.939 2.909,7.312 l -19.345,43.112 z"
           style="fill:#79d0af;fill-opacity:1;fill-rule:nonzero;stroke:none"
           id="path41751"
           inkscape:connector-curvature="0" /><path
           d="m 400.335,200.569 c -0.577,17.359 2.631,44.499 4.946,60.661 0.387,2.343 0.828,4.776 1.291,7.238 l -35.944,7.321 c 0.811,-2.981 2.054,-5.685 3.005,-8.758 3.127,-8.63 4.455,-18.87 5.268,-29.495 l 21.321,-43.547 c 0.012,2.271 0.055,4.477 0.113,6.58"
           style="fill:#059fe4;fill-opacity:1;fill-rule:nonzero;stroke:none"
           id="path41753"
           inkscape:connector-curvature="0" /><path
           d="m 400.952,192.498 6.434,-13.144 c -0.752,12.208 -0.464,24.944 -1.655,35.375 -2.227,17.526 2.927,35.678 5.923,52.704 l -4.189,0.853 c -3.661,-21.966 -7.094,-50.22 -6.513,-75.788"
           style="fill:#059fe4;fill-opacity:1;fill-rule:nonzero;stroke:none"
           id="path41755"
           inkscape:connector-curvature="0" /><path
           d="m 458.979,473.875 c -6.378,-5.11 -14.15,-11.28 -22.177,-17.917 l 23.832,0.946 z"
           style="fill:#cd1566;fill-opacity:1;fill-rule:nonzero;stroke:none"
           id="path41757"
           inkscape:connector-curvature="0" /><path
           d="m 460.634,456.904 -23.832,-0.946 c -10.331,-8.542 -21.083,-17.855 -29.826,-26.675 l 30.563,-16.027 z"
           style="fill:#cc1566;fill-opacity:1;fill-rule:nonzero;stroke:none"
           id="path41759"
           inkscape:connector-curvature="0" /><path
           d="m 408.67,279.337 0.129,4.107 c 1.153,0.208 3.462,1.918 4.811,2.714 0,-0.254 -0.004,-0.508 -0.007,-0.762 1.733,1.306 3.512,3.098 5.321,5.286 l -22.262,17.956 -23.868,-19.329 c -0.374,-2.274 -2.306,-6.432 -3.005,-7.511 0,-2.212 0.337,-4.164 0.839,-6.009 l 35.944,-7.321 c 0.681,3.619 1.411,7.304 2.098,10.869"
           style="fill:#3ac0f3;fill-opacity:1;fill-rule:nonzero;stroke:none"
           id="path41761"
           inkscape:connector-curvature="0" /><path
           d="m 409.389,279.208 c -0.634,-3.414 -1.283,-7.072 -1.924,-10.922 l 4.189,-0.853 c 1.083,6.163 1.884,12.179 1.949,17.963 -1.441,-1.088 -2.85,-1.84 -4.214,-2.206 z"
           style="fill:#3ac0f3;fill-opacity:1;fill-rule:nonzero;stroke:none"
           id="path41763"
           inkscape:connector-curvature="0" /><path
           d="m 424.383,129.914 c -2.599,1.771 -4.782,2.634 -6.7,3.594 -0.076,0 -0.152,-0.003 -0.231,-0.008 -4.415,1.99 -8.204,7.054 -9.361,13.234 -0.92,1.562 -1.82,3.912 -2.557,6.19 l -2.554,-29.64 c 1.753,-0.658 3.664,-1.761 5.289,-4.292 l 23.126,8.073 c -2.152,1.35 -4.79,2.293 -7.012,2.849"
           style="fill:#2251aa;fill-opacity:1;fill-rule:nonzero;stroke:none"
           id="path41765"
           inkscape:connector-curvature="0" /><path
           d="m 406.687,152.663 c 0,-1.804 2.302,-4.986 2.302,-6.985 2.61,-8.365 5.214,-10.427 8.694,-12.17 3.506,0.103 5.234,-1.773 9.188,-0.221 2.687,0.82 3.085,3.011 6.153,2.411 -0.578,3.388 -2.881,5.985 -7.108,6.782 -2.506,1.393 -5.192,2.197 -8.846,2.197 -6.297,7.807 -8.548,19.479 -9.495,31.936 l -1.807,-20.978 c 0.291,-1.008 0.595,-2.002 0.919,-2.972"
           style="fill:#2251aa;fill-opacity:1;fill-rule:nonzero;stroke:none"
           id="path41767"
           inkscape:connector-curvature="0" /><path
           d="m 437.539,413.256 -30.563,16.027 c -3.396,-3.423 -6.489,-6.77 -9.135,-9.971 -6.333,-5.591 -9.216,-5.591 -18.444,-3.394 -4.043,1 -8.604,1.674 -13.456,2.047 l 4.393,-37.042 z"
           style="fill:#d63a71;fill-opacity:1;fill-rule:nonzero;stroke:none"
           id="path41769"
           inkscape:connector-curvature="0" /><path
           d="m 335.461,328.038 61.201,-19.4 -26.328,72.285 z"
           style="fill:#b7e4b5;fill-opacity:1;fill-rule:nonzero;stroke:none"
           id="path41771"
           inkscape:connector-curvature="0" /><path
           d="m 401.625,179.609 5.805,-0.94 c -0.016,0.227 -0.03,0.455 -0.044,0.685 l -6.434,13.144 c 0.099,-4.392 0.318,-8.7 0.673,-12.889"
           style="fill:#08aaec;fill-opacity:1;fill-rule:nonzero;stroke:none"
           id="path41773"
           inkscape:connector-curvature="0" /><path
           d="m 400.222,193.989 -21.321,43.547 c 1.09,-14.201 1.26,-29.097 3.57,-41.771 0.676,-3.891 0.208,-8.396 -0.418,-12.976 l 18.516,-3.008 c -0.29,4.795 -0.377,9.636 -0.347,14.208"
           style="fill:#08aaec;fill-opacity:1;fill-rule:nonzero;stroke:none"
           id="path41775"
           inkscape:connector-curvature="0" /><path
           d="m 405.768,155.635 1.807,20.978 c -0.045,0.583 -0.088,1.166 -0.126,1.751 l -5.245,-4.456 c 0.784,-6.534 1.944,-12.685 3.564,-18.273"
           style="fill:#2745a1;fill-opacity:1;fill-rule:nonzero;stroke:none"
           id="path41777"
           inkscape:connector-curvature="0" /><path
           d="m 404.32,157.124 c -1.554,4.611 -2.557,10.098 -3.183,15.875 l -17.51,-14.879 c 4.309,-9.556 10.748,-18.986 14.214,-28.406 -1.209,-5.56 1.656,-5.122 5.139,-6.43 l 2.554,29.64 c -0.491,1.516 -0.909,3.001 -1.214,4.2"
           style="fill:#2745a1;fill-opacity:1;fill-rule:nonzero;stroke:none"
           id="path41779"
           inkscape:connector-curvature="0" /><path
           d="m 400.569,179.781 -18.516,3.008 c -0.98,-7.147 -2.346,-14.476 -0.356,-19.951 0.57,-1.576 1.221,-3.149 1.93,-4.718 l 17.51,14.879 c -0.242,2.23 -0.428,4.5 -0.568,6.782"
           style="fill:#1d5fb4;fill-opacity:1;fill-rule:nonzero;stroke:none"
           id="path41781"
           inkscape:connector-curvature="0" /><path
           d="m 402.204,173.908 5.245,4.456 c -0.006,0.102 -0.014,0.203 -0.019,0.305 l -5.805,0.94 c 0.163,-1.926 0.356,-3.83 0.579,-5.701"
           style="fill:#1d5fb4;fill-opacity:1;fill-rule:nonzero;stroke:none"
           id="path41783"
           inkscape:connector-curvature="0" /><path
           d="m 370.334,380.923 -4.393,37.042 c -6.949,0.535 -14.491,0.452 -21.954,-0.173 l -11.758,-23.243 z"
           style="fill:#e44072;fill-opacity:1;fill-rule:nonzero;stroke:none"
           id="path41785"
           inkscape:connector-curvature="0" /><path
           d="m 335.461,328.038 18.507,-39.191 c 6.188,-0.3 12.466,0.031 18.888,1.133 0,-0.198 -0.021,-0.422 -0.062,-0.671 l 23.868,19.329 z"
           style="fill:#91dcf8;fill-opacity:1;fill-rule:nonzero;stroke:none"
           id="path41787"
           inkscape:connector-curvature="0" /><path
           d="m 343.987,417.792 c -5.165,-0.431 -10.289,-1.123 -15.154,-2.05 l 3.396,-21.193 z"
           style="fill:#e61c69;fill-opacity:1;fill-rule:nonzero;stroke:none"
           id="path41789"
           inkscape:connector-curvature="0" /><path
           d="m 332.229,394.549 3.232,-66.511 34.873,52.885 z"
           style="fill:#dbd89b;fill-opacity:1;fill-rule:nonzero;stroke:none"
           id="path41791"
           inkscape:connector-curvature="0" /><path
           d="m 291.584,313.648 c 7.946,-6.323 15.088,-12.237 21.116,-14.689 13.736,-5.535 27.274,-9.438 41.268,-10.112 l -18.507,39.191 z"
           style="fill:#b4e5d1;fill-opacity:1;fill-rule:nonzero;stroke:none"
           id="path41793"
           inkscape:connector-curvature="0" /><path
           d="m 241.646,410.813 c -0.643,-0.016 -1.287,-0.032 -1.931,-0.05 l 17.987,-77.492 c 0.767,-0.131 1.542,-0.259 2.333,-0.387 6.388,-1.961 12.575,-5.419 18.467,-9.421 l 53.727,71.086 z"
           style="fill:#edc493;fill-opacity:1;fill-rule:nonzero;stroke:none"
           id="path41795"
           inkscape:connector-curvature="0" /><path
           d="m 332.229,394.549 -53.727,-71.086 c 4.552,-3.092 8.927,-6.507 13.082,-9.815 l 43.877,14.39 z"
           style="fill:#e1f1a1;fill-opacity:1;fill-rule:nonzero;stroke:none"
           id="path41797"
           inkscape:connector-curvature="0" /><path
           d="m 328.833,415.742 c -2.789,-0.531 -5.494,-1.138 -8.068,-1.818 -25.115,-3.18 -51.943,-2.435 -79.119,-3.111 l 90.583,-16.264 z"
           style="fill:#eb647b;fill-opacity:1;fill-rule:nonzero;stroke:none"
           id="path41799"
           inkscape:connector-curvature="0" /><path
           d="m 239.352,410.753 -53.081,-84.1 7.198,-2.024 c 0.528,1.825 0.997,3.409 1.397,4.654 2.888,2.59 5.395,4.788 9.817,7.182 -0.522,-0.397 -1.016,-0.892 -1.488,-1.473 13.91,9.423 26.347,3.047 54.507,-1.721 l -17.987,77.492 c -0.121,-0.002 -0.242,-0.007 -0.363,-0.01"
           style="fill:#eebf92;fill-opacity:1;fill-rule:nonzero;stroke:none"
           id="path41801"
           inkscape:connector-curvature="0" /><path
           d="m 195.843,328.686 c -0.422,-1.514 -0.818,-2.972 -1.196,-4.389 l 3.565,-1.001 c 1.288,4.885 2.897,9.131 4.983,11.696 -2.378,-1.61 -4.8,-3.682 -7.352,-6.306"
           style="fill:#eebf92;fill-opacity:1;fill-rule:nonzero;stroke:none"
           id="path41803"
           inkscape:connector-curvature="0" /><path
           d="m 184.773,291.373 c -0.627,-8.477 -1.799,-16.094 -4.536,-22.777 6.091,4.557 11.032,17.006 12.522,24.364 0.993,4.297 1.94,12.777 3.474,21.199 l -3.191,4.002 c -2.248,-8.683 -4.229,-16.373 -8.269,-26.788"
           style="fill:#d9c696;fill-opacity:1;fill-rule:nonzero;stroke:none"
           id="path41805"
           inkscape:connector-curvature="0" /><path
           d="m 182.964,291.768 c 3.386,8.129 6.596,19.191 9.029,27.708 l -5.722,7.177 -19.636,-75.885 c 1.021,1.063 1.982,2.098 2.865,3.085 5.074,4.229 8.451,9.16 10.737,14.743 -0.18,-0.136 -0.362,-0.264 -0.544,-0.385 2.113,7.799 2.686,14.194 3.271,23.557"
           style="fill:#d9c696;fill-opacity:1;fill-rule:nonzero;stroke:none"
           id="path41807"
           inkscape:connector-curvature="0" /><path
           d="m 193.469,324.629 -7.198,2.024 5.722,-7.177 c 0.531,1.857 1.026,3.595 1.476,5.153"
           style="fill:#dfec9f;fill-opacity:1;fill-rule:nonzero;stroke:none"
           id="path41809"
           inkscape:connector-curvature="0" /><path
           d="m 193.042,318.161 3.191,-4.002 c 0.568,3.126 1.217,6.243 1.979,9.137 l -3.565,1.001 c -0.567,-2.125 -1.094,-4.156 -1.605,-6.136"
           style="fill:#dfec9f;fill-opacity:1;fill-rule:nonzero;stroke:none"
           id="path41811"
           inkscape:connector-curvature="0" /><path
           d="m 239.352,410.753 c -0.527,-0.014 -1.055,-0.029 -1.583,-0.046 l -90.278,-22.949 c -1.063,-0.863 -2.083,-1.736 -3.062,-2.616 l 41.842,-58.489 z"
           style="fill:#ed8984;fill-opacity:1;fill-rule:nonzero;stroke:none"
           id="path41813"
           inkscape:connector-curvature="0" /><path
           d="m 220.828,409.934 c -37.284,-0.913 -59.148,-10.649 -73.337,-22.176 l 90.278,22.949 c -5.639,-0.171 -11.29,-0.412 -16.941,-0.773"
           style="fill:#ea5176;fill-opacity:1;fill-rule:nonzero;stroke:none"
           id="path41815"
           inkscape:connector-curvature="0" /><path
           d="m 115.716,327.04 c 0.559,-8.614 2.659,-17.246 4.957,-25.852 l 40.366,-55.972 c 2.004,1.895 3.888,3.767 5.596,5.552 l 19.636,75.885 z"
           style="fill:#eb607a;fill-opacity:1;fill-rule:nonzero;stroke:none"
           id="path41817"
           inkscape:connector-curvature="0" /><path
           d="m 144.429,385.142 c -2.803,-2.518 -5.279,-5.094 -7.506,-7.658 l -16.407,-23.65 c -4.287,-8.876 -5.381,-17.826 -4.8,-26.794 l 70.555,-0.387 z"
           style="fill:#eb6d7d;fill-opacity:1;fill-rule:nonzero;stroke:none"
           id="path41819"
           inkscape:connector-curvature="0" /><path
           d="m 124.5,286.688 c -0.064,0.106 -0.12,0.205 -0.162,0.291 -0.384,-7.771 -1.539,-10.771 -3.462,-13.97 -6.493,-13.297 -10.252,-19.674 -23.159,-28.637 l 59.085,-3.027 c 1.456,1.286 2.874,2.582 4.237,3.871 l -40.366,55.972 c 1.294,-4.845 2.649,-9.681 3.827,-14.5"
           style="fill:#e51166;fill-opacity:1;fill-rule:nonzero;stroke:none"
           id="path41821"
           inkscape:connector-curvature="0" /><path
           d="m 127.218,151.877 c 3.077,0.179 5.578,0.392 7.882,0.583 2.498,0 7.688,-0.191 9.418,1.202 1.922,-0.803 2.883,-0.803 3.838,0.193 1.352,-0.602 2.506,-0.797 3.661,-0.394 0.183,3.99 -0.775,3.596 -1.534,6.787 -4.813,7.98 -12.307,3.591 -15.768,6.575 -0.574,1.362 -1.073,2.928 -1.507,4.664 l -12.149,-17.751 c 1.243,-1.281 3.134,-1.943 6.159,-1.859"
           style="fill:#9f185d;fill-opacity:1;fill-rule:nonzero;stroke:none"
           id="path41823"
           inkscape:connector-curvature="0" /><path
           d="m 108.576,128.713 c 2.498,0.393 2.691,-0.608 5.575,-0.208 0.191,1.804 0,4.389 -1.541,5.602 -0.469,1.872 -1.132,3.277 -2.025,4.324 l -8.377,-12.239 c 2.468,0.581 4.696,1.406 6.368,2.521"
           style="fill:#9f185d;fill-opacity:1;fill-rule:nonzero;stroke:none"
           id="path41825"
           inkscape:connector-curvature="0" /><path
           d="m 97.717,244.372 c -1.613,-1.12 -3.367,-2.28 -5.289,-3.499 -2.474,-1.664 -6.113,-2.994 -10.349,-3.976 l 8.713,-6.136 c 6.66,2.159 13.308,5.065 19.934,8.615 -4.557,-3.973 -9.162,-8.429 -13.625,-13.06 l 33.55,-23.636 c 0.002,1.287 0.011,2.578 0.026,3.874 0,3.707 -0.168,10.385 0.579,15.125 1.835,1.731 3.634,3.474 5.384,5.227 6.381,3.197 13.642,8.684 20.162,14.439 z"
           style="fill:#cc1c68;fill-opacity:1;fill-rule:nonzero;stroke:none"
           id="path41827"
           inkscape:connector-curvature="0" /><path
           d="m 125.297,361.831 c -1.912,-2.658 -3.491,-5.324 -4.781,-7.997 l 16.407,23.65 c -4.771,-5.495 -8.398,-10.938 -11.626,-15.653"
           style="fill:#e83b70;fill-opacity:1;fill-rule:nonzero;stroke:none"
           id="path41829"
           inkscape:connector-curvature="0" /><path
           d="m 118.185,163.644 c 0.585,-4.486 0.959,-7.934 2.874,-9.908 l 12.149,17.751 c -1.086,4.346 -1.759,9.765 -2.139,15.756 l -14.572,-3.779 c 0.592,-7.58 1.024,-14.683 1.688,-19.82"
           style="fill:#a7175e;fill-opacity:1;fill-rule:nonzero;stroke:none"
           id="path41831"
           inkscape:connector-curvature="0" /><path
           d="m 78.793,160.839 18.542,-35.458 c 1.667,0.179 3.318,0.447 4.873,0.811 l 8.377,12.239 c -1.297,1.523 -3.08,2.297 -5.47,2.655 -6.533,1.789 -6.727,-0.799 -9.416,2.597 -2.197,9.126 -3.627,22.431 -2.412,33.76 l -16.145,-4.188 c 0.55,-3.668 1.123,-7.776 1.651,-12.416"
           style="fill:#a7175e;fill-opacity:1;fill-rule:nonzero;stroke:none"
           id="path41833"
           inkscape:connector-curvature="0" /><path
           d="m 69.915,235.14 0.403,-8.55 c 6.828,0.531 13.657,1.958 20.474,4.171 l -8.713,6.136 c -3.721,-0.86 -7.903,-1.45 -12.164,-1.757"
           style="fill:#c11664;fill-opacity:1;fill-rule:nonzero;stroke:none"
           id="path41835"
           inkscape:connector-curvature="0" /><path
           d="m 97.101,226.316 c -7.6,-7.885 -14.789,-16.261 -20.626,-23.551 -3.544,-6.51 -1.639,-14.151 0.667,-29.51 l 16.145,4.188 c 0.805,7.51 2.772,14.153 6.449,18.13 4.778,3.524 9.478,7.148 14.052,10.86 1.343,-7.119 2.108,-15.289 2.709,-22.969 l 14.572,3.779 c -0.308,4.859 -0.425,10.093 -0.418,15.437 z"
           style="fill:#c11664;fill-opacity:1;fill-rule:nonzero;stroke:none"
           id="path41837"
           inkscape:connector-curvature="0" /><path
           d="m 80.703,133.696 c 0.358,-1.949 0.716,-3.767 1.344,-5.194 l 8.707,-3.399 c 2.096,-0.049 4.352,0.036 6.581,0.278 l -18.542,35.458 c 0.855,-7.526 1.59,-16.443 1.91,-27.143"
           style="fill:#a2175c;fill-opacity:1;fill-rule:nonzero;stroke:none"
           id="path41839"
           inkscape:connector-curvature="0" /><path
           d="m 85.702,125.521 c 1.469,-0.233 3.198,-0.377 5.052,-0.418 l -8.707,3.399 c 0.723,-1.645 1.804,-2.771 3.655,-2.981"
           style="fill:#8f1755;fill-opacity:1;fill-rule:nonzero;stroke:none"
           id="path41841"
           inkscape:connector-curvature="0" /><path
           d="m 22.794,247.331 -0.017,-8.035 c 2.725,-2.118 5.205,-3.665 6.994,-4.41 0.023,-0.012 0.047,-0.022 0.071,-0.034 l 12.203,3.382 c -5.533,1.517 -12.782,4.893 -19.251,9.097"
           style="fill:#e51166;fill-opacity:1;fill-rule:nonzero;stroke:none"
           id="path41843"
           inkscape:connector-curvature="0" /><path
           d="m 43.418,237.887 c -0.444,0.101 -0.902,0.217 -1.373,0.347 l -12.203,-3.382 c 13.429,-6.853 26.951,-9.314 40.476,-8.262 l -0.403,8.55 c -10.1,-0.731 -20.636,0.131 -26.497,2.747"
           style="fill:#cc1566;fill-opacity:1;fill-rule:nonzero;stroke:none"
           id="path41845"
           inkscape:connector-curvature="0" /><path
           d="m 10.549,257.838 c -1.924,2.195 -4.612,-0.395 -1.539,-3.985 3.863,-5.762 9.165,-10.978 13.767,-14.557 l 0.017,8.035 c -4.885,3.175 -9.325,6.824 -12.245,10.507"
           style="fill:#e51166;fill-opacity:1;fill-rule:nonzero;stroke:none"
           id="path41847"
           inkscape:connector-curvature="0" /></g></g></g></svg>