<?xml version="1.0" encoding="UTF-8" standalone="no"?>
<!-- Created with Inkscape (http://www.inkscape.org/) -->

<svg
   xmlns:dc="http://purl.org/dc/elements/1.1/"
   xmlns:cc="http://creativecommons.org/ns#"
   xmlns:rdf="http://www.w3.org/1999/02/22-rdf-syntax-ns#"
   xmlns:svg="http://www.w3.org/2000/svg"
   xmlns="http://www.w3.org/2000/svg"
   xmlns:sodipodi="http://sodipodi.sourceforge.net/DTD/sodipodi-0.dtd"
   xmlns:inkscape="http://www.inkscape.org/namespaces/inkscape"
   version="1.1"
   id="svg43850"
   xml:space="preserve"
   width="800"
   height="800"
   viewBox="0 0 800 800"
   sodipodi:docname="horse-color-outline-publicdomainvectors.org.svg"
   inkscape:version="0.92.4 (5da689c313, 2019-01-14)"><metadata
     id="metadata43856"><rdf:RDF><cc:Work
         rdf:about=""><dc:format>image/svg+xml</dc:format><dc:type
           rdf:resource="http://purl.org/dc/dcmitype/StillImage" /><dc:title></dc:title></cc:Work></rdf:RDF></metadata><defs
     id="defs43854"><clipPath
       clipPathUnits="userSpaceOnUse"
       id="clipPath43866"><path
         d="M 0,600 H 600 V 0 H 0 Z"
         id="path43864"
         inkscape:connector-curvature="0" /></clipPath></defs><sodipodi:namedview
     pagecolor="#ffffff"
     bordercolor="#666666"
     borderopacity="1"
     objecttolerance="10"
     gridtolerance="10"
     guidetolerance="10"
     inkscape:pageopacity="0"
     inkscape:pageshadow="2"
     inkscape:window-width="797"
     inkscape:window-height="480"
     id="namedview43852"
     showgrid="false"
     inkscape:zoom="0.295"
     inkscape:cx="400"
     inkscape:cy="400"
     inkscape:window-x="-8"
     inkscape:window-y="-8"
     inkscape:window-maximized="1"
     inkscape:current-layer="g43858" /><g
     id="g43858"
     inkscape:groupmode="layer"
     inkscape:label="horse-color-outline-publicdomainvectors.org"
     transform="matrix(1.3333333,0,0,-1.3333333,0,800)"><g
       id="g43860"><g
         id="g43862"
         clip-path="url(#clipPath43866)"><path
           d="m 584.884,342.39 c -1.222,1.214 -9.501,9.024 -11.222,9.024 -0.115,0 -0.251,0.007 -0.394,0.018 l 4.136,-20.313 c 6.747,1.305 14.843,3.906 7.48,11.271"
           style="fill:#294ba6;fill-opacity:1;fill-rule:nonzero;stroke:none"
           id="path43868"
           inkscape:connector-curvature="0" /><path
           d="m 384.143,513.811 c -0.628,-0.91 -1.258,-1.831 -1.891,-2.763 l 2.464,-3.578 z"
           style="fill:#2b429f;fill-opacity:1;fill-rule:nonzero;stroke:none"
           id="path43870"
           inkscape:connector-curvature="0" /><path
           d="m 470.94,539.846 c -9.689,3.774 -15.222,4.922 -17.146,6.018 -5.907,3.061 -7.414,2.728 -8.308,3.759 -1.81,2.081 -3.903,4.229 -7.089,5.822 -1.483,0.522 -7.759,3.084 -11.077,2.911 -0.378,-4.756 9.451,-14.715 3.747,-11.861 -1.027,0.512 -2.621,1.226 -4.495,2.032 l 29.136,-48.246 z"
           style="fill:#2a4ea8;fill-opacity:1;fill-rule:nonzero;stroke:none"
           id="path43872"
           inkscape:connector-curvature="0" /><path
           d="m 455.708,500.281 -29.136,48.246 c -7.008,3.015 -17.944,7.331 -17.944,7.331 -1.283,-4.201 8.606,-13.942 7.105,-16.951 -0.212,-0.426 -0.356,-0.721 -0.451,-0.919 0.266,0.624 0.685,1.811 -0.43,0.697 -1.376,1.752 -2.011,2.177 -3.759,4.629 -5.931,-1.832 -16.144,-13.881 -26.95,-29.503 l 0.573,-6.341 z"
           style="fill:#305db3;fill-opacity:1;fill-rule:nonzero;stroke:none"
           id="path43874"
           inkscape:connector-curvature="0" /><path
           d="m 382.252,511.048 c -0.681,-1.005 -1.364,-2.023 -2.048,-3.051 l 4.512,-0.527 z"
           style="fill:#5291c5;fill-opacity:1;fill-rule:nonzero;stroke:none"
           id="path43876"
           inkscape:connector-curvature="0" /><path
           d="m 511.949,498.864 c 3.444,4.671 5.811,10.384 2.392,13.993 -4.526,4.785 0.472,-0.103 -6.623,8.589 -3.118,3.828 -10.091,5.325 -16.148,8.957 -8.29,4.314 -15.128,7.3 -20.63,9.443 l -15.232,-39.565 z"
           style="fill:#2958af;fill-opacity:1;fill-rule:nonzero;stroke:none"
           id="path43878"
           inkscape:connector-curvature="0" /><path
           d="m 380.204,507.997 c -1.348,-2.028 -2.697,-4.097 -4.041,-6.195 l 8.553,5.668 z"
           style="fill:#6accc7;fill-opacity:1;fill-rule:nonzero;stroke:none"
           id="path43880"
           inkscape:connector-curvature="0" /><path
           d="m 456.567,487.818 c 3.081,-0.963 7.234,-1.481 9.412,0.696 4.08,4.08 17.442,4.774 23.953,3.65 1.018,-0.178 5.236,-0.033 7.006,0.596 0.202,-1.209 6.476,-2.034 8.236,-0.807 1.857,1.293 4.543,3.882 6.775,6.911 l -56.241,1.417 z"
           style="fill:#3074c3;fill-opacity:1;fill-rule:nonzero;stroke:none"
           id="path43882"
           inkscape:connector-curvature="0" /><path
           d="m 389.807,431.084 52.581,-3.549 c -0.866,6.198 -1.057,17.201 -0.134,38.138 0.194,4.401 -0.435,15.369 3.587,19.386 1.8,1.799 5.536,3.363 7.335,4.222 0.639,-0.42 1.888,-0.995 3.391,-1.463 l -0.859,12.463 z"
           style="fill:#388ed4;fill-opacity:1;fill-rule:nonzero;stroke:none"
           id="path43884"
           inkscape:connector-curvature="0" /><path
           d="m 384.716,507.47 5.091,-76.386 65.901,69.197 z"
           style="fill:#3781cc;fill-opacity:1;fill-rule:nonzero;stroke:none"
           id="path43886"
           inkscape:connector-curvature="0" /><path
           d="m 384.716,507.47 -8.553,-5.668 C 363.038,481.31 350.371,457.98 344.657,443.485 l 45.15,-12.401 z"
           style="fill:#3d97d9;fill-opacity:1;fill-rule:nonzero;stroke:none"
           id="path43888"
           inkscape:connector-curvature="0" /><path
           d="m 323.605,349.007 -46.712,18.251 c -30.52,-8.063 -48.718,-16.952 -60.225,-25.011 l 13.178,-27.39 z"
           style="fill:#cee538;fill-opacity:1;fill-rule:nonzero;stroke:none"
           id="path43890"
           inkscape:connector-curvature="0" /><path
           d="m 512.596,380.185 c -2.168,0.442 -3.708,0.712 -3.708,0.712 0,0 -14.133,-3.188 -22.508,-5.764 l 5.874,-11.748 z"
           style="fill:#347fca;fill-opacity:1;fill-rule:nonzero;stroke:none"
           id="path43892"
           inkscape:connector-curvature="0" /><path
           d="m 389.807,431.084 -45.15,12.401 c -3.011,-7.635 -4.094,-12.821 -2.296,-13.844 3.714,-1.858 15.978,1.328 2.51,-9.25 -3.261,-2.555 -15.758,-25.603 -16.984,-26.829 -1.897,-1.892 -7.513,-5.45 -8.751,-7.919 -0.27,-0.538 -0.892,-1.143 -1.766,-1.793 l 6.235,-34.843 z"
           style="fill:#7ed4cf;fill-opacity:1;fill-rule:nonzero;stroke:none"
           id="path43894"
           inkscape:connector-curvature="0" /><path
           d="m 317.37,383.85 c -5.212,-3.872 -19.431,-9.37 -22.032,-12.167 -6.604,-1.438 -12.739,-2.917 -18.445,-4.425 l 46.712,-18.251 z"
           style="fill:#a2d959;fill-opacity:1;fill-rule:nonzero;stroke:none"
           id="path43896"
           inkscape:connector-curvature="0" /><path
           d="m 125.914,313.542 c -0.493,-0.109 -0.972,-0.206 -1.438,-0.285 -7.376,-1.267 -23.936,4.147 -38.171,4.223 -15.271,0.079 -35.493,-5.989 -35.493,-5.989 12.882,-2.046 18.085,-6.17 27.703,-9.455 l 57.87,1.738 z"
           style="fill:#de1e25;fill-opacity:1;fill-rule:nonzero;stroke:none"
           id="path43898"
           inkscape:connector-curvature="0" /><path
           d="m 464.166,381.946 c -1.097,13.496 -6.8,25.418 -18.204,36.864 -1.513,1.512 -2.808,3.233 -3.574,8.725 l -52.581,3.549 z"
           style="fill:#3a93d7;fill-opacity:1;fill-rule:nonzero;stroke:none"
           id="path43900"
           inkscape:connector-curvature="0" /><path
           d="m 486.38,375.133 c -2.198,-0.677 -4.001,-1.311 -5.045,-1.834 -0.54,-0.269 -1.694,-0.465 -3.161,-0.609 l 14.08,-9.305 z"
           style="fill:#3a93d7;fill-opacity:1;fill-rule:nonzero;stroke:none"
           id="path43902"
           inkscape:connector-curvature="0" /><path
           d="m 363.146,300.18 110.687,54.187 c -0.032,0.013 -0.064,0.027 -0.097,0.039 l 0.1,-0.038 18.418,9.017 -14.08,9.305 c -4.571,-0.451 -12.212,-0.388 -13.972,-0.388 0.226,3.308 0.218,6.519 -0.036,9.644 l -74.359,49.138 z"
           style="fill:#45b2e9;fill-opacity:1;fill-rule:nonzero;stroke:none"
           id="path43904"
           inkscape:connector-curvature="0" /><path
           d="m 135.891,316.213 c -3.992,-1.028 -7.203,-2.058 -9.977,-2.671 l 10.471,-9.768 z"
           style="fill:#db1e25;fill-opacity:1;fill-rule:nonzero;stroke:none"
           id="path43906"
           inkscape:connector-curvature="0" /><path
           d="m 143.811,317.933 c -2.96,-0.515 -5.576,-1.118 -7.92,-1.72 l 0.494,-12.439 z"
           style="fill:#dc4120;fill-opacity:1;fill-rule:nonzero;stroke:none"
           id="path43908"
           inkscape:connector-curvature="0" /><path
           d="M 389.807,431.084 323.605,349.007 363.146,300.18 Z"
           style="fill:#73d1e7;fill-opacity:1;fill-rule:nonzero;stroke:none"
           id="path43910"
           inkscape:connector-curvature="0" /><path
           d="m 507.803,362.045 c 3.325,1.093 7.646,0.483 12.209,-1.051 l 38.826,-3.345 c -7.223,5.305 -19.764,9.29 -26.767,12.928 -2.221,1.484 -4.36,5.117 -7.953,6.556 -2.974,1.195 -8.055,2.344 -11.522,3.052 l -20.342,-16.8 z"
           style="fill:#3166ba;fill-opacity:1;fill-rule:nonzero;stroke:none"
           id="path43912"
           inkscape:connector-curvature="0" /><path
           d="m 229.846,314.857 -13.178,27.39 c -20.922,-14.654 -19.72,-26.559 -30.218,-25.748 -8.888,0.684 -14.057,2.808 -23.38,2.912 -7.754,0.083 -14.04,-0.566 -19.259,-1.478 l -7.426,-14.159 z"
           style="fill:#e56b19;fill-opacity:1;fill-rule:nonzero;stroke:none"
           id="path43914"
           inkscape:connector-curvature="0" /><path
           d="m 229.846,314.857 66.021,-43.535 c 1.103,0.278 2.223,0.532 3.357,0.765 l 24.381,76.92 z"
           style="fill:#d0e857;fill-opacity:1;fill-rule:nonzero;stroke:none"
           id="path43916"
           inkscape:connector-curvature="0" /><path
           d="m 473.836,354.368 6.317,-2.433 c -2.075,0.726 -4.176,1.56 -6.32,2.432 l -110.687,-54.187 9.813,-7.103 c 2.478,1.395 5.924,3.547 10.707,6.964 29.042,17.684 31.294,16.377 45.774,30.866 1.261,1.254 14.934,-0.07 23.53,0.268 5.595,0.226 22.948,0.768 34.038,-0.093 l 2.926,18.009 c -2.065,0.555 -4.145,1.106 -6.248,1.716 1.719,0.851 4.266,2.049 7.071,3.352 l 1.497,9.226 z"
           style="fill:#4dbeef;fill-opacity:1;fill-rule:nonzero;stroke:none"
           id="path43918"
           inkscape:connector-curvature="0" /><path
           d="m 497.458,357.262 c 3.884,1.794 7.414,3.432 9.143,4.295 0.382,0.192 0.786,0.352 1.202,0.488 l -15.549,1.34 z"
           style="fill:#305db3;fill-opacity:1;fill-rule:nonzero;stroke:none"
           id="path43920"
           inkscape:connector-curvature="0" /><path
           d="m 565.715,280.535 c 4.022,3.124 -5.966,15.191 -10.876,17.866 -10.818,7.258 -18.011,20.82 -29.626,27.847 -5.633,5.94 -8.935,10.984 -13.414,14.136 l 51.773,-60.927 c 1.102,0.344 1.864,0.716 2.143,1.078"
           style="fill:#305db3;fill-opacity:1;fill-rule:nonzero;stroke:none"
           id="path43922"
           inkscape:connector-curvature="0" /><path
           d="m 546.301,345.128 c 2.595,-2.601 10.194,-3.426 11.649,-4.888 2.041,-2.04 2.15,-8.791 5.845,-9.885 0.791,-0.233 5.697,-0.686 12.813,0.614 0.262,0.049 0.528,0.097 0.796,0.15 l -4.136,20.313 c -2.667,0.183 -9.848,2.026 -11.914,4.091 -0.733,0.733 -1.583,1.441 -2.516,2.126 l -38.826,3.345 c 10.636,-3.576 22.583,-12.159 26.289,-15.866"
           style="fill:#305db3;fill-opacity:1;fill-rule:nonzero;stroke:none"
           id="path43924"
           inkscape:connector-curvature="0" /><path
           d="m 491.271,330.63 c 4.631,-0.665 8.344,-2.314 10.969,-4.935 6.075,-6.079 13.924,-10.106 20.24,-16.427 2.035,-2.035 2.933,-6.2 4.927,-8.195 2.383,-2.389 9.765,-5.948 11.22,-8.125 2.522,-3.789 -0.504,-11.044 3.542,-13.364 5.553,-2.565 16.643,-1.614 21.403,-0.127 l -51.773,60.927 c -0.752,0.53 -1.537,1.008 -2.373,1.426 -6.583,3.746 -12.967,5.53 -19.492,7.281 l -2.926,-18.009 c 1.563,-0.12 3,-0.27 4.263,-0.452"
           style="fill:#3573c2;fill-opacity:1;fill-rule:nonzero;stroke:none"
           id="path43926"
           inkscape:connector-curvature="0" /><path
           d="m 490.757,354.159 c 2.172,1.01 4.492,2.081 6.701,3.103 l -5.204,6.123 z"
           style="fill:#3573c2;fill-opacity:1;fill-rule:nonzero;stroke:none"
           id="path43928"
           inkscape:connector-curvature="0" /><path
           d="m 369.278,291.187 c 0.882,0.401 2.079,0.988 3.681,1.89 l -9.813,7.103 z"
           style="fill:#92dac7;fill-opacity:1;fill-rule:nonzero;stroke:none"
           id="path43930"
           inkscape:connector-curvature="0" /><path
           d="m 184.218,296.94 c -0.007,2.739 -0.131,4.579 -0.026,5.623 0.294,3.017 0.155,-0.202 0.026,-5.623 m 45.628,17.917 -93.461,-11.083 42.065,-21.283 c 3.333,3.59 5.401,6.252 5.489,7.328 0.095,1.158 0.158,2.229 0.201,3.231 -0.071,-4.314 -0.087,-9.259 0.099,-13.487 l 27.933,-14.133 z"
           style="fill:#f17116;fill-opacity:1;fill-rule:nonzero;stroke:none"
           id="path43932"
           inkscape:connector-curvature="0" /><path
           d="m 323.605,349.007 -24.381,-76.92 c 2.231,0.457 4.508,0.829 6.78,1.108 l 57.142,26.985 z"
           style="fill:#b4e2a1;fill-opacity:1;fill-rule:nonzero;stroke:none"
           id="path43934"
           inkscape:connector-curvature="0" /><path
           d="m 119.903,251.821 28.73,3.5 c 0.271,0.178 0.54,0.356 0.81,0.538 l -18.04,5.563 c -3.948,-5.258 -8.847,-8.255 -11.5,-9.601"
           style="fill:#ed1c24;fill-opacity:1;fill-rule:nonzero;stroke:none"
           id="path43936"
           inkscape:connector-curvature="0" /><path
           d="m 116.803,265.924 -68.24,21.042 C 27.337,280.632 2,269.946 2,269.946 c 0,0 52.983,-4.493 78.42,3.988 3.41,1.133 -9.988,-9.305 -17.85,-27.278 -0.277,-0.631 -0.545,-1.272 -0.809,-1.919 l 31.252,3.808 c 7.735,6.463 15.927,12.584 23.79,17.379"
           style="fill:#ed1c24;fill-opacity:1;fill-rule:nonzero;stroke:none"
           id="path43938"
           inkscape:connector-curvature="0" /><path
           d="m 144.573,275.726 -8.188,28.048 -57.87,-1.738 c 5.663,-1.935 12.856,-3.579 24.053,-4.339 -12.504,-3.855 -26.921,-3.306 -48.932,-9.281 -1.654,-0.451 -3.35,-0.936 -5.073,-1.45 l 68.24,-21.042 c 10.463,6.385 20.34,10.423 27.77,9.802"
           style="fill:#ed1e24;fill-opacity:1;fill-rule:nonzero;stroke:none"
           id="path43940"
           inkscape:connector-curvature="0" /><path
           d="m 134.59,266.726 c -0.922,-1.982 -2.013,-3.741 -3.187,-5.304 l 18.04,-5.563 c 0.258,0.176 0.515,0.356 0.772,0.538 l -5.359,18.359 c -3.044,-0.718 -7.765,-2.637 -10.266,-8.03"
           style="fill:#ed1e24;fill-opacity:1;fill-rule:nonzero;stroke:none"
           id="path43942"
           inkscape:connector-curvature="0" /><path
           d="m 184.239,279.563 c 0.164,-3.738 0.486,-6.916 1.07,-8.591 0.04,-0.118 2.236,-3.942 5.138,-9.022 l 21.725,3.48 z"
           style="fill:#f2591a;fill-opacity:1;fill-rule:nonzero;stroke:none"
           id="path43944"
           inkscape:connector-curvature="0" /><path
           d="m 144.573,275.726 c 0.842,-0.072 1.652,-0.202 2.428,-0.393 1.623,-0.191 0.264,-0.007 -2.145,-0.577 l 5.359,-18.359 c 1.251,0.885 2.484,1.845 3.686,2.891 9.507,8.264 18.868,17.084 24.549,23.203 l -42.065,21.283 z"
           style="fill:#f2591a;fill-opacity:1;fill-rule:nonzero;stroke:none"
           id="path43946"
           inkscape:connector-curvature="0" /><path
           d="m 212.172,265.43 76.605,3.724 c 2.217,0.823 4.606,1.547 7.09,2.168 l -66.021,43.535 z"
           style="fill:#ebda1f;fill-opacity:1;fill-rule:nonzero;stroke:none"
           id="path43948"
           inkscape:connector-curvature="0" /><path
           d="m 56.915,211.151 c 3.992,6.981 18.913,23.033 36.098,37.394 l -31.252,-3.808 c -7.219,-17.801 -9.242,-41.269 -4.846,-33.586"
           style="fill:#f0401e;fill-opacity:1;fill-rule:nonzero;stroke:none"
           id="path43950"
           inkscape:connector-curvature="0" /><path
           d="m 117.977,250.944 c -3.785,-4.295 14.532,-6.1 30.656,4.377 l -28.73,-3.5 c -1.187,-0.602 -1.926,-0.877 -1.926,-0.877"
           style="fill:#f0401e;fill-opacity:1;fill-rule:nonzero;stroke:none"
           id="path43952"
           inkscape:connector-curvature="0" /><path
           d="m 306.004,273.195 c 1.145,0.141 2.29,0.259 3.426,0.349 13.882,1.394 35.083,5.641 49.679,12.239 l 4.037,14.397 z"
           style="fill:#cee86d;fill-opacity:1;fill-rule:nonzero;stroke:none"
           id="path43954"
           inkscape:connector-curvature="0" /><path
           d="m 359.109,285.783 c 2.575,1.164 4.947,2.402 7.034,3.708 0.247,0.178 0.207,0.139 0.321,0.225 -0.401,-0.315 -0.768,-0.603 0.527,0.32 0.167,0.305 0.77,0.46 2.287,1.151 l -6.132,8.993 z"
           style="fill:#c1e7aa;fill-opacity:1;fill-rule:nonzero;stroke:none"
           id="path43956"
           inkscape:connector-curvature="0" /><path
           d="m 212.172,265.43 -21.568,-120.119 15.137,3.511 c -1.484,7.121 -2.484,13.618 -3.209,17.394 2.378,-4.579 5.628,-10.453 8.482,-16.168 l 19.804,4.595 c -7.719,12.764 -16.567,25.659 -13.872,37.723 1.325,2.818 2.78,5.593 4.324,8.342 15.739,1.245 29.074,14.143 41.903,22.088 0.882,0.718 1.702,1.461 2.468,2.224 z"
           style="fill:#f9cc07;fill-opacity:1;fill-rule:nonzero;stroke:none"
           id="path43958"
           inkscape:connector-curvature="0" /><path
           d="m 212.172,265.43 53.469,-40.41 c 10.506,10.445 10.561,24.589 9.664,31.74 -0.626,4.987 5.219,9.34 13.472,12.394 z"
           style="fill:#f0ee07;fill-opacity:1;fill-rule:nonzero;stroke:none"
           id="path43960"
           inkscape:connector-curvature="0" /><path
           d="m 212.172,265.43 -21.725,-3.48 c 5.75,-10.069 14.273,-25.084 14.3,-26.021 0.875,-4.851 0.017,-8.577 -1.942,-11.566 -0.059,-0.069 -0.119,-0.159 -0.18,-0.267 -6.677,-9.707 -25.139,-11.492 -32.919,-19.093 -0.248,-0.24 -0.377,-0.644 -0.413,-1.166 l 6.231,-17.113 c 0.079,-0.134 0.149,-0.247 0.209,-0.338 3.981,-5.964 9.55,-20.046 11.938,-33.022 l 2.933,-8.053 z"
           style="fill:#f68a11;fill-opacity:1;fill-rule:nonzero;stroke:none"
           id="path43962"
           inkscape:connector-curvature="0" /><path
           d="m 187.671,153.364 c 0.496,-2.692 0.854,-5.336 1.033,-7.853 l 1.9,-0.2 z"
           style="fill:#f57d14;fill-opacity:1;fill-rule:nonzero;stroke:none"
           id="path43964"
           inkscape:connector-curvature="0" /><path
           d="m 175.524,186.724 -6.231,17.113 c -0.267,-3.872 4.665,-14.461 6.231,-17.113"
           style="fill:#f57d14;fill-opacity:1;fill-rule:nonzero;stroke:none"
           id="path43966"
           inkscape:connector-curvature="0" /><path
           d="m 209.414,133.438 c -0.317,1.263 -0.504,2.588 -0.644,3.071 -1.191,4.048 -2.188,8.279 -3.029,12.313 l -15.137,-3.511 z"
           style="fill:#f9c808;fill-opacity:1;fill-rule:nonzero;stroke:none"
           id="path43968"
           inkscape:connector-curvature="0" /><path
           d="m 216.19,138.188 c 0.373,-1.129 -1.226,-4.58 1.227,-7.078 1.965,-1.999 3.003,-3.696 3.553,-4.966 l 23.957,-15.119 c 0.885,0.023 1.742,0.03 2.557,0.016 8.464,-0.136 -1.267,18.423 -5.736,21.57 -2.997,2.407 -2.476,5.639 -3.68,8.481 -1.89,4.472 -4.499,9.003 -7.25,13.551 l -19.804,-4.595 c 2.119,-4.243 4.019,-8.395 5.176,-11.86"
           style="fill:#f9c808;fill-opacity:1;fill-rule:nonzero;stroke:none"
           id="path43970"
           inkscape:connector-curvature="0" /><path
           d="m 221.576,123.644 c -0.182,-2.173 -0.366,-10.229 1.078,-11.197 4.395,-2.939 14.473,-1.621 22.273,-1.422 l -23.957,15.119 c 0.685,-1.584 0.606,-2.5 0.606,-2.5"
           style="fill:#f8a40d;fill-opacity:1;fill-rule:nonzero;stroke:none"
           id="path43972"
           inkscape:connector-curvature="0" /><path
           d="m 199.11,111.847 c 7.281,-0.326 15.942,0.268 16.226,1.35 0.706,3.369 -0.2,14.297 -4.738,17.685 -0.531,0.392 -0.908,1.45 -1.184,2.556 l -18.81,11.873 z"
           style="fill:#f8a40d;fill-opacity:1;fill-rule:nonzero;stroke:none"
           id="path43974"
           inkscape:connector-curvature="0" /><path
           d="m 188.704,145.511 c 0.063,-0.879 0.102,-1.745 0.119,-2.59 l 1.781,2.39 z"
           style="fill:#f46a17;fill-opacity:1;fill-rule:nonzero;stroke:none"
           id="path43976"
           inkscape:connector-curvature="0" /><path
           d="m 188.823,142.921 c 0.086,-4.332 -0.454,-8.155 -1.869,-10.986 -1.731,-3.466 -0.035,-1.822 1.645,-6.853 1.043,-3.129 -2.883,-7.599 0.818,-11.397 1.031,-1.055 5.086,-1.63 9.693,-1.838 l -8.506,33.464 z"
           style="fill:#f57d14;fill-opacity:1;fill-rule:nonzero;stroke:none"
           id="path43978"
           inkscape:connector-curvature="0" /></g></g></g></svg>