<?xml version="1.0" encoding="UTF-8" standalone="no"?>
<!-- Created with Inkscape (http://www.inkscape.org/) -->

<svg
   xmlns:dc="http://purl.org/dc/elements/1.1/"
   xmlns:cc="http://creativecommons.org/ns#"
   xmlns:rdf="http://www.w3.org/1999/02/22-rdf-syntax-ns#"
   xmlns:svg="http://www.w3.org/2000/svg"
   xmlns="http://www.w3.org/2000/svg"
   xmlns:sodipodi="http://sodipodi.sourceforge.net/DTD/sodipodi-0.dtd"
   xmlns:inkscape="http://www.inkscape.org/namespaces/inkscape"
   version="1.1"
   id="svg51135"
   xml:space="preserve"
   width="800"
   height="800"
   viewBox="0 0 800 800"
   sodipodi:docname="horse-silhouette-color-publicdomainvectors.org.svg"
   inkscape:version="0.92.4 (5da689c313, 2019-01-14)"><metadata
     id="metadata51141"><rdf:RDF><cc:Work
         rdf:about=""><dc:format>image/svg+xml</dc:format><dc:type
           rdf:resource="http://purl.org/dc/dcmitype/StillImage" /><dc:title></dc:title></cc:Work></rdf:RDF></metadata><defs
     id="defs51139"><clipPath
       clipPathUnits="userSpaceOnUse"
       id="clipPath51151"><path
         d="M 0,600 H 600 V 0 H 0 Z"
         id="path51149"
         inkscape:connector-curvature="0" /></clipPath></defs><sodipodi:namedview
     pagecolor="#ffffff"
     bordercolor="#666666"
     borderopacity="1"
     objecttolerance="10"
     gridtolerance="10"
     guidetolerance="10"
     inkscape:pageopacity="0"
     inkscape:pageshadow="2"
     inkscape:window-width="797"
     inkscape:window-height="480"
     id="namedview51137"
     showgrid="false"
     inkscape:zoom="0.295"
     inkscape:cx="400"
     inkscape:cy="400"
     inkscape:window-x="0"
     inkscape:window-y="0"
     inkscape:window-maximized="0"
     inkscape:current-layer="g51143" /><g
     id="g51143"
     inkscape:groupmode="layer"
     inkscape:label="horse-silhouette-color-publicdomainvectors.org"
     transform="matrix(1.3333333,0,0,-1.3333333,0,800)"><g
       id="g51145"><g
         id="g51147"
         clip-path="url(#clipPath51151)"><path
           d="m 580.265,338.806 c 6.138,6.509 10.511,14.972 12.982,22.657 -11.756,-13.796 -31.869,-13.85 -51.184,-1.827 l -10.992,-6.114 z"
           style="fill:#8e6592;fill-opacity:1;fill-rule:nonzero;stroke:none"
           id="path51153"
           inkscape:connector-curvature="0" /><path
           d="m 525.76,226.385 26.992,-10.391 c 1.086,2.236 3.418,3.563 3.418,3.563 0,0 -9.806,9.193 -20,21.433 l -15.119,-9.131 c 1.567,-1.754 3.149,-3.584 4.709,-5.474"
           style="fill:#2b3897;fill-opacity:1;fill-rule:nonzero;stroke:none"
           id="path51155"
           inkscape:connector-curvature="0" /><path
           d="m 574.655,216.648 c -9.315,-3.388 -12.416,-3.867 -12.416,-3.867 0,0 -0.084,-0.131 -0.236,-0.349 l 30.115,-11.594 c -3.656,6.685 -10.342,14.623 -17.463,15.81"
           style="fill:#2b3897;fill-opacity:1;fill-rule:nonzero;stroke:none"
           id="path51157"
           inkscape:connector-curvature="0" /><path
           d="m 517.923,235.287 c 1.029,-1.105 2.075,-2.25 3.128,-3.428 l 15.119,9.131 c -5.549,6.662 -11.212,14.229 -15.472,21.705 z"
           style="fill:#254aa5;fill-opacity:1;fill-rule:nonzero;stroke:none"
           id="path51159"
           inkscape:connector-curvature="0" /><path
           d="m 529.43,339.458 c 1.145,-0.828 2.28,-1.65 3.401,-2.46 20.688,-14.948 36.74,-9.534 47.434,1.808 l -49.194,14.716 z"
           style="fill:#2d7fbb;fill-opacity:1;fill-rule:nonzero;stroke:none"
           id="path51161"
           inkscape:connector-curvature="0" /><path
           d="m 541.489,200.547 c 6.964,1.506 30.207,-8.09 32.466,-10.539 3.577,-2.258 20.986,3.574 20.986,3.574 -0.253,1.775 -1.262,4.402 -2.823,7.256 l -30.115,11.594 c -1.075,-1.528 -5.602,-7.313 -8.938,-1.627 -1.186,2.021 -0.996,3.785 -0.313,5.189 l -26.992,10.391 c 6.536,-7.922 12.681,-16.906 15.729,-25.838"
           style="fill:#2744a0;fill-opacity:1;fill-rule:nonzero;stroke:none"
           id="path51163"
           inkscape:connector-curvature="0" /><path
           d="m 521.316,172.574 c 3.351,-2.113 18.763,2.848 18.763,2.848 -0.794,5.553 -10.034,20.865 -19.558,22.453 -1.513,-0.551 -2.842,-1.064 -4.011,-1.539 l -0.524,-20.773 c 2.752,-1.26 4.759,-2.368 5.33,-2.989"
           style="fill:#2744a0;fill-opacity:1;fill-rule:nonzero;stroke:none"
           id="path51165"
           inkscape:connector-curvature="0" /><path
           d="m 526.675,370.604 4.396,-17.082 10.992,6.114 c -2.95,1.836 -5.88,3.95 -8.76,6.344 -2.088,1.735 -4.307,3.274 -6.628,4.624"
           style="fill:#98694d;fill-opacity:1;fill-rule:nonzero;stroke:none"
           id="path51167"
           inkscape:connector-curvature="0" /><path
           d="m 518.414,347.222 c 3.752,-2.538 7.44,-5.18 11.016,-7.764 l 1.641,14.064 z"
           style="fill:#47c1bd;fill-opacity:1;fill-rule:nonzero;stroke:none"
           id="path51169"
           inkscape:connector-curvature="0" /><path
           d="m 466.283,217.686 c 8.906,-9.305 20.214,-22.331 24.619,-35.239 1.73,0.373 4.531,0.018 7.753,-0.752 l -31.148,44.498 z"
           style="fill:#2056ae;fill-opacity:1;fill-rule:nonzero;stroke:none"
           id="path51171"
           inkscape:connector-curvature="0" /><path
           d="m 498.655,181.695 c 5.651,-1.347 12.595,-3.965 17.331,-6.132 l 0.524,20.773 c -5.566,-2.256 -7.415,-3.6 -7.415,-3.6 0.845,-2.541 -4.505,-5.002 -7.35,-0.679 -3.354,5.101 2.91,8.199 2.91,8.199 0,0 -16.574,14.074 -26.387,26.678 l -10.761,-0.741 z"
           style="fill:#1b63b8;fill-opacity:1;fill-rule:nonzero;stroke:none"
           id="path51173"
           inkscape:connector-curvature="0" /><path
           d="m 526.675,370.604 c -6.655,3.869 -14.165,6.171 -21.91,6.989 l -7.313,-18.498 c 7.005,-2.929 14.091,-7.224 20.962,-11.873 l 12.657,6.3 z"
           style="fill:#87b858;fill-opacity:1;fill-rule:nonzero;stroke:none"
           id="path51175"
           inkscape:connector-curvature="0" /><path
           d="m 468.795,370.726 3.96,-8.824 c 7.756,2.307 16.166,0.764 24.697,-2.807 l 7.313,18.498 c -12.213,1.289 -25.01,-1.11 -35.97,-6.867"
           style="fill:#adb625;fill-opacity:1;fill-rule:nonzero;stroke:none"
           id="path51177"
           inkscape:connector-curvature="0" /><path
           d="m 468.812,245.521 c 8.212,0.792 17.166,2.307 26.928,4.682 l -25.005,23.815 z"
           style="fill:#117ecc;fill-opacity:1;fill-rule:nonzero;stroke:none"
           id="path51179"
           inkscape:connector-curvature="0" /><path
           d="m 478.268,226.934 c -4.111,5.279 -7.036,10.298 -7.059,13.92 -0.917,-0.157 -1.829,-0.295 -2.741,-0.426 l -0.961,-14.235 z"
           style="fill:#117ecc;fill-opacity:1;fill-rule:nonzero;stroke:none"
           id="path51181"
           inkscape:connector-curvature="0" /><path
           d="m 514.578,276.939 -43.843,-2.921 25.005,-23.815 c 2.17,0.527 4.378,1.096 6.629,1.711 0.522,-1.685 7.495,-7.967 15.554,-16.627 l 2.775,27.408 c -2.778,4.877 -4.959,9.717 -6.12,14.244"
           style="fill:#1671c2;fill-opacity:1;fill-rule:nonzero;stroke:none"
           id="path51183"
           inkscape:connector-curvature="0" /><path
           d="m 514.578,276.939 c -0.066,0.258 -0.131,0.518 -0.19,0.774 -24.207,-3.242 -33.688,4.933 -37.815,17.558 l -5.838,-21.253 z"
           style="fill:#1387d2;fill-opacity:1;fill-rule:nonzero;stroke:none"
           id="path51185"
           inkscape:connector-curvature="0" /><path
           d="m 415.445,318.613 20.846,53.351 c -10.619,6.516 -24.146,10.819 -41.357,11.007 l -2.493,-1.198 z"
           style="fill:#c3df13;fill-opacity:1;fill-rule:nonzero;stroke:none"
           id="path51187"
           inkscape:connector-curvature="0" /><path
           d="m 461.104,222.992 c 1.566,-1.584 3.321,-3.365 5.179,-5.306 l 1.224,8.507 z"
           style="fill:#176fc0;fill-opacity:1;fill-rule:nonzero;stroke:none"
           id="path51189"
           inkscape:connector-curvature="0" /><path
           d="m 470.735,274.018 5.838,21.253 c -1.263,3.865 -2.025,8.147 -2.554,12.647 -0.516,4.382 -1.832,11.808 -4.738,20.331 l -53.836,-9.636 z"
           style="fill:#5fc9c7;fill-opacity:1;fill-rule:nonzero;stroke:none"
           id="path51191"
           inkscape:connector-curvature="0" /><path
           d="m 455.384,360.995 5.834,-6.119 c 3.616,3.567 7.487,5.822 11.537,7.026 l -3.96,8.824 c -4.912,-2.58 -9.456,-5.832 -13.411,-9.731"
           style="fill:#8bd139;fill-opacity:1;fill-rule:nonzero;stroke:none"
           id="path51193"
           inkscape:connector-curvature="0" /><path
           d="m 469.281,328.249 c -4.983,14.618 -14.648,32.462 -32.99,43.715 l -20.846,-53.351 z"
           style="fill:#8bd139;fill-opacity:1;fill-rule:nonzero;stroke:none"
           id="path51195"
           inkscape:connector-curvature="0" /><path
           d="m 454.255,230.568 c 0.308,-0.994 3.009,-3.691 6.849,-7.576 l 6.403,3.201 0.961,14.235 c -7.054,-1.01 -13.924,-1.278 -20.522,-0.899 l -7.876,-11.918 c 4.52,0.807 9.243,1.787 14.185,2.957"
           style="fill:#1082cf;fill-opacity:1;fill-rule:nonzero;stroke:none"
           id="path51197"
           inkscape:connector-curvature="0" /><path
           d="m 451.501,244.91 c 5.371,-0.168 11.13,0.018 17.311,0.611 l 1.923,28.497 z"
           style="fill:#1082cf;fill-opacity:1;fill-rule:nonzero;stroke:none"
           id="path51199"
           inkscape:connector-curvature="0" /><path
           d="m 382.554,291.977 10.552,-21.557 c 10.736,-12.754 28.524,-24.58 58.395,-25.51 l 19.234,29.108 z"
           style="fill:#1aa3e4;fill-opacity:1;fill-rule:nonzero;stroke:none"
           id="path51201"
           inkscape:connector-curvature="0" /><path
           d="m 440.07,227.611 7.876,11.918 c -18.715,1.073 -35.247,7.293 -47.637,16.178 l 15.152,-30.951 c 7.442,0.336 15.619,1.25 24.609,2.855"
           style="fill:#1aa3e4;fill-opacity:1;fill-rule:nonzero;stroke:none"
           id="path51203"
           inkscape:connector-curvature="0" /><path
           d="m 382.554,291.977 88.181,-17.959 -55.29,44.595 z"
           style="fill:#52c6e2;fill-opacity:1;fill-rule:nonzero;stroke:none"
           id="path51205"
           inkscape:connector-curvature="0" /><path
           d="m 394.934,382.971 c -0.87,0.01 -1.747,0.01 -2.635,-0.002 l 0.142,-1.196 z"
           style="fill:#e04c1f;fill-opacity:1;fill-rule:nonzero;stroke:none"
           id="path51207"
           inkscape:connector-curvature="0" /><path
           d="m 392.441,381.773 -30.47,-46.21 53.474,-16.95 z"
           style="fill:#c5e233;fill-opacity:1;fill-rule:nonzero;stroke:none"
           id="path51209"
           inkscape:connector-curvature="0" /><path
           d="m 381.188,290.092 c 2.478,-5.815 6.197,-12.875 11.918,-19.672 l -10.552,21.557 z"
           style="fill:#23b0eb;fill-opacity:1;fill-rule:nonzero;stroke:none"
           id="path51211"
           inkscape:connector-curvature="0" /><path
           d="m 415.461,224.756 -15.152,30.951 c -8.929,6.402 -15.707,14.188 -19.596,22.43 l -13.192,-6.926 -16.915,-23.365 c 10.357,-12.942 29.133,-24.696 64.855,-23.09"
           style="fill:#23b0eb;fill-opacity:1;fill-rule:nonzero;stroke:none"
           id="path51213"
           inkscape:connector-curvature="0" /><path
           d="m 350.606,247.846 16.915,23.365 -23.814,-12.5 c 1.766,-3.537 4.004,-7.248 6.899,-10.865"
           style="fill:#79d1bc;fill-opacity:1;fill-rule:nonzero;stroke:none"
           id="path51215"
           inkscape:connector-curvature="0" /><path
           d="m 380.877,290.834 c 0.102,-0.246 0.205,-0.492 0.311,-0.742 l 1.366,1.885 z"
           style="fill:#79d1bc;fill-opacity:1;fill-rule:nonzero;stroke:none"
           id="path51217"
           inkscape:connector-curvature="0" /><path
           d="m 377.504,285.059 c -0.5,0.748 -0.951,1.621 -1.354,2.552 l -28.086,-19.144 c 9.673,4.222 19.497,9.679 29.44,16.592"
           style="fill:#79d1bc;fill-opacity:1;fill-rule:nonzero;stroke:none"
           id="path51219"
           inkscape:connector-curvature="0" /><path
           d="m 392.299,382.969 c -0.982,-0.013 -1.976,-0.041 -2.981,-0.08 l 3.123,-1.116 z"
           style="fill:#ed531c;fill-opacity:1;fill-rule:nonzero;stroke:none"
           id="path51221"
           inkscape:connector-curvature="0" /><path
           d="m 361.971,335.563 20.583,-43.586 32.891,26.636 z"
           style="fill:#a2dc8e;fill-opacity:1;fill-rule:nonzero;stroke:none"
           id="path51223"
           inkscape:connector-curvature="0" /><path
           d="m 392.441,381.773 -3.123,1.116 c -8.866,-0.348 -18.646,-1.745 -29.433,-4.416 l 2.086,-42.91 z"
           style="fill:#e7d30b;fill-opacity:1;fill-rule:nonzero;stroke:none"
           id="path51225"
           inkscape:connector-curvature="0" /><path
           d="m 361.971,335.563 -62.152,-20.381 74.291,-20.838 c -0.239,1.187 -0.376,2.172 -0.407,2.754 l 4.045,2.258 c 0.587,-1.76 1.356,-4.055 2.394,-6.704 l 2.412,-0.675 z"
           style="fill:#c3e34d;fill-opacity:1;fill-rule:nonzero;stroke:none"
           id="path51227"
           inkscape:connector-curvature="0" /><path
           d="m 380.142,292.652 c 0.231,-0.589 0.476,-1.195 0.735,-1.818 l 1.677,1.143 z"
           style="fill:#b2e199;fill-opacity:1;fill-rule:nonzero;stroke:none"
           id="path51229"
           inkscape:connector-curvature="0" /><path
           d="m 321.344,259.682 c 8.757,1.964 17.672,4.834 26.72,8.785 l 28.086,19.144 c -0.959,2.217 -1.641,4.758 -2.04,6.733 l -74.291,20.838 z"
           style="fill:#b2e199;fill-opacity:1;fill-rule:nonzero;stroke:none"
           id="path51231"
           inkscape:connector-curvature="0" /><path
           d="m 345.266,375.314 c -17.216,-2.163 -42.294,-0.692 -59.865,1.987 l 14.418,-62.119 z"
           style="fill:#f7c309;fill-opacity:1;fill-rule:nonzero;stroke:none"
           id="path51233"
           inkscape:connector-curvature="0" /><path
           d="m 284.35,381.833 c 6.283,-1.034 15.92,-2.473 15.835,-2.137 -0.32,1.254 -0.905,3.617 -1.102,4.773 -0.295,1.615 -0.63,3.988 -1.25,6.981 -0.761,2.979 -1.393,6.631 -2.743,10.702 -0.296,1.04 -0.623,2.109 -0.981,3.204 l -15.881,2.851 z"
           style="fill:#f7c309;fill-opacity:1;fill-rule:nonzero;stroke:none"
           id="path51235"
           inkscape:connector-curvature="0" /><path
           d="m 361.971,335.563 -2.086,42.91 c -1.738,-0.431 -3.496,-0.89 -5.286,-1.388 -2.706,-0.751 -5.861,-1.335 -9.333,-1.771 l -45.447,-60.132 z"
           style="fill:#ecec06;fill-opacity:1;fill-rule:nonzero;stroke:none"
           id="path51237"
           inkscape:connector-curvature="0" /><path
           d="m 278.228,408.207 15.881,-2.851 c -0.79,2.42 -1.727,4.968 -2.793,7.617 z"
           style="fill:#f47116;fill-opacity:1;fill-rule:nonzero;stroke:none"
           id="path51239"
           inkscape:connector-curvature="0" /><path
           d="m 291.316,412.973 c -0.353,0.876 -0.719,1.764 -1.099,2.662 -2.12,4.812 -4.633,9.937 -7.871,15.009 -0.475,0.794 -0.972,1.583 -1.486,2.37 l -2.632,-24.807 z"
           style="fill:#f36018;fill-opacity:1;fill-rule:nonzero;stroke:none"
           id="path51241"
           inkscape:connector-curvature="0" /><path
           d="m 293.563,256.662 2.254,-0.326 c 8.336,0.344 16.853,1.4 25.527,3.346 l -21.525,55.5 z"
           style="fill:#b1dd42;fill-opacity:1;fill-rule:nonzero;stroke:none"
           id="path51243"
           inkscape:connector-curvature="0" /><path
           d="m 293.962,256.273 c 0.617,0.018 1.236,0.038 1.855,0.063 l -2.254,0.326 z"
           style="fill:#79cd6e;fill-opacity:1;fill-rule:nonzero;stroke:none"
           id="path51245"
           inkscape:connector-curvature="0" /><path
           d="m 293.466,256.26 c 0.165,0.004 0.331,0.01 0.496,0.013 l -0.399,0.389 z"
           style="fill:#77cc5b;fill-opacity:1;fill-rule:nonzero;stroke:none"
           id="path51247"
           inkscape:connector-curvature="0" /><path
           d="m 275.716,404.227 c 0.606,-2.298 1.105,-4.489 1.472,-6.554 0.82,-3.545 1.032,-6.768 1.446,-9.345 0.239,-2.284 0.331,-4.157 0.43,-5.529 0.005,-0.064 2.256,-0.467 5.286,-0.966 l -6.122,26.374 z"
           style="fill:#f8bf09;fill-opacity:1;fill-rule:nonzero;stroke:none"
           id="path51249"
           inkscape:connector-curvature="0" /><path
           d="m 299.819,315.182 -14.418,62.119 c -3.896,0.594 -7.423,1.248 -10.414,1.935 -0.632,6.554 -1.764,12.735 -3.329,18.561 l -40.044,-63.445 z"
           style="fill:#f8bf09;fill-opacity:1;fill-rule:nonzero;stroke:none"
           id="path51251"
           inkscape:connector-curvature="0" /><path
           d="m 231.614,334.352 -13.695,-52.924 1.452,-0.422 -2.578,-3.932 -1.337,-5.166 c 16.546,-6.312 34.743,-11.969 54.208,-14.416 l 23.899,-0.83 z"
           style="fill:#e5c40d;fill-opacity:1;fill-rule:nonzero;stroke:none"
           id="path51253"
           inkscape:connector-curvature="0" /><path
           d="m 293.563,256.662 6.256,58.52 -68.205,19.17 z"
           style="fill:#eae407;fill-opacity:1;fill-rule:nonzero;stroke:none"
           id="path51255"
           inkscape:connector-curvature="0" /><path
           d="m 256.478,459.281 c -5.382,4.092 -11.129,7.79 -17.106,10.992 -0.172,0.089 -0.347,0.174 -0.519,0.263 l -6.511,-7.831 c 0.627,-0.392 1.252,-0.788 1.872,-1.189 3.921,-2.628 7.655,-5.479 11.165,-8.492 l 16.253,1.972 c -1.671,1.469 -3.389,2.9 -5.154,4.285"
           style="fill:#ed1f24;fill-opacity:1;fill-rule:nonzero;stroke:none"
           id="path51257"
           inkscape:connector-curvature="0" /><path
           d="m 235.567,451.834 c -2.494,1.952 -5.057,3.791 -7.673,5.52 l -5.965,-7.174 z"
           style="fill:#ed1f24;fill-opacity:1;fill-rule:nonzero;stroke:none"
           id="path51259"
           inkscape:connector-curvature="0" /><path
           d="m 269.664,257.492 c 7.741,-0.971 15.684,-1.437 23.802,-1.232 l 0.097,0.402 z"
           style="fill:#a9d923;fill-opacity:1;fill-rule:nonzero;stroke:none"
           id="path51261"
           inkscape:connector-curvature="0" /><path
           d="m 231.614,334.352 40.044,63.445 c -0.747,2.78 -1.594,5.478 -2.531,8.097 l -75.046,-19.076 z"
           style="fill:#f79110;fill-opacity:1;fill-rule:nonzero;stroke:none"
           id="path51263"
           inkscape:connector-curvature="0" /><path
           d="m 274.845,407.347 c 0.31,-1.06 0.601,-2.101 0.871,-3.12 l 2.512,3.98 z"
           style="fill:#f79110;fill-opacity:1;fill-rule:nonzero;stroke:none"
           id="path51265"
           inkscape:connector-curvature="0" /><path
           d="m 227.894,457.354 c -2.387,1.576 -4.82,3.06 -7.286,4.455 l 1.321,-11.629 z"
           style="fill:#ed1c24;fill-opacity:1;fill-rule:nonzero;stroke:none"
           id="path51267"
           inkscape:connector-curvature="0" /><path
           d="m 220.908,478.208 c -0.748,0.252 -1.496,0.496 -2.245,0.734 l 1.057,-9.3 c 4.314,-2.079 8.546,-4.396 12.622,-6.937 l 6.511,7.831 c -5.861,3.002 -11.893,5.558 -17.945,7.672"
           style="fill:#ed1c24;fill-opacity:1;fill-rule:nonzero;stroke:none"
           id="path51269"
           inkscape:connector-curvature="0" /><path
           d="m 197.739,214.203 c 3.431,-0.199 6.065,-0.619 7.349,-1.314 1.454,0.761 2.938,1.701 4.406,2.748 l -12.386,0.467 z"
           style="fill:#a79c26;fill-opacity:1;fill-rule:nonzero;stroke:none"
           id="path51271"
           inkscape:connector-curvature="0" /><path
           d="m 209.494,215.637 c 7.675,5.476 14.907,13.947 15.101,16.058 -6.246,4.905 -14.012,7.119 -19.289,7.909 l -8.198,-23.5 z"
           style="fill:#bcae1a;fill-opacity:1;fill-rule:nonzero;stroke:none"
           id="path51273"
           inkscape:connector-curvature="0" /><path
           d="m 280.86,433.014 c -2.82,4.324 -6.186,8.542 -9.78,12.697 -2.929,3.22 -6.089,6.331 -9.448,9.285 l -16.253,-1.972 c 1.118,-0.96 2.215,-1.936 3.286,-2.927 4.362,-4.183 8.263,-8.628 11.658,-13.18 3.26,-4.648 6.223,-9.243 8.416,-13.928 1.938,-3.801 3.433,-7.594 4.686,-11.201 l 4.803,-3.581 z"
           style="fill:#f14a1c;fill-opacity:1;fill-rule:nonzero;stroke:none"
           id="path51275"
           inkscape:connector-curvature="0" /><path
           d="m 263.089,419.494 c -7.052,13.125 -16.631,23.815 -27.522,32.34 l -13.638,-1.654 z"
           style="fill:#f14a1c;fill-opacity:1;fill-rule:nonzero;stroke:none"
           id="path51277"
           inkscape:connector-curvature="0" /><path
           d="m 273.425,411.788 c 0.262,-0.755 0.514,-1.502 0.757,-2.239 0.231,-0.744 0.45,-1.476 0.663,-2.202 l 3.383,0.86 z"
           style="fill:#f36218;fill-opacity:1;fill-rule:nonzero;stroke:none"
           id="path51279"
           inkscape:connector-curvature="0" /><path
           d="m 194.081,386.818 75.046,19.076 c -1.719,4.796 -3.743,9.328 -6.038,13.6 l -41.16,30.686 z"
           style="fill:#f36218;fill-opacity:1;fill-rule:nonzero;stroke:none"
           id="path51281"
           inkscape:connector-curvature="0" /><path
           d="m 202.279,483.163 c -6.132,1.124 -12.083,1.934 -17.746,2.32 -3.589,0.237 -7.052,0.366 -10.362,0.373 l 5.978,-4.465 c 1.26,-0.181 2.536,-0.376 3.825,-0.588 5.422,-0.908 11.052,-2.25 16.776,-3.887 5.696,-1.754 11.464,-3.854 17.117,-6.396 0.619,-0.287 1.237,-0.581 1.853,-0.878 l -1.057,9.3 c -5.509,1.751 -11.012,3.129 -16.384,4.221"
           style="fill:#ec1c24;fill-opacity:1;fill-rule:nonzero;stroke:none"
           id="path51283"
           inkscape:connector-curvature="0" /><path
           d="m 220.608,461.809 c -10.173,5.755 -20.925,9.99 -31.482,12.876 l 32.803,-24.505 z"
           style="fill:#ec1c24;fill-opacity:1;fill-rule:nonzero;stroke:none"
           id="path51285"
           inkscape:connector-curvature="0" /><path
           d="m 221.929,450.18 -32.803,24.505 c -19.749,5.397 -38.808,6.071 -52.097,3.142 l 0.349,-27.446 z"
           style="fill:#ed1c24;fill-opacity:1;fill-rule:nonzero;stroke:none"
           id="path51287"
           inkscape:connector-curvature="0" /><path
           d="m 168.59,485.747 c -2.462,-0.069 -4.816,-0.212 -7.048,-0.428 -2.234,-0.15 -4.344,-0.428 -6.321,-0.683 -1.981,-0.215 -3.817,-0.552 -5.515,-0.839 -1.7,-0.266 -3.254,-0.572 -4.647,-0.893 -2.805,-0.566 -4.959,-1.137 -6.429,-1.54 -0.711,-0.189 -1.26,-0.335 -1.64,-0.435 l 0.001,-0.064 c 0.389,0.064 0.952,0.156 1.687,0.274 1.5,0.257 3.712,0.618 6.526,0.903 1.403,0.182 2.959,0.333 4.665,0.428 1.702,0.121 3.537,0.276 5.506,0.297 1.967,0.058 4.055,0.13 6.259,0.06 2.201,0 4.512,-0.088 6.919,-0.256 3.669,-0.197 7.556,-0.604 11.596,-1.18 l -5.978,4.465 c -1.914,0.006 -3.776,-0.029 -5.581,-0.109"
           style="fill:#ed1c24;fill-opacity:1;fill-rule:nonzero;stroke:none"
           id="path51289"
           inkscape:connector-curvature="0" /><path
           d="m 213.819,272.537 c 0.543,-0.211 1.09,-0.42 1.637,-0.629 l 1.337,5.166 z"
           style="fill:#f46e16;fill-opacity:1;fill-rule:nonzero;stroke:none"
           id="path51291"
           inkscape:connector-curvature="0" /><path
           d="m 170.297,334.688 c -1.871,-4.167 -3.427,-7.634 -4.593,-10.669 l 38.422,-53.275 c 3.971,3.526 7.274,7.5 9.467,11.942 l 4.326,-1.258 13.695,52.924 z"
           style="fill:#f46e16;fill-opacity:1;fill-rule:nonzero;stroke:none"
           id="path51293"
           inkscape:connector-curvature="0" /><path
           d="m 194.081,386.818 -14.52,-20.929 c -0.328,-7.059 -1.616,-13.607 -3.947,-19.104 -1.965,-4.63 -3.751,-8.609 -5.317,-12.097 l 61.317,-0.336 z"
           style="fill:#f57914;fill-opacity:1;fill-rule:nonzero;stroke:none"
           id="path51295"
           inkscape:connector-curvature="0" /><path
           d="m 221.929,450.18 -84.551,0.201 13.02,-14.595 0.182,0.209 c 6.325,-4.6 11.733,-11.033 16.11,-18.472 l 27.391,-30.705 z"
           style="fill:#ef3320;fill-opacity:1;fill-rule:nonzero;stroke:none"
           id="path51297"
           inkscape:connector-curvature="0" /><path
           d="m 164.252,307.893 c -1.439,-0.44 -3.492,-0.997 -3.743,-0.68 -2.21,2.024 -1.977,9.647 -1.977,9.647 -1.981,-0.626 -5.202,-1.609 -8.822,-2.702 l -11.269,-28.133 c 8.371,-0.076 18.322,0.166 28.161,1.151 -11.128,-8.363 -32.015,-23.627 -32.015,-23.627 -0.075,-0.024 -0.152,-0.047 -0.232,-0.072 l 54.77,-2.805 c 5.415,2.828 10.614,6.176 15.001,10.072 l -38.422,53.275 c -2.478,-6.451 -3.201,-10.96 -1.452,-16.126"
           style="fill:#ed1d24;fill-opacity:1;fill-rule:nonzero;stroke:none"
           id="path51299"
           inkscape:connector-curvature="0" /><path
           d="m 195.866,214.289 c 0.647,-0.021 1.272,-0.051 1.873,-0.086 l -0.631,1.901 z"
           style="fill:#ac1f25;fill-opacity:1;fill-rule:nonzero;stroke:none"
           id="path51301"
           inkscape:connector-curvature="0" /><path
           d="m 184.73,230.094 c -1.969,2.722 -6.489,3.049 -12.331,3.416 l 8.491,-5.981 c 1.288,1.567 3.84,2.565 3.84,2.565"
           style="fill:#d73223;fill-opacity:1;fill-rule:nonzero;stroke:none"
           id="path51303"
           inkscape:connector-curvature="0" /><path
           d="m 131.344,262.434 19.647,-13.842 c 0.055,0 0.104,0 0.145,0.002 4.578,0.015 22.197,3.832 37.989,12.078 l -54.77,2.805 c -0.863,-0.27 -1.897,-0.633 -3.011,-1.043"
           style="fill:#d73223;fill-opacity:1;fill-rule:nonzero;stroke:none"
           id="path51305"
           inkscape:connector-curvature="0" /><path
           d="m 205.306,239.604 c -3.218,0.48 -5.511,0.431 -5.97,0.136 -4.688,-2.74 -6.078,-8.89 -6.078,-8.89 -0.163,-2.698 -1.129,-7.536 -4.056,-9.176 l 7.906,-5.57 z"
           style="fill:#d73223;fill-opacity:1;fill-rule:nonzero;stroke:none"
           id="path51307"
           inkscape:connector-curvature="0" /><path
           d="m 136.972,378.262 c 1.516,1.082 3.493,2.024 5.329,1.458 0,0 0.015,0.652 0.052,1.728 l -6.589,-0.684 z"
           style="fill:#f14e1c;fill-opacity:1;fill-rule:nonzero;stroke:none"
           id="path51309"
           inkscape:connector-curvature="0" /><path
           d="m 178.267,385.175 c 1.129,-6.58 1.58,-13.128 1.294,-19.286 l 14.52,20.929 z"
           style="fill:#f14e1c;fill-opacity:1;fill-rule:nonzero;stroke:none"
           id="path51311"
           inkscape:connector-curvature="0" /><path
           d="m 166.69,417.523 c 5.693,-9.677 9.638,-21.058 11.577,-32.348 l 15.814,1.643 z"
           style="fill:#ef3021;fill-opacity:1;fill-rule:nonzero;stroke:none"
           id="path51313"
           inkscape:connector-curvature="0" /><path
           d="m 135.764,380.764 6.589,0.684 c 0.172,5.239 0.799,20.574 2.206,20.104 1.693,-0.563 23.762,18.02 3.265,31.273 l 2.574,2.961 -13.02,14.595 z"
           style="fill:#ef3021;fill-opacity:1;fill-rule:nonzero;stroke:none"
           id="path51315"
           inkscape:connector-curvature="0" /><path
           d="m 190.261,214.326 c 1.986,0.031 3.873,0.02 5.605,-0.037 l 1.242,1.815 z"
           style="fill:#b41e25;fill-opacity:1;fill-rule:nonzero;stroke:none"
           id="path51317"
           inkscape:connector-curvature="0" /><path
           d="m 129.601,261.775 1.402,-29.837 c 10.473,-3.497 27.745,-10.573 37.177,-19.219 6.932,0.886 15.11,1.502 22.081,1.607 l 6.847,1.778 -7.906,5.57 c -1.453,-0.817 -3.389,-0.844 -5.951,0.568 -3.655,2.014 -3.519,3.879 -2.361,5.287 l -8.491,5.981 c -7.847,0.494 -18.083,1.058 -27.736,7.603 -10.071,6.828 4.015,7.45 6.328,7.479 l -19.647,13.842 c -0.565,-0.209 -1.15,-0.43 -1.743,-0.659"
           style="fill:#cc1f26;fill-opacity:1;fill-rule:nonzero;stroke:none"
           id="path51319"
           inkscape:connector-curvature="0" /><path
           d="m 137.378,450.381 -26.466,-39.7 c 0.178,-8.598 0.175,-18.289 -0.655,-22.019 -0.26,-1.167 -0.753,-2.365 -1.318,-3.472 l 16.001,-2.64 c 0.012,0.652 -0.013,1.203 -0.072,1.649 2.155,0.38 5.574,1.639 5.574,1.639 0,0 -0.2,-1.897 -0.347,-4.138 l 5.669,-0.936 z"
           style="fill:#ed1c24;fill-opacity:1;fill-rule:nonzero;stroke:none"
           id="path51321"
           inkscape:connector-curvature="0" /><path
           d="m 137.029,477.827 c -0.79,-0.174 -1.562,-0.36 -2.312,-0.559 0,0 -2.956,11.802 -8.037,19.142 -8.471,-6.209 -12.046,-26.536 -12.046,-26.536 l -5.646,-2.26 -0.113,-1.284 28.503,-15.949 z"
           style="fill:#ed1c24;fill-opacity:1;fill-rule:nonzero;stroke:none"
           id="path51323"
           inkscape:connector-curvature="0" /><path
           d="m 136.371,480.765 c 0,0 0.212,0.034 0.62,0.1 l -0.001,0.064 c -0.407,-0.108 -0.619,-0.164 -0.619,-0.164"
           style="fill:#ed1c24;fill-opacity:1;fill-rule:nonzero;stroke:none"
           id="path51325"
           inkscape:connector-curvature="0" /><path
           d="m 129.988,376.183 c 0.066,-0.891 0.205,-1.513 0.454,-1.638 1.129,-0.564 3.954,1.412 3.954,1.412 0,0 1.058,1.223 2.576,2.305 l -1.208,2.502 z"
           style="fill:#ee2c21;fill-opacity:1;fill-rule:nonzero;stroke:none"
           id="path51327"
           inkscape:connector-curvature="0" /><path
           d="m 128.105,307.698 c -5.66,1.633 -14.177,0.505 -14.177,0.505 -2.434,0 -3.704,-1.442 -5.498,-2.948 l 9.266,-18.257 c 2.078,-0.266 10.142,-0.875 20.745,-0.973 l 11.269,28.133 c -9.442,-2.853 -21.605,-6.46 -21.605,-6.46"
           style="fill:#ed1c24;fill-opacity:1;fill-rule:nonzero;stroke:none"
           id="path51329"
           inkscape:connector-curvature="0" /><path
           d="m 104.047,302.696 c -2.532,-0.856 -8.124,-2.368 -15.195,-3.164 l -0.028,-12.423 c 3.64,1.112 7.739,1.709 12.399,1.319 4.72,0 10.983,-0.66 16.329,-1.41 0.044,-0.006 0.093,-0.014 0.144,-0.02 l -9.266,18.257 c -1.12,-0.939 -2.445,-1.904 -4.383,-2.559"
           style="fill:#ed1c24;fill-opacity:1;fill-rule:nonzero;stroke:none"
           id="path51331"
           inkscape:connector-curvature="0" /><path
           d="m 119.511,257.658 c -1.639,-12.361 -1.634,-22.459 3.6,-23.445 1.363,-0.256 4.207,-1.045 7.892,-2.275 l -1.402,29.837 c -4.752,-1.824 -10.09,-4.117 -10.09,-4.117"
           style="fill:#d61e26;fill-opacity:1;fill-rule:nonzero;stroke:none"
           id="path51333"
           inkscape:connector-curvature="0" /><path
           d="m 105.882,380.475 c 0,0 5.646,-4.235 5.929,-6.494 0.282,-2.259 9.034,-2.541 11.856,0 0.863,3.696 1.24,6.595 1.273,8.569 l -16.001,2.64 c -1.331,-2.61 -3.057,-4.715 -3.057,-4.715"
           style="fill:#ed1f24;fill-opacity:1;fill-rule:nonzero;stroke:none"
           id="path51335"
           inkscape:connector-curvature="0" /><path
           d="m 130.095,381.7 c -0.125,-1.911 -0.213,-4.071 -0.107,-5.517 l 5.776,4.581 z"
           style="fill:#ed1f24;fill-opacity:1;fill-rule:nonzero;stroke:none"
           id="path51337"
           inkscape:connector-curvature="0" /><path
           d="m 108.875,466.33 -2.993,-34.099 c 2.54,-1.976 4.584,-3.678 4.584,-6.219 0,-1.183 0.291,-7.845 0.446,-15.331 l 26.466,39.7 z"
           style="fill:#ed1c24;fill-opacity:1;fill-rule:nonzero;stroke:none"
           id="path51339"
           inkscape:connector-curvature="0" /><path
           d="M 32.88,282.383 C 27.347,273.857 18.29,262.23 19.196,259.828 l 6.344,-0.676 c 10.704,-0.547 20.902,1.33 21.467,2.391 2.743,4.687 8.612,12.068 8.612,12.068 -1.764,3.637 -1.785,7.256 2.694,8.006 5.882,0.988 5.786,-5.174 5.786,-5.174 2.111,-0.974 4.445,-0.181 7.207,1.379 l -12.025,17.51 C 50.646,288.107 41.315,283.719 32.88,282.383"
           style="fill:#de1d25;fill-opacity:1;fill-rule:nonzero;stroke:none"
           id="path51341"
           inkscape:connector-curvature="0" /><path
           d="m 64.97,300.621 c -1.849,-1.906 -3.752,-3.668 -5.689,-5.289 l 12.025,-17.51 c 4.443,2.508 9.997,6.994 17.518,9.287 l 0.028,12.423 c -7.018,-0.792 -15.493,-0.876 -23.882,1.089"
           style="fill:#ed1c24;fill-opacity:1;fill-rule:nonzero;stroke:none"
           id="path51343"
           inkscape:connector-curvature="0" /><path
           d="m 19.211,259.785 c 2.083,-0.322 4.215,-0.523 6.329,-0.633 l -6.344,0.676 c 0.006,-0.014 0.01,-0.029 0.015,-0.043"
           style="fill:#c61f26;fill-opacity:1;fill-rule:nonzero;stroke:none"
           id="path51345"
           inkscape:connector-curvature="0" /></g></g></g></svg>