<?xml version="1.0" encoding="UTF-8" standalone="no"?>
<!-- Created with Inkscape (http://www.inkscape.org/) -->

<svg
   xmlns:dc="http://purl.org/dc/elements/1.1/"
   xmlns:cc="http://creativecommons.org/ns#"
   xmlns:rdf="http://www.w3.org/1999/02/22-rdf-syntax-ns#"
   xmlns:svg="http://www.w3.org/2000/svg"
   xmlns="http://www.w3.org/2000/svg"
   xmlns:sodipodi="http://sodipodi.sourceforge.net/DTD/sodipodi-0.dtd"
   xmlns:inkscape="http://www.inkscape.org/namespaces/inkscape"
   version="1.1"
   id="svg55894"
   xml:space="preserve"
   width="1066.6667"
   height="1066.6667"
   viewBox="0 0 1066.6667 1066.6667"
   sodipodi:docname="hummingbird-clip-art-publicdomainvectors.org.svg"
   inkscape:version="0.92.4 (5da689c313, 2019-01-14)"><metadata
     id="metadata55900"><rdf:RDF><cc:Work
         rdf:about=""><dc:format>image/svg+xml</dc:format><dc:type
           rdf:resource="http://purl.org/dc/dcmitype/StillImage" /><dc:title></dc:title></cc:Work></rdf:RDF></metadata><defs
     id="defs55898"><clipPath
       clipPathUnits="userSpaceOnUse"
       id="clipPath55910"><path
         d="M 0,800 H 800 V 0 H 0 Z"
         id="path55908"
         inkscape:connector-curvature="0" /></clipPath></defs><sodipodi:namedview
     pagecolor="#ffffff"
     bordercolor="#666666"
     borderopacity="1"
     objecttolerance="10"
     gridtolerance="10"
     guidetolerance="10"
     inkscape:pageopacity="0"
     inkscape:pageshadow="2"
     inkscape:window-width="797"
     inkscape:window-height="480"
     id="namedview55896"
     showgrid="false"
     inkscape:zoom="0.22124998"
     inkscape:cx="533.33337"
     inkscape:cy="533.33337"
     inkscape:window-x="0"
     inkscape:window-y="0"
     inkscape:window-maximized="0"
     inkscape:current-layer="g55902" /><g
     id="g55902"
     inkscape:groupmode="layer"
     inkscape:label="hummingbird-clip-art-publicdomainvectors.org"
     transform="matrix(1.3333333,0,0,-1.3333333,0,1066.6667)"><g
       id="g55904"><g
         id="g55906"
         clip-path="url(#clipPath55910)"><path
           d="m 232.041,64.933 -7.577,20.391 c -6.472,-6.195 -13.38,-11.517 -20.741,-15.753 l -3.738,-23.536 c 11.639,3.513 22.332,10.219 32.056,18.898"
           style="fill:#003bcc;fill-opacity:1;fill-rule:nonzero;stroke:none"
           id="path55912"
           inkscape:connector-curvature="0" /><path
           d="m 142.458,115.261 c 2.791,4.779 6.304,8.072 10.176,10.269 l -2.611,8.56 c -4.988,-1.665 -9.95,-4.29 -14.732,-7.967 L 116.43,99.41 c -6.14,-26.221 13.674,-59.645 61.546,-56.971 l -5.12,16.787 c -23.545,-1 -48.299,25.378 -30.398,56.035"
           style="fill:#0056c8;fill-opacity:1;fill-rule:nonzero;stroke:none"
           id="path55914"
           inkscape:connector-curvature="0" /><path
           d="m 203.723,69.571 c -8.41,-4.836 -17.409,-8.257 -27.024,-9.934 -1.272,-0.222 -2.556,-0.358 -3.843,-0.411 l 5.12,-16.787 c 5.003,0.281 10.311,0.953 15.93,2.071 2.054,0.408 4.08,0.921 6.079,1.525 z"
           style="fill:#006ad4;fill-opacity:1;fill-rule:nonzero;stroke:none"
           id="path55916"
           inkscape:connector-curvature="0" /><path
           d="m 193.924,123.479 c -1.741,1.726 -3.594,3.293 -5.539,4.697 l -22.24,8.073 c -5.275,0.329 -10.714,-0.353 -16.122,-2.159 l 2.611,-8.56 c 17.123,9.716 41.29,-2.051 41.29,-2.051"
           style="fill:#006ad4;fill-opacity:1;fill-rule:nonzero;stroke:none"
           id="path55918"
           inkscape:connector-curvature="0" /><path
           d="m 170.901,695.36 c -0.153,0.254 -0.298,0.503 -0.427,0.742 -9.563,-4.633 -11.217,-14.532 -0.797,-30.307 l 1.207,3.272 z"
           style="fill:#ae001a;fill-opacity:1;fill-rule:nonzero;stroke:none"
           id="path55920"
           inkscape:connector-curvature="0" /><path
           d="m 261.626,100.722 -18.104,6.886 C 237.644,99.376 231.297,91.864 224.464,85.324 l 7.577,-20.391 c 11.149,9.953 21.023,22.494 29.585,35.789"
           style="fill:#0e7ac4;fill-opacity:1;fill-rule:nonzero;stroke:none"
           id="path55922"
           inkscape:connector-curvature="0" /><path
           d="m 123.625,114.466 c -3.513,-4.445 -5.916,-9.595 -7.195,-15.056 l 18.861,26.713 c -4.049,-3.113 -7.969,-6.977 -11.666,-11.657"
           style="fill:#0063c3;fill-opacity:1;fill-rule:nonzero;stroke:none"
           id="path55924"
           inkscape:connector-curvature="0" /><path
           d="m 285.411,145.642 -24.103,-8.476 c -5.374,-10.501 -11.295,-20.468 -17.786,-29.558 l 18.104,-6.886 c 9.594,14.896 17.54,30.733 23.785,44.92"
           style="fill:#2bc7cd;fill-opacity:1;fill-rule:nonzero;stroke:none"
           id="path55926"
           inkscape:connector-curvature="0" /><path
           d="m 368.126,156.558 c 7.759,1.465 14.996,4.876 21.188,9.715 l -46.359,-8.171 c 8.483,-2.383 17.208,-3.049 25.171,-1.544"
           style="fill:#c8c22c;fill-opacity:1;fill-rule:nonzero;stroke:none"
           id="path55928"
           inkscape:connector-curvature="0" /><path
           d="m 166.145,136.249 22.24,-8.073 c -6.574,4.74 -14.217,7.572 -22.24,8.073"
           style="fill:#008dde;fill-opacity:1;fill-rule:nonzero;stroke:none"
           id="path55930"
           inkscape:connector-curvature="0" /><path
           d="m 289.562,155.409 -15.905,9.008 c -3.744,-9.324 -7.857,-18.473 -12.349,-27.251 l 24.103,8.476 c 1.479,3.36 2.863,6.628 4.151,9.767"
           style="fill:#0097e2;fill-opacity:1;fill-rule:nonzero;stroke:none"
           id="path55932"
           inkscape:connector-curvature="0" /><path
           d="m 169.677,665.795 c 0.106,-0.16 0.209,-0.319 0.317,-0.48 l 0.89,3.752 z"
           style="fill:#ac768a;fill-opacity:1;fill-rule:nonzero;stroke:none"
           id="path55934"
           inkscape:connector-curvature="0" /><path
           d="m 309.02,250.61 c 0.294,0.899 0.605,1.8 0.936,2.703 l -4.131,-0.423 z"
           style="fill:#d4e20a;fill-opacity:1;fill-rule:nonzero;stroke:none"
           id="path55936"
           inkscape:connector-curvature="0" /><path
           d="m 408.344,219.35 c -5.36,23.767 -26.897,22.333 -26.897,22.333 19.881,-8.335 18.859,-31.279 7.047,-47.784 l 15.005,-10.706 c 5.593,10.501 7.785,23.109 4.845,36.157"
           style="fill:#d4e20a;fill-opacity:1;fill-rule:nonzero;stroke:none"
           id="path55938"
           inkscape:connector-curvature="0" /><path
           d="m 301.23,187.531 4.595,65.359 -8.129,-6.113 c -5.049,-25.513 -12.932,-54.702 -24.039,-82.36 l 15.905,-9.008 c 5.998,14.629 9.911,26.495 11.668,32.122"
           style="fill:#2ae0e0;fill-opacity:1;fill-rule:nonzero;stroke:none"
           id="path55940"
           inkscape:connector-curvature="0" /><path
           d="m 301.23,187.531 c 0.712,2.28 1.071,3.538 1.071,3.538 6.489,-15.683 23.047,-28.024 40.654,-32.967 l 46.359,8.171 c 5.79,4.527 10.662,10.305 14.185,16.92 l -15.005,10.706 c -11.774,-16.454 -34.269,-26.51 -57.463,-9.316 -24.036,17.824 -30.186,41.024 -22.011,66.027 l -3.195,2.28 z"
           style="fill:#8ddf37;fill-opacity:1;fill-rule:nonzero;stroke:none"
           id="path55942"
           inkscape:connector-curvature="0" /><path
           d="m 300.751,263.853 c -0.869,-5.452 -1.885,-11.165 -3.055,-17.076 l 8.129,6.113 z"
           style="fill:#09c7ef;fill-opacity:1;fill-rule:nonzero;stroke:none"
           id="path55944"
           inkscape:connector-curvature="0" /><path
           d="m 305.825,252.89 4.131,0.423 c 7.115,19.435 22.726,39.872 45.188,59.658 l -7.234,7.912 z"
           style="fill:#cef02c;fill-opacity:1;fill-rule:nonzero;stroke:none"
           id="path55946"
           inkscape:connector-curvature="0" /><path
           d="m 347.91,320.883 -11.487,-2.256 c -1.75,-1.619 -3.161,-3.025 -4.304,-4.058 -1.822,-1.717 -2.8,-2.635 -2.8,-2.635 0,0 0.854,1.035 2.446,2.976 0.75,0.912 1.675,2.033 2.753,3.344 l -25.071,-4.923 c -2.892,-12.8 -5.416,-26.589 -7.49,-41.443 -0.364,-2.605 -0.767,-5.288 -1.206,-8.035 l 5.074,-10.963 z"
           style="fill:#8df395;fill-opacity:1;fill-rule:nonzero;stroke:none"
           id="path55948"
           inkscape:connector-curvature="0" /><path
           d="m 169.994,665.315 c 0.212,-0.315 0.428,-0.633 0.649,-0.952 l 0.241,4.704 z"
           style="fill:#b1311d;fill-opacity:1;fill-rule:nonzero;stroke:none"
           id="path55950"
           inkscape:connector-curvature="0" /><path
           d="m 355.144,312.971 c 1.983,1.747 4.019,3.49 6.108,5.225 l -13.342,2.687 z"
           style="fill:#f2d000;fill-opacity:1;fill-rule:nonzero;stroke:none"
           id="path55952"
           inkscape:connector-curvature="0" /><path
           d="m 345.953,326.911 c -2.121,-1.823 -4.066,-3.501 -5.824,-5.02 -1.381,-1.148 -2.609,-2.247 -3.706,-3.264 l 11.487,2.256 -0.501,7.183 c -0.492,-0.389 -0.98,-0.777 -1.456,-1.155"
           style="fill:#c2f848;fill-opacity:1;fill-rule:nonzero;stroke:none"
           id="path55954"
           inkscape:connector-curvature="0" /><path
           d="m 334.698,318.473 c 0.584,0.697 1.18,1.469 1.874,2.247 0.712,0.766 1.474,1.576 2.277,2.434 1.613,1.718 3.4,3.615 5.346,5.688 0.951,0.909 1.941,1.856 2.963,2.833 l -4.905,70.377 c -12.72,-22.281 -24.339,-51.249 -32.806,-88.721 l 25.071,4.923 c 0.06,0.073 0.119,0.144 0.18,0.219"
           style="fill:#c2f848;fill-opacity:1;fill-rule:nonzero;stroke:none"
           id="path55956"
           inkscape:connector-curvature="0" /><path
           d="m 388.549,364.9 c 7.623,5.199 15.73,10.597 24.289,15.846 8.545,5.292 17.359,10.727 26.407,16.07 8.093,4.836 16.313,9.705 24.416,14.728 L 349.41,413.74 c -1.164,-1.77 -2.321,-3.593 -3.472,-5.466 l 37.612,-46.862 c 1.638,1.159 3.303,2.321 4.999,3.488"
           style="fill:#ffd100;fill-opacity:1;fill-rule:nonzero;stroke:none"
           id="path55958"
           inkscape:connector-curvature="0" /><path
           d="m 471.183,405.563 c -9.157,-5.616 -18.423,-10.974 -27.507,-16.279 -9.105,-5.23 -18.06,-10.377 -26.732,-15.359 -8.622,-5.035 -16.929,-9.894 -24.712,-14.671 -1.561,-0.979 -3.098,-1.944 -4.62,-2.904 l 9.72,-12.112 c 11.748,7.436 24.444,14.624 37.991,21.459 9.947,5.02 19.383,9.962 28.305,14.855 l 12.813,28.316 c -1.749,-1.108 -3.502,-2.211 -5.258,-3.305"
           style="fill:#ffd100;fill-opacity:1;fill-rule:nonzero;stroke:none"
           id="path55960"
           inkscape:connector-curvature="0" /><path
           d="m 350.823,335.179 c 4.818,4.441 10.394,9.327 16.758,14.289 4.904,3.908 10.258,7.903 15.969,11.944 l -37.612,46.862 c -1.238,-2.013 -2.466,-4.086 -3.685,-6.222 l 4.905,-70.377 c 1.178,1.126 2.401,2.294 3.665,3.504"
           style="fill:#f9eb00;fill-opacity:1;fill-rule:nonzero;stroke:none"
           id="path55962"
           inkscape:connector-curvature="0" /><path
           d="m 370.654,345.294 c -6.569,-4.491 -12.465,-8.801 -17.594,-12.738 -1.986,-1.581 -3.869,-3.076 -5.651,-4.49 l 0.501,-7.183 13.342,-2.687 c 10.704,8.896 22.782,17.627 36.08,26.042 l -9.72,12.112 c -6.02,-3.796 -11.726,-7.459 -16.958,-11.056"
           style="fill:#f9eb00;fill-opacity:1;fill-rule:nonzero;stroke:none"
           id="path55964"
           inkscape:connector-curvature="0" /><path
           d="m 476.441,408.868 -12.813,-28.316 c 5.574,3.055 10.948,6.094 16.114,9.117 l -2.045,19.994 c -0.419,-0.266 -0.837,-0.53 -1.256,-0.795"
           style="fill:#fd9d00;fill-opacity:1;fill-rule:nonzero;stroke:none"
           id="path55966"
           inkscape:connector-curvature="0" /><path
           d="m 477.697,409.663 2.045,-19.994 c 7.46,4.364 14.487,8.701 21.083,13.027 l -21.588,7.953 c -0.513,-0.329 -1.025,-0.658 -1.54,-0.986"
           style="fill:#ff9300;fill-opacity:1;fill-rule:nonzero;stroke:none"
           id="path55968"
           inkscape:connector-curvature="0" /><path
           d="m 374.807,472.019 -8.496,-14.794 c 4.827,-0.462 10.936,-0.214 16.054,1.052 3.806,1.612 16.635,11.246 29.897,21.605 l -10.372,10.902 z"
           style="fill:#ffce00;fill-opacity:1;fill-rule:nonzero;stroke:none"
           id="path55970"
           inkscape:connector-curvature="0" /><path
           d="m 466.431,413.27 c 1.939,1.186 3.873,2.381 5.799,3.581 l -41.44,43.555 c -12.539,-9.139 -26.924,-11.707 -45.212,-6.63 -11.608,-8.932 -24.191,-21.812 -36.168,-40.036 l 114.251,-2.196 c 0.924,0.574 1.848,1.147 2.77,1.726"
           style="fill:#ffce00;fill-opacity:1;fill-rule:nonzero;stroke:none"
           id="path55972"
           inkscape:connector-curvature="0" /><path
           d="m 396.834,459.71 c 2.381,-3.76 13.051,-2.09 25.813,3.873 1.086,0.507 2.194,1.148 3.317,1.897 l -10.988,11.549 z"
           style="fill:#ffce00;fill-opacity:1;fill-rule:nonzero;stroke:none"
           id="path55974"
           inkscape:connector-curvature="0" /><path
           d="m 391.185,500.538 -12.067,-21.01 c 7.118,4.136 14.519,8.523 21.429,12.667 l -8.413,8.843 z"
           style="fill:#ffce00;fill-opacity:1;fill-rule:nonzero;stroke:none"
           id="path55976"
           inkscape:connector-curvature="0" /><path
           d="m 699.307,604.768 -3.023,0.547 -0.313,-0.476 z"
           style="fill:#df2c00;fill-opacity:1;fill-rule:nonzero;stroke:none"
           id="path55978"
           inkscape:connector-curvature="0" /><path
           d="m 279.565,501.062 -4.32,-14.909 c 3.237,-1.023 6.995,-1.793 11.231,-2.153 5.372,-0.458 56.716,15.078 90.503,25.535 l -15.592,8.528 c -26.083,-6.06 -59.879,-13.542 -81.822,-17.001"
           style="fill:#f0c500;fill-opacity:1;fill-rule:nonzero;stroke:none"
           id="path55980"
           inkscape:connector-curvature="0" /><path
           d="m 291.561,476.693 c -0.998,-2.514 14.979,-7.111 21.068,-6.485 10.305,1.069 50.424,18.914 78.22,31.74 l -12.139,6.639 z"
           style="fill:#f0c500;fill-opacity:1;fill-rule:nonzero;stroke:none"
           id="path55982"
           inkscape:connector-curvature="0" /><path
           d="m 288.658,532.445 -6.491,-22.405 c 22.007,1.806 51.662,6.144 75.615,9.994 l -24.936,13.639 c -14.35,-0.518 -29.816,-0.983 -44.188,-1.228"
           style="fill:#f0c500;fill-opacity:1;fill-rule:nonzero;stroke:none"
           id="path55984"
           inkscape:connector-curvature="0" /><path
           d="m 290.52,538.871 c 11.726,-0.694 24.018,-1.218 35.769,-1.612 l -31.279,17.108 z"
           style="fill:#f0c500;fill-opacity:1;fill-rule:nonzero;stroke:none"
           id="path55986"
           inkscape:connector-curvature="0" /><path
           d="m 357.966,460.351 c 0.122,-1.535 3.617,-2.672 8.345,-3.126 l 8.496,14.794 z"
           style="fill:#f6e000;fill-opacity:1;fill-rule:nonzero;stroke:none"
           id="path55988"
           inkscape:connector-curvature="0" /><path
           d="m 322.198,464.212 c -0.665,-2.775 11.764,-5.324 21.832,-3.186 3.887,0.827 18.734,8.998 35.088,18.502 l 12.067,21.01 z"
           style="fill:#f6e000;fill-opacity:1;fill-rule:nonzero;stroke:none"
           id="path55990"
           inkscape:connector-curvature="0" /><path
           d="m 551.544,445.824 c 4.684,5.761 8.59,11.605 11.696,17.571 l -8.054,11.05 z"
           style="fill:#fb6800;fill-opacity:1;fill-rule:nonzero;stroke:none"
           id="path55992"
           inkscape:connector-curvature="0" /><path
           d="m 262.054,499.141 c -2.771,-3.147 2.207,-9.522 13.191,-12.988 l 4.32,14.909 c -7.466,-1.178 -13.561,-1.889 -17.511,-1.921"
           style="fill:#b7df21;fill-opacity:1;fill-rule:nonzero;stroke:none"
           id="path55994"
           inkscape:connector-curvature="0" /><path
           d="m 278.878,539.634 c 3.788,-0.275 7.683,-0.529 11.642,-0.763 l 4.49,15.496 z"
           style="fill:#b7df21;fill-opacity:1;fill-rule:nonzero;stroke:none"
           id="path55996"
           inkscape:connector-curvature="0" /><path
           d="m 270.809,532.263 -21.523,-19.657 c 0.93,-0.667 1.865,-1.269 2.795,-1.789 3.692,-2.064 15.122,-2.005 30.086,-0.777 l 6.491,22.405 c -6.215,-0.106 -12.224,-0.172 -17.849,-0.182"
           style="fill:#b7df21;fill-opacity:1;fill-rule:nonzero;stroke:none"
           id="path55998"
           inkscape:connector-curvature="0" /><path
           d="m 477.518,420.177 -0.189,114.864 -5.484,-2.151 c -8.074,-5.952 -18.209,-10.328 -27.861,-10.925 l -47.42,-18.594 -4.43,-2.333 8.413,-8.843 c 15.213,9.125 28.036,17.073 30.16,18.554 l -28.817,-19.965 10.372,-10.902 c 17.16,13.402 35.046,28.012 35.046,28.012 l -32.332,-30.865 10.988,-11.549 c 15.909,10.619 34.746,43.575 34.746,43.575 0,0 -9.012,-28.772 -22.191,-41.984 -2.506,-2.511 -5.077,-4.732 -7.729,-6.665 l 41.44,-43.555 c 1.771,1.101 3.533,2.21 5.288,3.326"
           style="fill:#feb200;fill-opacity:1;fill-rule:nonzero;stroke:none"
           id="path56000"
           inkscape:connector-curvature="0" /><path
           d="m 563.24,463.395 c 1.614,3.097 3.016,6.227 4.198,9.396 l -12.252,1.654 z"
           style="fill:#f35c00;fill-opacity:1;fill-rule:nonzero;stroke:none"
           id="path56002"
           inkscape:connector-curvature="0" /><path
           d="m 211.428,577.68 c -14.141,-5.594 3.35,-20.777 16.772,-28.665 l 6.119,20.892 c -11.245,2.924 -19.547,5.639 -22.891,7.773"
           style="fill:#c2a626;fill-opacity:1;fill-rule:nonzero;stroke:none"
           id="path56004"
           inkscape:connector-curvature="0" /><path
           d="m 211.987,588.343 c 5.367,-3.113 14.083,-6.552 24.782,-10.073 l 3.559,12.152 z"
           style="fill:#c2a626;fill-opacity:1;fill-rule:nonzero;stroke:none"
           id="path56006"
           inkscape:connector-curvature="0" /><path
           d="m 233.64,534.667 c -2.381,-2.344 6.379,-15.418 15.646,-22.061 l 21.523,19.657 c -19.395,-0.034 -34.229,0.581 -37.169,2.404"
           style="fill:#d3b200;fill-opacity:1;fill-rule:nonzero;stroke:none"
           id="path56008"
           inkscape:connector-curvature="0" /><path
           d="m 236.769,578.27 c 11.296,-3.719 24.8,-7.53 38.895,-11.147 l -35.336,23.299 z"
           style="fill:#d3b200;fill-opacity:1;fill-rule:nonzero;stroke:none"
           id="path56010"
           inkscape:connector-curvature="0" /><path
           d="m 289.247,558.167 c -20.356,3.709 -40.176,7.904 -54.928,11.74 L 228.2,549.015 c 1.382,-0.811 2.719,-1.546 3.975,-2.184 6.507,-3.313 24.816,-5.607 46.703,-7.197 l 16.132,14.733 z"
           style="fill:#d3b200;fill-opacity:1;fill-rule:nonzero;stroke:none"
           id="path56012"
           inkscape:connector-curvature="0" /><path
           d="m 538.292,460.702 c -1.746,-2.263 -3.607,-4.483 -5.445,-6.784 -3.347,-3.614 -6.763,-7.359 -10.554,-10.78 -7.446,-7.018 -15.608,-13.701 -24.312,-19.819 -6.084,-4.387 -12.373,-8.586 -18.744,-12.67 l 21.588,-7.953 c 21.766,14.276 38.776,28.435 50.719,43.128 l 3.642,28.621 z"
           style="fill:#ff8500;fill-opacity:1;fill-rule:nonzero;stroke:none"
           id="path56014"
           inkscape:connector-curvature="0" /><path
           d="m 505.383,439.506 c 3.926,3.173 7.934,6.196 11.522,9.523 3.769,3.151 7.022,6.671 10.424,9.92 3.087,3.507 6.286,6.824 8.848,10.453 2.854,3.446 4.901,7.24 7.206,10.742 0.407,0.846 0.832,1.68 1.259,2.507 l -67.313,52.39 0.189,-114.864 c 5.249,3.343 10.413,6.754 15.407,10.283 4.292,2.934 8.348,6.063 12.458,9.046"
           style="fill:#fe9400;fill-opacity:1;fill-rule:nonzero;stroke:none"
           id="path56016"
           inkscape:connector-curvature="0" /><path
           d="m 541.676,465.464 c -1.04,-1.635 -2.186,-3.209 -3.384,-4.762 l 16.894,13.743 -5.765,4.486 c -0.228,-0.535 -0.453,-1.075 -0.674,-1.62 -2.178,-3.878 -4.255,-8.042 -7.071,-11.847"
           style="fill:#fe9400;fill-opacity:1;fill-rule:nonzero;stroke:none"
           id="path56018"
           inkscape:connector-curvature="0" /><path
           d="m 567.438,472.791 c 1.793,4.816 3.082,9.722 3.862,14.735 l -16.114,-13.081 z"
           style="fill:#f04f00;fill-opacity:1;fill-rule:nonzero;stroke:none"
           id="path56020"
           inkscape:connector-curvature="0" /><path
           d="m 571.3,487.526 c 1.842,11.852 0.82,24.305 -3.187,37.615 l -12.927,-50.696 z"
           style="fill:#f64e00;fill-opacity:1;fill-rule:nonzero;stroke:none"
           id="path56022"
           inkscape:connector-curvature="0" /><path
           d="m 411.058,597.001 c -2.067,0.261 -4.147,0.567 -6.236,0.911 l -64.5,-25.577 c 7.858,-2.277 15.092,-4.052 21.418,-5.198 -7.66,1.045 -15.647,2.492 -23.799,4.255 l -30.188,-11.971 c 30.969,-6.962 58.899,-11.935 66.539,-11.862 -14.316,-0.335 -44.1,3.499 -74.442,8.728 l -4.84,-1.92 31.279,-17.108 c 32.966,-1.106 61.672,-1.194 61.672,-1.194 0,0 -25.115,-1.309 -55.115,-2.392 l 24.936,-13.639 c 20.365,3.273 36.603,6.193 40.516,6.903 l 17.924,69.394 c -1.675,0.225 -3.393,0.448 -5.164,0.67"
           style="fill:#fb9b00;fill-opacity:1;fill-rule:nonzero;stroke:none"
           id="path56024"
           inkscape:connector-curvature="0" /><path
           d="m 361.387,518.063 15.592,-8.528 c 7.057,2.183 13.349,4.146 18.294,5.694 l 3.008,11.646 c -3.717,-0.917 -18.356,-4.505 -36.894,-8.812"
           style="fill:#fb9b00;fill-opacity:1;fill-rule:nonzero;stroke:none"
           id="path56026"
           inkscape:connector-curvature="0" /><path
           d="m 378.71,508.587 12.139,-6.639 c 0.379,0.175 0.755,0.349 1.129,0.521 l 3.13,12.119 z"
           style="fill:#fb9b00;fill-opacity:1;fill-rule:nonzero;stroke:none"
           id="path56028"
           inkscape:connector-curvature="0" /><path
           d="m 429.616,545.423 c 2.702,-17.259 25.492,-10.315 39.896,-1.415 l -18.589,21.325 c -10.735,0.814 -23.637,-5.002 -21.307,-19.91"
           style="fill:#ffa300;fill-opacity:1;fill-rule:nonzero;stroke:none"
           id="path56030"
           inkscape:connector-curvature="0" /><path
           d="m 476.152,536.39 c -1.352,-1.212 -2.793,-2.384 -4.307,-3.5 l 5.484,2.151 z"
           style="fill:#ffa300;fill-opacity:1;fill-rule:nonzero;stroke:none"
           id="path56032"
           inkscape:connector-curvature="0" /><path
           d="m 434.461,522.739 c -22.224,5.446 -24.315,43.263 4.405,49.999 1.738,0.407 3.381,0.654 4.934,0.767 l -18.796,21.562 c -2.772,0.428 -5.697,0.849 -8.782,1.264 l -17.924,-69.394 c 0.591,0.107 0.903,0.165 0.903,0.165 0,0 -0.318,-0.08 -0.92,-0.227 l -3.008,-11.646 c 6.979,2.186 11.281,3.548 11.281,3.548 l -11.446,-4.189 -3.13,-12.119 c 15.296,7.069 26.589,12.488 26.589,12.488 l -22.003,-11.586 47.42,18.594 c -3.262,-0.201 -6.469,0.027 -9.523,0.774"
           style="fill:#ffa300;fill-opacity:1;fill-rule:nonzero;stroke:none"
           id="path56034"
           inkscape:connector-curvature="0" /><path
           d="m 544.642,482.651 c 1.456,2.819 2.937,5.552 3.847,8.409 0.644,1.824 1.449,3.566 1.932,5.355 0.458,1.799 0.906,3.561 1.346,5.28 0.21,0.862 0.475,1.7 0.645,2.551 0.114,0.857 0.237,1.704 0.356,2.534 0.232,1.678 0.458,3.303 0.676,4.876 0.368,3.163 0.202,6.165 0.369,8.94 0.102,1.393 -0.027,2.721 -0.138,3.992 -0.099,1.272 -0.196,2.486 -0.285,3.64 -0.205,4.653 -1.132,8.207 -1.485,10.691 l -0.661,3.789 c 0,0 0.396,-1.278 1.138,-3.673 0.374,-1.203 0.83,-2.684 1.368,-4.429 0.244,-0.881 0.634,-1.803 0.807,-2.832 0.193,-1.038 0.4,-2.131 0.619,-3.287 0.219,-1.16 0.444,-2.39 0.685,-3.674 0.248,-1.283 0.526,-2.634 0.57,-4.064 0.102,-1.427 0.205,-2.916 0.318,-4.46 0.04,-1.544 0.337,-3.156 0.158,-4.813 -0.087,-1.665 -0.17,-3.379 -0.259,-5.148 -0.049,-0.892 -0.094,-1.787 -0.144,-2.702 -0.097,-0.904 -0.292,-1.813 -0.438,-2.741 -0.328,-1.855 -0.663,-3.753 -1.004,-5.697 -0.393,-1.941 -1.099,-3.842 -1.659,-5.836 -0.871,-3.512 -2.473,-6.876 -3.982,-10.421 l 5.765,-4.486 12.927,50.696 c -3.456,11.477 -9.128,23.588 -17.102,36.502 -3.93,6.36 3.329,11.957 13.049,18.674 l -86.731,-45.276 z"
           style="fill:#fd7700;fill-opacity:1;fill-rule:nonzero;stroke:none"
           id="path56036"
           inkscape:connector-curvature="0" /><path
           d="m 318.409,630.428 -8.428,-27.395 c 15.688,-6.856 30.429,-11.485 42.704,-12.942 -13.649,1.565 -28.311,5.652 -43.183,11.383 l -5.199,-16.899 c 12.715,-4.847 24.983,-9.041 36.019,-12.24 l 64.5,25.577 c -28.133,4.625 -58.076,16.716 -86.413,32.516"
           style="fill:#f56500;fill-opacity:1;fill-rule:nonzero;stroke:none"
           id="path56038"
           inkscape:connector-curvature="0" /><path
           d="m 299.85,556.287 c -1.344,0.232 -2.689,0.466 -4.034,0.703 l -0.806,-2.623 z"
           style="fill:#f56500;fill-opacity:1;fill-rule:nonzero;stroke:none"
           id="path56040"
           inkscape:connector-curvature="0" /><path
           d="m 303.033,580.446 -5.731,-18.627 c 3.506,-0.821 6.997,-1.622 10.451,-2.398 l 30.188,11.971 c -11.462,2.477 -23.251,5.576 -34.908,9.054"
           style="fill:#f56500;fill-opacity:1;fill-rule:nonzero;stroke:none"
           id="path56042"
           inkscape:connector-curvature="0" /><path
           d="m 221.786,611.421 c -12.811,6.204 -22.021,11.69 -25.608,15.373 -5.311,0.481 -14.501,2.897 -12.921,-7.239 1.434,-9.184 12.601,-19.703 26.148,-29.554 0.744,-0.541 1.61,-1.094 2.582,-1.658 l 28.341,2.079 z"
           style="fill:#bc3600;fill-opacity:1;fill-rule:nonzero;stroke:none"
           id="path56044"
           inkscape:connector-curvature="0" /><path
           d="m 170.643,664.363 c 2.94,-4.254 6.728,-8.918 11.442,-14.004 4.102,-4.423 10.412,-9.419 18.311,-14.714 l -29.512,33.422 z"
           style="fill:#bc3600;fill-opacity:1;fill-rule:nonzero;stroke:none"
           id="path56046"
           inkscape:connector-curvature="0" /><path
           d="m 272.914,618.419 -15.948,-13.702 c 15.488,-7.276 31.748,-14.2 47.337,-20.142 l 5.199,16.899 c -12.205,4.703 -24.549,10.514 -36.588,16.945"
           style="fill:#e07100;fill-opacity:1;fill-rule:nonzero;stroke:none"
           id="path56048"
           inkscape:connector-curvature="0" /><path
           d="m 295.816,556.99 c -2.192,0.385 -4.383,0.778 -6.569,1.177 l 5.763,-3.8 z"
           style="fill:#e07100;fill-opacity:1;fill-rule:nonzero;stroke:none"
           id="path56050"
           inkscape:connector-curvature="0" /><path
           d="m 299.764,641.487 -24.171,-20.766 c 11.576,-6.799 23.221,-12.807 34.388,-17.688 l 8.428,27.395 c -6.307,3.516 -12.534,7.216 -18.645,11.059"
           style="fill:#e07100;fill-opacity:1;fill-rule:nonzero;stroke:none"
           id="path56052"
           inkscape:connector-curvature="0" /><path
           d="m 250.23,598.929 -9.902,-8.507 35.336,-23.299 c 7.131,-1.83 14.414,-3.61 21.638,-5.304 l 5.731,18.627 c -18.543,5.532 -36.753,12.019 -52.803,18.483"
           style="fill:#e07100;fill-opacity:1;fill-rule:nonzero;stroke:none"
           id="path56054"
           inkscape:connector-curvature="0" /><path
           d="m 477.739,537.872 c -0.513,-0.501 -1.043,-0.994 -1.587,-1.482 l 1.177,-1.349 z"
           style="fill:#ff8800;fill-opacity:1;fill-rule:nonzero;stroke:none"
           id="path56056"
           inkscape:connector-curvature="0" /><path
           d="m 481.489,616.15 c -4.371,-18.444 1.924,-35.312 -0.815,-42.899 l 1.606,-4.034 7.031,48.536 z"
           style="fill:#ff8800;fill-opacity:1;fill-rule:nonzero;stroke:none"
           id="path56058"
           inkscape:connector-curvature="0" /><path
           d="m 463.998,557.761 c -1.402,4.422 -6.877,7.101 -13.075,7.572 l 18.589,-21.325 c 4.627,2.859 8.387,5.92 10.34,8.446 l 0.825,5.7 c -5.488,19.705 -6.847,29.377 -55.673,36.913 L 443.8,573.505 c 16.912,1.232 22.884,-13.699 20.198,-15.744"
           style="fill:#ff8800;fill-opacity:1;fill-rule:nonzero;stroke:none"
           id="path56060"
           inkscape:connector-curvature="0" /><path
           d="m 481.235,556.171 c -0.192,0.672 -0.377,1.333 -0.558,1.983 l -0.825,-5.7 c 1.134,1.468 1.658,2.756 1.383,3.717"
           style="fill:#fd7400;fill-opacity:1;fill-rule:nonzero;stroke:none"
           id="path56062"
           inkscape:connector-curvature="0" /><path
           d="m 564.06,580.317 c 5.238,3.621 11.191,7.569 16.492,12.138 l -91.241,25.298 -7.031,-48.536 5.358,-13.459 c -0.2,-5.761 -4.042,-12.19 -9.899,-17.886 l -0.41,-2.831 z"
           style="fill:#fd7400;fill-opacity:1;fill-rule:nonzero;stroke:none"
           id="path56064"
           inkscape:connector-curvature="0" /><path
           d="m 240.245,603.064 c -6.716,2.862 -12.924,5.677 -18.459,8.357 l 18.542,-20.999 z"
           style="fill:#c22c00;fill-opacity:1;fill-rule:nonzero;stroke:none"
           id="path56066"
           inkscape:connector-curvature="0" /><path
           d="m 191.443,673.979 -20.559,-4.912 29.512,-33.422 c 10.812,-7.249 24.603,-15.062 39.786,-22.747 l -0.163,24.976 c -19.129,12.392 -36.089,25.264 -48.576,36.105"
           style="fill:#c22c00;fill-opacity:1;fill-rule:nonzero;stroke:none"
           id="path56068"
           inkscape:connector-curvature="0" /><path
           d="m 202.854,676.706 c 10.558,-11.01 23.313,-22.025 37.123,-32.337 l -0.268,41.143 z"
           style="fill:#c22c00;fill-opacity:1;fill-rule:nonzero;stroke:none"
           id="path56070"
           inkscape:connector-curvature="0" /><path
           d="m 241.735,685.101 -2.026,0.411 0.268,-41.143 c 11.37,-8.491 23.454,-16.505 35.616,-23.648 l 24.171,20.766 c -21.303,13.397 -41.179,28.519 -58.029,43.614"
           style="fill:#d54200;fill-opacity:1;fill-rule:nonzero;stroke:none"
           id="path56072"
           inkscape:connector-curvature="0" /><path
           d="m 250.23,598.929 c -3.434,1.384 -6.768,2.765 -9.985,4.135 l 0.083,-12.642 z"
           style="fill:#d54200;fill-opacity:1;fill-rule:nonzero;stroke:none"
           id="path56074"
           inkscape:connector-curvature="0" /><path
           d="m 240.019,637.874 0.163,-24.976 c 5.44,-2.753 11.059,-5.492 16.784,-8.181 l 15.948,13.702 c -11.362,6.069 -22.451,12.69 -32.895,19.455"
           style="fill:#d54200;fill-opacity:1;fill-rule:nonzero;stroke:none"
           id="path56076"
           inkscape:connector-curvature="0" /><path
           d="m 550.84,628.5 c 2.943,-3.698 -4.537,-5.295 -4.537,-5.295 l -12.532,5.233 c 7.444,1.297 14.124,3.768 17.069,0.062 m 29.712,-36.045 c 0.621,0.535 1.232,1.078 1.832,1.629 l -59.045,65.251 c -3.593,-1.303 -7.075,-2.928 -10.377,-4.858 -4.102,-2.4 -7.708,-4.876 -10.881,-7.406 l -12.77,-29.318 z"
           style="fill:#fa6200;fill-opacity:1;fill-rule:nonzero;stroke:none"
           id="path56078"
           inkscape:connector-curvature="0" /><path
           d="m 643.867,605.942 -8.504,10.409 -22.75,4.12 -12.854,-13.594 z"
           style="fill:#f03600;fill-opacity:1;fill-rule:nonzero;stroke:none"
           id="path56080"
           inkscape:connector-curvature="0" /><path
           d="m 485.258,626.751 c -1.729,-3.555 -2.941,-7.106 -3.769,-10.601 l 7.822,1.603 z"
           style="fill:#ff7200;fill-opacity:1;fill-rule:nonzero;stroke:none"
           id="path56082"
           inkscape:connector-curvature="0" /><path
           d="m 239.734,686.906 c -12.745,11.58 -23.668,23.101 -32.052,33.77 l -19.266,-27.021 c 4.123,-5.584 8.987,-11.265 14.438,-16.949 l 36.855,8.806 z"
           style="fill:#be0006;fill-opacity:1;fill-rule:nonzero;stroke:none"
           id="path56084"
           inkscape:connector-curvature="0" /><path
           d="m 191.443,673.979 c -3.893,3.381 -7.349,6.563 -10.303,9.472 l -10.256,-14.384 z"
           style="fill:#be0006;fill-opacity:1;fill-rule:nonzero;stroke:none"
           id="path56086"
           inkscape:connector-curvature="0" /><path
           d="m 190.908,764.633 c 0,0 -28.562,-12.07 -14.488,-49.861 2.505,-6.728 6.622,-13.839 11.996,-21.117 l 19.266,27.021 c -14.696,18.699 -21.586,34.779 -16.774,43.957"
           style="fill:#b0001f;fill-opacity:1;fill-rule:nonzero;stroke:none"
           id="path56088"
           inkscape:connector-curvature="0" /><path
           d="m 181.14,683.451 c -4.922,4.847 -8.441,8.933 -10.239,11.909 l -0.017,-26.293 z"
           style="fill:#b0001f;fill-opacity:1;fill-rule:nonzero;stroke:none"
           id="path56090"
           inkscape:connector-curvature="0" /><path
           d="m 241.735,685.101 c -0.334,0.299 -0.666,0.599 -0.998,0.899 l -1.028,-0.488 z"
           style="fill:#db2f00;fill-opacity:1;fill-rule:nonzero;stroke:none"
           id="path56092"
           inkscape:connector-curvature="0" /><path
           d="m 502.081,647.071 c -8.194,-6.536 -13.478,-13.435 -16.823,-20.32 l 4.053,-8.998 z"
           style="fill:#fa6800;fill-opacity:1;fill-rule:nonzero;stroke:none"
           id="path56094"
           inkscape:connector-curvature="0" /><path
           d="m 695.971,604.839 0.313,0.476 -60.921,11.036 8.504,-10.409 z"
           style="fill:#e42300;fill-opacity:1;fill-rule:nonzero;stroke:none"
           id="path56096"
           inkscape:connector-curvature="0" /><path
           d="m 592.537,607.03 7.222,-0.153 12.854,13.594 -18.404,3.334 c -2.575,9.038 -6.537,16.371 -11.447,22.149 l -46.186,16.623 c -4.494,-0.591 -8.944,-1.683 -13.237,-3.242 l 59.045,-65.251 c 4.164,3.831 7.793,8.093 10.153,12.946"
           style="fill:#f64d00;fill-opacity:1;fill-rule:nonzero;stroke:none"
           id="path56098"
           inkscape:connector-curvature="0" /><path
           d="m 240.737,686 c -0.334,0.301 -0.671,0.604 -1.003,0.906 l -0.025,-1.394 z"
           style="fill:#ca1500;fill-opacity:1;fill-rule:nonzero;stroke:none"
           id="path56100"
           inkscape:connector-curvature="0" /><path
           d="m 536.576,662.577 46.186,-16.623 c -11.884,13.984 -29.331,18.839 -46.186,16.623"
           style="fill:#ed4100;fill-opacity:1;fill-rule:nonzero;stroke:none"
           id="path56102"
           inkscape:connector-curvature="0" /></g></g></g></svg>