<?xml version="1.0" encoding="UTF-8" standalone="no"?>
<!-- Created with Inkscape (http://www.inkscape.org/) -->

<svg
   xmlns:dc="http://purl.org/dc/elements/1.1/"
   xmlns:cc="http://creativecommons.org/ns#"
   xmlns:rdf="http://www.w3.org/1999/02/22-rdf-syntax-ns#"
   xmlns:svg="http://www.w3.org/2000/svg"
   xmlns="http://www.w3.org/2000/svg"
   xmlns:sodipodi="http://sodipodi.sourceforge.net/DTD/sodipodi-0.dtd"
   xmlns:inkscape="http://www.inkscape.org/namespaces/inkscape"
   version="1.1"
   id="svg65262"
   xml:space="preserve"
   width="800"
   height="800"
   viewBox="0 0 800 800"
   sodipodi:docname="lion-silhouette-color-publicdomainvectors.org.svg"
   inkscape:version="0.92.4 (5da689c313, 2019-01-14)"><metadata
     id="metadata65268"><rdf:RDF><cc:Work
         rdf:about=""><dc:format>image/svg+xml</dc:format><dc:type
           rdf:resource="http://purl.org/dc/dcmitype/StillImage" /><dc:title></dc:title></cc:Work></rdf:RDF></metadata><defs
     id="defs65266"><clipPath
       clipPathUnits="userSpaceOnUse"
       id="clipPath65278"><path
         d="M 0,600 H 600 V 0 H 0 Z"
         id="path65276"
         inkscape:connector-curvature="0" /></clipPath></defs><sodipodi:namedview
     pagecolor="#ffffff"
     bordercolor="#666666"
     borderopacity="1"
     objecttolerance="10"
     gridtolerance="10"
     guidetolerance="10"
     inkscape:pageopacity="0"
     inkscape:pageshadow="2"
     inkscape:window-width="797"
     inkscape:window-height="480"
     id="namedview65264"
     showgrid="false"
     inkscape:zoom="0.295"
     inkscape:cx="400"
     inkscape:cy="400"
     inkscape:window-x="0"
     inkscape:window-y="0"
     inkscape:window-maximized="0"
     inkscape:current-layer="g65270" /><g
     id="g65270"
     inkscape:groupmode="layer"
     inkscape:label="lion-silhouette-color-publicdomainvectors.org"
     transform="matrix(1.3333333,0,0,-1.3333333,0,800)"><g
       id="g65272"><g
         id="g65274"
         clip-path="url(#clipPath65278)"><path
           d="m 530.229,299.385 -3.42,2.693 7.361,-11.107 c 1.91,1.06 3.264,1.867 3.819,2.304 1.903,1.496 -3.25,16.309 -8.258,29.344 l -9.176,-4.568 z"
           style="fill:#23b5b5;fill-opacity:1;fill-rule:nonzero;stroke:none"
           id="path65280"
           inkscape:connector-curvature="0" /><path
           d="m 520.555,318.051 9.176,4.568 c -1.793,4.672 -3.57,9.113 -4.996,12.632 l -5.666,-14.334 z"
           style="fill:#71ad42;fill-opacity:1;fill-rule:nonzero;stroke:none"
           id="path65282"
           inkscape:connector-curvature="0" /><path
           d="m 494.614,496.768 c 1.223,1.687 2.702,3.045 4.476,3.98 -1.697,0.318 -3.33,0.414 -4.896,0.324 z"
           style="fill:#af1f25;fill-opacity:1;fill-rule:nonzero;stroke:none"
           id="path65284"
           inkscape:connector-curvature="0" /><path
           d="m 513.074,359.409 0.619,-28.118 5.376,-10.374 5.666,14.334 c -1.537,3.793 -2.668,6.516 -2.976,7.293 -1.398,3.512 2.137,18.011 2.622,20.166 0.376,1.67 -27.559,42.373 -40.095,60.529 l -1.85,0.045 z"
           style="fill:#9eac22;fill-opacity:1;fill-rule:nonzero;stroke:none"
           id="path65286"
           inkscape:connector-curvature="0" /><path
           d="m 498.104,359.195 9.845,-21.94 c -0.427,5.231 -4.28,17.346 -8.879,29.176 z"
           style="fill:#9eac22;fill-opacity:1;fill-rule:nonzero;stroke:none"
           id="path65288"
           inkscape:connector-curvature="0" /><path
           d="m 516.538,310.161 2.492,-9.413 -2.201,-9.394 -7.475,-3.842 -0.987,-3.588 4.97,-2.502 c 0,0 -0.194,0.012 -0.559,0.035 -0.364,0.016 -0.921,0.047 -1.563,0.166 -0.877,0.107 -1.988,0.426 -3.223,0.934 l -1.651,-6.012 c 9.809,4.982 21.698,11.021 27.829,14.426 l -7.361,11.107 z"
           style="fill:#117ecc;fill-opacity:1;fill-rule:nonzero;stroke:none"
           id="path65290"
           inkscape:connector-curvature="0" /><path
           d="m 490.585,461.987 c -0.075,0.543 -0.146,1.09 -0.212,1.638 l -11.99,-22.664 c 8.37,4.247 13.331,12.775 12.202,21.026"
           style="fill:#b82027;fill-opacity:1;fill-rule:nonzero;stroke:none"
           id="path65292"
           inkscape:connector-curvature="0" /><path
           d="m 482.436,423.284 1.85,-0.045 c -3.62,5.242 -5.956,8.605 -5.956,8.605 z"
           style="fill:#b82027;fill-opacity:1;fill-rule:nonzero;stroke:none"
           id="path65294"
           inkscape:connector-curvature="0" /><path
           d="m 265.613,69.801 c -1.194,-4.125 -2.724,-7.555 -4.665,-9.944 3.198,1.59 6.27,4.506 9.097,8.36 z"
           style="fill:#804e6e;fill-opacity:1;fill-rule:nonzero;stroke:none"
           id="path65296"
           inkscape:connector-curvature="0" /><path
           d="m 441.803,354.69 c 0,0 -1.088,-1.63 -2.995,-4.48 -1.925,-2.809 -4.721,-6.774 -8.295,-11.194 -1.8,-2.191 -3.852,-4.459 -6.105,-6.653 -2.256,-2.178 -4.789,-4.241 -7.512,-5.77 -1.355,-0.803 -2.775,-1.324 -4.173,-1.791 -0.243,-0.047 -0.482,-0.094 -0.719,-0.142 -0.235,-0.046 -0.47,-0.09 -0.703,-0.131 l 2.867,-7.874 c 0.365,0.103 0.726,0.212 1.082,0.322 2.115,0.819 4.117,1.786 5.793,3.015 3.447,2.364 6.09,5.179 8.289,7.96 2.199,2.792 3.917,5.609 5.361,8.253 0.508,0.923 0.977,1.827 1.414,2.71 l 4.818,12.328 c 0.639,2.192 0.878,3.447 0.878,3.447"
           style="fill:#b7db17;fill-opacity:1;fill-rule:nonzero;stroke:none"
           id="path65298"
           inkscape:connector-curvature="0" /><path
           d="m 439.109,374.093 c 1.702,-1.674 4.435,-4.33 7.786,-7.571 l 1.793,4.588 c -3.653,1.545 -6.944,2.624 -9.579,2.983"
           style="fill:#b7db17;fill-opacity:1;fill-rule:nonzero;stroke:none"
           id="path65300"
           inkscape:connector-curvature="0" /><path
           d="m 390.518,381.589 c 1.877,0.745 3.808,1.362 5.775,1.821 3.754,0.912 7.651,1.169 11.58,0.921 1.812,-0.092 3.88,-0.5 6.518,-0.823 2.515,-0.307 5.073,-0.484 7.638,-0.511 5.123,0.003 10.369,0.646 15.276,2.434 4.9,1.73 9.361,4.677 12.552,8.282 3.231,3.588 5.206,7.637 6.356,11.362 1.161,3.742 1.558,7.218 1.646,10.237 0.036,0.993 0.022,1.935 -0.017,2.832 l -5.069,-2.438 c -0.857,-2.459 -1.972,-5.096 -3.486,-7.643 -0.82,-1.34 -1.73,-2.658 -2.766,-3.886 -1.06,-1.211 -2.225,-2.339 -3.5,-3.344 -1.3,-0.979 -2.716,-1.824 -4.224,-2.54 -1.526,-0.704 -3.182,-1.21 -4.914,-1.626 -3.481,-0.779 -7.368,-0.97 -11.42,-0.651 -2.025,0.141 -4.096,0.367 -6.184,0.734 -0.642,0.117 -1.351,0.25 -2.107,0.385 l -24.945,-12.002 z"
           style="fill:#b7db17;fill-opacity:1;fill-rule:nonzero;stroke:none"
           id="path65302"
           inkscape:connector-curvature="0" /><path
           d="m 505.336,285.447 3.031,-1.523 0.987,3.588 z"
           style="fill:#40bfbf;fill-opacity:1;fill-rule:nonzero;stroke:none"
           id="path65304"
           inkscape:connector-curvature="0" /><path
           d="m 470.887,302.812 c -0.028,-0.006 -0.043,-0.009 -0.043,-0.009 0.004,-0.009 0.017,-0.005 0.043,0.009"
           style="fill:#40bfbf;fill-opacity:1;fill-rule:nonzero;stroke:none"
           id="path65306"
           inkscape:connector-curvature="0" /><path
           d="m 506.144,283.42 c -2.511,1.289 -5.26,3.35 -8.117,5.707 -1.665,1.373 -3.368,2.852 -5.082,4.336 -4.668,3.971 -9.586,8.075 -14.258,9.758 -2.298,0.889 -4.494,0.898 -5.864,0.518 -1.196,-0.338 -1.782,-0.839 -1.936,-0.927 0.073,0.017 0.246,0.055 0.51,0.112 0.34,0.116 0.873,0.137 1.517,0.184 0.651,10e-4 1.43,-0.1 2.276,-0.35 0.843,-0.305 1.756,-0.687 2.716,-1.25 2.512,-1.441 5.262,-3.789 8.179,-6.371 1.53,-1.358 3.108,-2.774 4.729,-4.162 2.378,-1.993 4.807,-3.987 7.295,-5.62 1.088,-0.722 2.186,-1.367 3.276,-1.937 l -4.688,-2.406 9.141,-4.6 c 0,0 -0.197,0.014 -0.559,0.035 -0.368,0.014 -0.921,0.049 -1.562,0.168 -1.299,0.158 -3.102,0.766 -5.071,1.795 -2.509,1.287 -5.258,3.346 -8.115,5.703 -1.666,1.377 -3.37,2.854 -5.084,4.34 -4.67,3.971 -9.588,8.074 -14.259,9.76 -2.297,0.889 -4.495,0.898 -5.862,0.517 -1.201,-0.339 -1.789,-0.841 -1.94,-0.927 0.073,0.015 0.245,0.054 0.51,0.113 0.342,0.115 0.879,0.137 1.518,0.184 0.65,0.002 1.432,-0.098 2.279,-0.35 0.844,-0.307 1.758,-0.686 2.714,-1.25 2.515,-1.443 5.265,-3.795 8.186,-6.377 1.53,-1.355 3.104,-2.769 4.721,-4.158 2.38,-1.992 4.81,-3.988 7.297,-5.617 0.724,-0.485 1.453,-0.926 2.183,-1.344 l -5.447,-2.797 9.163,-4.611 c 0,0 -0.197,0.011 -0.561,0.035 -0.363,0.015 -0.918,0.047 -1.559,0.166 -1.302,0.158 -3.105,0.767 -5.074,1.797 -2.508,1.289 -5.26,3.345 -8.117,5.705 -1.664,1.377 -3.367,2.851 -5.082,4.338 -4.668,3.97 -9.588,8.076 -14.258,9.761 -2.297,0.887 -4.495,0.897 -5.863,0.516 -1.197,-0.34 -1.789,-0.842 -1.94,-0.928 0.073,0.016 0.247,0.055 0.512,0.112 0.343,0.115 0.875,0.14 1.518,0.183 0.652,0.004 1.43,-0.097 2.277,-0.349 0.844,-0.307 1.756,-0.686 2.715,-1.25 2.514,-1.444 5.265,-3.793 8.184,-6.377 1.532,-1.354 3.105,-2.768 4.72,-4.157 2.385,-1.994 4.813,-3.988 7.299,-5.619 0.701,-0.466 1.408,-0.894 2.116,-1.304 -1.039,0.423 -23.142,9.351 -48.206,13.086 l 5.385,-4.342 c 8.776,3.308 25.643,-5.826 38.436,-10.756 -3.449,0.111 -8.136,0.457 -10.529,1.49 -4.051,1.744 -9.53,3.908 -15.193,5.522 -2.827,0.808 -5.695,1.482 -8.423,1.92 -0.828,0.132 -1.638,0.24 -2.43,0.322 l 2.071,-1.67 c 0.025,-0.008 0.051,-0.014 0.076,-0.02 2.605,-0.672 5.329,-1.595 8.002,-2.642 5.354,-2.088 10.492,-4.703 14.266,-6.774 0.212,-0.117 0.408,-0.228 0.613,-0.341 l -2.323,-6.866 1.334,-1.076 7.38,5.129 7.679,4.074 c 5.115,-1.797 9.371,-2.664 11.863,-1.357 2.838,1.488 7.581,3.896 12.943,6.621 l 1.651,6.012 c -0.592,0.244 -1.211,0.529 -1.848,0.863"
           style="fill:#40bfbf;fill-opacity:1;fill-rule:nonzero;stroke:none"
           id="path65308"
           inkscape:connector-curvature="0" /><path
           d="m 454.056,292.986 c -0.027,-0.006 -0.04,-0.007 -0.04,-0.007 0.004,-0.01 0.017,-0.006 0.04,0.007"
           style="fill:#40bfbf;fill-opacity:1;fill-rule:nonzero;stroke:none"
           id="path65310"
           inkscape:connector-curvature="0" /><path
           d="m 463.386,297.803 c -0.026,-0.006 -0.04,-0.008 -0.04,-0.008 0.004,-0.01 0.017,-0.004 0.04,0.008"
           style="fill:#40bfbf;fill-opacity:1;fill-rule:nonzero;stroke:none"
           id="path65312"
           inkscape:connector-curvature="0" /><path
           d="m 440.925,351.243 -4.818,-12.328 c 2.065,4.162 3.387,7.816 4.267,10.53 0.21,0.654 0.393,1.254 0.551,1.798"
           style="fill:#75c92b;fill-opacity:1;fill-rule:nonzero;stroke:none"
           id="path65314"
           inkscape:connector-curvature="0" /><path
           d="m 495.914,342.787 -1.49,1.062 c -0.34,0.244 -27.545,19.566 -45.736,27.261 l -1.793,-4.588 c 11.597,-11.217 30.609,-29.459 39.977,-38.438 7.229,1.209 18.829,4.018 20.81,6.759 0.285,0.396 0.363,1.228 0.267,2.412 l -9.845,21.94 z"
           style="fill:#75c92b;fill-opacity:1;fill-rule:nonzero;stroke:none"
           id="path65316"
           inkscape:connector-curvature="0" /><path
           d="m 377.271,530.432 c 10.246,-9.301 23.952,-19.838 32.727,-26.388 l 3.5,3.753 c -4.769,8.31 -12.905,20.361 -24.648,30.733 -3.508,3.097 -7.789,7.11 -12.169,11.567 z"
           style="fill:#d71e26;fill-opacity:1;fill-rule:nonzero;stroke:none"
           id="path65318"
           inkscape:connector-curvature="0" /><path
           d="m 385.65,477.945 18.596,19.934 c -7.566,4.229 -16.318,7.625 -26.295,9.874 l 0.809,-26.891 c 2.373,-0.937 4.67,-1.91 6.89,-2.917"
           style="fill:#d71e26;fill-opacity:1;fill-rule:nonzero;stroke:none"
           id="path65320"
           inkscape:connector-curvature="0" /><path
           d="m 384.93,252.656 c -1.102,-0.631 -2.157,-1.328 -3.162,-2.088 l 0.941,-1.922 c 0.652,1.401 1.394,2.741 2.221,4.01"
           style="fill:#079ae1;fill-opacity:1;fill-rule:nonzero;stroke:none"
           id="path65322"
           inkscape:connector-curvature="0" /><path
           d="m 431.475,245.516 c 0.849,-1.258 1.63,-2.272 2.261,-2.991 0.278,-0.351 0.609,-0.658 0.806,-0.855 0.089,-0.086 0.067,-1.283 0.012,-2.613 l -7.435,8.144 c -1.433,1.119 -2.34,3.156 -2.703,5.727 l -7.985,1.627 c 0.251,-0.701 0.407,-1.094 0.407,-1.094 l 11.414,-16.582 -17.916,-12.371 -26.361,24.221 c 0.093,-0.424 -0.106,0.052 0.093,-0.424 9.899,-23.504 27.158,-32.776 27.158,-32.776 19.209,1.848 25.47,21.178 25.47,21.178 l -1.376,1.51 1.483,4.4 6.148,6.537 -0.885,0.18 -7.888,-1.268 c -0.887,0.977 -1.858,2.149 -2.828,3.45 l -3.766,0.767 c 1.24,-2.584 2.633,-4.943 3.891,-6.767"
           style="fill:#079ae1;fill-opacity:1;fill-rule:nonzero;stroke:none"
           id="path65324"
           inkscape:connector-curvature="0" /><path
           d="m 382.852,259.986 c 0.449,-1.002 0.648,-1.838 0.834,-2.416 0.188,-0.586 0.289,-0.894 0.289,-0.894 0,0 0.07,0.316 0.201,0.91 0.086,0.596 0.381,1.508 0.353,2.664 0.002,0.25 0.014,0.518 0.024,0.797 l -2.364,0.482 c 0.282,-0.543 0.454,-1.068 0.663,-1.543"
           style="fill:#079ae1;fill-opacity:1;fill-rule:nonzero;stroke:none"
           id="path65326"
           inkscape:connector-curvature="0" /><path
           d="m 418.656,497.688 c 0,0 -1.689,4.065 -5.158,10.109 l -3.5,-3.753 c 5.19,-3.875 8.658,-6.356 8.658,-6.356"
           style="fill:#d21f26;fill-opacity:1;fill-rule:nonzero;stroke:none"
           id="path65328"
           inkscape:connector-curvature="0" /><path
           d="m 472.492,474.666 0.006,-0.077 17.127,0.681 c -0.004,8.502 1.347,16.47 4.989,21.498 l -0.42,4.304 c -13.837,-0.792 -22.296,-16.37 -21.702,-26.406"
           style="fill:#d21f26;fill-opacity:1;fill-rule:nonzero;stroke:none"
           id="path65330"
           inkscape:connector-curvature="0" /><path
           d="m 462.817,481.232 c -14.003,17.101 -26.235,39.305 -18.28,52.684 -22.322,-8.52 -21.353,-35.338 -11.838,-50.253 1.86,-2.913 4.702,-6.39 7.582,-10.353 l 26.502,1.053 c -0.952,2.481 -2.272,4.801 -3.966,6.869"
           style="fill:#d21f26;fill-opacity:1;fill-rule:nonzero;stroke:none"
           id="path65332"
           inkscape:connector-curvature="0" /><path
           d="m 397.891,471.626 33.437,1.329 c -6.182,9.546 -15.165,18.264 -27.082,24.924 L 385.65,477.945 c 4.371,-1.983 8.45,-4.096 12.241,-6.319"
           style="fill:#d21f26;fill-opacity:1;fill-rule:nonzero;stroke:none"
           id="path65334"
           inkscape:connector-curvature="0" /><path
           d="m 466.783,474.363 -26.502,-1.053 c 7.303,-10.048 14.84,-23.227 7.195,-38.309 l 2.001,-1.049 c 16.761,8.918 22.442,27.023 17.306,40.411"
           style="fill:#d11f26;fill-opacity:1;fill-rule:nonzero;stroke:none"
           id="path65336"
           inkscape:connector-curvature="0" /><path
           d="m 426.957,445.761 14.832,-7.777 c 0.19,11.463 -3.215,23.782 -10.461,34.971 l -33.437,-1.329 c 12.964,-7.603 22.572,-16.496 29.066,-25.865"
           style="fill:#d11f26;fill-opacity:1;fill-rule:nonzero;stroke:none"
           id="path65338"
           inkscape:connector-curvature="0" /><path
           d="m 462.141,438.568 c 6.134,-0.957 11.691,0.086 16.242,2.393 l 11.99,22.664 c -0.469,3.842 -0.746,7.798 -0.748,11.645 l -17.127,-0.681 c 0.565,-9.072 6.27,-27.693 -10.357,-36.021"
           style="fill:#d11f26;fill-opacity:1;fill-rule:nonzero;stroke:none"
           id="path65340"
           inkscape:connector-curvature="0" /><path
           d="m 379.951,265.381 c 0.436,-0.686 0.848,-1.338 1.237,-1.951 0.337,-0.639 0.638,-1.252 0.96,-1.819 0.015,-0.027 0.026,-0.054 0.041,-0.082 l 2.364,-0.482 c 0.013,0.367 0.021,0.754 -0.008,1.156 -0.05,0.707 -0.15,1.471 -0.244,2.305 -0.155,0.81 -0.378,1.66 -0.592,2.576 -0.164,0.564 -0.365,1.135 -0.576,1.723 l -3.57,-2.891 c 0.128,-0.178 0.261,-0.361 0.388,-0.535"
           style="fill:#30bcde;fill-opacity:1;fill-rule:nonzero;stroke:none"
           id="path65342"
           inkscape:connector-curvature="0" /><path
           d="m 464.254,260.535 2.222,1.543 -1.334,1.076 z"
           style="fill:#30bcde;fill-opacity:1;fill-rule:nonzero;stroke:none"
           id="path65344"
           inkscape:connector-curvature="0" /><path
           d="m 438.195,281.676 c 0.364,0.234 0.733,0.47 1.112,0.693 0.401,0.233 0.825,0.432 1.269,0.6 l -5.385,4.342 c -1.821,0.271 -3.658,0.515 -5.503,0.728 -25.02,2.861 -15.466,-27.303 -13.257,-33.484 l 7.985,-1.627 c -0.305,2.17 -0.226,4.718 0.254,7.424 0.391,-1.702 0.934,-3.456 1.629,-5.161 0.398,-0.99 0.832,-1.962 1.285,-2.908 l 3.766,-0.767 c -1.057,1.418 -2.116,2.988 -3.068,4.63 -0.952,1.637 -1.771,3.342 -2.38,5.006 -0.224,0.678 -0.451,1.332 -0.612,1.981 0.365,1.361 0.823,2.736 1.385,4.107 3.52,-3.469 4.632,-12.976 16.862,-12.062 -0.264,3.748 -9.292,2.478 -7.794,13.752 0.756,5.691 1.159,9.359 0.923,11.679 0.167,0.127 0.345,0.245 0.518,0.368 0.056,-0.002 0.106,0 0.162,-0.002 2.131,-0.106 4.588,-0.51 7.162,-1.178 l -2.071,1.67 c -1.498,0.156 -2.925,0.224 -4.242,0.209"
           style="fill:#30bcde;fill-opacity:1;fill-rule:nonzero;stroke:none"
           id="path65346"
           inkscape:connector-curvature="0" /><path
           d="m 443.309,249.533 -1.243,-0.199 0.885,-0.18 z"
           style="fill:#30bcde;fill-opacity:1;fill-rule:nonzero;stroke:none"
           id="path65348"
           inkscape:connector-curvature="0" /><path
           d="m 395.143,445.14 c -2.334,0 -4.449,-0.37 -6.288,-1.1 -2.769,-1.101 -4.607,-3.656 -5.783,-7 l 1.889,-15.929 c 1.949,6.414 4.852,12.126 9.103,13.217 0.522,0.133 1.028,0.199 1.503,0.199 4.717,0 6.052,-5.992 7.46,-12.333 1.36,-6.102 2.897,-13.019 7.411,-15.227 1.961,-0.96 4.128,-1.449 6.437,-1.449 5.568,0.003 10.508,2.819 12.734,5.438 1.135,1.33 1.661,2.664 1.487,3.756 -2.759,17.138 -21.594,30.428 -35.953,30.428"
           style="fill:#db2e24;fill-opacity:1;fill-rule:nonzero;stroke:none"
           id="path65350"
           inkscape:connector-curvature="0" /><path
           d="m 457.377,423.028 c -0.283,2.099 -0.729,3.711 -1,4.798 -0.306,1.087 -0.524,1.647 -0.524,1.647 0,0 -0.077,-0.592 -0.218,-1.697 -0.131,-1.097 -0.439,-2.697 -0.827,-4.683 -0.386,-1.986 -1.035,-4.353 -1.88,-6.944 -0.049,-0.147 -0.104,-0.296 -0.155,-0.443 l 5.069,2.438 c -0.079,1.837 -0.278,3.476 -0.465,4.884"
           style="fill:#db2e24;fill-opacity:1;fill-rule:nonzero;stroke:none"
           id="path65352"
           inkscape:connector-curvature="0" /><path
           d="m 392.895,396.354 c -1.641,-0.477 -3.248,-1.026 -4.802,-1.655 l 1.134,-9.566 24.945,12.002 c -1.547,0.277 -3.309,0.56 -5.225,0.722 -5.381,0.511 -10.921,-0.048 -16.052,-1.503"
           style="fill:#db2e24;fill-opacity:1;fill-rule:nonzero;stroke:none"
           id="path65354"
           inkscape:connector-curvature="0" /><path
           d="m 437.287,418.002 c 2.867,6.003 4.383,12.826 4.502,19.982 l -14.832,7.777 c 6.274,-9.053 9.647,-18.552 10.33,-27.759"
           style="fill:#db2e24;fill-opacity:1;fill-rule:nonzero;stroke:none"
           id="path65356"
           inkscape:connector-curvature="0" /><path
           d="m 447.476,435.001 c -0.457,-0.901 -0.963,-1.809 -1.533,-2.723 1.23,0.513 2.405,1.073 3.534,1.674 z"
           style="fill:#db2e24;fill-opacity:1;fill-rule:nonzero;stroke:none"
           id="path65358"
           inkscape:connector-curvature="0" /><path
           d="m 406.187,453.25 c -9.938,7.489 -18.364,12.487 -26.912,15.805 l 2.229,-18.796 c 9.035,6.608 20.324,4.548 24.683,2.991"
           style="fill:#db2e24;fill-opacity:1;fill-rule:nonzero;stroke:none"
           id="path65360"
           inkscape:connector-curvature="0" /><path
           d="m 408.522,324.369 c -2.76,0.097 -5.532,1.396 -8.129,3.359 -3.205,2.341 -5.879,4.705 -10.153,6.745 -3.91,2.027 -7.853,3.116 -11.808,3.829 -0.268,0.048 -0.534,0.076 -0.801,0.115 -1.692,0.237 -3.377,0.306 -5.009,0.438 -1.894,-0.023 -3.743,-0.087 -5.521,-0.212 -1.765,-0.279 -3.488,-0.442 -5.111,-0.807 -1.607,-0.425 -3.175,-0.736 -4.624,-1.222 -0.055,-0.017 -0.11,-0.035 -0.167,-0.052 l -3.719,-5.64 c 1.549,0.281 3.202,0.536 4.94,0.743 1.385,0.194 2.848,0.202 4.33,0.32 1.488,0.061 3.022,0.009 4.582,0.022 0.226,-0.017 0.455,-0.036 0.682,-0.054 1.338,-0.106 2.693,-0.208 4.065,-0.357 1.573,-0.365 3.214,-0.496 4.801,-0.957 3.151,-0.852 6.448,-2.073 9.268,-3.676 2.664,-1.286 5.952,-3.991 8.969,-6.292 1.279,-0.954 2.702,-1.848 4.221,-2.606 2.708,-1.352 5.736,-2.26 8.917,-2.232 2.057,-0.11 4.04,0.29 5.913,0.822 l -2.867,7.874 c -0.936,-0.163 -1.862,-0.265 -2.779,-0.16"
           style="fill:#badd16;fill-opacity:1;fill-rule:nonzero;stroke:none"
           id="path65362"
           inkscape:connector-curvature="0" /><path
           d="m 385.221,379.059 c 0.117,0.063 0.23,0.129 0.345,0.191 1.594,0.881 3.25,1.663 4.952,2.339 l -1.291,3.544 z"
           style="fill:#badd16;fill-opacity:1;fill-rule:nonzero;stroke:none"
           id="path65364"
           inkscape:connector-curvature="0" /><path
           d="m 381.768,250.568 c -15.93,-11.992 -19.602,-39.369 2.662,-63.88 10.394,-11.448 31.631,-27.6 37.654,-40.405 l 2.279,-0.369 c 0.082,13.053 -13.078,31.875 -25.944,46.068 -19.591,21.608 -22.349,42.409 -15.71,56.664 z"
           style="fill:#03a5e8;fill-opacity:1;fill-rule:nonzero;stroke:none"
           id="path65366"
           inkscape:connector-curvature="0" /><path
           d="m 330.745,175.408 c 0,0 -0.618,-5.588 -0.313,-14.24 l 7.388,-1.201 c -4.012,9.035 -7.075,15.441 -7.075,15.441"
           style="fill:#03a5e8;fill-opacity:1;fill-rule:nonzero;stroke:none"
           id="path65368"
           inkscape:connector-curvature="0" /><path
           d="m 305.131,165.275 11.375,-1.845 c -0.631,4.9 -1.395,9.752 -2.252,14.447 z"
           style="fill:#03a5e8;fill-opacity:1;fill-rule:nonzero;stroke:none"
           id="path65370"
           inkscape:connector-curvature="0" /><path
           d="m 383.484,171.951 c 0,0 1.928,-9.226 7.45,-20.609 l 12.837,-2.084 c -9.74,11.638 -20.287,22.693 -20.287,22.693"
           style="fill:#03a5e8;fill-opacity:1;fill-rule:nonzero;stroke:none"
           id="path65372"
           inkscape:connector-curvature="0" /><path
           d="m 363.897,178.811 c -10.491,19.168 -12.807,37.822 -10.323,53.378 L 335.512,207.24 c 0.621,-9.937 3.471,-20.426 9.198,-30.865 3.144,-5.734 7.596,-12.453 12.292,-19.523 l 18.71,-3.038 c -3.371,8.565 -7.524,17.165 -11.815,24.997"
           style="fill:#03a5e8;fill-opacity:1;fill-rule:nonzero;stroke:none"
           id="path65374"
           inkscape:connector-curvature="0" /><path
           d="m 354.605,77.137 -6.008,-5.106 c -0.036,-4.082 -0.564,-7.593 -1.757,-10.183 3.501,3.021 6.109,8.527 7.765,15.289"
           style="fill:#2c3696;fill-opacity:1;fill-rule:nonzero;stroke:none"
           id="path65376"
           inkscape:connector-curvature="0" /><path
           d="m 423.008,91.518 c 4.635,7.677 1.476,25.388 -5.631,38.961 l -8.183,-6.956 c 7.339,-11.033 14.689,-24.507 13.814,-32.005"
           style="fill:#2c3696;fill-opacity:1;fill-rule:nonzero;stroke:none"
           id="path65378"
           inkscape:connector-curvature="0" /><path
           d="m 313.885,105.84 c 5.568,14.355 5.343,36.43 2.621,57.59 l -11.375,1.845 z"
           style="fill:#2153ac;fill-opacity:1;fill-rule:nonzero;stroke:none"
           id="path65380"
           inkscape:connector-curvature="0" /><path
           d="m 375.712,153.814 -18.71,3.038 c 11.655,-17.547 24.822,-37.27 23.287,-49.557 6.238,10.15 2.611,28.254 -4.577,46.519"
           style="fill:#2153ac;fill-opacity:1;fill-rule:nonzero;stroke:none"
           id="path65382"
           inkscape:connector-curvature="0" /><path
           d="m 423.645,141.176 c 0.479,1.469 0.707,3.054 0.718,4.738 l -2.279,0.369 c 0.834,-1.773 1.379,-3.482 1.561,-5.107"
           style="fill:#2153ac;fill-opacity:1;fill-rule:nonzero;stroke:none"
           id="path65384"
           inkscape:connector-curvature="0" /><path
           d="m 353.082,121.52 c -3.884,12.085 -10.299,27.277 -15.262,38.447 l -7.388,1.201 c 0.347,-9.873 1.897,-23.732 6.939,-37.832 4.68,-13.082 11.358,-36.139 11.226,-51.305 l 6.008,5.106 c 3.198,13.054 2.84,30.793 -1.523,44.383"
           style="fill:#2153ac;fill-opacity:1;fill-rule:nonzero;stroke:none"
           id="path65386"
           inkscape:connector-curvature="0" /><path
           d="m 403.771,149.258 -12.837,2.084 c 2.55,-5.256 5.867,-10.973 10.115,-16.455 2.381,-3.071 5.263,-7.028 8.145,-11.364 l 8.183,6.956 c -1.285,2.453 -2.699,4.773 -4.219,6.873 -2.714,3.746 -6.001,7.861 -9.387,11.906"
           style="fill:#2153ac;fill-opacity:1;fill-rule:nonzero;stroke:none"
           id="path65388"
           inkscape:connector-curvature="0" /><path
           d="m 360.09,252.154 -18.18,-12.39 c -4.645,-9.332 -7.148,-20.528 -6.398,-32.524 l 18.062,24.949 c 1.192,7.463 3.487,14.213 6.516,19.965"
           style="fill:#5fc8b3;fill-opacity:1;fill-rule:nonzero;stroke:none"
           id="path65390"
           inkscape:connector-curvature="0" /><path
           d="m 305.131,165.275 9.123,12.602 c -0.086,0.475 -0.174,0.947 -0.262,1.418 -2.833,15.084 -2.091,29.334 0.974,42.101 l -18.629,-12.699 z"
           style="fill:#5fc8b3;fill-opacity:1;fill-rule:nonzero;stroke:none"
           id="path65392"
           inkscape:connector-curvature="0" /><path
           d="m 362.937,394.535 3.114,-1.114 c 3.972,15.689 2.71,31.148 -3.535,44.757 l -10.037,-19.835 c 5.147,-7.766 8.589,-15.904 10.458,-23.808"
           style="fill:#ea3521;fill-opacity:1;fill-rule:nonzero;stroke:none"
           id="path65394"
           inkscape:connector-curvature="0" /><path
           d="m 382.26,408.782 c 0.568,3.687 1.433,8.157 2.701,12.329 l -1.889,15.929 c -2.792,-7.933 -1.859,-20.31 -0.812,-28.258"
           style="fill:#ea3521;fill-opacity:1;fill-rule:nonzero;stroke:none"
           id="path65396"
           inkscape:connector-curvature="0" /><path
           d="m 373.074,439.375 c 2.237,5.027 5.188,8.513 8.43,10.884 l -2.229,18.796 c -0.318,0.123 -0.636,0.244 -0.955,0.363 l -9.976,-19.72 c 2.459,-4.303 4.066,-8.006 4.73,-10.323"
           style="fill:#ea3521;fill-opacity:1;fill-rule:nonzero;stroke:none"
           id="path65398"
           inkscape:connector-curvature="0" /><path
           d="m 388.093,394.699 c -0.872,-0.354 -1.73,-0.731 -2.566,-1.136 -2.32,-1.146 -4.502,-2.437 -6.541,-3.833 -0.292,-0.205 -0.574,-0.417 -0.86,-0.627 l 11.101,-3.97 z"
           style="fill:#ea3521;fill-opacity:1;fill-rule:nonzero;stroke:none"
           id="path65400"
           inkscape:connector-curvature="0" /><path
           d="m 350.514,398.977 c -1.056,2.701 -2.329,5.353 -3.817,7.939 l -2.816,-5.568 z"
           style="fill:#ea3521;fill-opacity:1;fill-rule:nonzero;stroke:none"
           id="path65402"
           inkscape:connector-curvature="0" /><path
           d="m 370.015,276.207 c 1.686,-1.502 3.226,-3.008 4.657,-4.469 0.726,-0.72 1.344,-1.476 2.017,-2.175 0.611,-0.735 1.198,-1.444 1.764,-2.125 0.383,-0.526 0.75,-1.03 1.11,-1.522 l 3.57,2.891 c -0.124,0.345 -0.25,0.693 -0.374,1.054 -0.396,0.934 -0.853,1.889 -1.326,2.883 -0.529,0.944 -1.073,1.949 -1.687,2.922 -1.247,1.932 -2.665,3.91 -4.281,5.779 -1.59,1.901 -3.347,3.729 -5.194,5.498 -1.838,1.778 -3.791,3.465 -5.75,5.106 -1.359,1.103 -2.717,2.183 -4.08,3.23 l 8.586,-18.181 c 0.333,-0.297 0.666,-0.594 0.988,-0.891"
           style="fill:#90d57d;fill-opacity:1;fill-rule:nonzero;stroke:none"
           id="path65404"
           inkscape:connector-curvature="0" /><path
           d="m 171.847,82.355 c 3.299,0.583 6.822,2.315 10.384,4.916 l -4.886,0.688 c -1.77,-2.389 -3.607,-4.307 -5.498,-5.604"
           style="fill:#8f2126;fill-opacity:1;fill-rule:nonzero;stroke:none"
           id="path65406"
           inkscape:connector-curvature="0" /><path
           d="m 326.119,529.298 c 8.815,-3.019 19.154,-5.927 28.138,-8.273 l 3.245,10.525 c -6.476,4.368 -14.439,8.735 -23.563,11.77 -2.897,0.963 -6.291,2.1 -9.941,3.384 z"
           style="fill:#ed1c24;fill-opacity:1;fill-rule:nonzero;stroke:none"
           id="path65408"
           inkscape:connector-curvature="0" /><path
           d="m 344.973,490.914 6.544,21.224 c -7.558,1.198 -15.671,2.551 -23.808,4.112 l 2.566,-21.057 c 4.875,-1.537 9.803,-2.958 14.698,-4.279"
           style="fill:#ed1c24;fill-opacity:1;fill-rule:nonzero;stroke:none"
           id="path65410"
           inkscape:connector-curvature="0" /><path
           d="m 352.261,585.993 c -3.2,-8.639 1.759,-24.468 10.29,-38.069 l 4.053,13.147 c -7.657,9.02 -13.867,18.321 -14.343,24.922"
           style="fill:#ed1c24;fill-opacity:1;fill-rule:nonzero;stroke:none"
           id="path65412"
           inkscape:connector-curvature="0" /><path
           d="m 337.545,466.822 c -1.336,0.897 -2.711,1.768 -4.13,2.609 l 1.398,-11.47 z"
           style="fill:#ed1c24;fill-opacity:1;fill-rule:nonzero;stroke:none"
           id="path65414"
           inkscape:connector-curvature="0" /><path
           d="m 355.779,488.125 c 8.338,-2.059 15.99,-4.503 22.981,-7.263 l -0.809,26.891 c -2.428,0.547 -4.923,1.034 -7.496,1.44 -5.569,0.881 -12.021,1.849 -18.938,2.945 l -6.544,-21.224 c 3.632,-0.982 7.247,-1.909 10.806,-2.789"
           style="fill:#ed1c24;fill-opacity:1;fill-rule:nonzero;stroke:none"
           id="path65416"
           inkscape:connector-curvature="0" /><path
           d="m 376.102,515.696 c 0,0 -6.852,7.93 -18.6,15.854 l -3.245,-10.525 c 12.169,-3.18 21.845,-5.329 21.845,-5.329"
           style="fill:#ed1c24;fill-opacity:1;fill-rule:nonzero;stroke:none"
           id="path65418"
           inkscape:connector-curvature="0" /><path
           d="m 366.604,561.071 -4.053,-13.147 c 3.556,-5.669 7.734,-10.952 12.201,-15.165 0.811,-0.764 1.653,-1.542 2.519,-2.327 l -0.59,19.665 c -3.404,3.463 -6.867,7.194 -10.077,10.974"
           style="fill:#ed1c24;fill-opacity:1;fill-rule:nonzero;stroke:none"
           id="path65420"
           inkscape:connector-curvature="0" /><path
           d="m 346.021,475.096 c 4.329,-3.061 8.208,-6.692 11.591,-10.478 l 18.794,5.486 c -9.131,3.136 -18.605,4.478 -30.385,4.992"
           style="fill:#ed1c24;fill-opacity:1;fill-rule:nonzero;stroke:none"
           id="path65422"
           inkscape:connector-curvature="0" /><path
           d="m 345.184,460.99 c -2.37,2.052 -4.916,4.001 -7.639,5.832 l -2.732,-8.861 z"
           style="fill:#ed1c24;fill-opacity:1;fill-rule:nonzero;stroke:none"
           id="path65424"
           inkscape:connector-curvature="0" /><path
           d="m 338.588,434.391 c 5.555,-5.002 10.168,-10.428 13.891,-16.048 l 10.037,19.835 c -3.877,8.447 -9.678,16.178 -17.332,22.812 l -10.371,-3.029 z"
           style="fill:#ed1c24;fill-opacity:1;fill-rule:nonzero;stroke:none"
           id="path65426"
           inkscape:connector-curvature="0" /><path
           d="m 346.697,406.916 c -1.43,2.49 -3.058,4.919 -4.873,7.276 l 2.057,-12.844 z"
           style="fill:#ed1c24;fill-opacity:1;fill-rule:nonzero;stroke:none"
           id="path65428"
           inkscape:connector-curvature="0" /><path
           d="m 378.32,469.418 c -0.636,0.238 -1.274,0.466 -1.914,0.686 l -18.794,-5.486 c 4.486,-5.021 8.097,-10.314 10.732,-14.92 z"
           style="fill:#ed1c24;fill-opacity:1;fill-rule:nonzero;stroke:none"
           id="path65430"
           inkscape:connector-curvature="0" /><path
           d="m 347.237,332.317 0.133,-2.734 c 1.78,0.458 3.833,0.926 6.11,1.339 l 3.719,5.64 c -4.011,-1.241 -7.332,-2.792 -9.962,-4.245"
           style="fill:#e2ce0d;fill-opacity:1;fill-rule:nonzero;stroke:none"
           id="path65432"
           inkscape:connector-curvature="0" /><path
           d="m 344.926,379.866 c 4.178,-6.19 6.282,-12.459 6.001,-18.321 4.625,12.634 4.239,25.524 -0.413,37.432 l -6.633,2.371 z"
           style="fill:#e2ce0d;fill-opacity:1;fill-rule:nonzero;stroke:none"
           id="path65434"
           inkscape:connector-curvature="0" /><path
           d="m 364.225,387.267 c 0.698,2.053 1.306,4.106 1.826,6.154 l -3.114,1.114 c 0.579,-2.452 1.008,-4.88 1.288,-7.268"
           style="fill:#e2ce0d;fill-opacity:1;fill-rule:nonzero;stroke:none"
           id="path65436"
           inkscape:connector-curvature="0" /><path
           d="m 378.126,389.103 c -3.673,-2.692 -6.796,-5.742 -9.404,-8.877 -2.802,-3.394 -4.999,-6.893 -6.694,-10.268 -1.681,-3.384 -2.852,-6.646 -3.59,-9.618 -0.737,-2.972 -1.002,-5.661 -0.943,-7.878 0.009,-2.212 0.507,-3.952 0.975,-5.02 0.246,-0.54 0.499,-0.911 0.678,-1.147 0.186,-0.23 0.284,-0.343 0.284,-0.343 0,0 -0.178,0.597 -0.161,1.662 0.018,1.068 0.344,2.587 1.018,4.412 0.69,1.821 1.785,3.937 3.221,6.226 1.429,2.29 3.228,4.753 5.371,7.238 2.135,2.489 4.611,5.013 7.414,7.366 2.698,2.277 5.684,4.434 8.926,6.203 l 4.006,6.074 z"
           style="fill:#e2ce0d;fill-opacity:1;fill-rule:nonzero;stroke:none"
           id="path65438"
           inkscape:connector-curvature="0" /><path
           d="m 290.884,561.316 -3.578,-5.208 c 7.986,-10.222 21.712,-20.555 34.665,-25.337 1.335,-0.493 2.722,-0.984 4.148,-1.473 l -2.121,17.406 c -10.831,3.808 -23.933,8.91 -33.114,14.612"
           style="fill:#ed1c24;fill-opacity:1;fill-rule:nonzero;stroke:none"
           id="path65440"
           inkscape:connector-curvature="0" /><path
           d="m 297.501,492.18 c 0,0 -16.652,13.098 -40.301,20.119 l -8.665,-12.61 c 21.923,-4.505 48.966,-7.509 48.966,-7.509"
           style="fill:#ed1c24;fill-opacity:1;fill-rule:nonzero;stroke:none"
           id="path65442"
           inkscape:connector-curvature="0" /><path
           d="m 330.275,495.193 -2.566,21.057 c -21.758,4.173 -43.658,9.839 -55.396,18.041 l -1.692,-2.463 c 9.708,-17.169 33.928,-28.524 59.654,-36.635"
           style="fill:#ed1c24;fill-opacity:1;fill-rule:nonzero;stroke:none"
           id="path65444"
           inkscape:connector-curvature="0" /><path
           d="m 333.415,469.431 c -11.206,6.631 -25.034,11.429 -41.387,13.726 -12.237,1.718 -28.599,2.229 -44.917,3.269 l 87.702,-28.465 z"
           style="fill:#ed1c24;fill-opacity:1;fill-rule:nonzero;stroke:none"
           id="path65446"
           inkscape:connector-curvature="0" /><path
           d="m 369.394,264.697 c -0.042,-0.011 -0.083,-0.027 -0.124,-0.039 l 0.064,-0.017 c 0.02,0.017 0.039,0.039 0.06,0.056"
           style="fill:#b7de2f;fill-opacity:1;fill-rule:nonzero;stroke:none"
           id="path65448"
           inkscape:connector-curvature="0" /><path
           d="m 331.371,310.54 c -2.129,1.499 -4.345,2.871 -6.637,4.119 l -11.259,-3.693 c 6.162,0.537 12.164,0.381 17.896,-0.426"
           style="fill:#b7de2f;fill-opacity:1;fill-rule:nonzero;stroke:none"
           id="path65450"
           inkscape:connector-curvature="0" /><path
           d="m 266.463,293.494 c 2.253,1.533 4.522,2.961 6.801,4.287 l -10.181,-3.34 z"
           style="fill:#b7de2f;fill-opacity:1;fill-rule:nonzero;stroke:none"
           id="path65452"
           inkscape:connector-curvature="0" /><path
           d="m 347.912,295.125 c 1.752,-1.639 3.593,-3.266 5.479,-4.863 1.88,-1.576 3.792,-3.18 5.703,-4.782 1.89,-1.566 3.783,-3.134 5.645,-4.677 1.456,-1.264 2.913,-2.483 4.288,-3.705 l -8.586,18.181 c -0.632,0.487 -1.265,0.967 -1.898,1.436 -1.986,1.492 -3.963,2.9 -5.865,4.247 -3.783,2.706 -7.35,5.121 -10.071,7.397 -1.41,1.127 -2.513,2.226 -3.459,3.273 -0.775,1.074 -1.53,2.078 -1.718,3.027 -0.19,0.488 -0.185,0.882 -0.237,1.279 -0.081,0.394 -0.017,0.777 0.052,1.072 0.093,0.605 0.142,0.926 0.142,0.926 0,0 -0.205,-0.253 -0.589,-0.729 -0.196,-0.235 -0.421,-0.518 -0.587,-0.988 -0.198,-0.444 -0.44,-1.014 -0.465,-1.632 -0.26,-1.281 0.01,-2.833 0.549,-4.503 0.619,-1.586 1.469,-3.367 2.645,-5.001 1.146,-1.684 2.519,-3.353 4.035,-5.013 1.521,-1.664 3.181,-3.314 4.937,-4.945"
           style="fill:#b7de2f;fill-opacity:1;fill-rule:nonzero;stroke:none"
           id="path65454"
           inkscape:connector-curvature="0" /><path
           d="m 354.289,276.559 c -5.474,0.17 -11.227,-0.86 -16.957,-2.942 l 8.368,-2.347 c 2.864,2.168 5.751,3.945 8.589,5.289"
           style="fill:#b7de2f;fill-opacity:1;fill-rule:nonzero;stroke:none"
           id="path65456"
           inkscape:connector-curvature="0" /><path
           d="m 343.536,290.176 c -15.038,6.39 -34.207,4.959 -51.994,-3.717 l 22.999,-6.449 c 9.813,6.064 19.85,9.51 28.995,10.166"
           style="fill:#b7de2f;fill-opacity:1;fill-rule:nonzero;stroke:none"
           id="path65458"
           inkscape:connector-curvature="0" /><path
           d="m 314.966,221.396 c 5.354,22.309 17.808,40.09 30.734,49.874 l -8.368,2.347 c -19.616,-7.131 -38.946,-26.607 -45.777,-52.588 l 4.782,-12.332 z"
           style="fill:#a4dc87;fill-opacity:1;fill-rule:nonzero;stroke:none"
           id="path65460"
           inkscape:connector-curvature="0" /><path
           d="m 264.093,291.842 c 0.787,0.564 1.578,1.113 2.37,1.652 l -3.38,0.947 z"
           style="fill:#a4dc87;fill-opacity:1;fill-rule:nonzero;stroke:none"
           id="path65462"
           inkscape:connector-curvature="0" /><path
           d="m 314.541,280.01 -22.999,6.449 c -7.021,-3.424 -13.826,-7.979 -20.078,-13.627 l 10.232,-26.381 c 9.276,14.889 20.894,26.17 32.845,33.559"
           style="fill:#a4dc87;fill-opacity:1;fill-rule:nonzero;stroke:none"
           id="path65464"
           inkscape:connector-curvature="0" /><path
           d="m 369.334,264.641 -0.064,0.017 c -11.155,-3.304 -21.161,-12.441 -27.36,-24.894 l 18.18,12.39 c 2.615,4.967 5.776,9.19 9.244,12.487"
           style="fill:#a4dc87;fill-opacity:1;fill-rule:nonzero;stroke:none"
           id="path65466"
           inkscape:connector-curvature="0" /><path
           d="m 239.07,516.788 0.941,-15.195 c 2.695,-0.66 5.563,-1.296 8.524,-1.904 l 8.665,12.61 c -2.633,0.782 -5.352,1.49 -8.145,2.094 -2.951,0.639 -6.346,1.443 -9.985,2.395"
           style="fill:#ed1c24;fill-opacity:1;fill-rule:nonzero;stroke:none"
           id="path65468"
           inkscape:connector-curvature="0" /><path
           d="m 280.428,570.944 c 0.21,-4.412 2.795,-9.61 6.878,-14.836 l 3.578,5.208 c -4.946,3.071 -8.756,6.316 -10.456,9.628"
           style="fill:#ed1c24;fill-opacity:1;fill-rule:nonzero;stroke:none"
           id="path65470"
           inkscape:connector-curvature="0" /><path
           d="m 267.837,538.065 c 0.716,-2.161 1.653,-4.238 2.784,-6.237 l 1.692,2.463 c -1.721,1.203 -3.224,2.459 -4.476,3.774"
           style="fill:#ed1c24;fill-opacity:1;fill-rule:nonzero;stroke:none"
           id="path65472"
           inkscape:connector-curvature="0" /><path
           d="m 285.59,126.32 c -0.229,3.815 -0.587,7.907 -1.032,12.123 l -15.446,-20.142 c 0.661,-16.069 0.216,-35.662 -3.499,-48.5 l 4.432,-1.584 c 9.856,13.426 16.737,38.25 15.545,58.103"
           style="fill:#2091ae;fill-opacity:1;fill-rule:nonzero;stroke:none"
           id="path65474"
           inkscape:connector-curvature="0" /><path
           d="m 298.131,156.146 c 6.773,-23.398 14.075,-49.228 8.207,-61.708 3.23,2.746 5.704,6.654 7.547,11.402 l -8.754,59.435 z"
           style="fill:#2091ae;fill-opacity:1;fill-rule:nonzero;stroke:none"
           id="path65476"
           inkscape:connector-curvature="0" /><path
           d="m 308.57,407.688 c 10.959,-4.924 20.11,-10.874 27.069,-17.245 l 8.242,10.905 z"
           style="fill:#f6ba0b;fill-opacity:1;fill-rule:nonzero;stroke:none"
           id="path65478"
           inkscape:connector-curvature="0" /><path
           d="m 233.758,420.789 c 0.555,0.01 1.11,0.021 1.662,0.034 l -1.742,0.312 z"
           style="fill:#f6ba0b;fill-opacity:1;fill-rule:nonzero;stroke:none"
           id="path65480"
           inkscape:connector-curvature="0" /><path
           d="m 285.152,323.641 c -9.082,-0.293 -18.409,-2.024 -27.624,-5.261 l 5.555,-23.939 z"
           style="fill:#f6ba0b;fill-opacity:1;fill-rule:nonzero;stroke:none"
           id="path65482"
           inkscape:connector-curvature="0" /><path
           d="m 296.446,338.585 10.867,14.377 c -16.647,9.462 -37.686,13.592 -60.214,10.347 l 6.82,-29.383 c 15.085,4.505 29.455,5.863 42.527,4.659"
           style="fill:#f6ba0b;fill-opacity:1;fill-rule:nonzero;stroke:none"
           id="path65484"
           inkscape:connector-curvature="0" /><path
           d="m 316.928,365.685 11.168,14.777 c -18.201,20.347 -51.822,33.141 -91.921,29.915 l 7.681,-33.093 c 29.577,2.344 55.227,-2.633 73.072,-11.599"
           style="fill:#f6ba0b;fill-opacity:1;fill-rule:nonzero;stroke:none"
           id="path65486"
           inkscape:connector-curvature="0" /><path
           d="m 285.152,323.641 -22.069,-29.2 10.181,3.34 c 13.404,7.796 27.163,12.048 40.211,13.185 l 11.259,3.693 c -11.671,6.358 -25.325,9.442 -39.582,8.982"
           style="fill:#e9eb07;fill-opacity:1;fill-rule:nonzero;stroke:none"
           id="path65488"
           inkscape:connector-curvature="0" /><path
           d="m 342.49,339.398 c 1.461,15.116 -3.909,29.343 -14.394,41.064 l -11.168,-14.777 c 13.742,-6.905 22.855,-16.175 25.562,-26.287"
           style="fill:#e9eb07;fill-opacity:1;fill-rule:nonzero;stroke:none"
           id="path65490"
           inkscape:connector-curvature="0" /><path
           d="m 346.947,332.157 c -1.027,-0.576 -1.955,-1.136 -2.759,-1.645 -1.049,-0.674 -1.899,-1.275 -2.568,-1.775 -1.209,-0.901 -1.815,-1.466 -1.815,-1.466 0,0 1.856,0.7 5.113,1.645 0.744,0.213 1.565,0.439 2.452,0.667 l -0.133,2.734 c -0.096,-0.054 -0.194,-0.108 -0.29,-0.16"
           style="fill:#e9eb07;fill-opacity:1;fill-rule:nonzero;stroke:none"
           id="path65492"
           inkscape:connector-curvature="0" /><path
           d="m 335.639,390.443 c 3.752,-3.436 6.867,-6.992 9.287,-10.577 l -1.045,21.482 z"
           style="fill:#e9eb07;fill-opacity:1;fill-rule:nonzero;stroke:none"
           id="path65494"
           inkscape:connector-curvature="0" /><path
           d="m 332.269,327.25 c 0.436,0.206 0.902,0.418 1.403,0.642 -6.324,10.283 -15.389,18.834 -26.359,25.07 l -10.867,-14.377 c 13.547,-1.248 25.702,-5.244 35.823,-11.335"
           style="fill:#e9eb07;fill-opacity:1;fill-rule:nonzero;stroke:none"
           id="path65496"
           inkscape:connector-curvature="0" /><path
           d="m 235.42,420.823 c 0.659,0.014 1.316,0.031 1.971,0.05 27.83,0.781 52.213,-4.664 71.179,-13.185 l 35.311,-6.34 -2.057,12.844 c -9.881,12.828 -25.334,23.486 -45.116,29.894 l -63.03,-22.951 z"
           style="fill:#f2591a;fill-opacity:1;fill-rule:nonzero;stroke:none"
           id="path65498"
           inkscape:connector-curvature="0" /><path
           d="m 313.994,450.38 c 9.651,-4.423 17.822,-9.89 24.594,-15.989 l -3.775,23.57 z"
           style="fill:#f2591a;fill-opacity:1;fill-rule:nonzero;stroke:none"
           id="path65500"
           inkscape:connector-curvature="0" /><path
           d="m 296.708,444.086 c -14.141,4.581 -30.492,6.991 -48.603,6.466 -3.547,-0.103 -7.36,-0.335 -11.376,-0.656 l -3.051,-28.761 z"
           style="fill:#f0441d;fill-opacity:1;fill-rule:nonzero;stroke:none"
           id="path65502"
           inkscape:connector-curvature="0" /><path
           d="m 279.103,460.313 c 13.289,-1.878 24.885,-5.345 34.891,-9.933 l 20.819,7.581 -87.702,28.465 c -2.157,0.138 -4.312,0.283 -6.458,0.444 l -1.92,-18.095 c 13.092,-3.799 27.17,-6.597 40.37,-8.462"
           style="fill:#f0441d;fill-opacity:1;fill-rule:nonzero;stroke:none"
           id="path65504"
           inkscape:connector-curvature="0" /><path
           d="m 291.555,221.029 c -0.961,-3.654 -1.675,-7.437 -2.107,-11.334 l 6.889,-0.998 z"
           style="fill:#a2d723;fill-opacity:1;fill-rule:nonzero;stroke:none"
           id="path65506"
           inkscape:connector-curvature="0" /><path
           d="m 267.134,212.924 c 3.496,12.648 8.533,23.849 14.562,33.527 l -10.232,26.381 c -4.345,-3.926 -8.422,-8.379 -12.117,-13.35 l -4.783,-44.738 z"
           style="fill:#a2d723;fill-opacity:1;fill-rule:nonzero;stroke:none"
           id="path65508"
           inkscape:connector-curvature="0" /><path
           d="m 262.697,290.824 c 0.465,0.344 0.929,0.682 1.396,1.018 l -1.01,2.599 z"
           style="fill:#a2d723;fill-opacity:1;fill-rule:nonzero;stroke:none"
           id="path65510"
           inkscape:connector-curvature="0" /><path
           d="m 239.724,129.814 c 4.942,7.639 9.267,17.055 12.971,27.276 l -12.696,-1.983 z"
           style="fill:#43bc6a;fill-opacity:1;fill-rule:nonzero;stroke:none"
           id="path65512"
           inkscape:connector-curvature="0" /><path
           d="m 295.911,163.836 c 0.721,-2.52 1.467,-5.09 2.22,-7.69 l 7,9.129 z"
           style="fill:#43bc6a;fill-opacity:1;fill-rule:nonzero;stroke:none"
           id="path65514"
           inkscape:connector-curvature="0" /><path
           d="m 281.521,161.59 -13.205,-2.063 c -0.797,-8.103 -1.042,-17.125 -0.17,-26.515 0.393,-4.233 0.743,-9.27 0.966,-14.711 l 15.446,20.142 c -0.806,7.612 -1.898,15.629 -3.037,23.147"
           style="fill:#43bc6a;fill-opacity:1;fill-rule:nonzero;stroke:none"
           id="path65516"
           inkscape:connector-curvature="0" /><path
           d="m 275.834,194.547 c 0,0 -0.059,-0.156 -0.164,-0.451 l 0.311,-0.303 c -0.095,0.492 -0.147,0.754 -0.147,0.754"
           style="fill:#5fc459;fill-opacity:1;fill-rule:nonzero;stroke:none"
           id="path65518"
           inkscape:connector-curvature="0" /><path
           d="m 296.337,208.697 -6.889,0.998 c -0.851,-7.668 -0.613,-15.771 0.975,-24.187 0.439,-2.326 0.997,-4.822 1.641,-7.449 l 13.067,-12.784 z"
           style="fill:#5fc459;fill-opacity:1;fill-rule:nonzero;stroke:none"
           id="path65520"
           inkscape:connector-curvature="0" /><path
           d="m 265.075,204.461 c 0.609,2.891 1.298,5.711 2.059,8.463 l -12.57,1.82 z"
           style="fill:#5fc459;fill-opacity:1;fill-rule:nonzero;stroke:none"
           id="path65522"
           inkscape:connector-curvature="0" /><path
           d="m 292.064,178.059 c 1.084,-4.424 2.415,-9.221 3.847,-14.223 l 9.22,1.439 z"
           style="fill:#5dc344;fill-opacity:1;fill-rule:nonzero;stroke:none"
           id="path65524"
           inkscape:connector-curvature="0" /><path
           d="m 254.564,214.744 -14.565,-59.637 12.696,1.983 c 5.096,14.058 9.014,29.633 11.74,44.18 0.201,1.074 0.417,2.136 0.64,3.191 z"
           style="fill:#5dc344;fill-opacity:1;fill-rule:nonzero;stroke:none"
           id="path65526"
           inkscape:connector-curvature="0" /><path
           d="m 275.981,193.793 -0.311,0.303 c -0.925,-2.592 -5.552,-16.233 -7.354,-34.569 l 13.205,2.063 c -2.354,15.543 -4.909,28.945 -5.54,32.203"
           style="fill:#5dc344;fill-opacity:1;fill-rule:nonzero;stroke:none"
           id="path65528"
           inkscape:connector-curvature="0" /><path
           d="m 233.455,420.783 c 0.101,10e-4 0.202,0.004 0.303,0.006 l -0.08,0.346 z"
           style="fill:#f7b50b;fill-opacity:1;fill-rule:nonzero;stroke:none"
           id="path65530"
           inkscape:connector-curvature="0" /><path
           d="m 243.856,377.284 -7.681,33.093 c -3.29,-0.264 -6.625,-0.639 -9.997,-1.124 l -25.382,-40.215 c 14.935,4.525 29.415,7.165 43.06,8.246"
           style="fill:#f7b50b;fill-opacity:1;fill-rule:nonzero;stroke:none"
           id="path65532"
           inkscape:connector-curvature="0" /><path
           d="m 196.667,353.571 c 0,0 -2.224,-0.165 -6.086,-0.718 l -4.156,-6.585 c 6.288,4.42 10.242,7.303 10.242,7.303"
           style="fill:#f7b50b;fill-opacity:1;fill-rule:nonzero;stroke:none"
           id="path65534"
           inkscape:connector-curvature="0" /><path
           d="m 257.528,318.38 c -9.392,-3.298 -18.668,-8.16 -27.452,-14.661 l 33.007,-9.278 z"
           style="fill:#f7b50b;fill-opacity:1;fill-rule:nonzero;stroke:none"
           id="path65536"
           inkscape:connector-curvature="0" /><path
           d="m 206.891,310.237 c 16.008,11.468 31.879,19.166 47.028,23.689 l -6.82,29.383 c -22.592,-3.253 -46.681,-13.923 -69.34,-34.072 -1.591,-1.415 -3.236,-2.923 -4.928,-4.508 l -2.637,-4.179 z"
           style="fill:#f7b50b;fill-opacity:1;fill-rule:nonzero;stroke:none"
           id="path65538"
           inkscape:connector-curvature="0" /><path
           d="m 187.398,247.188 c -3.542,-8.469 -7.033,-18.733 -10.619,-29.743 l 32.646,-1.132 c 0.981,2.234 1.935,4.46 2.862,6.673 4.201,10.024 8.887,19.102 13.947,27.285 l -21.829,27.375 c -6.441,-8.812 -12.196,-18.947 -17.007,-30.458"
           style="fill:#e0bc10;fill-opacity:1;fill-rule:nonzero;stroke:none"
           id="path65540"
           inkscape:connector-curvature="0" /><path
           d="m 157.328,270.828 c 11.456,8.08 22.448,16.848 32.194,25.485 l -19.328,24.237 z"
           style="fill:#e0bc10;fill-opacity:1;fill-rule:nonzero;stroke:none"
           id="path65542"
           inkscape:connector-curvature="0" /><path
           d="m 155.292,218.193 c 15.289,25.373 30.301,55.694 30.301,55.694 0,0 -17.84,-11.063 -35.513,-31.069 l -6.269,-24.226 z"
           style="fill:#e0bc10;fill-opacity:1;fill-rule:nonzero;stroke:none"
           id="path65544"
           inkscape:connector-curvature="0" /><path
           d="m 243.897,228.121 c -0.999,-3.426 -1.851,-6.975 -2.536,-10.652 -0.137,-0.733 -0.269,-1.489 -0.397,-2.252 l 13.6,-0.473 z"
           style="fill:#e0bc10;fill-opacity:1;fill-rule:nonzero;stroke:none"
           id="path65546"
           inkscape:connector-curvature="0" /><path
           d="m 189.522,296.313 c 0.078,0.068 0.156,0.136 0.233,0.205 5.712,5.069 11.432,9.632 17.136,13.719 l -36.697,10.313 z"
           style="fill:#e7e209;fill-opacity:1;fill-rule:nonzero;stroke:none"
           id="path65548"
           inkscape:connector-curvature="0" /><path
           d="m 259.347,259.482 c -6.572,-8.841 -11.934,-19.318 -15.45,-31.361 l 10.667,-13.377 z"
           style="fill:#e7e209;fill-opacity:1;fill-rule:nonzero;stroke:none"
           id="path65550"
           inkscape:connector-curvature="0" /><path
           d="m 230.076,303.719 c -9.25,-6.844 -17.953,-15.508 -25.671,-26.073 l 21.829,-27.375 c 10.803,17.467 23.313,30.842 36.463,40.553 l 0.386,3.617 z"
           style="fill:#e7e209;fill-opacity:1;fill-rule:nonzero;stroke:none"
           id="path65552"
           inkscape:connector-curvature="0" /><path
           d="m 188.053,500.537 c 2.495,-6.275 7.898,-11.803 15.214,-16.626 l 29.691,3.602 c -19.266,1.808 -36.69,5.126 -44.905,13.024"
           style="fill:#ed1c24;fill-opacity:1;fill-rule:nonzero;stroke:none"
           id="path65554"
           inkscape:connector-curvature="0" /><path
           d="m 200.826,531.009 -3.32,-3.993 c 9.156,-10.719 26.208,-21.34 41.558,-25.188 0.313,-0.078 0.629,-0.157 0.947,-0.235 l -0.941,15.195 c -12.518,3.271 -27.94,8.275 -38.244,14.221"
           style="fill:#ed1c24;fill-opacity:1;fill-rule:nonzero;stroke:none"
           id="path65556"
           inkscape:connector-curvature="0" /><path
           d="m 152.164,213.078 c 1.041,1.674 2.085,3.383 3.128,5.115 l -11.481,0.399 z"
           style="fill:#98d320;fill-opacity:1;fill-rule:nonzero;stroke:none"
           id="path65558"
           inkscape:connector-curvature="0" /><path
           d="m 171.293,200.453 22.972,-15.162 c 5.525,10.133 10.623,20.672 15.16,31.022 l -32.646,1.132 c -1.799,-5.521 -3.621,-11.228 -5.486,-16.992"
           style="fill:#98d320;fill-opacity:1;fill-rule:nonzero;stroke:none"
           id="path65560"
           inkscape:connector-curvature="0" /><path
           d="m 219.595,168.574 c 2.949,20.197 4.66,38.748 4.66,38.748 0,0 -9.175,-12.121 -16.823,-30.72 z"
           style="fill:#98d320;fill-opacity:1;fill-rule:nonzero;stroke:none"
           id="path65562"
           inkscape:connector-curvature="0" /><path
           d="m 254.564,214.744 -13.6,0.473 c -2.585,-15.35 -3.635,-36.934 -6.065,-56.744 l 5.1,-3.366 z"
           style="fill:#98d320;fill-opacity:1;fill-rule:nonzero;stroke:none"
           id="path65564"
           inkscape:connector-curvature="0" /><path
           d="m 186.425,346.268 4.156,6.585 c -7.518,-1.078 -21.243,-3.629 -36.843,-9.3 l 9.416,-13.162 c 8.966,5.92 17.205,11.613 23.271,15.877"
           style="fill:#f57e13;fill-opacity:1;fill-rule:nonzero;stroke:none"
           id="path65566"
           inkscape:connector-curvature="0" /><path
           d="m 232.209,420.762 c 0.416,0.006 0.831,0.013 1.246,0.021 l 0.223,0.352 z"
           style="fill:#f57e13;fill-opacity:1;fill-rule:nonzero;stroke:none"
           id="path65568"
           inkscape:connector-curvature="0" /><path
           d="m 172.831,324.729 c -1.098,-1.028 -2.215,-2.089 -3.351,-3.181 l 0.714,-0.998 z"
           style="fill:#f57e13;fill-opacity:1;fill-rule:nonzero;stroke:none"
           id="path65570"
           inkscape:connector-curvature="0" /><path
           d="m 189.866,409.814 c 0,0 -0.116,0.034 -0.34,0.099 l -28.171,-7.162 c 15.98,3.68 28.511,7.063 28.511,7.063"
           style="fill:#f57e13;fill-opacity:1;fill-rule:nonzero;stroke:none"
           id="path65572"
           inkscape:connector-curvature="0" /><path
           d="m 148.402,353.198 c 8.121,1.952 37.085,10.685 43.264,12.855 3.06,1.074 6.104,2.068 9.13,2.985 l 25.382,40.215 c -10.848,-1.56 -22.095,-4.281 -33.579,-8.326 -17.357,-6.112 -39.436,-16.336 -61.648,-25.521 l 16.114,-22.526 c 0.446,0.106 0.892,0.211 1.337,0.318"
           style="fill:#f57e13;fill-opacity:1;fill-rule:nonzero;stroke:none"
           id="path65574"
           inkscape:connector-curvature="0" /><path
           d="m 190.966,539.209 c 0.598,-3.815 2.969,-8.011 6.54,-12.193 l 3.32,3.993 c -4.466,2.578 -7.971,5.333 -9.86,8.2"
           style="fill:#ed1c24;fill-opacity:1;fill-rule:nonzero;stroke:none"
           id="path65576"
           inkscape:connector-curvature="0" /><path
           d="m 233.906,151.068 c -2.521,-17.152 -6.434,-32.084 -13.813,-39.101 7.363,2.551 13.909,9.006 19.631,17.847 l 0.275,25.293 z"
           style="fill:#859957;fill-opacity:1;fill-rule:nonzero;stroke:none"
           id="path65578"
           inkscape:connector-curvature="0" /><path
           d="m 177.345,87.959 4.886,-0.688 c 13.188,9.629 26.914,31.194 31.762,50.6 l -21.11,-13.992 c -4.066,-13.674 -9.404,-27.643 -15.538,-35.92"
           style="fill:#859957;fill-opacity:1;fill-rule:nonzero;stroke:none"
           id="path65580"
           inkscape:connector-curvature="0" /><path
           d="m 199.46,150.48 c -1.432,-7.277 -3.683,-16.865 -6.577,-26.601 l 21.11,13.992 c 0.105,0.418 0.206,0.838 0.302,1.254 1.194,5.164 2.301,10.916 3.31,16.826 l -16.785,0.631 c -0.496,-1.998 -0.952,-4.033 -1.36,-6.102"
           style="fill:#988f26;fill-opacity:1;fill-rule:nonzero;stroke:none"
           id="path65582"
           inkscape:connector-curvature="0" /><path
           d="m 135.101,123.652 0.815,-2.457 c 14.207,4.35 28.316,18.201 41.16,36.282 l -20.848,0.785 c -6.198,-14.744 -13.102,-27.28 -21.127,-34.61"
           style="fill:#988f26;fill-opacity:1;fill-rule:nonzero;stroke:none"
           id="path65584"
           inkscape:connector-curvature="0" /><path
           d="m 234.498,155.314 c -0.189,-1.427 -0.386,-2.843 -0.592,-4.246 l 6.093,4.039 z"
           style="fill:#988f26;fill-opacity:1;fill-rule:nonzero;stroke:none"
           id="path65586"
           inkscape:connector-curvature="0" /><path
           d="m 156.228,158.262 20.848,-0.785 c 6.051,8.517 11.821,17.972 17.189,27.814 l -22.972,15.162 c -4.662,-14.41 -9.588,-29.162 -15.065,-42.191"
           style="fill:#b0a21e;fill-opacity:1;fill-rule:nonzero;stroke:none"
           id="path65588"
           inkscape:connector-curvature="0" /><path
           d="m 133.231,188.262 c 4.833,4.834 9.184,9.978 12.722,15.209 2.031,3.002 4.114,6.236 6.211,9.607 l -8.353,5.514 z"
           style="fill:#b0a21e;fill-opacity:1;fill-rule:nonzero;stroke:none"
           id="path65590"
           inkscape:connector-curvature="0" /><path
           d="m 200.82,156.582 16.785,-0.631 c 0.713,4.178 1.378,8.436 1.99,12.623 l -12.163,8.028 c -2.489,-6.053 -4.815,-12.789 -6.612,-20.02"
           style="fill:#b0a21e;fill-opacity:1;fill-rule:nonzero;stroke:none"
           id="path65592"
           inkscape:connector-curvature="0" /><path
           d="m 234.899,158.473 c -0.13,-1.059 -0.263,-2.112 -0.401,-3.159 l 5.501,-0.207 z"
           style="fill:#b0a21e;fill-opacity:1;fill-rule:nonzero;stroke:none"
           id="path65594"
           inkscape:connector-curvature="0" /><path
           d="m 240.653,486.87 c -2.586,0.192 -5.156,0.405 -7.695,0.643 l -29.691,-3.602 c 9.373,-6.178 21.888,-11.197 35.466,-15.136 z"
           style="fill:#ee2922;fill-opacity:1;fill-rule:nonzero;stroke:none"
           id="path65596"
           inkscape:connector-curvature="0" /><path
           d="m 236.729,449.896 c -11.049,-0.885 -23.632,-2.447 -36.444,-3.865 l 33.393,-24.896 z"
           style="fill:#ee2922;fill-opacity:1;fill-rule:nonzero;stroke:none"
           id="path65598"
           inkscape:connector-curvature="0" /><path
           d="m 229.898,457.123 c 0,0 -26.89,15.395 -60.598,17.63 -2.572,0.172 -5.43,0.405 -8.484,0.703 l 24.92,-18.579 c 22.43,-0.541 44.162,0.246 44.162,0.246"
           style="fill:#ee2922;fill-opacity:1;fill-rule:nonzero;stroke:none"
           id="path65600"
           inkscape:connector-curvature="0" /><path
           d="m 161.355,402.751 28.171,7.162 c -3.287,0.935 -30.069,8.15 -60.77,4.115 l -8.436,-19.195 c 12.696,1.723 28.011,4.919 41.035,7.918"
           style="fill:#f1461d;fill-opacity:1;fill-rule:nonzero;stroke:none"
           id="path65602"
           inkscape:connector-curvature="0" /><path
           d="m 159.772,458.304 c 7.862,-0.78 16.969,-1.21 25.964,-1.427 l -24.92,18.579 c -1.566,0.152 -3.182,0.322 -4.839,0.508 l -6.966,-15.847 c 3.644,-0.846 7.259,-1.465 10.761,-1.813"
           style="fill:#f1461d;fill-opacity:1;fill-rule:nonzero;stroke:none"
           id="path65604"
           inkscape:connector-curvature="0" /><path
           d="m 232.209,420.762 1.469,0.373 -33.393,24.896 c -20.729,-2.294 -42.056,-4.209 -58.457,-2.26 l -3.551,-8.08 c 22.725,-11.807 60.438,-15.437 93.932,-14.929"
           style="fill:#f1461d;fill-opacity:1;fill-rule:nonzero;stroke:none"
           id="path65606"
           inkscape:connector-curvature="0" /><path
           d="m 96.957,493.764 c 1.597,-5.121 6.142,-10.435 12.445,-15.351 l 29.765,-0.072 c -17.698,3.039 -35.574,7.993 -42.21,15.423"
           style="fill:#ed1c24;fill-opacity:1;fill-rule:nonzero;stroke:none"
           id="path65608"
           inkscape:connector-curvature="0" /><path
           d="m 128.949,309.484 c 5.989,3.233 12.517,7.103 19.079,11.188 l -39.984,0.219 C 98.889,316.32 88.77,311.761 79.123,308.289 l 8.241,-11.428 c 14.375,1.75 29.57,6.137 41.585,12.623"
           style="fill:#f2541a;fill-opacity:1;fill-rule:nonzero;stroke:none"
           id="path65610"
           inkscape:connector-curvature="0" /><path
           d="m 157.328,270.828 12.866,49.722 -1.74,0.01 C 151.58,304.25 130.807,281.77 110.841,264.309 l 10.912,-15.131 c 11.792,5.929 23.923,13.433 35.575,21.65"
           style="fill:#f2541a;fill-opacity:1;fill-rule:nonzero;stroke:none"
           id="path65612"
           inkscape:connector-curvature="0" /><path
           d="m 150.08,242.818 c -4.209,-4.763 -8.408,-10.037 -12.355,-15.787 l 6.086,-8.439 z"
           style="fill:#f2541a;fill-opacity:1;fill-rule:nonzero;stroke:none"
           id="path65614"
           inkscape:connector-curvature="0" /><path
           d="m 163.154,330.391 -9.416,13.162 c -8.446,-3.07 -17.44,-7.054 -26.298,-12.216 -5.355,-3.121 -12.067,-6.787 -19.396,-10.446 l 39.984,-0.219 c 5.101,3.175 10.222,6.481 15.126,9.719"
           style="fill:#f36218;fill-opacity:1;fill-rule:nonzero;stroke:none"
           id="path65616"
           inkscape:connector-curvature="0" /><path
           d="m 147.065,352.88 -16.114,22.526 c -10.709,-4.428 -21.448,-8.614 -31.704,-11.983 l -12.42,-17.901 c 17.913,-0.694 39.017,2.341 60.238,7.358"
           style="fill:#f36218;fill-opacity:1;fill-rule:nonzero;stroke:none"
           id="path65618"
           inkscape:connector-curvature="0" /><path
           d="m 169.48,321.548 c -0.34,-0.326 -0.683,-0.656 -1.026,-0.988 l 1.74,-0.01 z"
           style="fill:#f36218;fill-opacity:1;fill-rule:nonzero;stroke:none"
           id="path65620"
           inkscape:connector-curvature="0" /><path
           d="m 155.977,475.964 c -5.324,0.603 -11.057,1.389 -16.81,2.377 l -29.765,0.072 c 10.255,-7.999 25.164,-14.945 39.609,-18.296 z"
           style="fill:#ed1c24;fill-opacity:1;fill-rule:nonzero;stroke:none"
           id="path65622"
           inkscape:connector-curvature="0" /><path
           d="m 118.992,394.657 c 0.439,0.056 0.882,0.115 1.328,0.176 l 8.436,19.195 c -1.328,-0.175 -2.661,-0.367 -4.002,-0.586 -6.167,-1.002 -13.988,-2.03 -22.334,-2.767 l 14.501,-16.255 c 0.696,0.071 1.387,0.148 2.071,0.237"
           style="fill:#ed1c24;fill-opacity:1;fill-rule:nonzero;stroke:none"
           id="path65624"
           inkscape:connector-curvature="0" /><path
           d="m 138.277,435.691 3.551,8.08 c -8.335,0.99 -15.399,2.978 -20.465,6.421 3.545,-5.821 9.415,-10.606 16.914,-14.501"
           style="fill:#ed1c24;fill-opacity:1;fill-rule:nonzero;stroke:none"
           id="path65626"
           inkscape:connector-curvature="0" /><path
           d="m 121.753,249.178 -10.912,15.131 C 94.374,249.906 78.456,238.922 65.729,237.635 c 14.256,-4.821 34.578,0.758 56.024,11.543"
           style="fill:#ed1c24;fill-opacity:1;fill-rule:nonzero;stroke:none"
           id="path65628"
           inkscape:connector-curvature="0" /><path
           d="m 87.364,296.861 -8.241,11.428 C 73.429,306.24 67.902,304.571 62.833,303.5 l -2.546,-6.357 c 7.787,-1.444 17.24,-1.479 27.077,-0.282"
           style="fill:#ed1c24;fill-opacity:1;fill-rule:nonzero;stroke:none"
           id="path65630"
           inkscape:connector-curvature="0" /><path
           d="m 137.725,227.031 c -1.094,-1.593 -2.168,-3.22 -3.217,-4.886 -0.604,-0.957 -1.239,-1.954 -1.904,-2.979 l 11.207,-0.574 z"
           style="fill:#ed1c24;fill-opacity:1;fill-rule:nonzero;stroke:none"
           id="path65632"
           inkscape:connector-curvature="0" /><path
           d="m 130.271,119.977 c 1.881,0.232 3.764,0.642 5.645,1.218 l -0.815,2.457 c -1.567,-1.429 -3.176,-2.664 -4.83,-3.675"
           style="fill:#a01f25;fill-opacity:1;fill-rule:nonzero;stroke:none"
           id="path65634"
           inkscape:connector-curvature="0" /><path
           d="m 133.231,188.262 10.58,30.33 -11.207,0.574 C 124.45,206.561 111.89,189.143 99.412,176.262 l 9.81,-6.91 c 8.36,5.07 16.733,11.634 24.009,18.91"
           style="fill:#d11f26;fill-opacity:1;fill-rule:nonzero;stroke:none"
           id="path65636"
           inkscape:connector-curvature="0" /><path
           d="m 86.827,345.522 12.42,17.901 C 81.442,357.576 65.097,354.196 52.9,356.302 l 1.367,-2.833 c 8.437,-5.015 19.671,-7.447 32.56,-7.947"
           style="fill:#ef2f21;fill-opacity:1;fill-rule:nonzero;stroke:none"
           id="path65638"
           inkscape:connector-curvature="0" /><path
           d="M 116.921,394.42 102.42,410.675 C 81.49,408.831 57.252,408.83 47.485,415.717 55.776,401.559 90.456,391.72 116.921,394.42"
           style="fill:#ed1c24;fill-opacity:1;fill-rule:nonzero;stroke:none"
           id="path65640"
           inkscape:connector-curvature="0" /><path
           d="m 109.222,169.352 -9.81,6.91 c -8.442,-8.713 -16.847,-15.352 -23.825,-17.01 8.711,-1.707 21.157,2.531 33.635,10.1"
           style="fill:#c61f26;fill-opacity:1;fill-rule:nonzero;stroke:none"
           id="path65642"
           inkscape:connector-curvature="0" /><path
           d="m 52.9,356.302 c -1.321,0.229 -2.594,0.52 -3.815,0.881 1.581,-1.371 3.314,-2.604 5.182,-3.714 z"
           style="fill:#ed1c24;fill-opacity:1;fill-rule:nonzero;stroke:none"
           id="path65644"
           inkscape:connector-curvature="0" /><path
           d="m 46.108,302.839 c 3.426,-2.739 8.334,-4.614 14.179,-5.696 l 2.546,6.357 c -6.559,-1.384 -12.35,-1.767 -16.725,-0.661"
           style="fill:#ed1c24;fill-opacity:1;fill-rule:nonzero;stroke:none"
           id="path65646"
           inkscape:connector-curvature="0" /></g></g></g></svg>