<?xml version="1.0" encoding="UTF-8" standalone="no"?>
<!-- Created with Inkscape (http://www.inkscape.org/) -->

<svg
   xmlns:dc="http://purl.org/dc/elements/1.1/"
   xmlns:cc="http://creativecommons.org/ns#"
   xmlns:rdf="http://www.w3.org/1999/02/22-rdf-syntax-ns#"
   xmlns:svg="http://www.w3.org/2000/svg"
   xmlns="http://www.w3.org/2000/svg"
   xmlns:sodipodi="http://sodipodi.sourceforge.net/DTD/sodipodi-0.dtd"
   xmlns:inkscape="http://www.inkscape.org/namespaces/inkscape"
   version="1.1"
   id="svg9394"
   xml:space="preserve"
   width="800"
   height="800"
   viewBox="0 0 800 800"
   sodipodi:docname="Bird-Silhouette-Color-publicdomainvectors.org.svg"
   inkscape:version="0.92.4 (5da689c313, 2019-01-14)"><metadata
     id="metadata9400"><rdf:RDF><cc:Work
         rdf:about=""><dc:format>image/svg+xml</dc:format><dc:type
           rdf:resource="http://purl.org/dc/dcmitype/StillImage" /><dc:title></dc:title></cc:Work></rdf:RDF></metadata><defs
     id="defs9398"><clipPath
       clipPathUnits="userSpaceOnUse"
       id="clipPath9410"><path
         d="M 0,600 H 600 V 0 H 0 Z"
         id="path9408"
         inkscape:connector-curvature="0" /></clipPath></defs><sodipodi:namedview
     pagecolor="#ffffff"
     bordercolor="#666666"
     borderopacity="1"
     objecttolerance="10"
     gridtolerance="10"
     guidetolerance="10"
     inkscape:pageopacity="0"
     inkscape:pageshadow="2"
     inkscape:window-width="1920"
     inkscape:window-height="1018"
     id="namedview9396"
     showgrid="false"
     inkscape:zoom="1.0013867"
     inkscape:cx="400"
     inkscape:cy="400"
     inkscape:window-x="-8"
     inkscape:window-y="-8"
     inkscape:window-maximized="1"
     inkscape:current-layer="g9402" /><g
     id="g9402"
     inkscape:groupmode="layer"
     inkscape:label="Bird-Silhouette-Color-publicdomainvectors.org"
     transform="matrix(1.3333333,0,0,-1.3333333,0,800)"><g
       id="g9404"><g
         id="g9406"
         clip-path="url(#clipPath9410)"><path
           d="m 130.625,541.653 c -1.815,-4.121 -2.347,-9.39 -1.661,-15.175 l 3.953,-0.313 c -2.124,5.44 -2.972,10.665 -2.292,15.488"
           style="fill:#84171c;fill-opacity:1;fill-rule:nonzero;stroke:none"
           id="path9412"
           inkscape:connector-curvature="0" /><path
           d="m 521.874,429.583 c 0.157,0.14 0.314,0.279 0.468,0.414 1.553,1.238 2.769,2.949 3.688,3.993 0.918,1.11 1.227,2.218 1.635,2.864 0.327,0.691 0.503,1.061 0.505,1.063 v 0 c 0,0 -0.369,-0.191 -1.054,-0.549 -0.675,-0.33 -1.644,-1.01 -2.915,-1.526 -1.36,-0.457 -2.61,-1.021 -4.44,-1.556 -0.007,-0.002 -0.014,-0.004 -0.02,-0.006 z"
           style="fill:#1e5541;fill-opacity:1;fill-rule:nonzero;stroke:none"
           id="path9414"
           inkscape:connector-curvature="0" /><path
           d="m 524.615,476.095 c -1.412,-7.366 -6.556,-14.464 -14.356,-20.939 l 2.81,-6.19 c 7.888,9.004 12.235,19.13 11.546,27.129"
           style="fill:#1e5541;fill-opacity:1;fill-rule:nonzero;stroke:none"
           id="path9416"
           inkscape:connector-curvature="0" /><path
           d="m 170.623,452.778 26.452,13.335 c -13.103,7.092 -25.292,15.402 -35.569,24.177 l 2.922,-12.021 c 0.055,-0.027 0.111,-0.056 0.167,-0.082 -0.009,-0.162 -0.017,-0.332 -0.024,-0.511 z"
           style="fill:#a31b21;fill-opacity:1;fill-rule:nonzero;stroke:none"
           id="path9418"
           inkscape:connector-curvature="0" /><path
           d="m 132.917,526.165 -3.953,0.313 c 0.67,-5.664 2.509,-11.822 5.456,-17.889 l 5.555,4.73 c -3.035,4.352 -5.424,8.663 -7.058,12.846"
           style="fill:#87181c;fill-opacity:1;fill-rule:nonzero;stroke:none"
           id="path9420"
           inkscape:connector-curvature="0" /><path
           d="m 123.467,499.263 c -0.611,0.433 -1.196,0.855 -1.768,1.258 -1.555,1.099 -2.555,2.038 -3.698,2.908 -1.037,0.901 -1.73,1.857 -2.266,2.388 -0.532,0.558 -0.815,0.858 -0.816,0.86 h -10e-4 c 0,0 0.048,-0.407 0.135,-1.17 0.174,-0.744 0.108,-1.893 0.62,-3.239 0.529,-1.284 1.132,-3.299 2.195,-4.971 0.341,-0.593 0.699,-1.228 1.082,-1.88 z"
           style="fill:#87181c;fill-opacity:1;fill-rule:nonzero;stroke:none"
           id="path9422"
           inkscape:connector-curvature="0" /><path
           d="m 147.986,468.094 c 5.857,-3.756 11.993,-7.008 17.871,-9.626 0.088,-0.698 0.18,-1.411 0.277,-2.134 -3.681,1.629 -7.491,3.25 -11.316,4.877 -5.483,2.233 -10.977,4.457 -16.197,6.4 -5.22,1.957 -10.132,3.695 -14.383,5.142 -0.797,0.298 -1.592,0.564 -2.363,0.814 l 48.748,-20.789 -6.052,24.898 c -0.045,-1.207 -0.037,-2.794 0.035,-4.711 -3.128,2.059 -6.341,4.124 -9.544,6.207 -5.183,3.237 -10.289,6.518 -15.163,9.487 -2.337,1.569 -4.796,2.923 -6.927,4.367 -2.205,1.391 -4.303,2.697 -6.158,3.981 -1.226,0.766 -2.322,1.528 -3.347,2.256 l -4.517,-3.846 c 0.742,-1.264 1.579,-2.597 2.587,-3.858 5.881,-8.055 15.694,-16.639 26.449,-23.465"
           style="fill:#991a1f;fill-opacity:1;fill-rule:nonzero;stroke:none"
           id="path9424"
           inkscape:connector-curvature="0" /><path
           d="m 139.975,513.319 -5.555,-4.73 c 5.826,-11.99 15.98,-23.613 30.008,-30.32 l -2.922,12.021 c -8.779,7.495 -16.163,15.328 -21.531,23.029"
           style="fill:#991a1f;fill-opacity:1;fill-rule:nonzero;stroke:none"
           id="path9426"
           inkscape:connector-curvature="0" /><path
           d="m 336.977,434.493 c -0.664,1.61 -1.065,3.464 -1.438,5.338 -0.287,1.521 -0.531,3.138 -0.835,4.777 -0.005,0.52 -0.022,1.043 -0.058,1.567 2.365,-1.418 4.604,-3.282 5.824,-5.154 0,7.692 -6.292,11.021 -7.704,13.11 -0.092,0.221 -0.188,0.442 -0.287,0.663 0,0.008 -0.004,0.015 -0.006,0.024 -0.136,2.053 4.208,0.583 4.891,0.036 -4.805,7.812 -16.989,9.696 -19.01,9.959 -1.948,0.62 -4.36,0.825 -7.288,0.589 -0.735,-0.059 -1.468,-0.166 -2.197,-0.313 l 28.396,-31.323 c -0.101,0.238 -0.199,0.479 -0.288,0.727"
           style="fill:#2c7f76;fill-opacity:1;fill-rule:nonzero;stroke:none"
           id="path9428"
           inkscape:connector-curvature="0" /><path
           d="m 170.623,452.778 -48.748,20.789 c -1.236,0.401 -2.413,0.766 -3.442,1.165 -1.733,0.652 -3.257,1.101 -4.381,1.574 -0.624,0.24 -1.183,0.454 -1.667,0.642 -0.47,0.269 -0.869,0.5 -1.197,0.686 -0.662,0.361 -1.017,0.553 -1.017,0.553 0,0 0.156,-0.362 0.449,-1.043 0.29,-0.683 0.714,-1.648 1.679,-2.759 1.83,-2.462 4.565,-5.153 8.205,-8.234 3.635,-2.986 8.1,-6.112 13.094,-9.025 4.993,-2.914 10.486,-5.692 16.162,-8.046 2.833,-1.183 5.718,-2.265 8.582,-3.246 1.549,-0.558 3.115,-1.041 4.67,-1.492 z"
           style="fill:#a41c21;fill-opacity:1;fill-rule:nonzero;stroke:none"
           id="path9430"
           inkscape:connector-curvature="0" /><path
           d="m 145.768,425.232 -0.094,-0.021 c -2.925,-0.612 -5.674,-1.418 -7.974,-2.061 -2.371,-0.747 -4.245,-1.265 -5.709,-1.542 -0.79,-0.183 -1.242,-0.126 -1.727,-0.128 -0.481,0.017 -0.734,0.028 -0.734,0.028 h -0.001 l 0.001,-10e-4 c 0.001,-0.001 0.063,-0.213 0.269,-0.626 0.215,-0.335 0.571,-1.227 1.238,-1.712 0.63,-0.564 1.543,-1.428 2.569,-1.913 1.011,-0.604 2.2,-1.219 3.464,-1.663 z"
           style="fill:#a41c21;fill-opacity:1;fill-rule:nonzero;stroke:none"
           id="path9432"
           inkscape:connector-curvature="0" /><path
           d="m 162.316,443.571 c -2.076,0.382 -4.176,0.742 -6.281,1.073 -10.311,1.619 -20.703,2.575 -28.56,3.024 -3.928,0.225 -7.226,0.396 -9.445,0.732 -1.061,0.18 -2.04,0.399 -2.416,0.595 -0.558,0.275 -0.659,0.755 -0.695,0.703 0,-10e-4 -10e-4,0 -10e-4,0 0.07,-0.006 -0.205,-0.338 0.018,-1.024 0.306,-0.863 0.918,-1.652 1.876,-2.573 1.883,-1.849 4.895,-3.82 8.62,-5.737 6.979,-3.574 16.548,-6.597 26.453,-8.354 z"
           style="fill:#a41c21;fill-opacity:1;fill-rule:nonzero;stroke:none"
           id="path9434"
           inkscape:connector-curvature="0" /><path
           d="m 170.623,452.778 17.447,-27.417 24.553,33.117 c -5.281,2.334 -10.482,4.894 -15.548,7.635 z"
           style="fill:#b02922;fill-opacity:1;fill-rule:nonzero;stroke:none"
           id="path9436"
           inkscape:connector-curvature="0" /><path
           d="m 188.07,425.361 57.077,-4.237 -5.664,24.74 c -2.819,2.576 -6.659,4.867 -12.061,6.756 -4.97,1.736 -9.918,3.702 -14.799,5.858 z"
           style="fill:#b85d1e;fill-opacity:1;fill-rule:nonzero;stroke:none"
           id="path9438"
           inkscape:connector-curvature="0" /><path
           d="m 249.051,425.856 c -2.089,7.205 -3.323,14.304 -9.568,20.008 l 5.664,-24.74 z"
           style="fill:#85914b;fill-opacity:1;fill-rule:nonzero;stroke:none"
           id="path9440"
           inkscape:connector-curvature="0" /><path
           d="m 462.737,386.479 4.13,6.429 c -1.054,0.174 -2.106,0.34 -3.157,0.5 z"
           style="fill:#246c5a;fill-opacity:1;fill-rule:nonzero;stroke:none"
           id="path9442"
           inkscape:connector-curvature="0" /><path
           d="m 465.887,408.921 c 4.039,0.41 8.233,1.023 12.456,1.85 l 10.151,15.805 c -2.381,-0.567 -4.789,-1.14 -7.208,-1.702 -3.707,-0.938 -7.415,-1.854 -11.042,-2.79 0.792,2.057 1.36,3.731 1.7,4.94 7.528,0.858 14.564,3.124 20.892,6.309 l 10.887,16.949 C 494.401,444 482.58,438.467 469.414,434.064 Z"
           style="fill:#246c5a;fill-opacity:1;fill-rule:nonzero;stroke:none"
           id="path9444"
           inkscape:connector-curvature="0" /><path
           d="m 463.854,394.429 c 1.173,-0.04 2.356,-0.061 3.544,-0.042 0.141,0 0.282,0.003 0.422,0.004 l 8.64,13.449 c -0.251,-0.013 -0.501,-0.028 -0.752,-0.043 -3.394,-0.247 -6.771,-0.496 -10.088,-0.771 z"
           style="fill:#246c5a;fill-opacity:1;fill-rule:nonzero;stroke:none"
           id="path9446"
           inkscape:connector-curvature="0" /><path
           d="m 458.426,394.706 c 0.022,-0.002 0.044,-0.004 0.066,-0.006 1.752,-0.095 3.545,-0.207 5.362,-0.271 l 1.766,12.597 c -0.735,-0.061 -1.471,-0.121 -2.198,-0.186 0.324,0.653 0.642,1.298 0.949,1.931 0.501,0.045 1.009,0.1 1.516,0.15 l 3.527,25.143 c -8.796,-2.942 -18.191,-5.38 -27.845,-7.2 z"
           style="fill:#287c61;fill-opacity:1;fill-rule:nonzero;stroke:none"
           id="path9448"
           inkscape:connector-curvature="0" /><path
           d="m 462.737,386.479 0.973,6.929 c -1.672,0.254 -3.331,0.488 -4.975,0.706 z"
           style="fill:#287c61;fill-opacity:1;fill-rule:nonzero;stroke:none"
           id="path9450"
           inkscape:connector-curvature="0" /><path
           d="m 393.447,401.682 69.29,-15.203 -4.002,7.635 c -0.659,0.087 -1.321,0.177 -1.973,0.258 0.087,0.151 0.173,0.304 0.259,0.456 0.467,-0.042 0.932,-0.084 1.405,-0.122 l -16.857,32.158 c -12.267,-2.314 -24.95,-3.63 -37.34,-3.717 -2.279,-0.016 -4.343,-0.173 -6.224,-0.451 z"
           style="fill:#2d886e;fill-opacity:1;fill-rule:nonzero;stroke:none"
           id="path9452"
           inkscape:connector-curvature="0" /><path
           d="m 393.447,401.682 4.558,21.014 c -4.584,-0.68 -8.078,-2.086 -10.911,-3.957 z"
           style="fill:#2c8571;fill-opacity:1;fill-rule:nonzero;stroke:none"
           id="path9454"
           inkscape:connector-curvature="0" /><path
           d="m 334.527,423.722 c -0.508,2.282 -1.065,6.812 -0.891,8.344 1.403,-1.454 2.935,-2.555 4.243,-3.397 1.43,-0.776 2.581,-1.362 3.463,-1.633 0.056,-0.022 0.108,-0.04 0.162,-0.06 l 0.473,0.22 c -0.103,0.097 -0.212,0.202 -0.335,0.318 -0.672,0.567 -1.484,1.547 -2.385,2.68 -0.698,1.038 -1.42,2.222 -1.992,3.572 l -28.396,31.323 c -5.062,-1.02 -9.859,-4.066 -13.093,-7.891 l 0.671,-12.448 c 1.507,-0.851 2.916,-1.911 4.028,-3.224 3.754,2.461 5.451,1.24 6.012,-1.606 l -0.099,-0.025 c 0,0 0.065,-0.192 0.183,-0.541 0.905,-6.536 -3.175,-19.975 -3.175,-19.975 -1.288,-3.603 -2.998,-6.864 -5.062,-9.649 l 0.151,-2.813 z"
           style="fill:#3c9579;fill-opacity:1;fill-rule:nonzero;stroke:none"
           id="path9456"
           inkscape:connector-curvature="0" /><path
           d="m 251.271,419.493 c -0.914,2.108 -1.604,4.24 -2.22,6.363 l -3.904,-4.732 z"
           style="fill:#71a95e;fill-opacity:1;fill-rule:nonzero;stroke:none"
           id="path9458"
           inkscape:connector-curvature="0" /><path
           d="m 293.439,453.798 c -5.386,-0.729 -7.895,-5.7 -7.895,-5.7 0,0 5.974,-0.562 10.903,-3.348 l -0.671,12.448 c -0.913,-1.08 -1.703,-2.223 -2.337,-3.4"
           style="fill:#71a95e;fill-opacity:1;fill-rule:nonzero;stroke:none"
           id="path9460"
           inkscape:connector-curvature="0" /><path
           d="m 298.334,409.73 c -0.593,-0.8 -1.215,-1.559 -1.864,-2.276 l 2.015,-0.537 z"
           style="fill:#71a95e;fill-opacity:1;fill-rule:nonzero;stroke:none"
           id="path9462"
           inkscape:connector-curvature="0" /><path
           d="m 393.447,401.682 -6.353,17.057 c -3.76,-2.483 -6.36,-5.783 -8.806,-9.29 z"
           style="fill:#2f8c79;fill-opacity:1;fill-rule:nonzero;stroke:none"
           id="path9464"
           inkscape:connector-curvature="0" /><path
           d="m 513.069,448.966 -2.81,6.19 c -2.01,-1.668 -4.194,-3.295 -6.536,-4.874 l -10.887,-16.949 c 8.04,4.049 14.936,9.586 20.233,15.633"
           style="fill:#22625b;fill-opacity:1;fill-rule:nonzero;stroke:none"
           id="path9466"
           inkscape:connector-curvature="0" /><path
           d="m 462.737,386.479 36.095,-0.792 c -0.528,0.147 -1.07,0.299 -1.627,0.454 -7.582,2.114 -17.726,4.572 -28.004,6.374 -0.777,0.136 -1.555,0.265 -2.334,0.393 z"
           style="fill:#22625b;fill-opacity:1;fill-rule:nonzero;stroke:none"
           id="path9468"
           inkscape:connector-curvature="0" /><path
           d="m 478.343,410.771 c 2.019,0.396 4.044,0.834 6.059,1.329 12.384,2.983 24.446,7.932 32.612,13.651 1.858,1.183 3.457,2.592 4.86,3.832 l -2.133,4.697 c -1.796,-0.526 -3.72,-1.143 -5.96,-1.666 -2.169,-0.615 -4.574,-1.173 -7.109,-1.773 -2.486,-0.679 -5.247,-1.166 -7.969,-1.896 -3.308,-0.733 -6.73,-1.542 -10.209,-2.369 z"
           style="fill:#22625b;fill-opacity:1;fill-rule:nonzero;stroke:none"
           id="path9470"
           inkscape:connector-curvature="0" /><path
           d="m 467.82,394.391 c 2.896,0.008 5.829,0.097 8.753,0.289 6.13,0.392 12.226,1.251 17.892,2.39 5.667,1.142 10.901,2.656 15.311,4.306 4.44,1.738 7.897,3.401 10.427,5.136 1.272,0.74 1.983,1.515 2.481,2.07 0.496,0.546 0.759,0.84 0.759,0.84 h -10e-4 c -0.002,-0.001 -0.398,-0.065 -1.142,-0.192 -0.366,-0.07 -0.821,-0.16 -1.352,-0.264 -0.518,-0.018 -1.118,-0.04 -1.784,-0.065 -1.217,-0.087 -2.805,-0.017 -4.652,-0.074 -1.795,-0.075 -3.923,0.066 -6.137,0.006 -4.489,10e-4 -9.698,-0.055 -15.271,-0.218 -5.333,-0.142 -10.984,-0.448 -16.644,-0.775 z"
           style="fill:#22625b;fill-opacity:1;fill-rule:nonzero;stroke:none"
           id="path9472"
           inkscape:connector-curvature="0" /><path
           d="m 188.07,425.361 -17.447,27.417 -7.611,-8.436 c 1.301,-0.379 2.595,-0.735 3.863,-1.093 0.48,-0.124 0.955,-0.239 1.43,-0.355 0.033,-0.171 0.066,-0.343 0.098,-0.515 -1.991,0.413 -4.027,0.814 -6.087,1.192 L 151.885,432.01 c 0.696,-0.123 1.393,-0.241 2.093,-0.351 5.774,-0.917 11.612,-1.39 17.06,-1.45 0.269,-1.102 0.545,-2.214 0.832,-3.333 -4.948,0.606 -10.986,0.595 -16.86,-0.084 -3.188,-0.391 -6.322,-0.905 -9.242,-1.56 l -8.698,-9.639 c 0.044,-0.015 0.087,-0.032 0.13,-0.047 5.367,-2.033 12.516,-2.624 19.32,-1.81 1.285,0.15 2.557,0.351 3.81,0.592 z"
           style="fill:#b51d23;fill-opacity:1;fill-rule:nonzero;stroke:none"
           id="path9474"
           inkscape:connector-curvature="0" /><path
           d="m 462.737,386.479 4.542,-6.971 c 10.508,-1.798 21.276,-2.132 29.497,-0.943 4.145,0.614 7.63,1.506 10.01,2.643 1.205,0.562 2.039,1.113 2.61,1.828 0.432,0.578 0.277,0.979 0.346,0.963 -0.014,0.068 -0.265,-0.361 -0.885,-0.439 -0.42,-0.064 -1.418,0.046 -2.48,0.218 -1.885,0.343 -4.473,1.052 -7.545,1.909 z"
           style="fill:#236064;fill-opacity:1;fill-rule:nonzero;stroke:none"
           id="path9476"
           inkscape:connector-curvature="0" /><path
           d="m 480.542,359.151 c 0.353,0.058 0.694,0.124 1.022,0.193 1.128,0.129 2.272,0.651 3.051,0.982 0.787,0.242 1.413,0.968 1.727,1.219 0.328,0.324 0.457,0.505 0.457,0.505 0,0 -0.244,0.075 -0.705,0.211 -0.459,0.16 -0.905,0.249 -1.593,0.678 -1.294,0.738 -2.904,1.835 -4.9,3.31 -1.864,1.277 -4.06,2.824 -6.469,4.276 z"
           style="fill:#236064;fill-opacity:1;fill-rule:nonzero;stroke:none"
           id="path9478"
           inkscape:connector-curvature="0" /><path
           d="m 393.447,401.682 24.177,-31.653 31.23,11.388 c 0.501,0.765 0.996,1.531 1.481,2.293 0.847,-0.279 1.711,-0.548 2.582,-0.812 l 9.82,3.581 z"
           style="fill:#309074;fill-opacity:1;fill-rule:nonzero;stroke:none"
           id="path9480"
           inkscape:connector-curvature="0" /><path
           d="m 188.07,425.361 -27.74,-11.033 c 5.168,0.992 9.982,2.691 13.721,4.629 0.338,-1.151 0.688,-2.305 1.05,-3.462 -2.028,-0.575 -4.082,-1.192 -6.121,-1.862 -7.576,-2.508 -14.97,-5.757 -20.401,-8.758 -2.71,-1.492 -4.968,-2.89 -6.547,-3.839 -0.803,-0.427 -1.455,-0.928 -1.861,-1.061 -0.505,-0.211 -0.776,-0.323 -0.778,-0.324 h -0.001 c 0,0 0.184,-0.155 0.686,-0.425 0.55,-0.302 1.293,-0.557 2.268,-0.786 1.972,-0.518 4.723,-0.872 7.984,-0.984 6.513,-0.202 14.852,1.056 22.793,3.704 2.076,0.703 4.122,1.487 6.108,2.346 0.197,-0.514 0.396,-1.031 0.596,-1.547 -2.144,-0.972 -4.282,-2.18 -6.239,-3.56 -1.786,-1.278 -3.45,-2.667 -4.907,-4.063 -1.464,-1.416 -2.714,-2.813 -3.795,-4.105 -0.552,-0.668 -1.058,-1.279 -1.507,-1.822 -0.514,-0.54 -0.963,-1.011 -1.332,-1.402 -0.784,-0.665 -1.562,-1.167 -1.562,-1.167 0,0 0.39,-0.636 1.648,-1.445 1.191,-0.672 3.19,-1.27 5.402,-1.311 4.463,-0.121 9.614,1.694 13.637,4.578 1.274,0.905 2.44,1.92 3.511,2.984 0.232,-0.492 0.466,-0.984 0.706,-1.475 -2.024,-1.928 -4.101,-3.976 -6.102,-6.025 -3.926,-4.024 -7.852,-8.051 -10.81,-11.081 l 9.251,-5.432 c 0.862,0.334 1.726,0.72 2.579,1.166 1.373,0.69 2.743,1.487 4.015,2.442 z"
           style="fill:#c31e25;fill-opacity:1;fill-rule:nonzero;stroke:none"
           id="path9482"
           inkscape:connector-curvature="0" /><path
           d="m 183.885,363.802 c -0.152,-0.17 -0.299,-0.345 -0.446,-0.521 l 0.394,-0.232 z"
           style="fill:#c31e25;fill-opacity:1;fill-rule:nonzero;stroke:none"
           id="path9484"
           inkscape:connector-curvature="0" /><path
           d="m 229.943,369.53 15.204,51.594 -57.077,4.237 z"
           style="fill:#ca5f1d;fill-opacity:1;fill-rule:nonzero;stroke:none"
           id="path9486"
           inkscape:connector-curvature="0" /><path
           d="m 229.943,369.53 -41.873,55.831 -3.748,-55.12 c 0.116,0.087 0.232,0.173 0.345,0.262 1.463,0.974 2.675,2.239 3.981,3.418 1.04,1.18 2.134,2.318 3.035,3.577 0.671,-1.117 1.355,-2.222 2.056,-3.315 -1.258,-1.158 -2.497,-2.358 -3.687,-3.584 -1.02,-1.097 -2.085,-2.115 -3.025,-3.256 -1.009,-0.999 -1.913,-2.139 -2.804,-3.172 -0.115,-0.12 -0.227,-0.244 -0.338,-0.369 l -0.052,-0.753 z"
           style="fill:#d03322;fill-opacity:1;fill-rule:nonzero;stroke:none"
           id="path9488"
           inkscape:connector-curvature="0" /><path
           d="m 298.485,406.917 27.417,-48.105 8.546,34.686 c -0.594,0.819 -1.192,1.746 -1.84,2.79 0.111,-0.053 0.224,-0.107 0.333,-0.159 0.641,-0.336 1.312,-0.546 1.982,-0.706 l 0.612,2.488 c -0.392,0.217 -0.776,0.464 -1.139,0.767 -1.174,0.891 -2.375,1.799 -3.404,3.004 -0.101,1.974 -0.029,4.44 0.16,7.224 1.356,-1.123 2.7,-2.101 3.804,-3.003 0.702,-0.62 1.536,-1.014 2.199,-1.418 l 0.355,1.438 c -0.375,0.415 -0.772,0.861 -1.108,1.441 -1.013,1.611 -2.288,3.332 -3.414,5.381 -0.412,0.798 -0.991,5.265 -0.825,6.738 1.761,-1.391 3.412,-2.692 4.836,-3.816 0.95,-0.565 1.803,-1.06 2.545,-1.486 l 0.326,1.323 c -0.45,0.505 -0.937,1.056 -1.455,1.65 -1.031,1.569 -2.238,3.399 -3.528,5.36 -0.109,0.208 -0.233,0.64 -0.36,1.208 z"
           style="fill:#54b97b;fill-opacity:1;fill-rule:nonzero;stroke:none"
           id="path9490"
           inkscape:connector-curvature="0" /><path
           d="m 342.597,426.571 0.007,0.03 c -0.095,0.091 -0.311,0.295 -0.627,0.595 l -0.473,-0.22 c 0.572,-0.213 0.952,-0.353 1.093,-0.405"
           style="fill:#54b97b;fill-opacity:1;fill-rule:nonzero;stroke:none"
           id="path9492"
           inkscape:connector-curvature="0" /><path
           d="m 338.006,394.761 c 1.596,-0.218 4.678,0.175 7.634,1.014 1.764,0.357 2.776,1.519 2.776,1.519 0,0 -6.402,-1.73 -9.911,-0.804 -0.927,0.519 -1.978,0.871 -2.97,1.421 l -0.612,-2.488 c 1.074,-0.255 2.145,-0.376 3.083,-0.662"
           style="fill:#3da97d;fill-opacity:1;fill-rule:nonzero;stroke:none"
           id="path9494"
           inkscape:connector-curvature="0" /><path
           d="m 342.662,412.439 c 0,0 -1.127,1.196 -2.792,3.065 l -0.326,-1.323 c 1.952,-1.119 3.118,-1.742 3.118,-1.742"
           style="fill:#3da97d;fill-opacity:1;fill-rule:nonzero;stroke:none"
           id="path9496"
           inkscape:connector-curvature="0" /><path
           d="m 337.198,404.459 c 0.681,-0.395 1.278,-0.736 1.765,-1.019 0.961,-0.549 1.507,-0.864 1.507,-0.864 0,0 -0.425,0.479 -1.171,1.319 -0.365,0.414 -0.809,0.913 -1.313,1.487 -0.149,0.18 -0.311,0.359 -0.476,0.541 l -0.355,-1.438 c 0.014,-0.009 0.029,-0.017 0.043,-0.026"
           style="fill:#3da97d;fill-opacity:1;fill-rule:nonzero;stroke:none"
           id="path9498"
           inkscape:connector-curvature="0" /><path
           d="m 393.447,401.682 -15.159,7.767 c -5.98,-8.575 -11.048,-18.383 -29.934,-20.476 -8.11,-0.899 -10.946,0.442 -13.906,4.525 l -8.546,-34.686 z"
           style="fill:#3da97d;fill-opacity:1;fill-rule:nonzero;stroke:none"
           id="path9500"
           inkscape:connector-curvature="0" /><path
           d="m 342.662,426.546 c 0,0 -0.021,0.021 -0.058,0.055 l -0.007,-0.03 c 0.04,-0.015 0.065,-0.025 0.065,-0.025"
           style="fill:#3da97d;fill-opacity:1;fill-rule:nonzero;stroke:none"
           id="path9502"
           inkscape:connector-curvature="0" /><path
           d="m 229.943,369.53 58.994,32.178 c -5.683,-2.733 -12.428,-2.915 -19.693,0.503 -10.577,4.978 -15.262,11.025 -17.973,17.282 l -6.124,1.631 z"
           style="fill:#c7be41;fill-opacity:1;fill-rule:nonzero;stroke:none"
           id="path9504"
           inkscape:connector-curvature="0" /><path
           d="m 296.47,407.454 c -1.689,-1.868 -3.564,-3.45 -5.597,-4.69 l 7.612,4.153 z"
           style="fill:#c7be41;fill-opacity:1;fill-rule:nonzero;stroke:none"
           id="path9506"
           inkscape:connector-curvature="0" /><path
           d="m 229.943,369.53 59.819,-19.691 8.723,57.078 -7.612,-4.153 c -0.631,-0.385 -1.276,-0.738 -1.936,-1.056 z"
           style="fill:#cfd958;fill-opacity:1;fill-rule:nonzero;stroke:none"
           id="path9508"
           inkscape:connector-curvature="0" /><path
           d="m 325.902,358.812 -27.417,48.105 -8.723,-57.078 z"
           style="fill:#91d46e;fill-opacity:1;fill-rule:nonzero;stroke:none"
           id="path9510"
           inkscape:connector-curvature="0" /><path
           d="m 183.439,363.281 c -0.119,-0.143 -0.236,-0.286 -0.353,-0.43 l 0.747,0.198 z"
           style="fill:#c61e25;fill-opacity:1;fill-rule:nonzero;stroke:none"
           id="path9512"
           inkscape:connector-curvature="0" /><path
           d="m 168.477,372.065 c -0.022,-0.022 -0.043,-0.045 -0.065,-0.066 -1.606,-1.581 -3.031,-3.125 -4.131,-4.129 -1.086,-1.05 -1.74,-1.819 -1.74,-1.819 0,0 0.862,-0.364 2.436,-0.704 0.778,-0.151 1.784,-0.422 2.856,-0.382 1.087,-0.015 2.387,-0.093 3.725,0.091 1.908,0.248 4.033,0.75 6.17,1.577 z"
           style="fill:#c61e25;fill-opacity:1;fill-rule:nonzero;stroke:none"
           id="path9514"
           inkscape:connector-curvature="0" /><path
           d="m 417.624,370.029 -24.177,31.653 -67.545,-42.87 z"
           style="fill:#36a47d;fill-opacity:1;fill-rule:nonzero;stroke:none"
           id="path9516"
           inkscape:connector-curvature="0" /><path
           d="m 452.917,382.898 c 4.457,-1.352 9.212,-2.499 14.032,-3.334 0.111,-0.02 0.22,-0.037 0.33,-0.056 l -4.542,6.971 z"
           style="fill:#2b826d;fill-opacity:1;fill-rule:nonzero;stroke:none"
           id="path9518"
           inkscape:connector-curvature="0" /><path
           d="m 417.624,370.029 37.249,-9.208 c -2.498,2.217 -5.185,4.436 -7.951,6.534 -1.712,1.295 -3.457,2.544 -5.19,3.743 0.715,0.979 1.419,1.956 2.111,2.935 3.618,-3.782 8.923,-7.751 14.901,-10.61 6.177,-2.969 13.133,-4.724 18.869,-4.537 1.006,-0.001 2.003,0.109 2.929,0.265 l -7.41,11.374 c -0.138,0.082 -0.273,0.166 -0.411,0.248 -2.577,1.583 -5.404,3.1 -8.322,4.519 -5.342,2.541 -11.051,4.503 -15.931,5.531 0.13,0.198 0.258,0.395 0.386,0.594 z"
           style="fill:#2b826d;fill-opacity:1;fill-rule:nonzero;stroke:none"
           id="path9520"
           inkscape:connector-curvature="0" /><path
           d="m 417.624,370.029 -91.722,-11.217 3.616,-44.287 c 0.794,1.216 1.511,2.498 2.123,3.814 0.544,1.162 1.013,2.345 1.417,3.529 0.299,-0.104 0.601,-0.207 0.9,-0.308 -1.27,-2.356 -2.407,-4.957 -3.295,-7.663 -0.309,-1 -0.595,-2.009 -0.848,-3.02 l 1.548,-18.963 c 0.437,-0.504 0.922,-0.801 1.166,-1.01 0.286,-0.207 0.438,-0.318 0.438,-0.318 0,0 -0.085,0.893 -0.057,2.006 0.112,0.578 0.247,1.279 0.399,2.088 0.289,0.824 0.455,1.634 0.792,2.601 0.681,1.879 1.476,4.074 2.326,6.427 0.827,2.355 1.753,4.903 2.57,7.484 0.899,2.781 1.726,5.603 2.414,8.277 1.616,-0.369 3.221,-0.679 4.814,-0.939 -1.68,-4.108 -3.129,-8.897 -3.915,-13.905 -0.212,-1.878 -0.567,-3.716 -0.592,-5.606 -0.066,-1.308 -0.114,-2.595 -0.08,-3.873 l 9.522,9.385 c 0.461,3.033 0.919,6.045 1.354,8.891 0.215,1.484 0.404,2.924 0.573,4.321 1.169,-0.079 2.33,-0.126 3.485,-0.146 -0.606,-2.782 -0.998,-5.757 -1.084,-8.802 l 8.883,8.754 c 0.006,0.113 0.011,0.225 0.017,0.338 0.122,0.012 0.243,0.026 0.364,0.038 z"
           style="fill:#70cb7b;fill-opacity:1;fill-rule:nonzero;stroke:none"
           id="path9522"
           inkscape:connector-curvature="0" /><path
           d="m 183.833,363.049 -0.747,-0.198 c -0.476,-0.587 -0.935,-1.172 -1.392,-1.668 -0.798,-0.877 -1.543,-1.977 -2.255,-2.676 -0.714,-0.754 -1.377,-1.728 -2.013,-2.249 -0.648,-0.514 -1.275,-1.366 -1.826,-1.652 -1.3,-0.847 -2.046,-1.335 -2.053,-1.34 h -0.001 c 0,0 0.659,-0.567 2.322,-1.26 0.861,-0.399 1.812,-0.448 3.049,-0.55 0.883,-0.111 1.736,-0.054 2.651,0.064 z"
           style="fill:#d61e25;fill-opacity:1;fill-rule:nonzero;stroke:none"
           id="path9524"
           inkscape:connector-curvature="0" /><path
           d="m 229.943,369.53 4.692,-46.031 c 0.411,0.914 0.791,1.842 1.122,2.781 1.375,3.67 2.203,7.451 2.62,11.053 1.102,-0.355 2.218,-0.687 3.353,-0.993 -0.292,-1.375 -0.58,-2.801 -0.856,-4.276 -0.581,-3.231 -1.202,-6.673 -1.822,-10.118 -0.329,-1.688 -0.553,-3.428 -0.901,-5.064 -0.346,-1.641 -0.562,-3.31 -0.938,-4.839 -0.3,-1.529 -0.592,-2.998 -0.968,-4.346 l 0.912,-8.953 c 0.309,0.25 0.625,0.506 0.955,0.775 0.496,0.47 0.902,1.032 1.394,1.597 0.478,0.584 0.976,1.187 1.495,1.812 0.458,0.652 0.846,1.362 1.293,2.081 0.906,1.449 1.671,3.033 2.338,4.706 0.749,1.67 1.284,3.427 1.799,5.231 0.588,1.798 0.848,3.649 1.255,5.498 0.876,4.992 1.05,9.993 0.792,14.425 1.59,-0.272 3.21,-0.496 4.858,-0.668 -0.213,-2.754 -0.343,-5.693 -0.395,-8.616 -0.062,-2.708 -0.007,-5.416 0.012,-7.916 0.047,-2.499 0.088,-4.831 0.123,-6.829 0.009,-0.954 -0.082,-1.736 -0.091,-2.55 l 7.746,8.751 c 0.621,2.69 0.89,5.553 0.972,8.409 0.035,2.849 -0.201,5.677 -0.64,8.317 0.317,-0.002 0.635,-10e-4 0.953,0 -0.001,-1.249 0.061,-2.52 0.201,-3.795 0.271,-2.573 0.883,-5.159 1.785,-7.508 0.135,-0.404 0.299,-0.8 0.477,-1.189 l 6.643,7.505 c -0.065,0.717 -0.131,1.438 -0.197,2.16 -0.124,1.08 -0.263,2.167 -0.414,3.249 1.407,0.133 2.829,0.298 4.271,0.5 0.055,-0.521 0.112,-1.05 0.169,-1.583 l 14.811,16.733 z"
           style="fill:#e59813;fill-opacity:1;fill-rule:nonzero;stroke:none"
           id="path9526"
           inkscape:connector-curvature="0" /><path
           d="m 186.099,335.231 0.001,0.001 z"
           style="fill:#de2524;fill-opacity:1;fill-rule:nonzero;stroke:none"
           id="path9528"
           inkscape:connector-curvature="0" /><path
           d="m 229.943,369.53 -46.11,-6.481 -2.265,-11.529 c 0.426,0.055 0.864,0.121 1.327,0.193 1.512,0.202 2.813,0.739 4.354,1.272 1.522,0.558 2.869,1.338 4.358,2.159 2.831,1.705 5.508,3.887 7.867,6.292 0.668,0.703 1.305,1.426 1.925,2.158 1.024,-1.252 2.079,-2.477 3.156,-3.675 -0.581,-0.673 -1.191,-1.361 -1.74,-2.083 -0.885,-1.049 -1.778,-2.151 -2.649,-3.253 -3.541,-4.406 -6.844,-9.086 -9.289,-12.887 -0.621,-0.928 -1.19,-1.786 -1.715,-2.634 -0.552,-0.685 -1.026,-1.425 -1.47,-2.035 -1.012,-1.141 -1.59,-1.794 -1.591,-1.795 H 186.1 v -0.001 c 0,0 0.795,-0.396 2.536,-0.644 1.629,-0.134 4.037,0.064 6.629,0.875 1.918,0.631 4.001,1.551 6.017,2.779 z"
           style="fill:#de2524;fill-opacity:1;fill-rule:nonzero;stroke:none"
           id="path9530"
           inkscape:connector-curvature="0" /><path
           d="m 236.245,307.697 c -0.011,-0.037 -0.019,-0.076 -0.03,-0.114 -0.303,-1.447 -0.661,-2.75 -1.066,-3.943 -0.348,-1.253 -0.754,-2.325 -1.191,-3.267 -0.42,-0.962 -0.735,-1.902 -1.197,-2.492 -0.809,-1.326 -1.322,-2.235 -1.322,-2.235 h 0.001 c 0.014,0.004 0.884,0.25 2.495,0.944 0.859,0.308 1.711,0.902 2.638,1.683 0.19,0.153 0.386,0.311 0.584,0.471 z"
           style="fill:#e83a20;fill-opacity:1;fill-rule:nonzero;stroke:none"
           id="path9532"
           inkscape:connector-curvature="0" /><path
           d="m 229.943,369.53 -28.661,-31.289 c 0.656,0.399 1.305,0.83 1.939,1.295 1.33,0.92 2.603,1.974 3.8,3.143 1.272,1.107 2.307,2.461 3.439,3.729 1.156,1.515 2.223,3.103 3.148,4.751 1.529,-1.28 3.099,-2.504 4.719,-3.665 -0.137,-0.418 -0.265,-0.839 -0.41,-1.254 -0.464,-1.63 -1.113,-3.15 -1.691,-4.676 -0.583,-1.525 -1.308,-2.905 -1.931,-4.317 -0.793,-1.238 -1.354,-2.698 -2.219,-3.723 -0.39,-0.584 -0.77,-1.147 -1.137,-1.695 -0.431,-0.484 -0.848,-0.954 -1.247,-1.405 -0.792,-0.987 -1.67,-1.684 -2.489,-2.342 -0.404,-0.343 -0.803,-0.64 -1.163,-0.979 -0.403,-0.232 -0.776,-0.446 -1.11,-0.638 -1.371,-0.802 -2.251,-1.368 -2.255,-1.37 0,0 0.911,-0.184 2.676,-0.322 0.448,-0.025 0.943,-0.052 1.486,-0.082 0.521,0.059 1.076,0.193 1.69,0.309 1.24,0.218 2.692,0.503 4.037,1.292 0.704,0.343 1.466,0.695 2.22,1.109 0.673,0.514 1.369,1.04 2.084,1.584 1.518,1.069 2.618,2.55 3.938,4.015 1.096,1.553 2.289,3.195 3.132,4.98 0.779,1.516 1.462,3.094 2.022,4.703 1.663,-0.912 3.369,-1.765 5.122,-2.551 -0.084,-0.287 -0.166,-0.567 -0.248,-0.857 -0.987,-3.246 -2.031,-6.677 -3.299,-9.966 -0.546,-1.69 -1.278,-3.264 -1.907,-4.865 -0.721,-1.534 -1.367,-3.101 -2.136,-4.488 -0.74,-1.428 -1.492,-2.765 -2.32,-3.939 -0.739,-1.301 -1.678,-2.202 -2.443,-3.286 -0.941,-0.744 -1.692,-1.823 -2.583,-2.356 -0.886,-0.517 -1.631,-1.323 -2.377,-1.576 -1.439,-0.682 -2.393,-1.177 -2.415,-1.189 l -0.004,-0.001 h 0.004 l -0.004,-0.002 c 0,0 0.921,-0.256 2.762,-0.518 0.935,-0.195 2.003,0.041 3.326,0.189 1.348,0.114 2.655,0.764 4.218,1.359 1.338,0.81 3.048,1.617 4.349,2.886 1.441,1.18 2.769,2.58 3.974,4.144 1.244,1.543 2.304,3.257 3.291,5.041 0.477,0.912 0.938,1.843 1.365,2.791 z"
           style="fill:#e83a20;fill-opacity:1;fill-rule:nonzero;stroke:none"
           id="path9534"
           inkscape:connector-curvature="0" /><path
           d="m 417.624,370.029 -2.255,-33.663 c 0.032,-0.077 0.065,-0.154 0.096,-0.23 0.86,-1.536 1.598,-3.124 2.666,-4.522 0.945,-1.454 2.077,-2.769 3.253,-3.968 2.304,-2.428 4.97,-4.229 7.389,-5.423 1.206,-0.608 2.461,-0.956 3.497,-1.291 1.002,-0.384 2.041,-0.451 2.829,-0.563 1.595,-0.186 2.531,-0.122 2.531,-0.122 l -10e-4,10e-4 c -0.002,0.005 -0.375,0.943 -1.059,2.283 -0.716,1.305 -1.566,3.23 -2.574,5.243 -1.822,3.835 -4.255,8.951 -6.684,14.066 -1.232,2.587 -2.537,5.195 -3.826,7.675 0.383,0.389 0.764,0.777 1.142,1.169 0.668,-1.355 1.445,-2.693 2.358,-3.963 2.053,-2.879 4.83,-5.425 7.805,-7.13 z"
           style="fill:#2f8d7c;fill-opacity:1;fill-rule:nonzero;stroke:none"
           id="path9536"
           inkscape:connector-curvature="0" /><path
           d="m 413.818,313.217 c 1.268,-0.665 2.346,-1.224 3.593,-1.486 1.204,-0.299 2.12,-0.564 3.063,-0.464 1.79,0.12 2.594,0.439 2.603,0.442 l 0.003,-10e-4 -0.003,10e-4 h 10e-4 c 0,0 -0.548,0.705 -1.508,1.933 -0.43,0.448 -0.749,1.455 -1.193,2.154 -0.437,0.695 -0.748,1.834 -1.18,2.778 -0.449,0.892 -0.795,2.175 -1.27,3.259 -0.479,1.096 -0.878,2.453 -1.428,3.649 -0.5,1.246 -0.979,2.595 -1.601,3.853 z"
           style="fill:#2f8d7c;fill-opacity:1;fill-rule:nonzero;stroke:none"
           id="path9538"
           inkscape:connector-curvature="0" /><path
           d="m 417.624,370.029 -52.872,-52.104 c 1.788,0.176 3.559,0.415 5.309,0.72 0.007,-1.704 0.145,-3.419 0.393,-5.106 0.22,-1.961 0.817,-3.902 1.35,-5.723 0.774,-1.813 1.34,-3.568 2.429,-5.073 0.5,-0.745 0.987,-1.471 1.457,-2.172 0.583,-0.636 1.19,-1.213 1.745,-1.768 1.018,-1.182 2.299,-1.92 3.401,-2.528 0.543,-0.308 1.025,-0.613 1.502,-0.839 0.52,-0.145 1,-0.28 1.433,-0.403 1.704,-0.437 2.623,-0.558 2.633,-0.56 h 10e-4 0.001 c 0,0 -0.651,0.818 -1.691,2.027 -0.252,0.289 -0.538,0.611 -0.846,0.963 -0.229,0.433 -0.512,0.846 -0.785,1.299 -0.561,0.89 -1.164,1.833 -1.594,3.022 -0.232,0.556 -0.474,1.135 -0.726,1.735 -0.169,0.636 -0.348,1.293 -0.53,1.97 -0.486,1.248 -0.544,2.813 -0.895,4.238 -0.135,1.537 -0.372,3.079 -0.43,4.712 -0.055,1.631 -0.175,3.279 -0.088,4.974 -0.003,0.436 0.011,0.877 0.019,1.315 1.907,0.576 3.789,1.227 5.646,1.942 0.344,-1.858 0.839,-3.705 1.445,-5.509 0.66,-1.568 1.201,-3.186 2.046,-4.644 0.756,-1.491 1.621,-2.902 2.583,-4.203 1.827,-2.627 4.073,-4.815 6.211,-6.428 2.189,-1.606 4.404,-2.57 5.992,-2.972 1.723,-0.328 2.603,-0.211 2.603,-0.211 l -10e-4,0.002 c -0.005,0.012 -0.338,0.814 -0.924,2.214 -0.221,0.719 -0.431,1.574 -0.731,2.398 -0.227,0.975 -0.486,1.968 -0.776,3.047 -1.083,4.386 -2.695,9.886 -4.619,15.202 -0.469,1.323 -0.958,2.653 -1.453,3.934 -0.288,0.861 -0.642,1.708 -0.975,2.533 1.408,0.784 2.801,1.602 4.174,2.457 0.35,-0.893 0.72,-1.784 1.127,-2.666 1.453,-3.036 3.28,-5.964 5.406,-8.496 1.146,-1.259 2.169,-2.431 3.428,-3.453 1.283,-1.004 2.344,-1.932 3.708,-2.612 0.031,-0.015 0.059,-0.03 0.088,-0.046 l 1.08,16.118 c -0.008,0.019 -0.016,0.038 -0.025,0.055 -0.519,1.384 -1.198,2.691 -1.805,4.059 -0.732,1.545 -1.517,3.081 -2.334,4.586 1.019,0.805 2.024,1.63 3.019,2.469 0.421,-1.406 1.042,-2.763 1.616,-4.138 z"
           style="fill:#5ac17c;fill-opacity:1;fill-rule:nonzero;stroke:none"
           id="path9540"
           inkscape:connector-curvature="0" /><path
           d="m 355.488,308.795 c -0.024,-0.831 -0.029,-1.665 -0.005,-2.504 0.023,-2.027 0.244,-4.078 0.552,-6.075 0.357,-2.007 0.806,-3.97 1.485,-5.833 0.636,-1.869 1.436,-3.625 2.42,-5.209 0.822,-1.621 2.177,-2.938 3.183,-4.137 1.283,-1.07 2.313,-2.105 3.553,-2.648 1.202,-0.569 2.135,-1.135 3.084,-1.256 1.827,-0.348 2.78,-0.401 2.78,-0.401 0,0 -0.749,0.784 -1.903,1.909 -0.625,0.48 -1.07,1.484 -1.738,2.259 -0.67,0.793 -1.036,2.057 -1.682,3.065 -0.374,1.275 -0.971,2.428 -1.25,3.898 -0.404,1.381 -0.681,2.887 -0.925,4.477 -0.275,1.564 -0.384,3.254 -0.569,4.938 -0.078,1.719 -0.258,3.445 -0.231,5.224 -0.133,3.522 -0.013,7.104 0.104,10.493 0.008,0.187 0.017,0.371 0.025,0.554 z"
           style="fill:#5ac17c;fill-opacity:1;fill-rule:nonzero;stroke:none"
           id="path9542"
           inkscape:connector-curvature="0" /><path
           d="m 341.638,295.146 c 0.014,-0.554 0.043,-1.109 0.093,-1.662 0.09,-1.798 0.301,-3.543 0.69,-5.209 0.191,-0.824 0.327,-1.621 0.551,-2.382 0.284,-0.762 0.564,-1.497 0.828,-2.2 0.085,-0.207 0.162,-0.412 0.237,-0.611 l 4.698,-0.949 c -0.045,0.779 -0.049,1.621 0.004,2.539 0.003,1.258 0.085,2.609 0.267,4.074 0.073,1.434 0.281,2.959 0.5,4.545 0.135,1.57 0.471,3.215 0.675,4.885 0.199,1.658 0.551,3.377 0.786,5.08 l 0.193,1.275 z"
           style="fill:#5ac17c;fill-opacity:1;fill-rule:nonzero;stroke:none"
           id="path9544"
           inkscape:connector-curvature="0" /><path
           d="m 417.624,370.029 17.167,-30.438 c 1.186,-0.679 2.4,-1.229 3.615,-1.607 2.104,-0.68 4.191,-0.759 5.533,-0.511 1.456,0.361 2.027,0.837 2.027,0.837 0,0 -0.571,0.726 -1.098,1.61 -0.223,0.487 -0.494,1.08 -0.806,1.759 -0.249,0.655 -0.531,1.398 -0.839,2.21 -0.603,1.57 -1.334,3.295 -2.259,5.111 -0.927,1.79 -2.053,3.645 -3.332,5.431 -1.405,1.94 -3.036,3.775 -4.751,5.388 0.357,0.422 0.712,0.846 1.063,1.27 1.602,-1.454 3.286,-2.859 5.024,-4.196 6.657,-5.075 14.141,-8.959 20.367,-10.875 3.125,-0.949 5.839,-1.504 7.87,-1.653 1.005,-0.096 1.786,-0.093 2.404,0.011 0.56,0.093 0.787,0.181 0.787,0.181 0,0 -0.218,0.193 -0.63,0.56 -0.348,0.257 -0.799,0.941 -1.42,1.604 -1.187,1.409 -2.872,3.461 -4.952,5.75 -2.357,2.598 -5.279,5.472 -8.521,8.35 z"
           style="fill:#2c8273;fill-opacity:1;fill-rule:nonzero;stroke:none"
           id="path9546"
           inkscape:connector-curvature="0" /><path
           d="m 274.951,333.106 c 0.571,-5.325 1.273,-11.286 2.101,-17.345 -0.006,-0.366 -0.019,-0.789 -0.038,-1.257 l 12.748,35.335 z"
           style="fill:#ecad1c;fill-opacity:1;fill-rule:nonzero;stroke:none"
           id="path9548"
           inkscape:connector-curvature="0" /><path
           d="m 264.479,321.275 c 0.338,-0.74 0.73,-1.45 1.082,-2.12 0.507,-1.031 1.31,-1.936 1.919,-2.745 0.56,-0.836 1.411,-1.472 2.024,-2.032 0.589,-0.584 1.266,-0.966 1.828,-1.248 1.105,-0.569 1.74,-0.77 1.746,-0.773 h 0.001 c 0,0 -0.13,0.75 -0.366,1.841 -0.148,0.523 -0.25,1.177 -0.343,1.924 -0.07,0.761 -0.254,1.486 -0.313,2.384 -0.26,2.851 -0.591,6.498 -0.935,10.274 z"
           style="fill:#ecad1c;fill-opacity:1;fill-rule:nonzero;stroke:none"
           id="path9550"
           inkscape:connector-curvature="0" /><path
           d="m 252.985,308.29 c 0,-0.058 -0.001,-0.116 -0.001,-0.173 -0.115,-0.81 -0.215,-1.514 -0.297,-2.099 -0.332,-1.058 -0.698,-1.874 -0.701,-1.88 l -10e-4,-10e-4 h 10e-4 c 0,0 0.178,0.058 0.517,0.159 0.323,0.127 0.942,0.262 1.566,0.66 1.171,0.809 2.72,2.349 3.835,4.454 1.198,2.065 2.184,4.643 2.774,7.388 0.019,0.08 0.035,0.162 0.053,0.243 z"
           style="fill:#ecad1c;fill-opacity:1;fill-rule:nonzero;stroke:none"
           id="path9552"
           inkscape:connector-curvature="0" /><path
           d="m 328.834,305.378 c -0.328,-2.787 -0.227,-5.549 0.238,-7.89 0.372,-2.349 1.342,-4.31 2.188,-5.453 0.034,-0.043 0.069,-0.08 0.103,-0.121 l -1.548,18.963 c -0.458,-1.834 -0.808,-3.676 -0.981,-5.499"
           style="fill:#afdf7a;fill-opacity:1;fill-rule:nonzero;stroke:none"
           id="path9554"
           inkscape:connector-curvature="0" /><path
           d="m 325.902,358.812 -36.14,-8.973 25.098,-38.314 c 2.56,5.3 4.907,10.484 6.914,15.095 1.131,-0.563 2.257,-1.101 3.38,-1.608 -0.492,-0.973 -0.975,-1.957 -1.444,-2.939 -1.85,-4.145 -3.7,-8.292 -5.089,-11.402 -0.346,-0.829 -0.755,-1.452 -1.066,-2.152 -0.109,-0.221 -0.213,-0.427 -0.316,-0.626 l 1.51,-2.305 c 0.314,0.088 0.635,0.202 0.953,0.356 0.761,0.328 1.772,0.656 2.572,1.265 0.836,0.571 1.895,1.166 2.705,1.978 0.838,0.793 1.797,1.643 2.543,2.63 0.707,0.846 1.374,1.757 1.996,2.708 z"
           style="fill:#afdf7a;fill-opacity:1;fill-rule:nonzero;stroke:none"
           id="path9556"
           inkscape:connector-curvature="0" /><path
           d="m 317.239,307.893 c -0.216,-0.414 -0.424,-0.783 -0.632,-1.085 -0.579,-0.958 -0.941,-1.624 -0.941,-1.624 0,0 0.669,-0.016 1.899,0.167 0.359,0.05 0.763,0.119 1.184,0.237 z"
           style="fill:#e7ed62;fill-opacity:1;fill-rule:nonzero;stroke:none"
           id="path9558"
           inkscape:connector-curvature="0" /><path
           d="m 289.762,349.839 -12.748,-35.335 c -0.04,-0.947 -0.113,-2.096 -0.232,-3.452 -0.105,-2.107 -0.493,-4.665 -0.833,-7.612 -0.533,-2.917 -0.943,-6.266 -1.849,-9.829 -0.217,-1.07 -0.477,-2.164 -0.757,-3.273 -0.739,-1.361 -1.503,-2.731 -2.291,-4.104 l 29.563,-0.339 c 4.979,7.396 9.919,16.676 14.245,25.63 z"
           style="fill:#e7ed62;fill-opacity:1;fill-rule:nonzero;stroke:none"
           id="path9560"
           inkscape:connector-curvature="0" /><path
           d="m 271.052,286.234 c -0.786,-1.369 -1.597,-2.742 -2.43,-4.115 l 16.044,-37.303 c 0.175,0.86 0.34,1.704 0.496,2.534 -0.016,-1.17 -0.031,-2.36 -0.054,-3.561 l 1.663,-3.865 14.334,14.492 c -0.119,5.883 -0.291,11.383 -0.529,16.244 -0.199,5.713 -0.5,10.567 -0.706,14.141 0.248,0.359 0.497,0.724 0.745,1.094 z"
           style="fill:#f2db47;fill-opacity:1;fill-rule:nonzero;stroke:none"
           id="path9562"
           inkscape:connector-curvature="0" /><path
           d="m 344.037,283.082 c 0.177,-0.473 0.343,-0.928 0.568,-1.353 0.37,-0.594 0.72,-1.151 1.05,-1.674 0.624,-1.041 1.241,-1.875 1.953,-2.45 1.31,-1.183 2.057,-1.699 2.057,-1.699 0,0 -0.193,1.028 -0.527,2.541 -0.247,0.711 -0.24,1.703 -0.326,2.748 -0.033,0.303 -0.058,0.616 -0.077,0.938 z"
           style="fill:#aedf79;fill-opacity:1;fill-rule:nonzero;stroke:none"
           id="path9564"
           inkscape:connector-curvature="0" /><path
           d="m 224.636,234.225 c -2.69,-1.809 -5.23,-3.377 -7.564,-4.68 l 2.733,-0.113 c 1.862,0.89 3.836,1.904 5.905,3.039 2.089,1.156 4.266,2.449 6.497,3.869 l 0.392,3.769 c -2.727,-2.183 -5.404,-4.154 -7.963,-5.884"
           style="fill:#f03d1f;fill-opacity:1;fill-rule:nonzero;stroke:none"
           id="path9566"
           inkscape:connector-curvature="0" /><path
           d="m 242.533,248.904 c -3.304,-3.226 -6.655,-6.166 -9.934,-8.795 l -0.392,-3.769 c 2.132,1.355 4.314,2.83 6.52,4.42 l 7.05,11.42 c -1.076,-1.117 -2.158,-2.211 -3.244,-3.276"
           style="fill:#f47016;fill-opacity:1;fill-rule:nonzero;stroke:none"
           id="path9568"
           inkscape:connector-curvature="0" /><path
           d="m 301.311,237.977 c 0.02,3.906 0.005,7.753 -0.118,11.472 -0.025,1.682 -0.054,3.338 -0.088,4.967 l -14.334,-14.492 z"
           style="fill:#f1f36f;fill-opacity:1;fill-rule:nonzero;stroke:none"
           id="path9570"
           inkscape:connector-curvature="0" /><path
           d="m 285.108,243.789 c -0.025,-1.389 -0.063,-2.797 -0.125,-4.221 l 1.788,0.356 z"
           style="fill:#f79010;fill-opacity:1;fill-rule:nonzero;stroke:none"
           id="path9572"
           inkscape:connector-curvature="0" /><path
           d="m 268.622,282.119 c -2.706,-4.453 -5.658,-8.902 -8.837,-13.205 -2.624,-3.652 -5.472,-7.133 -8.343,-10.512 -1.852,-2.15 -3.748,-4.228 -5.665,-6.222 l -7.05,-11.42 c 2.178,1.57 4.378,3.25 6.576,5.041 3.369,2.75 6.74,5.742 10.027,8.929 2.724,2.672 5.438,5.444 8.037,8.331 -1.098,-2.059 -2.204,-4.141 -3.321,-6.243 -1.071,-2.209 -2.51,-4.209 -3.808,-6.318 -1.379,-2.053 -2.553,-4.275 -4.112,-6.219 -3.042,-3.933 -5.884,-8.08 -9.329,-11.615 -0.536,-0.594 -1.068,-1.184 -1.601,-1.775 l 9.362,1.855 c 2.306,2.424 4.491,5 6.765,7.506 0.892,0.951 1.691,1.977 2.468,3.016 -1.395,-3.073 -2.864,-6.102 -4.228,-9.151 -0.08,-0.142 -0.158,-0.285 -0.237,-0.426 l 6.879,1.364 c 2,3.541 4.063,7.105 5.843,10.802 2.366,4.914 4.822,9.817 6.797,14.813 -2.578,-7.818 -5.592,-16.231 -9.175,-24.93 l 17.785,3.526 c 0.201,0.865 0.395,1.72 0.575,2.564 0.227,1.016 0.438,2.01 0.636,2.986 z"
           style="fill:#f79010;fill-opacity:1;fill-rule:nonzero;stroke:none"
           id="path9574"
           inkscape:connector-curvature="0" /><path
           d="m 288.601,206.68 0.029,0.129 c 2.095,9.546 3.86,19.203 5.065,28.355 0.311,-3.385 0.613,-6.805 0.945,-10.232 0.777,-8.159 0.979,-16.323 1.469,-24.002 0.193,-3.328 0.089,-6.545 0.088,-9.635 l 3.539,3.137 c 0.226,2.093 0.441,4.24 0.535,6.429 0.281,7.731 0.899,16.014 0.941,24.284 0.015,4.294 0.078,8.597 0.099,12.832 l -14.54,1.947 z"
           style="fill:#f7be26;fill-opacity:1;fill-rule:nonzero;stroke:none"
           id="path9576"
           inkscape:connector-curvature="0" /><path
           d="m 237.885,227.215 c -0.612,-0.57 -1.217,-1.133 -1.822,-1.697 l 3.765,-2.799 c 0.435,0.344 0.866,0.685 1.304,1.033 1.821,1.717 3.664,3.455 5.521,5.209 1.361,1.191 2.651,2.467 3.905,3.785 l -9.362,-1.855 c -1.11,-1.233 -2.217,-2.461 -3.311,-3.676"
           style="fill:#f57e14;fill-opacity:1;fill-rule:nonzero;stroke:none"
           id="path9578"
           inkscape:connector-curvature="0" /><path
           d="m 284.983,239.568 c -0.045,-1.052 -0.104,-2.115 -0.184,-3.185 -0.413,-9.084 -1.357,-18.762 -2.642,-28.43 -0.672,-5.047 -1.442,-10.084 -2.243,-15.043 l 4.6,-3.42 c 1.41,5.612 2.811,11.381 4.087,17.19 l -1.83,33.244 z"
           style="fill:#f57e14;fill-opacity:1;fill-rule:nonzero;stroke:none"
           id="path9580"
           inkscape:connector-curvature="0" /><path
           d="m 248.039,220.709 c -0.627,-0.908 -1.229,-1.826 -1.821,-2.742 l 3.132,-2.328 c 0.697,0.92 1.407,1.843 2.144,2.759 3.068,4.096 5.751,8.655 8.753,13.135 0.638,1.174 1.294,2.346 1.958,3.522 l -6.879,-1.364 c -2.473,-4.406 -4.696,-8.904 -7.287,-12.982"
           style="fill:#f57e14;fill-opacity:1;fill-rule:nonzero;stroke:none"
           id="path9582"
           inkscape:connector-curvature="0" /><path
           d="m 265.67,235.74 c -2.538,-6.162 -5.36,-12.467 -8.525,-18.814 -0.858,-1.701 -1.741,-3.408 -2.648,-5.115 l 7.058,-5.248 c 1.219,2.062 2.4,4.125 3.544,6.179 1.969,3.574 3.806,7.133 5.564,10.666 -0.503,-2.377 -1.046,-4.803 -1.6,-7.271 -1.03,-4.133 -2.095,-8.395 -3.32,-12.69 l 4.828,-3.59 c 1.981,4.786 3.737,9.577 5.434,14.237 1.687,4.976 3.317,9.799 4.624,14.465 1.086,3.707 2.031,7.291 2.826,10.707 z"
           style="fill:#f57e14;fill-opacity:1;fill-rule:nonzero;stroke:none"
           id="path9584"
           inkscape:connector-curvature="0" /><path
           d="m 239.938,208.803 c -2.904,-3.533 -5.401,-7.131 -8.173,-10.026 -2.798,-2.886 -5.363,-5.533 -7.634,-7.879 -2.325,-2.298 -4.66,-3.957 -6.433,-5.507 -1.707,-1.411 -3.066,-2.534 -4.033,-3.332 l -0.104,-0.276 c 1.032,0.729 2.548,1.797 4.48,3.16 1.891,1.414 4.377,2.911 6.89,5.045 2.472,2.19 5.265,4.66 8.307,7.358 3.035,2.724 5.83,6.154 9.071,9.541 2.507,2.607 4.697,5.66 7.041,8.752 l -3.132,2.328 c -2.076,-3.215 -4.009,-6.416 -6.28,-9.164"
           style="fill:#f0441d;fill-opacity:1;fill-rule:nonzero;stroke:none"
           id="path9586"
           inkscape:connector-curvature="0" /><path
           d="m 230.943,177.238 10.942,1.553 c 7.594,8.754 14.053,18.27 19.67,27.772 l -7.058,5.248 c -6.386,-12.016 -14.059,-24.069 -23.554,-34.573"
           style="fill:#f0441d;fill-opacity:1;fill-rule:nonzero;stroke:none"
           id="path9588"
           inkscape:connector-curvature="0" /><path
           d="m 278.434,183.979 4.857,0.691 c 0.406,1.592 0.814,3.199 1.223,4.82 l -4.6,3.42 c -0.487,-3.012 -0.985,-5.994 -1.48,-8.931"
           style="fill:#f0441d;fill-opacity:1;fill-rule:nonzero;stroke:none"
           id="path9590"
           inkscape:connector-curvature="0" /><path
           d="m 232.635,222.326 c -1.751,-1.578 -3.373,-3.26 -5.15,-4.678 -0.158,-0.123 -0.314,-0.246 -0.471,-0.367 l -2.134,-5.631 c 1.57,1.032 3.172,2.082 4.806,3.157 1.929,1.304 3.722,2.877 5.648,4.351 1.478,1.17 2.98,2.362 4.494,3.561 l -3.765,2.799 c -1.153,-1.073 -2.299,-2.139 -3.428,-3.192"
           style="fill:#f0441d;fill-opacity:1;fill-rule:nonzero;stroke:none"
           id="path9592"
           inkscape:connector-curvature="0" /><path
           d="m 264.982,200.84 c -1.412,-5.221 -3.243,-10.404 -4.898,-15.664 -0.484,-1.336 -0.957,-2.67 -1.426,-4.004 l 4.012,0.57 c 0.321,0.674 0.64,1.348 0.95,2.024 2.216,5.093 4.615,10.129 6.602,15.246 0.118,0.281 0.233,0.564 0.349,0.845 l -4.828,3.59 c -0.247,-0.869 -0.499,-1.738 -0.761,-2.607"
           style="fill:#f0441d;fill-opacity:1;fill-rule:nonzero;stroke:none"
           id="path9594"
           inkscape:connector-curvature="0" /><path
           d="m 216.723,229.348 c -2.395,-1.407 -4.611,-2.389 -6.379,-3.328 -3.658,-1.606 -5.753,-2.526 -5.753,-2.526 0,0 2.173,0.731 5.973,2.006 1.845,0.777 4.168,1.566 6.703,2.764 0.818,0.359 1.667,0.752 2.538,1.168 l -2.733,0.113 c -0.116,-0.066 -0.234,-0.133 -0.349,-0.197"
           style="fill:#f03a1f;fill-opacity:1;fill-rule:nonzero;stroke:none"
           id="path9596"
           inkscape:connector-curvature="0" /><path
           d="m 222.218,213.551 c -1.716,-1.336 -3.388,-2.637 -5,-3.893 -1.716,-1.109 -3.372,-2.179 -4.962,-3.211 -3.213,-2.015 -6.069,-4.037 -8.786,-5.547 -0.881,-0.464 -1.722,-0.91 -2.528,-1.336 l 0.357,-0.916 c 0.858,0.368 1.755,0.754 2.695,1.159 2.83,1.285 5.874,3.08 9.294,4.867 1.702,0.914 3.477,1.869 5.312,2.859 1.738,1.143 3.536,2.319 5.384,3.528 0.296,0.195 0.597,0.392 0.896,0.589 l 2.134,5.631 c -1.631,-1.271 -3.234,-2.515 -4.796,-3.73"
           style="fill:#f03a1f;fill-opacity:1;fill-rule:nonzero;stroke:none"
           id="path9598"
           inkscape:connector-curvature="0" /><path
           d="m 211.982,180.67 c 0,0 0.549,0.387 1.579,1.113 l 0.104,0.276 c -1.092,-0.903 -1.683,-1.389 -1.683,-1.389"
           style="fill:#f03a1f;fill-opacity:1;fill-rule:nonzero;stroke:none"
           id="path9600"
           inkscape:connector-curvature="0" /><path
           d="m 296.204,189.873 c -0.002,-1.502 -0.004,-2.967 -0.006,-4.394 l 2.615,-0.045 c 0.142,1.392 0.288,2.822 0.436,4.285 0.136,1.535 0.314,3.109 0.487,4.713 l -3.539,-3.137 c -10e-4,-0.477 10e-4,-0.951 0.007,-1.422"
           style="fill:#f1c12b;fill-opacity:1;fill-rule:nonzero;stroke:none"
           id="path9602"
           inkscape:connector-curvature="0" /><path
           d="m 183.392,180.199 c 3.009,2.092 6.176,3.764 9.38,4.473 1.592,0.305 3.196,0.467 4.67,0.148 1.465,-0.187 2.882,-0.99 4.322,-1.515 2.595,-1.284 5.162,-2.869 5.901,-5.219 0.4,-1.277 0.092,-2.508 -0.536,-3.565 l 0.799,-0.033 c 0.616,1.084 0.929,2.373 0.569,3.821 -0.8,2.867 -3.548,4.623 -6.247,6.109 -1.408,0.57 -2.748,1.441 -4.521,1.783 -1.696,0.43 -3.496,0.322 -5.272,0.053 -3.549,-0.643 -6.957,-2.285 -10.2,-4.342 -2.662,-1.738 -5.268,-3.756 -7.75,-6.051 l 3.379,-0.138 c 1.784,1.65 3.632,3.146 5.506,4.476"
           style="fill:#ef3220;fill-opacity:1;fill-rule:nonzero;stroke:none"
           id="path9604"
           inkscape:connector-curvature="0" /><path
           d="m 196.352,197.137 c -3.947,-2.09 -6.202,-3.283 -6.202,-3.283 0,0 2.343,1.007 6.446,2.773 1.375,0.592 2.954,1.269 4.703,2.021 l -0.357,0.916 c -1.709,-0.904 -3.25,-1.718 -4.59,-2.427"
           style="fill:#ef3220;fill-opacity:1;fill-rule:nonzero;stroke:none"
           id="path9606"
           inkscape:connector-curvature="0" /><path
           d="m 164.141,151.34 c -0.432,3.713 1.305,7.918 3.348,11.465 1.846,3.166 3.985,6.086 6.309,8.726 l 0.544,4.178 c -3.468,-3.229 -6.69,-7.002 -9.473,-11.34 -2.284,-3.785 -4.61,-8.047 -4.289,-13.498 0.152,-2.746 2.191,-5.67 4.762,-6.807 1.535,-0.755 3.123,-1.185 4.697,-1.406 l 0.523,4.012 c -3.349,0.31 -6.118,1.697 -6.421,4.67"
           style="fill:#e12524;fill-opacity:1;fill-rule:nonzero;stroke:none"
           id="path9608"
           inkscape:connector-curvature="0" /><path
           d="m 223.995,170.156 c -2.169,-2.029 -4.433,-3.957 -6.781,-5.761 l 3.371,-5.207 c 2.694,1.884 5.29,3.912 7.776,6.052 4.88,4.203 9.371,8.764 13.524,13.551 l -10.942,-1.553 c -2.215,-2.451 -4.527,-4.82 -6.948,-7.082"
           style="fill:#f0411e;fill-opacity:1;fill-rule:nonzero;stroke:none"
           id="path9610"
           inkscape:connector-curvature="0" /><path
           d="m 254.479,169.65 c -1.851,-5.24 -3.14,-10.492 -3.96,-15.666 -1.423,-8.836 -1.58,-17.318 -0.752,-24.744 l 0.929,1.311 c -0.44,7.045 0.033,14.965 1.621,23.111 0.959,5.035 2.414,10.176 4.347,15.135 1.691,4.307 3.934,8.605 6.006,12.945 l -4.012,-0.57 c -1.355,-3.852 -2.681,-7.695 -4.179,-11.522"
           style="fill:#f0411e;fill-opacity:1;fill-rule:nonzero;stroke:none"
           id="path9612"
           inkscape:connector-curvature="0" /><path
           d="m 277.68,179.518 c -0.741,-4.555 -1.487,-8.969 -2.002,-13.2 -0.034,-0.236 -0.064,-0.47 -0.096,-0.707 l 4.501,6.34 c 0.532,2.194 1.101,4.432 1.671,6.713 0.505,1.971 1.019,3.977 1.537,6.006 l -4.857,-0.691 c -0.253,-1.499 -0.505,-2.989 -0.754,-4.461"
           style="fill:#f0411e;fill-opacity:1;fill-rule:nonzero;stroke:none"
           id="path9614"
           inkscape:connector-curvature="0" /><path
           d="m 274.601,154.346 c 0.045,-3.744 0.006,-7.168 0.59,-10.174 0.245,-3.033 1.291,-5.522 1.847,-7.602 0.696,-2.043 1.661,-3.488 2.116,-4.539 0.517,-1.029 0.793,-1.576 0.793,-1.576 0,0 -0.229,0.57 -0.661,1.641 -0.367,1.09 -1.196,2.582 -1.708,4.646 -0.377,2.11 -1.192,4.578 -1.179,7.565 -0.325,2.935 -0.005,6.283 0.252,9.892 0.516,3.617 1.089,7.512 2.031,11.604 0.416,2.004 0.892,4.054 1.401,6.148 l -4.501,-6.34 c -0.533,-3.955 -0.779,-7.757 -0.981,-11.265"
           style="fill:#f0431d;fill-opacity:1;fill-rule:nonzero;stroke:none"
           id="path9616"
           inkscape:connector-curvature="0" /><path
           d="m 250.267,125.566 c 0.197,-1.144 0.416,-2.259 0.659,-3.341 l 0.801,0.025 c -0.216,1.115 -0.404,2.268 -0.568,3.451 -0.204,1.561 -0.358,3.182 -0.463,4.85 l -0.929,-1.311 c 0.139,-1.254 0.304,-2.482 0.5,-3.674"
           style="fill:#f0431d;fill-opacity:1;fill-rule:nonzero;stroke:none"
           id="path9618"
           inkscape:connector-curvature="0" /><path
           d="m 296.189,179.941 c 0.03,-1.699 -0.107,-3.3 -0.261,-4.814 l 1.184,-2.012 c 0.409,2.037 0.926,4.254 1.122,6.655 0.186,1.804 0.379,3.699 0.579,5.664 l -2.615,0.045 c -0.003,-1.922 -0.006,-3.772 -0.009,-5.538"
           style="fill:#f37b14;fill-opacity:1;fill-rule:nonzero;stroke:none"
           id="path9620"
           inkscape:connector-curvature="0" /><path
           d="m 295.598,171.59 c -0.229,-2.492 -0.424,-4.664 -0.588,-6.453 -0.327,-3.59 -0.516,-5.643 -0.516,-5.643 0,0 0.391,2.016 1.073,5.547 0.339,1.772 0.755,3.922 1.233,6.391 0.089,0.545 0.197,1.109 0.312,1.683 l -1.184,2.012 c -0.126,-1.236 -0.263,-2.416 -0.33,-3.537"
           style="fill:#f1461d;fill-opacity:1;fill-rule:nonzero;stroke:none"
           id="path9622"
           inkscape:connector-curvature="0" /><path
           d="m 173.015,146.623 c -0.834,-0.041 -1.661,-0.027 -2.453,0.047 l -0.523,-4.012 c 1.005,-0.14 2.005,-0.195 2.982,-0.195 1.738,-0.002 3.458,0.109 5.16,0.307 l 5.976,5.798 c -3.752,-1.072 -7.521,-1.8 -11.142,-1.945"
           style="fill:#ec3021;fill-opacity:1;fill-rule:nonzero;stroke:none"
           id="path9624"
           inkscape:connector-curvature="0" /><path
           d="m 177.886,175.723 -3.379,0.138 c -0.056,-0.05 -0.111,-0.101 -0.165,-0.152 l -0.544,-4.178 c 1.309,1.489 2.679,2.887 4.088,4.192"
           style="fill:#ec3021;fill-opacity:1;fill-rule:nonzero;stroke:none"
           id="path9626"
           inkscape:connector-curvature="0" /><path
           d="m 205.046,172.246 c -3.463,-2.59 -7.003,-3.377 -9.307,-3.482 -2.354,-0.051 -3.531,0.564 -3.541,0.486 0.011,0.078 1.159,-0.586 3.545,-0.633 2.339,0.016 5.934,0.637 9.646,3.182 0.891,0.621 1.884,1.539 2.539,2.689 l -0.799,0.033 c -0.541,-0.914 -1.319,-1.699 -2.083,-2.275"
           style="fill:#ec3021;fill-opacity:1;fill-rule:nonzero;stroke:none"
           id="path9628"
           inkscape:connector-curvature="0" /><path
           d="m 200.002,154.301 c -4.608,-1.918 -9.041,-3.674 -13.554,-5.035 -0.761,-0.246 -1.525,-0.479 -2.291,-0.698 l -5.976,-5.798 c 3.248,0.376 6.432,1.07 9.564,1.927 4.82,1.244 9.589,2.918 14.175,4.608 6.61,2.424 12.865,5.822 18.665,9.883 l -3.371,5.207 c -5.339,-4.108 -11.113,-7.573 -17.212,-10.094"
           style="fill:#ef381f;fill-opacity:1;fill-rule:nonzero;stroke:none"
           id="path9630"
           inkscape:connector-curvature="0" /><path
           d="m 253.383,114.633 c 1.393,-3.088 3.222,-5.586 5.349,-6.858 2.098,-1.347 4.209,-1.275 5.433,-0.939 1.261,0.303 1.89,0.607 1.89,0.607 0,0 -0.642,-0.285 -1.903,-0.545 -1.228,-0.293 -3.298,-0.287 -5.285,1.082 -2.021,1.303 -3.728,3.791 -4.997,6.864 -0.928,2.179 -1.618,4.683 -2.143,7.406 l -0.801,-0.025 c 0.629,-2.799 1.423,-5.366 2.457,-7.592"
           style="fill:#f03a1f;fill-opacity:1;fill-rule:nonzero;stroke:none"
           id="path9632"
           inkscape:connector-curvature="0" /></g></g></g></svg>