<?xml version="1.0" encoding="UTF-8" standalone="no"?>
<!-- Created with Inkscape (http://www.inkscape.org/) -->

<svg
   xmlns:dc="http://purl.org/dc/elements/1.1/"
   xmlns:cc="http://creativecommons.org/ns#"
   xmlns:rdf="http://www.w3.org/1999/02/22-rdf-syntax-ns#"
   xmlns:svg="http://www.w3.org/2000/svg"
   xmlns="http://www.w3.org/2000/svg"
   xmlns:sodipodi="http://sodipodi.sourceforge.net/DTD/sodipodi-0.dtd"
   xmlns:inkscape="http://www.inkscape.org/namespaces/inkscape"
   version="1.1"
   id="svg80791"
   xml:space="preserve"
   width="666.66669"
   height="666.66669"
   viewBox="0 0 666.66669 666.66669"
   sodipodi:docname="penguin-art-color-publicdomainvectors.org.svg"
   inkscape:version="0.92.4 (5da689c313, 2019-01-14)"><metadata
     id="metadata80797"><rdf:RDF><cc:Work
         rdf:about=""><dc:format>image/svg+xml</dc:format><dc:type
           rdf:resource="http://purl.org/dc/dcmitype/StillImage" /><dc:title></dc:title></cc:Work></rdf:RDF></metadata><defs
     id="defs80795"><clipPath
       clipPathUnits="userSpaceOnUse"
       id="clipPath80807"><path
         d="M 0,500 H 500 V 0 H 0 Z"
         id="path80805"
         inkscape:connector-curvature="0" /></clipPath></defs><sodipodi:namedview
     pagecolor="#ffffff"
     bordercolor="#666666"
     borderopacity="1"
     objecttolerance="10"
     gridtolerance="10"
     guidetolerance="10"
     inkscape:pageopacity="0"
     inkscape:pageshadow="2"
     inkscape:window-width="797"
     inkscape:window-height="480"
     id="namedview80793"
     showgrid="false"
     inkscape:zoom="0.35399999"
     inkscape:cx="333.33334"
     inkscape:cy="333.33334"
     inkscape:window-x="0"
     inkscape:window-y="0"
     inkscape:window-maximized="0"
     inkscape:current-layer="g80799" /><g
     id="g80799"
     inkscape:groupmode="layer"
     inkscape:label="penguin-art-color-publicdomainvectors.org"
     transform="matrix(1.3333333,0,0,-1.3333333,0,666.66667)"><g
       id="g80801"><g
         id="g80803"
         clip-path="url(#clipPath80807)"><path
           d="m 151.908,455.138 c 3.354,2.061 8.997,5.081 16.612,6.622 l 2.266,11.011 c -12.107,-4.189 -16.637,-13.36 -18.878,-17.633"
           style="fill:#b43227;fill-opacity:1;fill-rule:nonzero;stroke:none"
           id="path80809"
           inkscape:connector-curvature="0" /><path
           d="m 190.86,461.268 c 5.005,-1.171 10.391,-3.112 16.123,-6.083 -2.771,-3.686 -6.457,-5.179 -9.552,-5.731 l 5.587,-10.044 c 0.061,-0.053 0.123,-0.104 0.185,-0.157 l 12.028,40.209 c -9.339,-2.493 -19.017,-4.74 -29.224,-4.536 -0.939,0.018 -1.848,0.012 -2.736,-0.015 z"
           style="fill:#ab91a7;fill-opacity:1;fill-rule:nonzero;stroke:none"
           id="path80811"
           inkscape:connector-curvature="0" /><path
           d="m 258.019,462.173 -2.043,22.67 c -9.754,2.014 -19.569,0.191 -29.711,-2.417 l 17.595,-25.552 c 2.682,3.445 6.65,5.691 14.159,5.299"
           style="fill:#0f47cc;fill-opacity:1;fill-rule:nonzero;stroke:none"
           id="path80813"
           inkscape:connector-curvature="0" /><path
           d="m 260.049,439.614 c -0.761,-0.918 -1.546,-1.865 -2.349,-2.838 l 2.997,-4.352 z"
           style="fill:#0f47cc;fill-opacity:1;fill-rule:nonzero;stroke:none"
           id="path80815"
           inkscape:connector-curvature="0" /><path
           d="m 299.416,435.395 c -1.272,1.317 -2.566,2.626 -3.887,3.924 -0.528,-1.547 -1.352,-2.983 -2.418,-4.345 l 3.751,-6.213 z"
           style="fill:#0056c8;fill-opacity:1;fill-rule:nonzero;stroke:none"
           id="path80817"
           inkscape:connector-curvature="0" /><path
           d="m 268.901,479.654 c -1.377,0.847 -2.752,1.592 -4.128,2.242 l 23.995,-39.734 c 11.339,17.014 -12.07,32.69 -19.867,37.492"
           style="fill:#0056c8;fill-opacity:1;fill-rule:nonzero;stroke:none"
           id="path80819"
           inkscape:connector-curvature="0" /><path
           d="m 293.111,434.974 c -1.452,-1.857 -3.351,-3.578 -5.57,-5.268 l 9.321,-0.945 z"
           style="fill:#006ad4;fill-opacity:1;fill-rule:nonzero;stroke:none"
           id="path80821"
           inkscape:connector-curvature="0" /><path
           d="m 262.406,461.699 c 4.642,-0.728 8.417,-7.432 4.967,-12.686 -1.631,-2.485 -4.27,-5.711 -7.324,-9.399 l 0.648,-7.19 14.965,-1.516 c 3.776,2.346 7.092,4.602 9.467,6.927 1.48,1.448 2.684,2.893 3.639,4.327 l -23.995,39.734 c -2.932,1.384 -5.862,2.339 -8.797,2.947 l 2.043,-22.67 c 1.344,-0.072 2.802,-0.226 4.387,-0.474"
           style="fill:#006ad4;fill-opacity:1;fill-rule:nonzero;stroke:none"
           id="path80823"
           inkscape:connector-curvature="0" /><path
           d="m 257.7,436.776 c -0.979,-1.183 -1.982,-2.404 -2.995,-3.653 l 5.992,-0.699 z"
           style="fill:#609bc4;fill-opacity:1;fill-rule:nonzero;stroke:none"
           id="path80825"
           inkscape:connector-curvature="0" /><path
           d="m 219.532,470.346 c 2.166,0.589 4.396,-0.689 4.986,-2.856 0.586,-2.165 -0.691,-4.397 -2.855,-4.985 -2.166,-0.588 -4.399,0.689 -4.987,2.855 -0.588,2.165 0.689,4.399 2.856,4.986 m -16.161,-31.231 26.793,-3.127 c 8.282,5.675 9.125,15.017 13.696,20.886 l -17.595,25.552 c -3.633,-0.934 -7.305,-1.968 -11.034,-2.964 l -12.028,-40.209 c 0.056,-0.046 0.112,-0.092 0.168,-0.138"
           style="fill:#609bc4;fill-opacity:1;fill-rule:nonzero;stroke:none"
           id="path80827"
           inkscape:connector-curvature="0" /><path
           d="m 296.862,428.761 8.888,-0.223 c -2.044,2.312 -4.155,4.598 -6.334,6.857 z"
           style="fill:#0063c3;fill-opacity:1;fill-rule:nonzero;stroke:none"
           id="path80829"
           inkscape:connector-curvature="0" /><path
           d="M 170.786,472.771 168.52,461.76 c 6.198,1.255 13.703,1.529 22.34,-0.492 l -7.589,13.643 c -4.875,-0.141 -8.996,-0.933 -12.485,-2.14"
           style="fill:#b2917b;fill-opacity:1;fill-rule:nonzero;stroke:none"
           id="path80831"
           inkscape:connector-curvature="0" /><path
           d="m 191.37,449.365 c 3.738,-2.771 7.633,-6.591 11.648,-9.955 l -5.587,10.044 c -3.384,-0.605 -6.061,-0.089 -6.061,-0.089"
           style="fill:#b2917b;fill-opacity:1;fill-rule:nonzero;stroke:none"
           id="path80833"
           inkscape:connector-curvature="0" /><path
           d="m 220.601,432.105 c 4.027,0.852 7.12,2.208 9.563,3.883 l -26.793,3.127 c 5.549,-4.605 11.326,-8.261 17.23,-7.01"
           style="fill:#74c9cd;fill-opacity:1;fill-rule:nonzero;stroke:none"
           id="path80835"
           inkscape:connector-curvature="0" /><path
           d="m 218.507,419.522 c 3.431,3.839 6.397,6.615 8.431,8.499 2.095,1.833 3.215,2.81 3.215,2.81 0,0 -1.241,-0.816 -3.569,-2.345 -2.249,-1.646 -5.64,-3.999 -9.504,-7.541 -1.058,-0.959 -2.165,-1.997 -3.306,-3.115 l 1.219,-2.451 c 1.208,1.496 2.385,2.879 3.514,4.143"
           style="fill:#74c9cd;fill-opacity:1;fill-rule:nonzero;stroke:none"
           id="path80837"
           inkscape:connector-curvature="0" /><path
           d="m 254.705,433.123 c -2.46,-3.037 -4.969,-6.242 -7.287,-9.501 l 13.279,8.802 z"
           style="fill:#74c9cd;fill-opacity:1;fill-rule:nonzero;stroke:none"
           id="path80839"
           inkscape:connector-curvature="0" /><path
           d="m 334.636,386.012 c -3.607,7.173 -7.703,14.207 -12.307,21.071 l -22.872,-16.012 z"
           style="fill:#0074ce;fill-opacity:1;fill-rule:nonzero;stroke:none"
           id="path80841"
           inkscape:connector-curvature="0" /><path
           d="m 299.457,391.071 22.872,16.012 c -4.935,7.363 -10.457,14.528 -16.579,21.455 l -8.888,0.223 z"
           style="fill:#007fd1;fill-opacity:1;fill-rule:nonzero;stroke:none"
           id="path80843"
           inkscape:connector-curvature="0" /><path
           d="m 214.993,415.379 -1.219,2.451 c -2.167,-2.124 -4.454,-4.545 -6.773,-7.295 l 3.339,-1.32 c 1.58,2.235 3.142,4.29 4.653,6.164"
           style="fill:#adc38f;fill-opacity:1;fill-rule:nonzero;stroke:none"
           id="path80845"
           inkscape:connector-curvature="0" /><path
           d="m 207.36,404.815 c 0.996,1.537 1.992,3.002 2.98,4.4 l -3.339,1.32 c -0.935,-1.108 -1.873,-2.267 -2.812,-3.484 -2.829,-3.664 -5.666,-7.819 -8.346,-12.455 l 7.486,3.359 c 1.316,2.425 2.665,4.716 4.031,6.86"
           style="fill:#c8c473;fill-opacity:1;fill-rule:nonzero;stroke:none"
           id="path80847"
           inkscape:connector-curvature="0" /><path
           d="m 299.457,391.071 -2.595,37.69 -33.57,-35.248 z"
           style="fill:#0097de;fill-opacity:1;fill-rule:nonzero;stroke:none"
           id="path80849"
           inkscape:connector-curvature="0" /><path
           d="m 261.383,422.126 c 4.884,3.213 9.892,6.059 14.279,8.782 l -14.965,1.516 z"
           style="fill:#008dde;fill-opacity:1;fill-rule:nonzero;stroke:none"
           id="path80851"
           inkscape:connector-curvature="0" /><path
           d="m 296.862,428.761 -9.321,0.945 c -6.728,-5.117 -16.407,-9.932 -25.514,-17.255 l 1.265,-18.938 z"
           style="fill:#008dde;fill-opacity:1;fill-rule:nonzero;stroke:none"
           id="path80853"
           inkscape:connector-curvature="0" /><path
           d="m 247.418,423.622 c -5.596,-7.867 -10.082,-16.053 -10.111,-22.973 l 3.287,-0.903 c 3.613,9.618 11.997,16.596 20.789,22.38 l -0.686,10.298 z"
           style="fill:#25a3e2;fill-opacity:1;fill-rule:nonzero;stroke:none"
           id="path80855"
           inkscape:connector-curvature="0" /><path
           d="m 262.027,412.451 c -4.994,-4.016 -9.816,-8.787 -13.883,-14.778 l 15.148,-4.16 z"
           style="fill:#25a3e2;fill-opacity:1;fill-rule:nonzero;stroke:none"
           id="path80857"
           inkscape:connector-curvature="0" /><path
           d="m 188.101,336.598 c 0.045,6.908 0.557,13.63 1.482,20.062 0.545,3.387 1.168,6.702 1.907,9.919 l -6.58,2.571 c -1.076,-3.592 -2.015,-7.322 -2.789,-11.171 -1.193,-6.128 -2.076,-12.546 -2.492,-19.152 l 2.176,-4.521 z"
           style="fill:#dbe26c;fill-opacity:1;fill-rule:nonzero;stroke:none"
           id="path80859"
           inkscape:connector-curvature="0" /><path
           d="m 315.479,359.026 22.96,18.963 c -1.201,2.691 -2.468,5.368 -3.803,8.023 l -35.179,5.059 z"
           style="fill:#008ad9;fill-opacity:1;fill-rule:nonzero;stroke:none"
           id="path80861"
           inkscape:connector-curvature="0" /><path
           d="m 239.068,393.896 c 0.312,2.055 0.83,4.001 1.526,5.85 l -3.287,0.903 c -0.01,-2.43 0.528,-4.704 1.761,-6.753"
           style="fill:#7ce0e0;fill-opacity:1;fill-rule:nonzero;stroke:none"
           id="path80863"
           inkscape:connector-curvature="0" /><path
           d="m 248.144,397.673 c -6.123,-9.013 -10.536,-20.788 -11.261,-36.902 l 26.409,32.742 z"
           style="fill:#7ce0e0;fill-opacity:1;fill-rule:nonzero;stroke:none"
           id="path80865"
           inkscape:connector-curvature="0" /><path
           d="m 192.537,370.771 c 1.138,4.526 2.595,8.802 4.128,12.859 2.048,5.182 4.303,9.972 6.664,14.325 l -7.486,-3.359 c -1.575,-2.724 -3.096,-5.614 -4.529,-8.67 -2.429,-5.154 -4.607,-10.773 -6.404,-16.776 l 6.58,-2.571 c 0.326,1.417 0.672,2.817 1.047,4.192"
           style="fill:#b3df83;fill-opacity:1;fill-rule:nonzero;stroke:none"
           id="path80867"
           inkscape:connector-curvature="0" /><path
           d="m 315.479,359.026 -16.022,32.045 -36.165,2.442 z"
           style="fill:#009be2;fill-opacity:1;fill-rule:nonzero;stroke:none"
           id="path80869"
           inkscape:connector-curvature="0" /><path
           d="m 249.71,326.828 65.769,32.198 -52.187,34.487 z"
           style="fill:#24b8ec;fill-opacity:1;fill-rule:nonzero;stroke:none"
           id="path80871"
           inkscape:connector-curvature="0" /><path
           d="m 263.292,393.513 -26.409,-32.742 c -0.156,-3.471 -0.143,-7.139 0.062,-11.028 0.128,-2.418 0.158,-4.846 0.106,-7.283 l 12.659,-15.632 z"
           style="fill:#71d9ef;fill-opacity:1;fill-rule:nonzero;stroke:none"
           id="path80873"
           inkscape:connector-curvature="0" /><path
           d="m 346.573,356.348 c -2.258,7.312 -4.964,14.536 -8.134,21.641 l -22.96,-18.963 z"
           style="fill:#0074d4;fill-opacity:1;fill-rule:nonzero;stroke:none"
           id="path80875"
           inkscape:connector-curvature="0" /><path
           d="m 179.629,338.827 c -0.099,-1.591 -0.172,-3.194 -0.215,-4.805 l 2.391,0.284 z"
           style="fill:#e8880e;fill-opacity:1;fill-rule:nonzero;stroke:none"
           id="path80877"
           inkscape:connector-curvature="0" /><path
           d="m 188.194,330.093 c -0.078,2.184 -0.108,4.353 -0.093,6.505 l -6.296,-2.292 z"
           style="fill:#def085;fill-opacity:1;fill-rule:nonzero;stroke:none"
           id="path80879"
           inkscape:connector-curvature="0" /><path
           d="m 303.881,287.611 11.598,71.415 -65.769,-32.198 z"
           style="fill:#3fc1ed;fill-opacity:1;fill-rule:nonzero;stroke:none"
           id="path80881"
           inkscape:connector-curvature="0" /><path
           d="m 354.766,312.792 c -1.094,14.699 -3.789,29.294 -8.193,43.556 l -31.094,2.678 z"
           style="fill:#0069d5;fill-opacity:1;fill-rule:nonzero;stroke:none"
           id="path80883"
           inkscape:connector-curvature="0" /><path
           d="m 303.881,287.611 51.437,7.575 c 0.066,5.875 -0.117,11.749 -0.552,17.606 l -39.287,46.234 z"
           style="fill:#1288dd;fill-opacity:1;fill-rule:nonzero;stroke:none"
           id="path80885"
           inkscape:connector-curvature="0" /><path
           d="m 249.71,326.828 23.935,-35.114 c 7.553,1.981 14.918,-0.6 19.447,-6.287 l 10.789,2.184 z"
           style="fill:#92ebdc;fill-opacity:1;fill-rule:nonzero;stroke:none"
           id="path80887"
           inkscape:connector-curvature="0" /><path
           d="m 179.414,334.022 c -0.058,-2.132 -0.064,-4.279 -0.013,-6.44 l 2.404,6.724 z"
           style="fill:#f38b06;fill-opacity:1;fill-rule:nonzero;stroke:none"
           id="path80889"
           inkscape:connector-curvature="0" /><path
           d="m 237.051,342.46 c -0.163,-7.533 -1.127,-15.146 -2.512,-22.796 l 15.171,7.164 z"
           style="fill:#bcf3bf;fill-opacity:1;fill-rule:nonzero;stroke:none"
           id="path80891"
           inkscape:connector-curvature="0" /><path
           d="m 188.417,325.619 c -0.098,1.497 -0.169,2.988 -0.223,4.474 l -6.389,4.213 -2.404,-6.724 c 0.019,-0.795 0.045,-1.592 0.078,-2.391 0.193,-5.17 0.609,-10.411 1.262,-15.678 l 9.461,0.46 c -0.846,5.256 -1.458,10.481 -1.785,15.646"
           style="fill:#f2dc57;fill-opacity:1;fill-rule:nonzero;stroke:none"
           id="path80893"
           inkscape:connector-curvature="0" /><path
           d="m 249.71,326.828 -15.171,-7.164 c -2.233,-12.345 -5.557,-24.786 -8.36,-37.156 l 5.982,-18.244 z"
           style="fill:#daf898;fill-opacity:1;fill-rule:nonzero;stroke:none"
           id="path80895"
           inkscape:connector-curvature="0" /><path
           d="m 232.161,264.264 21.348,8.278 c 1.404,2.547 2.981,5.074 4.747,7.574 4.596,6.501 10.041,10.194 15.389,11.598 l -23.935,35.114 z"
           style="fill:#c9f5c5;fill-opacity:1;fill-rule:nonzero;stroke:none"
           id="path80897"
           inkscape:connector-curvature="0" /><path
           d="m 350.427,251.922 c 3.066,14.283 4.731,28.779 4.891,43.264 l -51.437,-7.575 z"
           style="fill:#73b2c4;fill-opacity:1;fill-rule:nonzero;stroke:none"
           id="path80899"
           inkscape:connector-curvature="0" /><path
           d="m 204.749,259.815 -3.185,8.251 c -1.089,2.692 -1.935,5.456 -2.913,8.176 -0.495,1.358 -0.901,2.742 -1.326,4.115 l -1.286,4.118 c -0.821,2.749 -1.524,5.519 -2.289,8.262 -0.057,0.228 -0.111,0.456 -0.167,0.684 l -11.81,8.926 c 0.657,-3.985 1.449,-7.976 2.39,-11.951 0.755,-2.886 1.451,-5.805 2.265,-8.698 0.871,-2.871 1.652,-5.787 2.641,-8.635 1.003,-2.84 1.879,-5.737 2.995,-8.544 l 3.173,-8.345 c 0.056,-0.146 0.113,-0.294 0.168,-0.441 l 10.014,2.324 c -0.223,0.585 -0.448,1.17 -0.67,1.758"
           style="fill:#ffd100;fill-opacity:1;fill-rule:nonzero;stroke:none"
           id="path80901"
           inkscape:connector-curvature="0" /><path
           d="m 223.699,270.66 c -0.546,-2.907 -1.033,-5.805 -1.44,-8.694 l 9.902,2.298 z"
           style="fill:#ffd100;fill-opacity:1;fill-rule:nonzero;stroke:none"
           id="path80903"
           inkscape:connector-curvature="0" /><path
           d="m 226.179,282.508 c -0.898,-3.958 -1.741,-7.91 -2.48,-11.848 l 8.462,-6.396 z"
           style="fill:#f9ee3c;fill-opacity:1;fill-rule:nonzero;stroke:none"
           id="path80905"
           inkscape:connector-curvature="0" /><path
           d="m 190.202,309.973 -9.461,-0.46 c 0.294,-2.385 0.639,-4.775 1.032,-7.166 l 11.81,-8.926 c -1.352,5.528 -2.497,11.057 -3.381,16.552"
           style="fill:#f9ee3c;fill-opacity:1;fill-rule:nonzero;stroke:none"
           id="path80907"
           inkscape:connector-curvature="0" /><path
           d="m 248.867,262.478 c 1.27,3.376 2.808,6.736 4.642,10.064 l -21.348,-8.278 z"
           style="fill:#cef38f;fill-opacity:1;fill-rule:nonzero;stroke:none"
           id="path80909"
           inkscape:connector-curvature="0" /><path
           d="m 309.527,251.446 40.702,-0.442 c 0.065,0.305 0.132,0.61 0.198,0.918 l -46.546,35.689 z"
           style="fill:#90cfa6;fill-opacity:1;fill-rule:nonzero;stroke:none"
           id="path80911"
           inkscape:connector-curvature="0" /><path
           d="m 293.092,285.427 c 1.303,-1.635 2.368,-3.526 3.139,-5.637 l 7.65,7.821 z"
           style="fill:#9ceaa7;fill-opacity:1;fill-rule:nonzero;stroke:none"
           id="path80913"
           inkscape:connector-curvature="0" /><path
           d="m 303.881,287.611 -7.65,-7.821 c 0.623,-1.708 1.054,-3.561 1.255,-5.541 0.617,-6.027 0.796,-12.774 0.601,-20.008 l 11.44,-2.795 z"
           style="fill:#9fe298;fill-opacity:1;fill-rule:nonzero;stroke:none"
           id="path80915"
           inkscape:connector-curvature="0" /><path
           d="m 217.988,213.837 c -0.788,3.864 -1.643,7.746 -2.591,11.638 -0.7,2.876 -1.395,5.764 -2.209,8.641 l -1.182,4.328 -1.322,4.307 c -0.848,2.87 -1.839,5.752 -2.837,8.64 -0.76,2.317 -1.594,4.487 -2.428,6.666 l -10.014,-2.324 c 0.999,-2.618 2.066,-5.255 2.902,-7.8 0.949,-2.705 1.897,-5.407 2.734,-8.197 l 1.297,-4.141 1.2,-4.167 c 0.828,-2.765 1.544,-5.56 2.268,-8.34 0.299,-1.154 0.589,-2.312 0.873,-3.469 l 10.986,-6.932 z"
           style="fill:#ffce00;fill-opacity:1;fill-rule:nonzero;stroke:none"
           id="path80917"
           inkscape:connector-curvature="0" /><path
           d="m 222.259,261.966 c -1.575,-11.147 -1.976,-22.153 0.012,-32.89 l 9.89,35.188 z"
           style="fill:#ffce00;fill-opacity:1;fill-rule:nonzero;stroke:none"
           id="path80919"
           inkscape:connector-curvature="0" /><path
           d="m 218.252,212.534 c -0.035,0.178 -0.073,0.356 -0.108,0.536 l -0.479,-0.383 z"
           style="fill:#f0d24a;fill-opacity:1;fill-rule:nonzero;stroke:none"
           id="path80921"
           inkscape:connector-curvature="0" /><path
           d="m 228.833,209.797 19.547,-5.059 c -2.666,8.757 -4.487,18.568 -4.546,28.816 l -18.783,-14.976 c 1.034,-2.953 2.286,-5.881 3.782,-8.781"
           style="fill:#f0d24a;fill-opacity:1;fill-rule:nonzero;stroke:none"
           id="path80923"
           inkscape:connector-curvature="0" /><path
           d="m 218.144,213.07 c -0.052,0.256 -0.102,0.511 -0.156,0.767 l -0.323,-1.15 z"
           style="fill:#f6e748;fill-opacity:1;fill-rule:nonzero;stroke:none"
           id="path80925"
           inkscape:connector-curvature="0" /><path
           d="m 222.271,229.076 c 0.654,-3.53 1.567,-7.032 2.78,-10.498 l 18.783,14.976 c -0.053,9.43 1.387,19.231 5.033,28.924 l -16.706,1.786 z"
           style="fill:#f6e748;fill-opacity:1;fill-rule:nonzero;stroke:none"
           id="path80927"
           inkscape:connector-curvature="0" /><path
           d="m 298.087,254.241 c -0.191,-7.122 -0.745,-14.717 -1.609,-22.566 l 13.049,19.771 z"
           style="fill:#c9df77;fill-opacity:1;fill-rule:nonzero;stroke:none"
           id="path80929"
           inkscape:connector-curvature="0" /><path
           d="m 206.679,219.619 c 1.044,-4.239 2.003,-8.483 2.937,-12.69 l 8.049,5.758 z"
           style="fill:#feb200;fill-opacity:1;fill-rule:nonzero;stroke:none"
           id="path80931"
           inkscape:connector-curvature="0" /><path
           d="m 337.093,209.854 c 5.66,13.372 10.07,27.156 13.136,41.15 l -40.702,0.442 z"
           style="fill:#b5b998;fill-opacity:1;fill-rule:nonzero;stroke:none"
           id="path80933"
           inkscape:connector-curvature="0" /><path
           d="m 307.086,186.593 22.673,7.525 c 2.638,5.173 5.084,10.422 7.334,15.736 l -27.566,41.592 z"
           style="fill:#c2b36d;fill-opacity:1;fill-rule:nonzero;stroke:none"
           id="path80935"
           inkscape:connector-curvature="0" /><path
           d="m 309.527,251.446 -13.049,-19.771 c -1.395,-12.695 -3.598,-26.056 -6.373,-39.158 l 16.981,-5.924 z"
           style="fill:#d3c15d;fill-opacity:1;fill-rule:nonzero;stroke:none"
           id="path80937"
           inkscape:connector-curvature="0" /><path
           d="m 252.399,182.261 4.009,2.889 c -2.912,5.528 -5.773,12.182 -8.028,19.588 l -19.547,5.059 c 4.909,-9.505 12.451,-18.719 23.566,-27.536"
           style="fill:#fb9b00;fill-opacity:1;fill-rule:nonzero;stroke:none"
           id="path80939"
           inkscape:connector-curvature="0" /><path
           d="m 221.921,191.489 c -1.06,6.885 -2.247,13.928 -3.669,21.045 l -0.587,0.153 -0.253,-46.255 c 0.518,-2.693 1.043,-5.354 1.581,-7.98 0.015,-0.083 0.033,-0.165 0.05,-0.248 l 6.928,4.996 c -1.318,8.996 -2.515,18.499 -4.05,28.289"
           style="fill:#fb9b00;fill-opacity:1;fill-rule:nonzero;stroke:none"
           id="path80941"
           inkscape:connector-curvature="0" /><path
           d="m 209.616,206.929 c 0.037,-0.168 0.074,-0.335 0.111,-0.5 1.168,-5.543 2.251,-11.038 3.286,-16.47 1.506,-8.029 2.927,-15.903 4.399,-23.527 l 0.253,46.255 z"
           style="fill:#ffa300;fill-opacity:1;fill-rule:nonzero;stroke:none"
           id="path80943"
           inkscape:connector-curvature="0" /><path
           d="m 226.48,159.795 c -0.171,1.127 -0.341,2.262 -0.509,3.405 l -6.928,-4.996 c 0.143,-0.691 0.286,-1.377 0.431,-2.06 l 8.13,-3.258 c -0.386,2.265 -0.757,4.573 -1.124,6.909"
           style="fill:#f56500;fill-opacity:1;fill-rule:nonzero;stroke:none"
           id="path80945"
           inkscape:connector-curvature="0" /><path
           d="m 262.763,174.837 c -1.995,2.713 -4.189,6.201 -6.355,10.313 l -4.009,-2.889 c 3.16,-2.508 6.606,-4.986 10.364,-7.424"
           style="fill:#f56500;fill-opacity:1;fill-rule:nonzero;stroke:none"
           id="path80947"
           inkscape:connector-curvature="0" /><path
           d="m 320.427,177.461 c 3.334,5.447 6.447,11.005 9.332,16.657 l -22.673,-7.525 z"
           style="fill:#bc582f;fill-opacity:1;fill-rule:nonzero;stroke:none"
           id="path80949"
           inkscape:connector-curvature="0" /><path
           d="m 337.665,196.485 c -2.533,-7.225 -6.396,-15.134 -11.13,-23.204 l 5.986,-4.094 c 0.958,7.598 2.633,16.434 5.144,27.298"
           style="fill:#bc582f;fill-opacity:1;fill-rule:nonzero;stroke:none"
           id="path80951"
           inkscape:connector-curvature="0" /><path
           d="m 290.105,192.517 c -3.787,-17.88 -8.639,-35.282 -13.961,-49.848 l 30.942,43.924 z"
           style="fill:#e07102;fill-opacity:1;fill-rule:nonzero;stroke:none"
           id="path80953"
           inkscape:connector-curvature="0" /><path
           d="m 332.124,144.231 c -0.889,7.41 -0.841,15.159 0.397,24.956 l -5.986,4.094 c -3.419,-5.827 -7.293,-11.741 -11.449,-17.536 l 4.667,-17.982 z"
           style="fill:#c2350d;fill-opacity:1;fill-rule:nonzero;stroke:none"
           id="path80955"
           inkscape:connector-curvature="0" /><path
           d="m 312.574,165.428 c 2.74,3.944 5.359,7.959 7.853,12.033 l -13.341,9.132 z"
           style="fill:#c2350d;fill-opacity:1;fill-rule:nonzero;stroke:none"
           id="path80957"
           inkscape:connector-curvature="0" /><path
           d="m 276.144,142.669 c -0.894,-2.444 -1.801,-4.811 -2.719,-7.084 l 15.514,0.728 c 8.647,9.156 16.545,18.904 23.635,29.115 l -5.488,21.165 z"
           style="fill:#d54200;fill-opacity:1;fill-rule:nonzero;stroke:none"
           id="path80959"
           inkscape:connector-curvature="0" /><path
           d="m 315.086,155.745 c -4.691,-6.545 -9.738,-12.94 -14.895,-18.901 l 19.562,0.919 z"
           style="fill:#d54200;fill-opacity:1;fill-rule:nonzero;stroke:none"
           id="path80961"
           inkscape:connector-curvature="0" /><path
           d="m 205.953,116.227 c 1.828,0.323 3.924,0.262 6.11,-0.411 l 0.328,2.552 c -2.296,-0.155 -4.475,-0.794 -6.438,-2.141"
           style="fill:#ff7200;fill-opacity:1;fill-rule:nonzero;stroke:none"
           id="path80963"
           inkscape:connector-curvature="0" /><path
           d="m 236.68,120.779 c -1.694,3.49 -3.255,7.277 -4.485,11.418 -0.647,2.052 -1.172,4.211 -1.74,6.387 -0.482,2.22 -1.043,4.443 -1.455,6.772 -0.5,2.451 -0.958,4.964 -1.396,7.53 l -8.13,3.258 c 1.943,-9.209 4.135,-17.956 7.193,-25.857 0.426,-1.064 0.847,-2.119 1.264,-3.161 0.416,-1.041 0.94,-2.041 1.396,-3.042 0.879,-2.02 2.021,-3.89 3.067,-5.721 0.417,-0.636 0.838,-1.264 1.262,-1.881 l 4.222,2.142 c -0.404,0.706 -0.804,1.428 -1.198,2.155"
           style="fill:#fc6300;fill-opacity:1;fill-rule:nonzero;stroke:none"
           id="path80965"
           inkscape:connector-curvature="0" /><path
           d="m 212.391,118.368 -0.328,-2.552 c 1.602,-0.491 3.251,-1.309 4.881,-2.552 1.065,-0.814 1.804,-1.56 2.292,-2.235 l 0.001,-0.002 c 0.4,-0.55 0.628,-1.053 0.716,-1.5 l 9.233,4.684 c -5.334,2.174 -11.385,4.52 -16.795,4.157"
           style="fill:#fc6300;fill-opacity:1;fill-rule:nonzero;stroke:none"
           id="path80967"
           inkscape:connector-curvature="0" /><path
           d="m 332.558,141.094 c -0.164,1.042 -0.308,2.086 -0.434,3.137 l -12.371,-6.468 6.119,-26.18 c 2.392,-1.412 4.974,-3.371 7.799,-5.987 l 5.05,12.932 c -2.377,5.5 -4.621,12.688 -6.163,22.566"
           style="fill:#be0006;fill-opacity:1;fill-rule:nonzero;stroke:none"
           id="path80969"
           inkscape:connector-curvature="0" /><path
           d="m 338.721,118.528 -5.05,-12.932 c 3.322,-3.078 6.98,-7.071 11.07,-12.167 l 5.246,-0.666 c 1.753,8.685 -5.186,11.696 -11.266,25.765"
           style="fill:#b0001f;fill-opacity:1;fill-rule:nonzero;stroke:none"
           id="path80971"
           inkscape:connector-curvature="0" /><path
           d="m 277.063,113.87 c -4.582,-3.739 -8.927,-6.731 -12.843,-8.743 0.401,-0.155 0.797,-0.303 1.19,-0.445 l 14.208,-0.034 z"
           style="fill:#f23700;fill-opacity:1;fill-rule:nonzero;stroke:none"
           id="path80973"
           inkscape:connector-curvature="0" /><path
           d="m 258.776,109.178 c 5.513,4.196 10.824,8.609 15.923,13.215 l -2.702,9.748 c -4.307,-10.114 -8.808,-18.14 -13.221,-22.963"
           style="fill:#f23700;fill-opacity:1;fill-rule:nonzero;stroke:none"
           id="path80975"
           inkscape:connector-curvature="0" /><path
           d="m 250.168,105.669 c -0.614,0.425 -1.24,0.858 -1.878,1.304 -0.624,0.464 -1.339,0.811 -1.909,1.387 -1.184,1.084 -2.513,2.074 -3.589,3.421 -1.868,1.919 -3.443,4.283 -4.914,6.843 l -4.222,-2.142 c 1.326,-1.916 2.699,-3.718 4.19,-5.327 -1.549,0.186 -3.181,1.06 -3.181,1.06 0,0 0.064,-0.095 0.159,-0.231 -1.73,0.62 -3.634,1.411 -5.638,2.227 l -9.233,-4.684 c 0.025,-0.123 0.039,-0.241 0.042,-0.349 v -0.004 c 0.025,-0.798 -0.443,-1.383 -1.174,-1.705 -1.279,-0.569 -5.522,-1.27 -7.538,-2.67 l 40.736,-0.088 c -0.607,0.316 -1.223,0.637 -1.851,0.958"
           style="fill:#f23700;fill-opacity:1;fill-rule:nonzero;stroke:none"
           id="path80977"
           inkscape:connector-curvature="0" /><path
           d="m 271.997,132.141 2.702,-9.748 c 4.948,4.465 9.697,9.111 14.24,13.92 l -15.514,-0.728 c -0.475,-1.173 -0.948,-2.322 -1.428,-3.444"
           style="fill:#db2f00;fill-opacity:1;fill-rule:nonzero;stroke:none"
           id="path80979"
           inkscape:connector-curvature="0" /><path
           d="m 319.753,137.763 -19.562,-0.919 c -7.748,-8.961 -15.74,-16.944 -23.128,-22.974 l 2.555,-9.222 z"
           style="fill:#db2f00;fill-opacity:1;fill-rule:nonzero;stroke:none"
           id="path80981"
           inkscape:connector-curvature="0" /><path
           d="m 279.618,104.648 8.291,-1.54 c 14.96,4.13 22.546,17.584 37.963,8.475 l -6.119,26.18 z"
           style="fill:#ca1500;fill-opacity:1;fill-rule:nonzero;stroke:none"
           id="path80983"
           inkscape:connector-curvature="0" /><path
           d="m 281.135,102.006 c 2.43,0.125 4.677,0.521 6.774,1.102 l -8.291,1.54 z"
           style="fill:#c80b00;fill-opacity:1;fill-rule:nonzero;stroke:none"
           id="path80985"
           inkscape:connector-curvature="0" /><path
           d="m 273.668,99.851 c 0,0 -0.321,0.022 -0.943,0.064 l -0.211,-0.145 c 0.759,0.053 1.154,0.081 1.154,0.081"
           style="fill:#e21c00;fill-opacity:1;fill-rule:nonzero;stroke:none"
           id="path80987"
           inkscape:connector-curvature="0" /><path
           d="m 275.979,102.151 c 1.157,-0.12 2.274,-0.18 3.355,-0.184 l 0.284,2.681 z"
           style="fill:#e21c00;fill-opacity:1;fill-rule:nonzero;stroke:none"
           id="path80989"
           inkscape:connector-curvature="0" /><path
           d="m 267.66,93.008 c -0.06,-0.944 -0.133,-1.889 -0.229,-2.828 -0.344,-3.233 -0.856,-6.446 -1.544,-9.615 -0.677,-3.165 -1.498,-6.303 -2.616,-9.306 -0.288,-0.746 -0.58,-1.493 -0.916,-2.209 -0.32,-0.724 -0.665,-1.438 -1.054,-2.112 -0.381,-0.681 -0.796,-1.339 -1.272,-1.922 -0.021,-0.028 -0.047,-0.05 -0.068,-0.081 l -0.108,2.374 -0.112,2.274 -0.117,1.31 c -0.101,0.439 -0.248,0.879 -0.381,1.315 -0.159,0.432 -0.446,0.827 -0.678,1.235 -0.127,0.193 -0.288,0.369 -0.456,0.534 1.104,2.589 5.043,12.113 7.11,18.831 0.857,-0.045 1.678,0.012 2.441,0.2 m -4.208,0.01 c -2.859,-6.04 -8.31,-13.804 -11.62,-17.055 h -0.014 l -0.069,-0.004 -0.122,-0.007 -0.036,-0.005 -0.305,-0.042 -1.215,-0.176 c -0.797,-0.185 -1.607,-0.331 -2.377,-0.624 -0.785,-0.24 -1.527,-0.589 -2.275,-0.928 -0.718,-0.394 -1.439,-0.786 -2.104,-1.26 -0.678,-0.453 -1.322,-0.959 -1.925,-1.495 -1.223,-1.069 -2.312,-2.269 -3.278,-3.551 -0.02,-0.027 -0.035,-0.056 -0.052,-0.081 0.449,1.431 1.095,2.863 1.784,4.291 l 1.091,2.219 c 0.354,0.745 0.78,1.542 1.057,2.484 0.122,0.428 0.182,0.889 0.194,1.353 2.85,1.316 6.926,4.602 10.802,8.224 l -13.526,-9.29 c -0.201,-0.525 -0.484,-1.076 -0.77,-1.668 l -1.111,-2.222 c -0.736,-1.506 -1.456,-3.051 -1.988,-4.742 -0.273,-0.839 -0.473,-1.736 -0.567,-2.692 -0.051,-0.969 -0.008,-2.061 0.575,-3.141 l 1.122,-2.074 1.091,2.129 c 0.667,1.297 1.427,2.55 2.295,3.717 0.867,1.164 1.837,2.244 2.912,3.192 0.531,0.482 1.093,0.927 1.684,1.328 0.577,0.418 1.201,0.756 1.82,1.105 0.643,0.301 1.276,0.618 1.953,0.834 0.655,0.27 1.356,0.4 2.043,0.579 l 1.051,0.173 0.264,0.04 0.026,0.004 0.03,0.003 0.144,0.005 0.572,0.027 c 0.389,0.02 0.779,0.04 1.05,-0.022 0.295,-0.057 0.606,-0.023 0.899,-0.14 0.287,-0.109 0.613,-0.156 0.876,-0.296 0.241,-0.165 0.533,-0.271 0.748,-0.458 0.186,-0.216 0.441,-0.373 0.597,-0.616 0.133,-0.263 0.331,-0.479 0.436,-0.762 l 0.278,-0.882 0.099,-0.971 0.177,-2.304 0.345,-4.575 0.145,-1.932 1.421,1.199 c 0.708,0.6 1.343,1.253 1.846,1.967 0.531,0.701 0.965,1.445 1.359,2.196 0.403,0.751 0.75,1.518 1.065,2.294 0.322,0.777 0.593,1.563 0.86,2.352 1.025,3.163 1.749,6.382 2.269,9.627 0.518,3.244 0.848,6.511 1.006,9.785 0.048,1.045 0.068,2.091 0.066,3.136 0.185,0.504 0.06,1.996 -0.123,3.422 l -5.164,-3.544 c 0.196,-0.046 0.392,-0.088 0.589,-0.126"
           style="fill:#e21c00;fill-opacity:1;fill-rule:nonzero;stroke:none"
           id="path80991"
           inkscape:connector-curvature="0" /><path
           d="m 241.206,81.148 c -0.391,0.523 -0.864,0.968 -1.374,1.298 -0.505,0.328 -1.03,0.567 -1.561,0.76 1.531,3.719 11.798,8.239 18.276,12.286 0.582,-0.29 1.203,-0.581 1.864,-0.866 -5.263,-4.434 -13.319,-9.84 -17.205,-13.478 m -9.006,2.608 c -0.134,-0.009 -0.268,-0.017 -0.401,-0.029 l -1.32,-0.256 -0.659,-0.132 -0.638,-0.219 -1.273,-0.451 -1.197,-0.613 c -0.41,-0.193 -0.789,-0.431 -1.147,-0.703 -0.36,-0.263 -0.741,-0.506 -1.085,-0.79 -0.072,-0.07 -0.145,-0.135 -0.218,-0.203 0.089,0.226 0.183,0.447 0.3,0.657 0.375,0.831 0.846,1.608 1.346,2.369 l 0.816,1.098 0.907,1.034 c 0.64,0.655 1.314,1.284 2.032,1.87 0.723,0.579 1.474,1.13 2.262,1.633 0.785,0.508 1.597,0.984 2.435,1.417 0.827,0.448 1.686,0.849 2.553,1.235 3.471,1.543 7.121,2.751 10.753,4.038 1.815,0.653 3.633,1.329 5.365,2.203 0.022,0.01 0.042,0.023 0.062,0.033 l -0.28,-0.373 c 0,0 0.584,-0.381 1.543,-0.925 C 248.455,93.77 238.944,89.97 232.2,83.756 m 25.547,18.548 c -1.182,0.439 -2.426,0.902 -3.731,1.388 -0.658,0.324 -1.322,0.666 -1.997,1.019 l -40.736,0.088 c -0.22,-0.153 -0.414,-0.313 -0.575,-0.484 l 0.118,-0.912 c 2.73,0.387 7.571,-0.635 13.885,-2.174 l 3.599,-2.932 c 0.22,-1.06 -0.108,-2.187 -0.894,-3.013 -0.915,-0.959 -2.62,-3.201 -2.62,-3.201 5.35,-0.791 14.82,4.85 19.901,9.021 1.603,0.993 2.571,1.825 3.16,2.463 0.316,-0.168 0.629,-0.338 0.933,-0.509 1.527,-0.59 2.969,-1.174 4.361,-1.677 0.72,-0.184 1.428,-0.364 2.116,-0.539 l -1.635,-2.176 c -0.261,-0.125 -0.518,-0.251 -0.779,-0.364 -1.75,-0.761 -3.582,-1.331 -5.42,-1.875 -3.675,-1.093 -7.426,-2.047 -11.049,-3.494 -0.906,-0.361 -1.808,-0.737 -2.689,-1.17 -0.889,-0.413 -1.758,-0.877 -2.61,-1.377 -0.856,-0.496 -1.678,-1.052 -2.48,-1.646 -0.801,-0.596 -1.547,-1.264 -2.271,-1.963 l -1.029,-1.105 -0.942,-1.192 c -0.581,-0.827 -1.131,-1.68 -1.58,-2.592 -0.254,-0.442 -0.43,-0.916 -0.629,-1.383 -0.208,-0.465 -0.384,-0.939 -0.521,-1.427 -0.341,-0.957 -0.529,-1.948 -0.749,-2.935 l -1.084,-4.899 3.06,4.163 c 0.457,0.618 0.857,1.287 1.395,1.83 0.477,0.604 1.075,1.079 1.639,1.588 0.292,0.238 0.62,0.431 0.925,0.652 0.305,0.224 0.626,0.419 0.974,0.57 l 1.013,0.502 1.074,0.352 0.535,0.178 0.56,0.098 1.116,0.203 c 0.749,0.039 1.546,0.083 2.262,0.075 0.879,-0.046 1.505,-0.123 2.239,-0.29 0.696,-0.173 1.358,-0.417 1.882,-0.767 1.058,-0.697 1.472,-1.769 1.125,-2.935 -0.039,-0.13 -0.085,-0.261 -0.137,-0.392 l 13.526,9.29 c 2.706,2.53 5.315,5.222 7.335,7.524 0.834,-0.296 1.687,-0.552 2.54,-0.741 l 5.164,3.544 c -0.151,1.168 -0.338,2.292 -0.423,2.787 0.643,0 1.252,0.015 1.798,0.074 1.351,0.096 2.395,0.171 3.112,0.221 l 0.211,0.145 c -0.716,0.048 -1.828,0.123 -3.312,0.221 -2.756,0.175 -6.801,0.771 -11.666,2.168"
           style="fill:#f24600;fill-opacity:1;fill-rule:nonzero;stroke:none"
           id="path80993"
           inkscape:connector-curvature="0" /><path
           d="m 265.41,104.682 c 3.871,-1.406 7.372,-2.2 10.569,-2.531 l 3.639,2.497 z"
           style="fill:#f24600;fill-opacity:1;fill-rule:nonzero;stroke:none"
           id="path80995"
           inkscape:connector-curvature="0" /><path
           d="m 344.741,93.429 c 1.243,-1.554 2.53,-3.209 3.858,-4.972 0.676,1.598 1.129,3.014 1.388,4.306 z"
           style="fill:#aa0024;fill-opacity:1;fill-rule:nonzero;stroke:none"
           id="path80997"
           inkscape:connector-curvature="0" /><path
           d="m 210.205,103.284 c 0.192,0.05 0.4,0.09 0.621,0.119 l -0.118,0.912 c -0.293,-0.31 -0.476,-0.653 -0.503,-1.031"
           style="fill:#f15700;fill-opacity:1;fill-rule:nonzero;stroke:none"
           id="path80999"
           inkscape:connector-curvature="0" /><path
           d="m 279.334,101.967 c 0.61,-0.003 1.212,0.012 1.801,0.039 l -1.517,2.642 z"
           style="fill:#cf1300;fill-opacity:1;fill-rule:nonzero;stroke:none"
           id="path81001"
           inkscape:connector-curvature="0" /></g></g></g></svg>