<?xml version="1.0" encoding="UTF-8" standalone="no"?>
<!-- Created with Inkscape (http://www.inkscape.org/) -->

<svg
   xmlns:dc="http://purl.org/dc/elements/1.1/"
   xmlns:cc="http://creativecommons.org/ns#"
   xmlns:rdf="http://www.w3.org/1999/02/22-rdf-syntax-ns#"
   xmlns:svg="http://www.w3.org/2000/svg"
   xmlns="http://www.w3.org/2000/svg"
   xmlns:sodipodi="http://sodipodi.sourceforge.net/DTD/sodipodi-0.dtd"
   xmlns:inkscape="http://www.inkscape.org/namespaces/inkscape"
   version="1.1"
   id="svg101601"
   xml:space="preserve"
   width="666.66669"
   height="666.66669"
   viewBox="0 0 666.66669 666.66669"
   sodipodi:docname="skull-animal-art-color-publicdomainvectors.org.svg"
   inkscape:version="0.92.4 (5da689c313, 2019-01-14)"><metadata
     id="metadata101607"><rdf:RDF><cc:Work
         rdf:about=""><dc:format>image/svg+xml</dc:format><dc:type
           rdf:resource="http://purl.org/dc/dcmitype/StillImage" /><dc:title></dc:title></cc:Work></rdf:RDF></metadata><defs
     id="defs101605"><clipPath
       clipPathUnits="userSpaceOnUse"
       id="clipPath101617"><path
         d="M 0,500 H 500 V 0 H 0 Z"
         id="path101615"
         inkscape:connector-curvature="0" /></clipPath></defs><sodipodi:namedview
     pagecolor="#ffffff"
     bordercolor="#666666"
     borderopacity="1"
     objecttolerance="10"
     gridtolerance="10"
     guidetolerance="10"
     inkscape:pageopacity="0"
     inkscape:pageshadow="2"
     inkscape:window-width="797"
     inkscape:window-height="480"
     id="namedview101603"
     showgrid="false"
     inkscape:zoom="0.35399999"
     inkscape:cx="333.33334"
     inkscape:cy="333.33334"
     inkscape:window-x="0"
     inkscape:window-y="0"
     inkscape:window-maximized="0"
     inkscape:current-layer="g101609" /><g
     id="g101609"
     inkscape:groupmode="layer"
     inkscape:label="skull-animal-art-color-publicdomainvectors.org"
     transform="matrix(1.3333333,0,0,-1.3333333,0,666.66667)"><g
       id="g101611"><g
         id="g101613"
         clip-path="url(#clipPath101617)"><path
           d="m 88.486,448.378 9.648,0.598 c 7.021,14.742 -1.388,9.47 -9.648,-0.598"
           style="fill:#ff2800;fill-opacity:1;fill-rule:nonzero;stroke:none"
           id="path101619"
           inkscape:connector-curvature="0" /><path
           d="m 413.661,371.184 c -3.367,-6.666 -7.938,-13.078 -13.998,-18.944 l 13.221,-3.421 z"
           style="fill:#ffad00;fill-opacity:1;fill-rule:nonzero;stroke:none"
           id="path101621"
           inkscape:connector-curvature="0" /><path
           d="m 412.878,447.523 c 1.085,-2.169 2.162,-4.688 3.175,-7.492 l 0.489,14.104 c -6.163,5.889 -10.176,6.412 -3.664,-6.612"
           style="fill:#ffad00;fill-opacity:1;fill-rule:nonzero;stroke:none"
           id="path101623"
           inkscape:connector-curvature="0" /><path
           d="m 76.899,416.339 c 0.158,0.624 0.313,1.241 0.466,1.851 0.068,0.226 0.135,0.445 0.202,0.668 0.114,0.376 0.229,0.753 0.341,1.122 0.362,1.177 0.717,2.326 1.062,3.446 0.405,1.1 0.8,2.172 1.184,3.214 0.237,0.671 0.486,1.322 0.745,1.956 0.145,0.354 0.293,0.705 0.446,1.047 0.13,0.301 0.257,0.599 0.384,0.895 0.276,0.644 0.547,1.274 0.811,1.887 0.192,0.438 0.398,0.86 0.606,1.274 0.215,0.426 0.432,0.844 0.635,1.256 0.09,0.172 0.177,0.344 0.262,0.515 0.312,0.621 0.605,1.225 0.927,1.789 0.331,0.568 0.648,1.115 0.955,1.639 0.078,0.136 0.158,0.272 0.235,0.404 0.715,1.307 1.495,2.406 2.157,3.36 0.329,0.478 0.632,0.92 0.912,1.323 0.057,0.072 0.111,0.14 0.167,0.208 0.24,0.3 0.462,0.578 0.666,0.831 0.978,1.208 1.508,1.863 1.533,1.893 l 0.002,0.003 c 0,0 -0.112,-0.173 -0.329,-0.508 -0.223,-0.345 -0.558,-0.862 -0.997,-1.541 -0.141,-0.22 -0.292,-0.459 -0.455,-0.712 -0.085,-0.132 -0.171,-0.268 -0.262,-0.409 -0.111,-0.205 -0.227,-0.42 -0.347,-0.643 -0.074,-0.135 -0.149,-0.274 -0.226,-0.415 -0.061,-0.113 -0.122,-0.227 -0.186,-0.343 -0.126,-0.236 -0.259,-0.479 -0.395,-0.728 -0.352,-0.646 -0.729,-1.343 -1.097,-2.113 -0.102,-0.214 -0.203,-0.431 -0.303,-0.656 -0.251,-0.538 -0.514,-1.099 -0.788,-1.681 -0.066,-0.141 -0.133,-0.282 -0.2,-0.426 -0.055,-0.12 -0.107,-0.243 -0.159,-0.366 -0.178,-0.411 -0.346,-0.839 -0.518,-1.276 -0.094,-0.24 -0.189,-0.48 -0.289,-0.722 -0.317,-0.828 -0.688,-1.674 -1.013,-2.573 -0.311,-0.906 -0.635,-1.843 -0.968,-2.81 -0.352,-0.961 -0.664,-1.971 -0.949,-3.02 -0.302,-1.044 -0.609,-2.12 -0.927,-3.221 -0.081,-0.334 -0.162,-0.672 -0.243,-1.011 -0.191,-0.792 -0.383,-1.599 -0.581,-2.418 -0.052,-0.217 -0.106,-0.438 -0.159,-0.658 -0.089,-0.369 -0.179,-0.74 -0.269,-1.114 -0.047,-0.249 -0.095,-0.499 -0.144,-0.751 -0.068,-0.358 -0.137,-0.719 -0.206,-1.082 -0.185,-0.871 -0.351,-1.763 -0.509,-2.663 l 9.489,-7.891 c -0.347,17.267 4.198,33.032 8.859,42.354 0.252,0.506 0.487,0.988 0.708,1.453 l -9.648,-0.598 c -0.805,-0.981 -1.609,-2.006 -2.397,-3.065 -4.467,-6.001 -9.078,-15.872 -12.282,-27.871 l 2.774,-2.307 c 0.104,0.406 0.21,0.807 0.318,1.204"
           style="fill:#ff3700;fill-opacity:1;fill-rule:nonzero;stroke:none"
           id="path101625"
           inkscape:connector-curvature="0" /><path
           d="m 429.136,373.444 c 0.328,1.696 0.611,3.39 0.83,5.081 0.137,1.058 0.252,2.114 0.34,3.168 0.082,0.568 0.135,1.137 0.178,1.704 0.037,0.5 0.065,0.997 0.09,1.494 0.025,0.475 0.048,0.949 0.078,1.421 0.038,0.709 0.085,1.416 0.122,2.12 0.022,0.392 0.039,0.781 0.051,1.171 0.012,0.42 0.019,0.838 0.012,1.255 0.004,0.688 0.008,1.371 0.012,2.051 0.005,0.808 0.01,1.612 0.015,2.408 -0.018,0.412 -0.037,0.821 -0.055,1.231 -0.031,0.64 -0.059,1.276 -0.087,1.91 -0.019,0.404 -0.037,0.811 -0.055,1.213 -0.412,5.715 -1.019,11.136 -2.059,16.052 -0.118,0.616 -0.234,1.228 -0.349,1.833 -0.146,0.597 -0.289,1.188 -0.43,1.771 -0.119,0.493 -0.235,0.982 -0.351,1.465 -0.161,0.664 -0.317,1.32 -0.472,1.965 -0.163,0.568 -0.325,1.129 -0.484,1.681 -0.149,0.52 -0.295,1.033 -0.442,1.54 -0.287,1.049 -0.599,2.059 -0.951,3.02 -0.125,0.363 -0.247,0.719 -0.369,1.074 -0.204,0.59 -0.405,1.17 -0.6,1.736 -0.063,0.176 -0.13,0.35 -0.197,0.522 -0.272,0.708 -0.561,1.386 -0.816,2.051 -0.138,0.336 -0.269,0.671 -0.398,0.999 -0.184,0.472 -0.366,0.931 -0.566,1.365 -0.346,0.736 -0.675,1.438 -0.99,2.105 -0.092,0.212 -0.187,0.416 -0.283,0.617 -0.331,0.698 -0.67,1.334 -0.992,1.927 -0.181,0.33 -0.355,0.648 -0.52,0.955 -0.273,0.505 -0.525,0.971 -0.757,1.401 -0.199,0.309 -0.382,0.598 -0.553,0.864 -0.057,0.088 -0.111,0.174 -0.165,0.257 -0.841,1.299 -1.299,2.007 -1.323,2.046 -0.001,0.001 -0.003,0.004 -0.003,0.004 0,0 0.106,-0.131 0.31,-0.385 0.256,-0.315 0.669,-0.825 1.226,-1.513 0.108,-0.133 0.222,-0.276 0.342,-0.424 0.156,-0.193 0.318,-0.397 0.491,-0.614 0.279,-0.403 0.581,-0.845 0.911,-1.323 0.662,-0.954 1.442,-2.053 2.159,-3.361 0.21,-0.363 0.43,-0.738 0.653,-1.124 0.175,-0.299 0.354,-0.606 0.536,-0.919 0.411,-0.716 0.772,-1.502 1.189,-2.303 0.119,-0.243 0.243,-0.488 0.369,-0.736 0.294,-0.577 0.598,-1.17 0.872,-1.794 0.196,-0.457 0.396,-0.923 0.6,-1.397 0.193,-0.454 0.392,-0.916 0.595,-1.385 0.428,-0.955 0.821,-1.956 1.191,-3.003 0.175,-0.476 0.354,-0.96 0.533,-1.448 0.214,-0.581 0.431,-1.169 0.651,-1.766 0.095,-0.311 0.194,-0.63 0.29,-0.945 0.177,-0.574 0.357,-1.155 0.539,-1.744 0.077,-0.253 0.154,-0.502 0.233,-0.757 0.18,-0.59 0.359,-1.187 0.542,-1.79 0.154,-0.61 0.309,-1.229 0.466,-1.851 0.295,-1.078 0.569,-2.183 0.827,-3.311 0.932,-4.074 1.625,-8.459 2.12,-13.068 0.649,-5.789 0.73,-11.962 0.303,-18.319 l 6.036,9.145 c -1,23.585 -8.888,44.477 -16.368,54.527 -2.554,3.432 -5.275,6.532 -7.671,8.822 l -0.489,-14.104 c 6.144,-17.029 9.839,-44.62 -2.392,-68.847 l -0.777,-22.365 z"
           style="fill:#ffbf00;fill-opacity:1;fill-rule:nonzero;stroke:none"
           id="path101627"
           inkscape:connector-curvature="0" /><path
           d="m 237.931,328.155 c -3.242,-1.158 -5.674,-2.734 -7.73,-4.415 l 0.239,-0.943 z"
           style="fill:#ff8a00;fill-opacity:1;fill-rule:nonzero;stroke:none"
           id="path101629"
           inkscape:connector-curvature="0" /><path
           d="m 79.078,413.06 c -0.258,-1.464 -0.486,-2.963 -0.684,-4.5 -0.369,-2.857 -0.645,-5.831 -0.866,-8.89 -0.064,-1.431 -0.131,-2.882 -0.197,-4.353 0.003,-0.541 0.006,-1.088 0.009,-1.634 0.006,-0.936 0.012,-1.876 0.017,-2.826 -0.006,-0.465 0.002,-0.932 0.018,-1.399 0.035,-1.042 0.111,-2.09 0.166,-3.146 0.028,-0.43 0.05,-0.861 0.073,-1.294 0.057,-1.104 0.116,-2.216 0.274,-3.325 0.493,-5.901 1.79,-11.878 3.483,-17.801 0.089,-0.314 0.179,-0.628 0.271,-0.941 0.516,-1.541 0.911,-3.132 1.526,-4.647 0.255,-0.642 0.511,-1.288 0.766,-1.931 l 20.765,2.357 c -11.585,14.322 -15.82,30.981 -16.132,46.439 z"
           style="fill:#ff2b00;fill-opacity:1;fill-rule:nonzero;stroke:none"
           id="path101631"
           inkscape:connector-curvature="0" /><path
           d="m 79.097,355.824 c -0.115,0.295 -0.229,0.592 -0.343,0.886 -0.635,1.607 -1.042,3.282 -1.57,4.912 -0.243,0.818 -0.51,1.632 -0.733,2.454 l -0.284,1.242 -0.284,1.242 c -0.065,0.326 -0.137,0.651 -0.21,0.975 -0.299,1.326 -0.636,2.637 -0.798,3.975 -0.253,1.653 -0.506,3.297 -0.756,4.928 -0.151,1.641 -0.301,3.27 -0.451,4.886 -0.449,6.469 -0.374,12.75 0.285,18.636 0.425,3.955 0.995,7.744 1.736,11.313 0.274,1.318 0.571,2.607 0.892,3.862 l -2.774,2.307 c -4.782,-17.908 -6.427,-40.561 0.226,-62.193 z"
           style="fill:#ff2b00;fill-opacity:1;fill-rule:nonzero;stroke:none"
           id="path101633"
           inkscape:connector-curvature="0" /><path
           d="m 434.526,381.324 c -0.149,-1.616 -0.299,-3.245 -0.45,-4.886 -0.156,-1.017 -0.313,-2.041 -0.47,-3.067 -0.095,-0.62 -0.191,-1.24 -0.287,-1.862 -0.091,-0.758 -0.241,-1.509 -0.406,-2.258 -0.198,-0.894 -0.421,-1.787 -0.602,-2.691 l -0.567,-2.484 c -0.179,-0.656 -0.384,-1.306 -0.583,-1.958 -0.051,-0.165 -0.1,-0.331 -0.149,-0.496 -0.273,-0.839 -0.513,-1.69 -0.767,-2.537 -0.241,-0.799 -0.496,-1.595 -0.804,-2.375 -0.621,-1.609 -1.246,-3.224 -1.871,-4.841 -0.676,-1.597 -1.475,-3.147 -2.211,-4.725 -0.343,-0.779 -0.732,-1.534 -1.142,-2.279 l 7.014,-2.446 c 7.623,15.708 10.019,32.637 9.35,48.367 l -6.036,-9.145 c -0.007,-0.107 -0.012,-0.211 -0.019,-0.317"
           style="fill:#ff9d00;fill-opacity:1;fill-rule:nonzero;stroke:none"
           id="path101635"
           inkscape:connector-curvature="0" /><path
           d="m 419.897,346.976 c 0.429,0.753 0.837,1.517 1.192,2.311 0.2,0.425 0.408,0.847 0.616,1.269 0.428,0.87 0.858,1.738 1.258,2.618 0.085,0.186 0.173,0.371 0.255,0.559 0.602,1.528 1.207,3.052 1.807,4.571 0.271,0.663 0.496,1.341 0.71,2.023 0.095,0.304 0.189,0.61 0.283,0.916 0.172,0.572 0.345,1.143 0.536,1.709 1.019,3.485 1.905,6.991 2.582,10.492 l -16.252,-24.625 6.721,-2.345 c 0.098,0.167 0.197,0.334 0.292,0.502"
           style="fill:#ff9d00;fill-opacity:1;fill-rule:nonzero;stroke:none"
           id="path101637"
           inkscape:connector-curvature="0" /><path
           d="m 230.201,323.74 c -0.222,-0.182 -0.44,-0.365 -0.654,-0.55 l 0.893,-0.393 z"
           style="fill:#ff6800;fill-opacity:1;fill-rule:nonzero;stroke:none"
           id="path101639"
           inkscape:connector-curvature="0" /><path
           d="m 106.368,318.542 c -0.286,0.24 -0.571,0.483 -0.865,0.716 -1.293,1.072 -2.593,2.148 -3.9,3.23 -1.27,1.125 -2.431,2.384 -3.659,3.58 l -1.823,1.823 c -0.292,0.306 -0.568,0.627 -0.841,0.951 -0.282,0.336 -0.561,0.677 -0.848,1.01 -0.704,0.843 -1.422,1.68 -2.131,2.525 -0.405,0.484 -0.807,0.97 -1.201,1.463 -1.997,2.845 -4.117,5.627 -5.784,8.701 -0.172,0.294 -0.344,0.588 -0.516,0.881 -0.707,1.214 -1.398,2.435 -1.964,3.722 -0.154,0.333 -0.313,0.664 -0.472,0.995 -0.451,0.938 -0.908,1.872 -1.337,2.816 -0.137,0.303 -0.272,0.607 -0.402,0.914 -0.312,0.808 -0.624,1.613 -0.936,2.421 -0.197,0.511 -0.395,1.023 -0.592,1.534 l -5.064,-0.575 c 4.708,-15.308 13.577,-30.101 28.425,-42.34 l 4.095,5.481 c -0.061,0.051 -0.124,0.1 -0.185,0.152"
           style="fill:#ff2100;fill-opacity:1;fill-rule:nonzero;stroke:none"
           id="path101641"
           inkscape:connector-curvature="0" /><path
           d="m 84.979,353.734 c 0.651,-1.506 1.423,-2.961 2.128,-4.447 0.42,-0.941 0.914,-1.843 1.431,-2.731 0.31,-0.534 0.629,-1.062 0.944,-1.592 0.583,-1.092 1.226,-2.144 1.899,-3.177 1.122,-1.722 2.33,-3.386 3.492,-5.075 1.012,-1.286 2.083,-2.527 3.117,-3.791 0.529,-0.622 1.021,-1.275 1.578,-1.867 l 0.456,-0.462 1.255,-1.273 c 2.484,-2.676 5.188,-5.08 7.973,-7.316 l 14.793,19.801 c -7.997,5.019 -14.355,10.755 -19.346,16.926 l -20.765,-2.357 c 0.348,-0.88 0.695,-1.757 1.045,-2.639"
           style="fill:#ff2100;fill-opacity:1;fill-rule:nonzero;stroke:none"
           id="path101643"
           inkscape:connector-curvature="0" /><path
           d="m 109.252,322.003 c 0.174,-0.14 0.348,-0.28 0.522,-0.419 2.009,-1.591 4.055,-3.099 6.092,-4.557 1.326,-0.816 2.641,-1.623 3.943,-2.423 0.652,-0.4 1.301,-0.798 1.947,-1.193 0.121,-0.079 0.244,-0.156 0.366,-0.232 0.204,-0.129 0.41,-0.256 0.618,-0.376 0.321,-0.185 0.646,-0.36 0.977,-0.52 0.693,-0.359 1.381,-0.717 2.066,-1.072 0.634,-0.33 1.265,-0.657 1.892,-0.982 1.311,-0.662 2.571,-1.396 3.913,-1.912 2.649,-1.105 5.198,-2.265 7.723,-3.241 0.069,-0.025 0.136,-0.048 0.205,-0.072 l 0.068,28.882 c -5.761,2.364 -10.923,5.021 -15.539,7.918 z"
           style="fill:#ff2100;fill-opacity:1;fill-rule:nonzero;stroke:none"
           id="path101645"
           inkscape:connector-curvature="0" /><path
           d="m 139.507,301.665 c -0.423,0.122 -0.844,0.243 -1.272,0.367 -0.563,0.182 -1.127,0.379 -1.693,0.58 -2.085,0.745 -4.197,1.597 -6.381,2.4 -1.404,0.477 -2.737,1.176 -4.12,1.803 -0.501,0.236 -1.008,0.472 -1.513,0.708 -0.885,0.414 -1.774,0.829 -2.672,1.249 -1.434,0.616 -2.749,1.506 -4.142,2.275 -1.378,0.801 -2.769,1.609 -4.172,2.425 -1.336,0.928 -2.683,1.861 -4.039,2.803 -0.272,0.189 -0.545,0.379 -0.817,0.568 -0.409,0.283 -0.816,0.566 -1.227,0.85 -0.314,0.215 -0.611,0.453 -0.906,0.697 l -4.095,-5.481 c 9.649,-7.953 21.824,-14.827 37.029,-20.059 z"
           style="fill:#ff2100;fill-opacity:1;fill-rule:nonzero;stroke:none"
           id="path101647"
           inkscape:connector-curvature="0" /><path
           d="m 305.826,303.615 c 0.408,0.041 0.768,0.075 1.075,0.104 0.496,0.046 0.857,0.075 1.065,0.092 0.003,0.001 0.01,0.001 0.015,0.002 0.008,0 0.013,0.001 0.022,0.001 0.108,0.009 0.167,0.013 0.167,0.013 h 10e-4 c 0,0 -0.818,-0.26 -2.252,-0.681 -0.218,-0.067 -0.457,-0.134 -0.707,-0.2 l -0.133,-24.073 c 0.016,0.039 0.031,0.078 0.046,0.118 0.272,0.713 0.55,1.419 0.837,2.112 0.399,0.806 0.798,1.603 1.187,2.387 0.139,0.304 0.293,0.597 0.453,0.885 0.256,0.466 0.531,0.918 0.813,1.356 0.455,0.708 0.862,1.423 1.327,2.074 0.983,1.268 1.814,2.53 2.814,3.516 0.268,0.289 0.53,0.57 0.787,0.846 0.194,0.208 0.386,0.415 0.572,0.614 0.279,0.307 0.591,0.57 0.891,0.823 0.156,0.13 0.309,0.26 0.452,0.39 0.858,0.74 1.582,1.403 2.267,1.818 1.337,0.88 2.103,1.384 2.103,1.384 0,0 -0.004,-0.002 -0.004,-0.003 -0.017,-0.017 -0.228,-0.222 -0.605,-0.59 -0.292,-0.286 -0.685,-0.668 -1.165,-1.136 -0.01,-0.01 -0.019,-0.019 -0.03,-0.028 -0.076,-0.065 -0.152,-0.135 -0.228,-0.208 -0.033,-0.031 -0.065,-0.065 -0.099,-0.098 -0.499,-0.497 -1.003,-1.135 -1.603,-1.799 -0.31,-0.325 -0.614,-0.69 -0.918,-1.08 -0.437,-0.557 -0.876,-1.167 -1.348,-1.8 -0.083,-0.105 -0.164,-0.214 -0.245,-0.322 -0.24,-0.32 -0.476,-0.656 -0.697,-1.012 -0.082,-0.129 -0.162,-0.26 -0.238,-0.394 -0.199,-0.314 -0.403,-0.636 -0.609,-0.961 -0.193,-0.305 -0.39,-0.614 -0.587,-0.927 -0.397,-0.657 -0.732,-1.374 -1.114,-2.081 -0.089,-0.172 -0.181,-0.344 -0.273,-0.517 -0.288,-0.543 -0.581,-1.094 -0.817,-1.685 -0.335,-0.763 -0.677,-1.537 -1.023,-2.323 -0.29,-0.807 -0.579,-1.626 -0.873,-2.449 -0.326,-0.812 -0.551,-1.664 -0.78,-2.519 -0.211,-0.856 -0.52,-1.695 -0.654,-2.574 -0.091,-0.451 -0.182,-0.902 -0.274,-1.354 l 33.852,24.414 c -0.45,-0.035 -0.888,-0.069 -1.313,-0.103 -0.029,-10e-4 -0.06,-0.003 -0.089,-0.006 -0.062,-0.004 -0.122,-0.009 -0.182,-0.013 -2.881,-0.205 -5.151,-0.367 -6.709,-0.479 -0.172,-0.012 -0.335,-0.023 -0.489,-0.033 -1.269,-0.086 -1.943,-0.132 -1.943,-0.132 0,0 0.004,0 0.007,0 0.062,0.012 0.679,0.121 1.802,0.321 0.185,0.033 0.385,0.068 0.598,0.106 0.154,0.026 0.315,0.054 0.482,0.084 1.176,0.204 2.693,0.468 4.517,0.786 0.565,0.098 1.16,0.201 1.783,0.31 0.251,0.042 0.509,0.085 0.77,0.13 0.496,0.083 1.007,0.169 1.535,0.258 0.444,0.102 0.902,0.205 1.367,0.311 l 71.452,51.529 -13.221,3.421 c -16.465,-15.944 -43.909,-27.861 -87.975,-29.923 l 0.151,-4.421 c -2.611,-1.485 -4.729,-2.635 -6.565,-3.477 l -0.058,-10.868 c 0.214,0.018 0.418,0.039 0.61,0.064"
           style="fill:#ff7000;fill-opacity:1;fill-rule:nonzero;stroke:none"
           id="path101649"
           inkscape:connector-curvature="0" /><path
           d="m 238.492,317.211 c 0.405,0.436 0.81,0.86 1.216,1.264 0.545,0.541 1.094,1.048 1.652,1.506 0.526,0.45 1.068,0.843 1.613,1.173 0.499,0.303 0.999,0.553 1.49,0.738 0.498,0.229 1.009,0.33 1.464,0.44 0.052,0.008 0.102,0.015 0.155,0.022 0.404,0.057 0.786,0.077 1.124,0.108 0.773,-0.024 1.362,-0.099 1.756,-0.212 0.391,-0.088 0.601,-0.134 0.601,-0.134 0,0 -0.031,0 -0.09,0 -0.098,0.001 -0.275,0.002 -0.527,0.004 -0.13,-0.004 -0.279,0.004 -0.446,0.002 -0.088,-0.001 -0.182,-0.005 -0.281,-0.017 -0.276,-0.033 -0.59,-0.075 -0.942,-0.119 -0.008,0 -0.016,-10e-4 -0.025,-0.003 -0.455,-0.108 -0.964,-0.247 -1.496,-0.468 -0.293,-0.123 -0.593,-0.27 -0.894,-0.454 -0.138,-0.078 -0.276,-0.165 -0.415,-0.254 -0.237,-0.155 -0.475,-0.328 -0.714,-0.516 -0.479,-0.382 -0.958,-0.827 -1.434,-1.328 -0.552,-0.575 -1.101,-1.22 -1.659,-1.914 -0.225,-0.278 -0.451,-0.565 -0.679,-0.857 l 63.237,-43.874 c 0.057,0.3 0.113,0.599 0.169,0.901 0.157,0.922 0.491,1.802 0.73,2.703 0.138,0.487 0.278,0.973 0.432,1.453 0.129,0.401 0.269,0.798 0.432,1.187 0.039,0.104 0.079,0.208 0.118,0.311 l 0.133,24.073 c -0.567,-0.15 -1.209,-0.298 -1.925,-0.446 -0.592,-0.142 -1.234,-0.264 -1.92,-0.375 -0.5,-0.08 -1.022,-0.156 -1.566,-0.226 -0.299,-0.051 -0.606,-0.086 -0.92,-0.116 -0.036,-0.003 -0.073,-0.008 -0.109,-0.011 -0.323,-0.029 -0.652,-0.052 -0.988,-0.08 -0.211,-0.017 -0.426,-0.033 -0.642,-0.048 -0.21,-0.015 -0.421,-0.026 -0.634,-0.035 -0.296,-0.012 -0.596,-0.019 -0.901,-0.012 -1.497,-0.023 -3.091,0.037 -4.727,0.281 -0.317,0.051 -0.639,0.101 -0.961,0.153 -0.506,0.082 -1.014,0.173 -1.52,0.308 -0.239,0.06 -0.48,0.118 -0.721,0.177 -0.179,0.043 -0.356,0.087 -0.535,0.13 l -1.241,0.413 c -1.652,0.577 -3.287,1.329 -4.805,2.267 -1.521,0.934 -2.928,2.039 -4.198,3.223 -1.286,1.168 -2.41,2.448 -3.444,3.692 -1.812,2.185 -3.32,4.332 -4.81,6.026 -0.215,0.242 -0.427,0.474 -0.64,0.696 -0.132,0.139 -0.264,0.272 -0.398,0.403 -0.718,0.707 -1.443,1.289 -2.166,1.695 -0.844,0.516 -1.684,0.753 -2.389,0.922 -0.364,0.045 -0.686,0.088 -0.966,0.122 -0.1,0.012 -0.192,0.016 -0.282,0.017 -0.166,0.002 -0.317,-0.007 -0.446,-0.002 -0.148,-10e-4 -0.272,-0.002 -0.368,-0.002 -0.161,-0.002 -0.246,-0.002 -0.248,-0.002 h -0.001 c 0,0 0.21,0.046 0.601,0.134 0.393,0.113 0.981,0.188 1.756,0.212 0.381,-0.034 0.815,-0.053 1.28,-0.13 0.455,-0.11 0.966,-0.211 1.462,-0.44 0.221,-0.083 0.441,-0.179 0.663,-0.287 0.222,-0.107 0.444,-0.227 0.667,-0.356 0.598,-0.349 1.195,-0.774 1.773,-1.268 0.063,-0.05 0.123,-0.104 0.187,-0.157 1.84,-1.548 3.572,-3.608 5.457,-5.677 0.154,-0.169 0.309,-0.338 0.466,-0.507 0.418,-0.465 0.856,-0.917 1.303,-1.366 0.68,-0.679 1.386,-1.344 2.106,-2 0.935,-0.844 1.934,-1.626 2.988,-2.323 0.3,-0.198 0.603,-0.388 0.91,-0.572 0.338,-0.216 0.681,-0.422 1.029,-0.619 0.83,-0.467 1.69,-0.872 2.566,-1.226 0.245,-0.1 0.491,-0.197 0.738,-0.286 0.381,-0.145 0.764,-0.279 1.148,-0.405 1.051,-0.344 2.113,-0.619 3.168,-0.831 0.074,-0.015 0.149,-0.031 0.223,-0.045 0.077,-0.014 0.152,-0.026 0.228,-0.039 1.349,-0.246 2.676,-0.425 3.958,-0.518 0.08,-0.006 0.163,-0.015 0.242,-0.021 0.676,-0.077 1.34,-0.068 1.986,-0.088 0.032,-10e-4 0.065,-0.002 0.099,-0.003 0.676,-0.023 1.333,-0.059 1.961,-0.025 0.023,10e-4 0.042,0.002 0.063,0.002 0.47,0.013 0.928,0.022 1.369,0.034 0.716,0.018 1.389,0.044 2.013,0.1 0.537,0.037 1.038,0.065 1.502,0.097 0.196,0.014 0.381,0.029 0.563,0.045 l 0.058,10.868 c -5.863,-2.69 -8.821,-2.198 -15.555,0.864 -8.843,4.02 -11.218,16.078 -35.334,14.671 -7.25,0.423 -12.464,-0.372 -16.454,-1.799 l -7.491,-5.358 z"
           style="fill:#ff7900;fill-opacity:1;fill-rule:nonzero;stroke:none"
           id="path101651"
           inkscape:connector-curvature="0" /><path
           d="m 195.166,292.459 c -0.251,0.313 -0.502,0.608 -0.756,0.875 -0.121,0.133 -0.236,0.265 -0.35,0.395 -0.574,0.66 -1.067,1.273 -1.581,1.71 -0.172,0.168 -0.333,0.324 -0.482,0.469 -0.784,0.764 -1.249,1.217 -1.313,1.28 l -0.008,0.007 c 0,0 0.595,-0.39 1.65,-1.087 0.142,-0.094 0.293,-0.193 0.452,-0.298 0.238,-0.144 0.481,-0.319 0.732,-0.516 0.364,-0.283 0.744,-0.612 1.155,-0.969 0.125,-0.109 0.251,-0.218 0.382,-0.331 0.416,-0.381 0.918,-0.746 1.342,-1.214 0.059,-0.064 0.122,-0.132 0.182,-0.196 l 10.982,9.796 c -0.182,0.039 -0.362,0.078 -0.536,0.12 -0.966,0.2 -1.805,0.398 -2.493,0.605 -0.046,0.014 -0.094,0.027 -0.138,0.041 -0.08,0.023 -0.157,0.046 -0.233,0.068 -0.95,0.28 -1.595,0.48 -1.87,0.566 -0.099,0.031 -0.151,0.047 -0.151,0.047 0,0 0.007,0 0.016,0 0.087,-0.007 0.566,-0.045 1.368,-0.119 0.281,-0.026 0.602,-0.056 0.961,-0.093 0.346,-0.045 0.729,-0.077 1.141,-0.106 0.473,-0.033 0.986,-0.062 1.534,-0.1 0.46,-0.042 0.949,-0.065 1.461,-0.083 l 21.827,19.471 -0.893,0.393 c -3.476,-2.983 -5.938,-6.184 -9.729,-7.907 -8.843,-4.019 -10.4,-3.617 -21.354,2.613 l 0.152,4.421 c -24.489,1.146 -43.84,5.337 -59.032,11.569 l -0.068,-28.882 c 2.484,-0.878 4.889,-1.727 7.198,-2.541 1.973,-0.663 3.924,-1.152 5.786,-1.676 0.394,-0.111 0.783,-0.222 1.167,-0.337 1.107,-0.32 2.187,-0.629 3.236,-0.931 1.049,-0.305 2.095,-0.482 3.097,-0.718 2.008,-0.447 3.889,-0.865 5.628,-1.254 0.628,-0.141 1.237,-0.28 1.829,-0.415 0.226,-0.051 0.452,-0.103 0.674,-0.153 0.461,-0.079 0.91,-0.153 1.347,-0.227 0.325,-0.054 0.646,-0.108 0.957,-0.161 1.506,-0.263 2.845,-0.495 4.004,-0.697 1.09,-0.189 2.021,-0.352 2.779,-0.483 0.466,-0.083 0.865,-0.154 1.199,-0.213 0.791,-0.14 1.207,-0.214 1.207,-0.214 h -0.001 c -0.004,0 -0.145,0.01 -0.413,0.029 -0.383,0.025 -1.028,0.069 -1.918,0.13 -0.035,0.002 -0.067,0.004 -0.102,0.006 -1.589,0.115 -3.92,0.28 -6.888,0.492 -0.302,0.023 -0.613,0.047 -0.927,0.072 -0.179,0.014 -0.359,0.028 -0.542,0.041 -0.288,0.023 -0.579,0.046 -0.878,0.069 -0.188,0.026 -0.379,0.052 -0.571,0.077 -0.421,0.058 -0.852,0.116 -1.292,0.175 -0.229,0.032 -0.46,0.063 -0.694,0.095 -1.779,0.253 -3.704,0.527 -5.76,0.821 -0.811,0.13 -1.654,0.223 -2.505,0.368 -0.225,0.038 -0.45,0.079 -0.675,0.126 -0.231,0.049 -0.465,0.098 -0.7,0.147 -0.577,0.121 -1.161,0.243 -1.754,0.367 -0.293,0.061 -0.587,0.122 -0.883,0.184 -0.871,0.194 -1.763,0.379 -2.672,0.57 -1.467,0.311 -2.977,0.638 -4.508,1.052 -0.5,0.144 -1.007,0.291 -1.517,0.438 -1.353,0.39 -2.733,0.79 -4.142,1.197 -0.256,0.074 -0.516,0.15 -0.775,0.225 l -0.02,-8.815 c 11.708,-4.031 25.208,-7.09 40.738,-8.918 l 3.014,1.185 c 0.847,-0.829 1.646,-1.585 2.402,-2.284 l 10.042,8.958 c -0.174,0.23 -0.346,0.454 -0.517,0.668"
           style="fill:#ff4800;fill-opacity:1;fill-rule:nonzero;stroke:none"
           id="path101653"
           inkscape:connector-curvature="0" /><path
           d="m 342.567,297.549 c 1.051,0.234 2.154,0.478 3.304,0.735 0.754,0.167 1.53,0.339 2.325,0.516 0.686,0.162 1.394,0.298 2.109,0.465 0.328,0.076 0.657,0.158 0.987,0.254 1.051,0.302 2.129,0.611 3.236,0.931 2.205,0.662 4.564,1.21 6.951,2.012 0.622,0.219 1.25,0.441 1.884,0.665 1.789,0.632 3.632,1.282 5.522,1.949 1.499,0.581 3.008,1.226 4.54,1.884 1.048,0.451 2.106,0.908 3.18,1.356 1.037,0.399 2.024,0.926 3.022,1.452 0.296,0.155 0.592,0.311 0.892,0.462 0.709,0.367 1.423,0.737 2.142,1.11 0.603,0.312 1.208,0.626 1.817,0.942 0.678,0.327 1.325,0.714 1.96,1.128 0.23,0.141 0.465,0.285 0.698,0.427 0.416,0.255 0.831,0.51 1.25,0.767 0.469,0.289 0.943,0.579 1.416,0.87 0.838,0.515 1.678,1.031 2.527,1.552 1.226,0.878 2.456,1.775 3.679,2.696 2.518,1.895 5.006,3.9 7.37,6.082 1.216,1.121 2.398,2.289 3.536,3.513 l 1.712,1.736 c 0.348,0.369 0.669,0.76 0.989,1.152 0.119,0.146 0.237,0.29 0.356,0.433 0.077,0.094 0.154,0.19 0.234,0.282 0.656,0.803 1.325,1.597 1.987,2.397 l 0.692,13.502 -71.452,-51.529 c 0.037,0.009 0.071,0.016 0.107,0.025 0.338,0.076 0.68,0.154 1.028,0.234"
           style="fill:#ff3400;fill-opacity:1;fill-rule:nonzero;stroke:none"
           id="path101655"
           inkscape:connector-curvature="0" /><path
           d="m 411.798,327.615 -1.546,-1.547 c -1.23,-1.196 -2.391,-2.455 -3.658,-3.582 -0.552,-0.454 -1.101,-0.909 -1.65,-1.363 -0.753,-0.623 -1.505,-1.245 -2.253,-1.865 -0.658,-0.519 -1.267,-1.096 -1.958,-1.565 -0.681,-0.474 -1.362,-0.947 -2.04,-1.42 -1.359,-0.94 -2.704,-1.875 -4.04,-2.801 -1.403,-0.816 -2.793,-1.625 -4.173,-2.427 -1.392,-0.767 -2.707,-1.658 -4.141,-2.273 -1.41,-0.66 -2.808,-1.311 -4.186,-1.957 -1.382,-0.627 -2.716,-1.326 -4.12,-1.803 -2.776,-1.018 -5.432,-2.123 -8.074,-2.98 -2.662,-0.77 -5.234,-1.514 -7.706,-2.227 -2.479,-0.669 -4.901,-1.114 -7.182,-1.622 -0.787,-0.163 -1.559,-0.326 -2.319,-0.485 -0.342,-0.072 -0.681,-0.142 -1.017,-0.213 -0.205,-0.043 -0.412,-0.081 -0.618,-0.117 -0.871,-0.15 -1.731,-0.245 -2.561,-0.377 -2.056,-0.294 -3.981,-0.568 -5.761,-0.821 -0.255,-0.034 -0.506,-0.069 -0.755,-0.103 -0.619,-0.084 -1.22,-0.166 -1.8,-0.245 -0.31,-0.023 -0.613,-0.047 -0.912,-0.07 -0.011,-0.001 -0.021,-0.002 -0.032,-0.002 l -33.852,-24.414 c -0.028,-0.14 -0.057,-0.281 -0.086,-0.422 l 8.096,-3.243 c -0.025,1.773 0.045,3.15 0.14,4 0.401,3.618 4.022,4.203 13.467,13.446 l 3.014,-1.185 c 38.104,4.485 64.013,16.369 81.117,31.867 z"
           style="fill:#ff3400;fill-opacity:1;fill-rule:nonzero;stroke:none"
           id="path101657"
           inkscape:connector-curvature="0" /><path
           d="m 422.88,342.541 c -0.912,-1.682 -1.961,-3.274 -3.049,-4.838 -0.902,-1.297 -1.831,-2.573 -2.735,-3.863 -1.083,-1.356 -2.225,-2.663 -3.331,-3.99 -0.446,-0.511 -0.868,-1.041 -1.316,-1.546 -0.123,-0.139 -0.247,-0.278 -0.376,-0.413 l -0.275,-0.276 -0.606,-11.816 c 8.909,8.071 15.431,17.122 20.039,26.62 l -7.014,2.446 c -0.432,-0.782 -0.886,-1.552 -1.337,-2.324"
           style="fill:#ff4300;fill-opacity:1;fill-rule:nonzero;stroke:none"
           id="path101659"
           inkscape:connector-curvature="0" /><path
           d="m 413.321,336.712 c 1.336,1.943 2.731,3.852 3.987,5.851 0.492,0.784 0.965,1.58 1.402,2.399 0.301,0.504 0.602,1.007 0.895,1.512 l -6.721,2.345 -0.692,-13.502 c 0.381,0.462 0.759,0.925 1.129,1.395"
           style="fill:#ff4300;fill-opacity:1;fill-rule:nonzero;stroke:none"
           id="path101661"
           inkscape:connector-curvature="0" /><path
           d="m 231.84,310.274 c 0.612,0.556 1.216,1.118 1.8,1.691 0.556,0.546 1.097,1.102 1.611,1.675 1.123,1.214 2.186,2.437 3.241,3.571 l -8.052,5.586 1.309,-12.601 c 0.03,0.026 0.062,0.052 0.091,0.078"
           style="fill:#ff5a00;fill-opacity:1;fill-rule:nonzero;stroke:none"
           id="path101663"
           inkscape:connector-curvature="0" /><path
           d="m 302.851,270.46 c 0.085,0.456 0.17,0.914 0.255,1.371 0.032,0.163 0.062,0.325 0.092,0.487 l -63.237,43.874 c -0.37,-0.474 -0.749,-0.965 -1.139,-1.468 -0.172,-0.223 -0.345,-0.447 -0.522,-0.673 -0.07,-0.09 -0.14,-0.179 -0.21,-0.269 -0.277,-0.351 -0.559,-0.706 -0.849,-1.063 -0.129,-0.159 -0.26,-0.318 -0.391,-0.478 -0.103,-0.123 -0.206,-0.247 -0.311,-0.37 -0.83,-0.985 -1.721,-1.983 -2.705,-2.921 -0.142,-0.136 -0.284,-0.27 -0.43,-0.401 -0.219,-0.205 -0.443,-0.405 -0.671,-0.605 -0.225,-0.196 -0.457,-0.389 -0.69,-0.581 l 7.072,-68.125 63.662,30.715 c 0.024,0.169 0.044,0.339 0.074,0.507"
           style="fill:#ff5a00;fill-opacity:1;fill-rule:nonzero;stroke:none"
           id="path101665"
           inkscape:connector-curvature="0" /><path
           d="m 232.043,307.363 c -0.893,-0.734 -1.839,-1.423 -2.837,-2.036 -1.518,-0.939 -3.151,-1.691 -4.806,-2.268 l -1.241,-0.413 c -0.241,-0.059 -0.478,-0.117 -0.718,-0.175 -0.178,-0.043 -0.359,-0.088 -0.539,-0.132 -0.482,-0.129 -0.967,-0.218 -1.451,-0.297 -0.345,-0.057 -0.688,-0.108 -1.029,-0.164 -1.635,-0.244 -3.229,-0.304 -4.727,-0.281 -0.307,-0.007 -0.609,0 -0.908,0.012 -0.206,0.009 -0.41,0.02 -0.612,0.034 -0.221,0.016 -0.44,0.032 -0.656,0.049 -0.32,0.027 -0.635,0.05 -0.944,0.077 -0.13,0.012 -0.259,0.025 -0.387,0.039 -0.232,0.025 -0.462,0.052 -0.687,0.091 -0.563,0.074 -1.104,0.151 -1.621,0.235 -0.463,0.075 -0.905,0.157 -1.327,0.246 l -10.982,-9.796 c 0.143,-0.153 0.285,-0.305 0.431,-0.463 0.244,-0.26 0.492,-0.527 0.747,-0.8 0.779,-0.769 1.458,-1.706 2.184,-2.683 0.205,-0.276 0.413,-0.554 0.629,-0.833 0.102,-0.143 0.2,-0.29 0.297,-0.437 0.033,-0.05 0.065,-0.099 0.097,-0.149 0.312,-0.483 0.61,-0.986 0.933,-1.488 0.33,-0.514 0.654,-1.044 0.947,-1.6 0.111,-0.21 0.219,-0.423 0.319,-0.641 0.181,-0.362 0.363,-0.727 0.545,-1.094 0.027,-0.054 0.053,-0.107 0.08,-0.162 0.186,-0.375 0.374,-0.752 0.562,-1.131 0.275,-0.663 0.54,-1.34 0.802,-2.023 0.066,-0.173 0.134,-0.346 0.2,-0.52 0.356,-0.849 0.608,-1.742 0.863,-2.639 0.014,-0.051 0.028,-0.102 0.042,-0.154 0.234,-0.847 0.539,-1.678 0.688,-2.549 0.043,-0.23 0.086,-0.46 0.129,-0.69 0.129,-0.69 0.259,-1.381 0.387,-2.068 0.129,-0.764 0.185,-1.538 0.258,-2.303 0.015,-0.154 0.03,-0.309 0.047,-0.462 0.027,-0.276 0.054,-0.549 0.08,-0.822 0.018,-0.183 0.036,-0.367 0.053,-0.549 0,-0.229 -0.001,-0.458 -0.003,-0.686 -0.001,-0.226 -0.003,-0.454 -0.003,-0.679 -0.011,-0.678 -0.005,-1.35 -0.019,-2.013 -0.005,-0.22 -0.012,-0.44 -0.022,-0.659 -0.097,-0.826 -0.168,-1.639 -0.26,-2.433 -0.103,-0.886 -0.232,-1.75 -0.461,-2.572 -0.178,-0.782 -0.353,-1.543 -0.522,-2.279 -0.256,-0.709 -0.503,-1.398 -0.74,-2.056 -0.257,-0.65 -0.421,-1.3 -0.725,-1.862 -0.206,-0.398 -0.404,-0.78 -0.594,-1.148 -0.026,-0.05 -0.051,-0.1 -0.077,-0.149 -0.053,-0.103 -0.107,-0.205 -0.158,-0.307 -0.156,-0.298 -0.306,-0.585 -0.451,-0.86 -0.095,-0.184 -0.189,-0.363 -0.28,-0.537 -0.279,-0.399 -0.535,-0.767 -0.767,-1.099 -0.059,-0.083 -0.116,-0.163 -0.171,-0.24 -0.818,-1.145 -1.294,-1.78 -1.308,-1.8 l -0.002,-0.002 c 0,0 0.387,0.828 1.063,2.278 0.021,0.046 0.045,0.094 0.067,0.141 0.152,0.318 0.316,0.664 0.495,1.038 0.14,0.401 0.292,0.831 0.451,1.286 0.02,0.058 0.04,0.113 0.06,0.17 0.072,0.203 0.145,0.412 0.221,0.623 0.116,0.329 0.237,0.667 0.362,1.019 0.003,0.009 0.006,0.019 0.01,0.028 0.048,0.134 0.093,0.269 0.132,0.41 0.001,0.003 0.002,0.004 0.003,0.007 0.085,0.305 0.155,0.624 0.231,0.949 0.036,0.155 0.074,0.311 0.116,0.467 0.089,0.365 0.181,0.74 0.274,1.121 0.072,0.297 0.145,0.597 0.22,0.903 0.068,0.475 0.138,0.963 0.209,1.457 0.035,0.25 0.071,0.497 0.107,0.751 0.299,1.498 0.229,3.126 0.373,4.776 0.001,0.544 -0.024,1.094 -0.048,1.649 -0.012,0.292 -0.025,0.585 -0.033,0.879 -0.017,0.4 -0.033,0.802 -0.049,1.206 -0.001,0.027 -0.003,0.054 -0.004,0.082 l -0.148,1.294 c -0.112,0.864 -0.168,1.744 -0.328,2.611 -0.145,0.716 -0.291,1.435 -0.436,2.154 -0.03,0.151 -0.061,0.299 -0.091,0.448 -0.052,0.341 -0.13,0.675 -0.218,1.007 -0.14,0.524 -0.305,1.043 -0.434,1.567 -0.172,0.641 -0.341,1.281 -0.554,1.903 -0.07,0.207 -0.146,0.412 -0.228,0.615 -0.294,0.824 -0.585,1.642 -0.872,2.451 -0.208,0.471 -0.414,0.939 -0.618,1.403 -0.137,0.308 -0.272,0.615 -0.406,0.919 -0.297,0.747 -0.683,1.43 -1.043,2.114 -0.015,0.029 -0.031,0.06 -0.047,0.089 -0.381,0.706 -0.718,1.423 -1.113,2.079 -0.075,0.117 -0.147,0.232 -0.221,0.348 -0.204,0.323 -0.405,0.64 -0.603,0.954 -0.125,0.196 -0.249,0.394 -0.372,0.587 -0.216,0.378 -0.449,0.731 -0.689,1.069 -0.161,0.226 -0.325,0.447 -0.49,0.659 -0.246,0.329 -0.482,0.65 -0.713,0.963 -0.095,0.127 -0.189,0.25 -0.281,0.374 l -10.042,-8.958 c 7.666,-7.085 10.698,-7.868 11.063,-11.162 0.402,-3.617 0.399,-16.68 -5.831,-29.945 -0.046,-0.455 -0.079,-0.911 -0.102,-1.367 l 48.344,-1.121 z"
           style="fill:#ff4400;fill-opacity:1;fill-rule:nonzero;stroke:none"
           id="path101667"
           inkscape:connector-curvature="0" /><path
           d="m 210.546,303.275 c 0.016,0 0.033,-10e-4 0.05,-0.002 0.617,-0.033 1.258,0.002 1.919,0.024 0.014,10e-4 0.028,10e-4 0.042,10e-4 0.676,0.025 1.375,0.01 2.086,0.091 0.065,0.005 0.131,0.011 0.196,0.016 1.368,0.099 2.789,0.292 4.233,0.562 1.512,0.29 3.043,0.715 4.539,1.281 1.09,0.399 2.163,0.883 3.193,1.454 0.385,0.214 0.766,0.438 1.138,0.677 0.807,0.479 1.581,1.011 2.325,1.583 0.51,0.393 1.004,0.806 1.482,1.234 l -1.309,12.601 -21.827,-19.471 c 0.188,-0.006 0.378,-0.012 0.572,-0.017 0.439,-0.012 0.893,-0.021 1.361,-0.034"
           style="fill:#ff4400;fill-opacity:1;fill-rule:nonzero;stroke:none"
           id="path101669"
           inkscape:connector-curvature="0" /><path
           d="m 216.821,206.158 c -0.002,-0.165 -0.007,-0.309 -0.004,-0.43 -0.001,-0.203 -0.002,-0.343 -0.002,-0.416 -0.001,-0.025 -0.001,-0.041 -0.001,-0.05 v -0.008 c 0,0 0,0.003 -0.001,0.008 -0.002,0.009 -0.007,0.027 -0.014,0.053 -0.048,0.185 -0.206,0.781 -0.485,1.673 -0.158,0.549 -0.397,1.199 -0.658,1.94 -0.071,0.184 -0.145,0.375 -0.222,0.569 -0.231,0.583 -0.491,1.21 -0.78,1.873 -0.294,0.661 -0.629,1.354 -0.984,2.075 -0.118,0.241 -0.238,0.485 -0.361,0.732 -0.507,0.979 -1.076,1.994 -1.669,3.041 -0.597,1.044 -1.27,2.091 -1.942,3.158 -0.672,1.069 -1.401,2.127 -2.15,3.17 -0.733,1.053 -1.49,2.092 -2.274,3.083 -0.787,0.988 -1.544,1.976 -2.334,2.885 -0.14,0.163 -0.279,0.324 -0.418,0.484 -1.416,1.636 -2.806,3.104 -4.091,4.29 -1.409,1.305 -2.692,2.267 -3.685,2.785 -0.498,0.268 -0.892,0.429 -1.197,0.517 -0.052,0.014 -0.099,0.025 -0.143,0.036 -0.207,0.053 -0.318,0.081 -0.318,0.081 0,0 0.166,0.004 0.476,0.011 0.296,-0.004 0.79,-0.034 1.353,-0.199 1.15,-0.29 2.71,-1.007 4.369,-2.149 0.841,-0.557 1.705,-1.22 2.58,-1.966 0.387,-0.335 0.782,-0.682 1.178,-1.043 0.492,-0.448 0.983,-0.917 1.459,-1.419 0.651,-0.674 1.316,-1.37 1.955,-2.106 0.213,-0.245 0.423,-0.496 0.63,-0.75 0.835,-1.012 1.641,-2.071 2.427,-3.147 0.759,-1.095 1.487,-2.21 2.163,-3.335 0.267,-0.426 0.516,-0.86 0.754,-1.295 0.381,-0.701 0.734,-1.407 1.082,-2.093 0.564,-1.116 1.027,-2.238 1.44,-3.309 0.413,-1.072 0.745,-2.106 1.004,-3.075 0.534,-1.932 0.768,-3.595 0.828,-4.756 0.038,-0.351 0.039,-0.66 0.035,-0.918 m 13.103,-22.619 c -0.064,0.169 -0.129,0.339 -0.192,0.507 -0.371,0.989 -0.73,1.955 -1.133,2.863 -0.498,1.231 -1.035,2.369 -1.527,3.444 -0.07,0.154 -0.139,0.305 -0.209,0.457 -0.538,1.018 -0.99,2.002 -1.469,2.843 -0.069,0.12 -0.138,0.238 -0.207,0.352 -0.106,0.182 -0.208,0.356 -0.308,0.528 -0.156,0.271 -0.308,0.53 -0.451,0.778 -0.083,0.125 -0.163,0.245 -0.242,0.364 -0.165,0.245 -0.319,0.477 -0.462,0.69 -0.411,0.655 -0.823,1.126 -1.086,1.452 -0.266,0.325 -0.408,0.498 -0.408,0.498 0,0 0.003,-0.002 0.008,-0.006 0.037,-0.03 0.206,-0.167 0.491,-0.4 0.281,-0.239 0.703,-0.537 1.155,-1.011 0.064,-0.066 0.129,-0.138 0.195,-0.213 0.275,-0.29 0.578,-0.613 0.908,-0.962 0.297,-0.372 0.618,-0.777 0.962,-1.207 0.706,-0.856 1.372,-1.902 2.119,-3.037 0.694,-1.162 1.479,-2.414 2.155,-3.81 0.098,-0.185 0.193,-0.375 0.29,-0.564 l 3.803,23.048 c -0.242,0.329 -0.482,0.658 -0.719,0.981 -0.59,0.72 -1.167,1.422 -1.729,2.104 -0.407,0.529 -0.849,1.003 -1.284,1.465 -0.146,0.154 -0.29,0.307 -0.432,0.46 -0.571,0.607 -1.104,1.216 -1.652,1.762 -0.208,0.191 -0.407,0.377 -0.607,0.563 -0.35,0.325 -0.693,0.643 -1.022,0.95 -0.51,0.493 -0.999,0.957 -1.5,1.329 -0.997,0.76 -1.801,1.528 -2.576,2.028 -0.867,0.601 -1.522,1.053 -1.921,1.331 -0.296,0.203 -0.454,0.312 -0.454,0.312 h 0.002 c 0.019,-0.009 0.966,-0.456 2.612,-1.23 0.104,-0.049 0.209,-0.101 0.317,-0.155 0.751,-0.389 1.586,-0.953 2.558,-1.543 1.126,-0.665 2.23,-1.608 3.514,-2.563 0.461,-0.38 0.914,-0.796 1.385,-1.22 0.157,-0.142 0.315,-0.284 0.477,-0.426 0.368,-0.327 0.739,-0.666 1.103,-1.021 0.274,-0.267 0.545,-0.543 0.806,-0.836 0.278,-0.293 0.559,-0.591 0.841,-0.892 0.098,-0.104 0.195,-0.208 0.293,-0.312 0.141,-0.148 0.282,-0.3 0.423,-0.45 l 4.364,26.448 -48.344,1.121 c -0.778,-15.499 11.427,-32.088 15.673,-35.309 4.371,-3.317 7.225,-1.81 9.486,-7.838 0.722,-1.925 0.924,-4.496 1.115,-7.448 l 12.528,-8.352 z"
           style="fill:#ff3000;fill-opacity:1;fill-rule:nonzero;stroke:none"
           id="path101671"
           inkscape:connector-curvature="0" /><path
           d="m 296.995,214.177 c -0.407,-0.823 -0.793,-1.608 -1.14,-2.357 -0.069,-0.15 -0.138,-0.302 -0.205,-0.45 -0.387,-0.884 -0.718,-1.704 -1.004,-2.442 -0.145,-0.414 -0.283,-0.797 -0.403,-1.153 -0.097,-0.28 -0.183,-0.545 -0.253,-0.787 -0.342,-1.089 -0.5,-1.734 -0.5,-1.734 v 0.004 c 0,0.018 -0.001,0.18 -0.003,0.47 0.007,0.308 -0.03,0.771 0.03,1.348 0.06,1.161 0.295,2.824 0.828,4.756 0.113,0.419 0.241,0.852 0.382,1.292 0.183,0.58 0.388,1.175 0.623,1.783 0.414,1.071 0.875,2.193 1.439,3.309 0.565,1.114 1.14,2.275 1.836,3.388 0.021,0.036 0.044,0.071 0.065,0.107 l 4.545,35.331 c -0.018,0.08 -0.035,0.158 -0.053,0.24 -0.173,0.618 -0.289,1.26 -0.38,1.918 -0.138,0.998 -0.218,2.033 -0.343,3.087 -0.042,0.875 -0.026,1.769 -0.041,2.673 -0.001,0.452 -0.004,0.906 -0.007,1.365 0.022,0.216 0.043,0.433 0.065,0.649 0.023,0.239 0.046,0.479 0.07,0.721 0.084,0.747 0.133,1.504 0.231,2.258 l -63.662,-30.715 29.142,-36.745 c 0.189,0.319 0.377,0.636 0.566,0.954 0.324,0.545 0.65,1.091 0.97,1.632 0.273,0.49 0.586,0.953 0.905,1.408 0.278,0.395 0.561,0.784 0.826,1.179 0.583,0.846 1.164,1.677 1.808,2.442 0.137,0.17 0.272,0.34 0.406,0.509 0.483,0.607 0.955,1.206 1.441,1.777 0.324,0.344 0.645,0.685 0.962,1.023 0.326,0.347 0.649,0.69 0.968,1.028 0.61,0.681 1.266,1.284 1.91,1.855 0.645,0.569 1.247,1.139 1.861,1.647 0.465,0.347 0.906,0.691 1.334,1.021 0.753,0.581 1.462,1.119 2.181,1.543 0.138,0.085 0.274,0.168 0.408,0.251 0.233,0.143 0.459,0.286 0.676,0.423 0.656,0.409 1.245,0.772 1.792,1.023 0.24,0.112 0.464,0.219 0.674,0.317 1.24,0.585 1.936,0.913 1.936,0.913 h -10e-4 c -0.013,-0.009 -0.328,-0.228 -0.899,-0.623 -0.38,-0.264 -0.876,-0.607 -1.473,-1.02 -0.775,-0.5 -1.579,-1.268 -2.574,-2.028 -0.503,-0.373 -0.992,-0.836 -1.502,-1.329 -0.516,-0.481 -1.062,-0.987 -1.628,-1.513 -0.549,-0.546 -1.082,-1.156 -1.653,-1.762 -0.568,-0.611 -1.174,-1.221 -1.716,-1.925 -0.371,-0.45 -0.75,-0.912 -1.133,-1.379 -0.198,-0.24 -0.395,-0.48 -0.595,-0.725 -0.55,-0.747 -1.109,-1.515 -1.68,-2.292 -0.59,-0.763 -1.117,-1.591 -1.648,-2.432 -0.12,-0.197 -0.245,-0.391 -0.372,-0.587 -0.221,-0.341 -0.447,-0.682 -0.669,-1.027 -0.194,-0.305 -0.385,-0.612 -0.562,-0.932 -0.505,-0.878 -1.015,-1.762 -1.526,-2.651 -0.136,-0.243 -0.265,-0.49 -0.392,-0.739 l 10.198,-12.857 c 0.008,0.017 0.016,0.034 0.026,0.052 0.287,0.595 0.596,1.163 0.908,1.71 0.419,0.736 0.847,1.434 1.243,2.1 0.571,0.862 1.09,1.671 1.618,2.386 0.167,0.227 0.334,0.445 0.503,0.651 0.161,0.202 0.316,0.397 0.467,0.587 0.171,0.214 0.337,0.422 0.495,0.62 0.058,0.061 0.114,0.121 0.17,0.18 0.265,0.281 0.512,0.542 0.74,0.782 0.33,0.379 0.652,0.659 0.927,0.881 0.16,0.131 0.304,0.243 0.422,0.343 0.075,0.061 0.142,0.115 0.2,0.163 0.055,0.045 0.103,0.084 0.142,0.116 0.096,0.079 0.147,0.121 0.154,0.125 l 0.002,0.002 c 0,0 -0.036,-0.043 -0.103,-0.127 -0.07,-0.084 -0.172,-0.209 -0.304,-0.371 -0.182,-0.225 -0.435,-0.521 -0.709,-0.896 -0.123,-0.169 -0.251,-0.353 -0.378,-0.556 -0.053,-0.078 -0.106,-0.158 -0.161,-0.241 -0.168,-0.252 -0.35,-0.524 -0.544,-0.813 -0.234,-0.405 -0.486,-0.84 -0.759,-1.306 -0.12,-0.198 -0.239,-0.409 -0.357,-0.625 -0.423,-0.778 -0.837,-1.659 -1.318,-2.57 -0.546,-1.208 -1.166,-2.495 -1.735,-3.901 -0.129,-0.293 -0.253,-0.594 -0.376,-0.897 l 9.219,-11.624 c 3.423,8.914 1.948,17.943 3.778,22.824 0.501,1.335 1.031,2.3 1.603,3.029 l 2.018,15.697 c -0.331,-0.597 -0.655,-1.188 -0.952,-1.761"
           style="fill:#ff4200;fill-opacity:1;fill-rule:nonzero;stroke:none"
           id="path101673"
           inkscape:connector-curvature="0" /><path
           d="m 305.191,270.089 c -0.059,-0.316 -0.1,-0.633 -0.138,-0.951 -0.069,-0.555 -0.117,-1.11 -0.189,-1.66 l -0.149,-1.295 c -0.017,-0.431 -0.035,-0.861 -0.051,-1.287 -0.026,-0.854 -0.084,-1.699 -0.082,-2.529 0.126,-1.443 0.087,-2.87 0.276,-4.208 0.027,-0.192 0.059,-0.382 0.096,-0.568 0.066,-0.455 0.129,-0.899 0.192,-1.338 0.042,-0.292 0.083,-0.584 0.125,-0.869 0.078,-0.32 0.153,-0.634 0.23,-0.944 0.013,-0.052 0.025,-0.105 0.039,-0.157 0.076,-0.313 0.15,-0.622 0.225,-0.924 0.007,-0.028 0.013,-0.056 0.021,-0.085 0.032,-0.124 0.063,-0.249 0.092,-0.372 0.115,-0.488 0.214,-0.968 0.38,-1.404 0.204,-0.577 0.398,-1.126 0.582,-1.642 0.127,-0.359 0.246,-0.702 0.36,-1.029 0.051,-0.145 0.102,-0.288 0.15,-0.427 0.205,-0.429 0.393,-0.824 0.563,-1.179 0.677,-1.45 1.063,-2.278 1.063,-2.278 0,0 -10e-4,0.002 -10e-4,0.003 -0.013,0.016 -0.202,0.267 -0.536,0.726 -0.205,0.281 -0.464,0.641 -0.774,1.073 -0.056,0.077 -0.112,0.157 -0.171,0.24 -0.23,0.332 -0.489,0.7 -0.766,1.099 -0.112,0.213 -0.227,0.435 -0.348,0.664 -0.008,0.016 -0.015,0.03 -0.024,0.046 -0.115,0.222 -0.234,0.451 -0.358,0.687 -0.261,0.504 -0.538,1.04 -0.83,1.604 -0.305,0.562 -0.469,1.212 -0.726,1.861 -0.237,0.659 -0.484,1.348 -0.739,2.057 -0.152,0.66 -0.307,1.342 -0.468,2.039 l -4.545,-35.331 c 0.658,1.089 1.364,2.168 2.099,3.228 0.168,0.232 0.337,0.459 0.508,0.688 0.625,0.839 1.264,1.664 1.92,2.458 0.405,0.502 0.827,0.984 1.255,1.451 0.441,0.484 0.887,0.95 1.328,1.406 0.298,0.314 0.6,0.611 0.906,0.902 0.579,0.552 1.164,1.07 1.732,1.561 0.627,0.534 1.25,1.024 1.861,1.465 0.028,0.02 0.057,0.043 0.085,0.064 0.213,0.151 0.424,0.296 0.635,0.436 1.658,1.142 3.216,1.859 4.37,2.149 0.175,0.052 0.345,0.089 0.506,0.117 0.345,0.062 0.643,0.078 0.844,0.082 0.176,-0.004 0.301,-0.007 0.381,-0.009 0.061,-0.002 0.095,-0.002 0.095,-0.002 0,0 -0.161,-0.041 -0.46,-0.117 -0.18,-0.052 -0.394,-0.133 -0.638,-0.241 -0.17,-0.077 -0.353,-0.165 -0.559,-0.276 -0.662,-0.344 -1.454,-0.889 -2.321,-1.597 -0.438,-0.356 -0.893,-0.75 -1.365,-1.188 -0.667,-0.616 -1.364,-1.31 -2.078,-2.062 -0.794,-0.837 -1.609,-1.747 -2.431,-2.712 -0.195,-0.225 -0.388,-0.454 -0.58,-0.687 -0.41,-0.497 -0.815,-1.012 -1.226,-1.531 -0.175,-0.222 -0.35,-0.444 -0.528,-0.667 -0.155,-0.196 -0.306,-0.395 -0.46,-0.595 -0.62,-0.808 -1.223,-1.643 -1.814,-2.487 -0.57,-0.797 -1.13,-1.603 -1.662,-2.414 -0.166,-0.252 -0.329,-0.504 -0.489,-0.757 -0.3,-0.478 -0.599,-0.951 -0.893,-1.422 -0.062,-0.1 -0.124,-0.198 -0.185,-0.297 -0.297,-0.482 -0.588,-0.961 -0.862,-1.439 -0.124,-0.221 -0.247,-0.44 -0.37,-0.656 -0.117,-0.21 -0.231,-0.416 -0.347,-0.624 l -2.018,-15.697 c 2.006,2.568 4.504,2.226 7.906,4.809 4.372,3.315 17.191,20.801 15.584,36.676 -4.766,10.148 -5.883,20.172 -5.965,25.945 l -8.096,3.243 c -0.054,-0.275 -0.11,-0.551 -0.167,-0.825"
           style="fill:#ff3100;fill-opacity:1;fill-rule:nonzero;stroke:none"
           id="path101675"
           inkscape:connector-curvature="0" /><path
           d="m 232.803,182.019 c 0.147,-0.381 0.296,-0.765 0.449,-1.15 l 15.267,-2.252 c -0.236,1.069 -0.482,2.184 -0.826,3.321 -0.06,0.214 -0.121,0.434 -0.181,0.65 -0.181,0.65 -0.364,1.309 -0.552,1.984 -0.289,0.886 -0.585,1.791 -0.885,2.711 -0.12,0.41 -0.255,0.82 -0.398,1.228 -0.279,0.791 -0.589,1.582 -0.904,2.379 -0.258,0.656 -0.518,1.317 -0.759,1.988 -0.269,0.66 -0.565,1.313 -0.859,1.971 -0.124,0.277 -0.248,0.555 -0.37,0.836 l -0.627,1.407 -0.707,1.372 c -0.151,0.296 -0.299,0.595 -0.446,0.893 -0.308,0.626 -0.612,1.251 -0.951,1.857 -0.512,0.888 -1.021,1.772 -1.526,2.65 -0.491,0.888 -1.086,1.699 -1.604,2.546 -0.53,0.841 -1.057,1.669 -1.648,2.432 -0.324,0.441 -0.643,0.878 -0.96,1.311 l -3.803,-23.048 c 0.625,-1.213 1.205,-2.508 1.794,-3.855 0.171,-0.404 0.334,-0.816 0.496,-1.231"
           style="fill:#ff3700;fill-opacity:1;fill-rule:nonzero;stroke:none"
           id="path101677"
           inkscape:connector-curvature="0" /><path
           d="m 230.335,182.475 c -0.076,0.191 -0.151,0.382 -0.225,0.574 -0.063,0.164 -0.124,0.327 -0.186,0.49 l -0.351,-2.127 1.19,-0.176 c -0.145,0.416 -0.287,0.829 -0.428,1.239"
           style="fill:#ff3700;fill-opacity:1;fill-rule:nonzero;stroke:none"
           id="path101679"
           inkscape:connector-curvature="0" /><path
           d="m 236.578,210.602 c 0.131,-0.164 0.262,-0.329 0.395,-0.494 0.644,-0.765 1.221,-1.596 1.805,-2.442 0.575,-0.851 1.223,-1.671 1.734,-2.587 0.534,-0.899 1.073,-1.808 1.614,-2.72 0.396,-0.688 0.753,-1.401 1.115,-2.112 0.121,-0.235 0.243,-0.473 0.367,-0.708 l 0.713,-1.428 0.627,-1.461 c 0.102,-0.24 0.204,-0.479 0.308,-0.717 0.315,-0.732 0.634,-1.458 0.923,-2.192 0.707,-1.97 1.424,-3.898 1.924,-5.827 0.086,-0.319 0.178,-0.636 0.269,-0.951 0.181,-0.629 0.362,-1.252 0.505,-1.872 0.195,-0.939 0.384,-1.854 0.569,-2.744 0.233,-0.971 0.38,-1.925 0.505,-2.849 0.05,-0.377 0.098,-0.748 0.145,-1.112 l 9.914,-1.463 c 0.016,0.12 0.03,0.24 0.051,0.361 0.227,1.567 0.371,3.29 0.797,5.063 0.183,0.89 0.372,1.805 0.567,2.743 0.068,0.295 0.146,0.59 0.227,0.887 0.175,0.638 0.369,1.281 0.547,1.937 0.367,1.412 0.851,2.827 1.362,4.256 0.186,0.521 0.376,1.045 0.564,1.571 0.383,0.973 0.818,1.934 1.229,2.909 l 0.279,0.65 0.349,0.811 0.713,1.428 c 0.496,0.94 0.952,1.902 1.482,2.819 0.026,0.046 0.052,0.09 0.08,0.135 l -29.142,36.745 -4.364,-26.448 c 0.124,-0.132 0.247,-0.263 0.373,-0.396 0.49,-0.576 0.968,-1.182 1.454,-1.792"
           style="fill:#ff3700;fill-opacity:1;fill-rule:nonzero;stroke:none"
           id="path101681"
           inkscape:connector-curvature="0" /><path
           d="m 281.126,185.503 c -0.382,-0.979 -0.749,-2 -1.156,-3.028 -0.537,-1.563 -1.114,-3.166 -1.614,-4.829 -0.092,-0.299 -0.186,-0.603 -0.279,-0.906 -0.165,-0.529 -0.329,-1.06 -0.494,-1.593 -0.069,-0.26 -0.139,-0.523 -0.208,-0.785 l 12.383,-1.826 c 0.288,0.616 0.552,1.235 0.79,1.852 l -9.219,11.624 c -0.069,-0.168 -0.137,-0.337 -0.203,-0.509"
           style="fill:#ff3700;fill-opacity:1;fill-rule:nonzero;stroke:none"
           id="path101683"
           inkscape:connector-curvature="0" /><path
           d="m 268.852,198.464 -0.706,-1.372 -0.628,-1.407 c -0.156,-0.358 -0.315,-0.712 -0.473,-1.067 -0.26,-0.578 -0.518,-1.156 -0.757,-1.74 -0.684,-1.907 -1.517,-3.733 -2.059,-5.594 -0.124,-0.376 -0.245,-0.747 -0.365,-1.118 -0.06,-0.183 -0.12,-0.364 -0.179,-0.547 -0.114,-0.35 -0.228,-0.701 -0.34,-1.047 -0.252,-0.9 -0.497,-1.779 -0.734,-2.634 -0.224,-0.74 -0.405,-1.468 -0.57,-2.181 -0.215,-0.935 -0.403,-1.839 -0.616,-2.698 -0.029,-0.112 -0.052,-0.222 -0.078,-0.333 L 275,174.712 c 0.104,0.37 0.208,0.74 0.312,1.107 0.128,0.391 0.255,0.782 0.383,1.17 0.021,0.067 0.042,0.132 0.065,0.199 0.129,0.395 0.258,0.79 0.386,1.181 0.185,0.607 0.396,1.199 0.621,1.783 0.09,0.235 0.183,0.469 0.278,0.702 0.145,0.365 0.286,0.727 0.426,1.087 0.161,0.413 0.323,0.822 0.492,1.225 0.012,0.028 0.023,0.058 0.036,0.084 0.67,1.536 1.327,3.012 2.057,4.367 l -10.198,12.857 c -0.051,-0.099 -0.103,-0.2 -0.153,-0.299 -0.287,-0.569 -0.563,-1.144 -0.853,-1.711"
           style="fill:#ff3700;fill-opacity:1;fill-rule:nonzero;stroke:none"
           id="path101685"
           inkscape:connector-curvature="0" /><path
           d="m 217.045,189.764 c 0.142,-2.214 0.278,-4.644 0.62,-7.179 l 11.908,-1.173 z"
           style="fill:#ff2100;fill-opacity:1;fill-rule:nonzero;stroke:none"
           id="path101687"
           inkscape:connector-curvature="0" /><path
           d="m 238.763,98.517 c -0.011,0.137 -0.019,0.274 -0.032,0.412 l -0.395,3.925 c -0.031,0.34 -0.067,0.68 -0.105,1.019 -0.106,0.97 -0.23,1.942 -0.332,2.913 l -0.175,1.573 -0.266,2.361 -0.916,7.872 -0.917,7.874 -0.521,4.768 -0.349,3.179 c -0.026,0.241 -0.049,0.482 -0.073,0.722 -0.08,0.815 -0.152,1.625 -0.21,2.423 -0.022,0.288 -0.042,0.576 -0.06,0.86 l -0.008,0.125 -0.005,0.061 v -0.001 c 0,-0.011 -0.001,-0.016 -0.001,-0.017 v 10e-4 c -0.001,0.008 0.004,0.147 0.006,0.144 l 0.003,0.022 0.004,0.021 0.017,0.085 c 0.05,0.23 0.118,0.459 0.251,0.633 0.1,0.158 0.209,0.279 0.318,0.371 0.029,0.025 0.06,0.05 0.089,0.071 0.15,0.125 0.279,0.189 0.407,0.251 0.213,0.098 0.409,0.163 0.594,0.21 0.258,0.066 0.495,0.095 0.726,0.124 0.02,0.001 0.038,0.001 0.056,0.002 0.763,0.061 1.434,0.029 2.166,-0.056 l 0.442,-0.052 0.11,-0.013 0.061,-0.123 0.186,-0.366 0.542,-1.073 -2.302,9.07 c -0.031,-0.282 -0.06,-0.554 -0.083,-0.804 -0.137,-1.27 -0.241,-2.092 -0.275,-2.355 -0.007,-0.061 -0.012,-0.093 -0.012,-0.093 0,0 -0.07,0.893 -0.193,2.456 -0.027,0.331 -0.047,0.695 -0.07,1.082 -0.031,0.526 -0.066,1.101 -0.123,1.721 -0.056,0.523 -0.115,1.077 -0.173,1.658 l -7.572,29.839 -7.337,-12.119 c 0.243,-0.377 0.493,-0.751 0.761,-1.124 7.637,-10.65 4.784,-17.283 9.608,-31.149 3.507,-10.085 -0.782,-30.041 -0.911,-42.154 z"
           style="fill:#ff2100;fill-opacity:1;fill-rule:nonzero;stroke:none"
           id="path101689"
           inkscape:connector-curvature="0" /><path
           d="m 236.443,138.233 0.003,0.005 c -0.015,-0.008 -0.026,-0.012 -0.003,-0.005"
           style="fill:#ff2100;fill-opacity:1;fill-rule:nonzero;stroke:none"
           id="path101691"
           inkscape:connector-curvature="0" /><path
           d="m 241.351,132.946 c -1.033,1.82 -2.069,3.635 -3.071,5.475 -0.062,0.004 -0.125,0.005 -0.188,0.006 -0.043,0.001 -0.086,0.003 -0.13,0.004 -0.236,0.003 -0.47,-0.002 -0.692,-0.018 -0.076,-0.006 -0.151,-0.013 -0.223,-0.02 -0.163,-0.02 -0.306,-0.056 -0.423,-0.091 0.024,-0.263 0.052,-0.523 0.078,-0.782 0.107,-1.006 0.231,-1.991 0.36,-2.963 l 0.467,-3.909 0.469,-3.908 c 0.327,-2.624 0.589,-5.259 0.883,-7.888 0.048,-0.458 0.095,-0.916 0.141,-1.374 0.226,-2.176 0.449,-4.352 0.637,-6.532 0.032,-0.43 0.068,-0.859 0.102,-1.288 0.182,-2.213 0.395,-4.421 0.503,-6.645 l 0.183,-3.626 8.787,4.537 -6.953,27.404 c -0.312,0.538 -0.625,1.076 -0.93,1.618"
           style="fill:#ff2100;fill-opacity:1;fill-rule:nonzero;stroke:none"
           id="path101693"
           inkscape:connector-curvature="0" /><path
           d="m 217.665,182.585 c 0.579,-4.307 1.756,-8.917 4.571,-13.292 l 7.337,12.119 z"
           style="fill:#ff2100;fill-opacity:1;fill-rule:nonzero;stroke:none"
           id="path101695"
           inkscape:connector-curvature="0" /><path
           d="m 236.417,157.785 c -0.032,0.268 -0.071,0.537 -0.112,0.809 -0.191,1.258 -0.454,2.556 -0.644,3.903 -0.286,1.629 -0.677,3.295 -1.001,4.996 -0.316,1.263 -0.582,2.553 -0.909,3.83 -0.11,0.427 -0.227,0.851 -0.355,1.273 -0.226,0.852 -0.45,1.703 -0.674,2.551 -0.26,0.837 -0.52,1.673 -0.776,2.499 -0.368,1.226 -0.778,2.42 -1.183,3.59 l -1.19,0.176 7.572,-29.839 c -0.064,0.623 -0.126,1.276 -0.184,1.959 -0.133,1.322 -0.376,2.744 -0.544,4.253"
           style="fill:#ff2d00;fill-opacity:1;fill-rule:nonzero;stroke:none"
           id="path101697"
           inkscape:connector-curvature="0" /><path
           d="m 277.245,173.872 c -0.113,-0.426 -0.225,-0.85 -0.338,-1.276 -0.51,-1.687 -0.843,-3.42 -1.263,-5.103 -0.323,-1.701 -0.715,-3.369 -1,-4.996 -0.232,-1.637 -0.575,-3.206 -0.757,-4.714 -0.168,-1.507 -0.412,-2.929 -0.544,-4.251 -0.112,-1.323 -0.239,-2.537 -0.356,-3.617 -0.068,-0.73 -0.104,-1.398 -0.14,-1.996 -0.017,-0.285 -0.034,-0.555 -0.054,-0.807 -0.12,-1.522 -0.189,-2.405 -0.193,-2.452 v -0.004 c 0,0 -0.084,0.623 -0.209,1.742 -0.025,0.218 -0.05,0.452 -0.078,0.706 -0.024,0.274 -0.057,0.57 -0.091,0.885 -0.066,0.581 -0.133,1.23 -0.159,1.94 -0.041,1.092 -0.084,2.327 -0.102,3.676 -0.02,1.352 0.066,2.812 0.135,4.361 0.065,1.549 0.268,3.169 0.45,4.852 0.18,1.312 0.378,2.661 0.614,4.023 0.066,0.374 0.133,0.75 0.204,1.127 0.106,0.453 0.205,0.911 0.304,1.371 0.125,0.591 0.251,1.184 0.384,1.777 0.156,0.703 0.325,1.405 0.526,2.1 0.141,0.5 0.281,0.998 0.422,1.496 l -13.653,2.014 c -0.052,-0.227 -0.103,-0.453 -0.147,-0.675 -0.081,-0.404 -0.148,-0.799 -0.21,-1.183 -0.127,-0.701 -0.247,-1.366 -0.359,-1.99 -0.246,-1.248 -0.386,-2.349 -0.495,-3.256 -0.255,-1.817 -0.401,-2.857 -0.401,-2.857 v 0.011 c -0.004,0.122 -0.031,1.153 -0.078,2.876 -0.019,0.923 -0.053,2.045 0.057,3.325 0.041,0.51 0.063,1.053 0.094,1.619 0.037,0.738 0.088,1.518 0.202,2.327 l -9.914,1.463 c 0.048,-0.375 0.096,-0.742 0.148,-1.102 0.143,-0.88 0.201,-1.726 0.243,-2.528 0.034,-0.623 0.057,-1.22 0.102,-1.779 0.056,-0.64 0.074,-1.241 0.078,-1.796 0.002,-0.557 -0.012,-1.068 -0.021,-1.529 -0.019,-0.706 -0.036,-1.294 -0.047,-1.753 -0.021,-0.735 -0.033,-1.134 -0.033,-1.134 v 0.004 c -0.006,0.046 -0.151,1.077 -0.399,2.853 -0.11,0.907 -0.248,2.008 -0.494,3.256 -0.088,0.485 -0.18,0.997 -0.276,1.529 -0.028,0.152 -0.055,0.305 -0.083,0.461 -0.112,0.7 -0.245,1.435 -0.437,2.19 -0.125,0.505 -0.24,1.027 -0.358,1.559 l -15.267,2.252 c 0.002,-0.005 0.003,-0.01 0.006,-0.015 0.329,-0.807 0.64,-1.631 0.898,-2.485 0.278,-0.844 0.556,-1.695 0.836,-2.55 0.243,-0.865 0.488,-1.733 0.734,-2.603 0.501,-1.736 0.811,-3.519 1.213,-5.248 0.333,-1.745 0.59,-3.477 0.821,-5.15 0.157,-1.477 0.334,-2.909 0.419,-4.285 0.011,-0.19 0.021,-0.379 0.029,-0.567 0.012,-0.264 0.023,-0.521 0.036,-0.778 0.033,-0.719 0.064,-1.415 0.082,-2.088 0.015,-0.509 0.025,-1.01 0.018,-1.492 -0.02,-1.352 -0.064,-2.587 -0.105,-3.679 -0.004,-0.138 -0.01,-0.272 -0.018,-0.405 -0.033,-0.586 -0.093,-1.124 -0.147,-1.616 l 2.302,-9.07 5.64,-11.169 c 1.056,-2.026 2.072,-4.077 3.158,-6.089 0.54,-1.007 1.091,-2.007 1.675,-2.988 0.2,-0.33 0.395,-0.664 0.598,-0.993 0.096,-0.157 0.194,-0.312 0.294,-0.464 0.039,-0.06 0.08,-0.117 0.12,-0.176 0.103,-0.147 0.206,-0.294 0.315,-0.437 0.021,-0.027 0.041,-0.055 0.062,-0.083 0.102,-0.114 0.201,-0.249 0.32,-0.353 0.068,-0.061 0.141,-0.111 0.224,-0.143 0.031,-0.012 0.061,-0.021 0.095,-0.027 -0.298,0.015 -0.509,0.269 -0.721,0.451 -0.061,0.061 -0.121,0.124 -0.18,0.187 -0.14,0.146 -0.277,0.296 -0.408,0.449 -0.182,0.213 -0.36,0.429 -0.534,0.647 -0.011,0.014 -0.022,0.028 -0.033,0.041 -0.173,0.219 -0.342,0.442 -0.504,0.668 -0.681,0.929 -1.328,1.88 -1.966,2.836 -1.268,1.917 -2.516,3.846 -3.691,5.818 -0.309,0.51 -0.616,1.022 -0.922,1.534 -0.552,0.924 -1.098,1.85 -1.637,2.781 l 6.953,-27.404 15.313,24.255 5.926,11.732 0.244,0.489 0.553,0.065 c 0.372,0.044 0.727,0.073 1.087,0.084 l 9.206,14.58 c 0.865,4.219 2.19,8.219 5.649,13.04 1.026,1.432 1.859,2.894 2.546,4.367 l -12.383,1.826 c -0.044,-0.163 -0.087,-0.326 -0.13,-0.49"
           style="fill:#ff2d00;fill-opacity:1;fill-rule:nonzero;stroke:none"
           id="path101699"
           inkscape:connector-curvature="0" /><path
           d="m 273.856,138.238 0.005,-0.005 c 0.023,-0.008 0.012,-0.003 -0.005,0.005"
           style="fill:#ff2500;fill-opacity:1;fill-rule:nonzero;stroke:none"
           id="path101701"
           inkscape:connector-curvature="0" /><path
           d="m 270.04,103.013 c 0.11,2.325 0.339,4.629 0.526,6.94 0.027,0.331 0.052,0.661 0.078,0.992 0.227,2.64 0.505,5.272 0.78,7.906 0.291,2.628 0.554,5.262 0.881,7.889 l 0.938,7.815 c 0.16,1.225 0.318,2.466 0.436,3.747 -0.116,0.035 -0.259,0.071 -0.422,0.091 -0.158,0.019 -0.328,0.028 -0.501,0.034 -0.136,0.005 -0.274,0.006 -0.413,0.004 -0.108,-0.002 -0.213,-0.004 -0.321,-0.01 -0.353,-0.65 -0.712,-1.298 -1.073,-1.943 -0.66,-1.181 -1.327,-2.356 -1.994,-3.532 -0.238,-0.422 -0.479,-0.84 -0.721,-1.258 -0.906,-1.569 -1.835,-3.124 -2.769,-4.675 -0.506,-0.849 -1.027,-1.688 -1.556,-2.522 -0.699,-1.106 -1.413,-2.204 -2.136,-3.296 -0.638,-0.956 -1.285,-1.907 -1.965,-2.836 -0.337,-0.467 -0.697,-0.917 -1.073,-1.355 -0.187,-0.22 -0.382,-0.435 -0.587,-0.637 -0.211,-0.182 -0.424,-0.436 -0.722,-0.451 0.285,0.05 0.459,0.319 0.641,0.523 0.175,0.223 0.338,0.458 0.495,0.696 0.168,0.253 0.327,0.513 0.485,0.775 0.136,0.228 0.271,0.455 0.41,0.682 0.581,0.98 1.133,1.981 1.675,2.989 0.147,0.273 0.29,0.548 0.435,0.822 0.537,1.015 1.062,2.035 1.584,3.057 0.377,0.737 0.754,1.475 1.139,2.209 l 0.257,0.51 -15.313,-24.255 20.585,-5.534 c 0.006,0.214 0.008,0.427 0.02,0.64 z"
           style="fill:#ff2500;fill-opacity:1;fill-rule:nonzero;stroke:none"
           id="path101703"
           inkscape:connector-curvature="0" /><path
           d="m 273.491,140.519 c 0.282,-0.035 0.574,-0.072 0.904,-0.175 0.131,-0.041 0.269,-0.093 0.417,-0.16 0.032,-0.015 0.065,-0.031 0.097,-0.047 0.097,-0.05 0.196,-0.111 0.31,-0.205 0.104,-0.073 0.21,-0.172 0.309,-0.302 0.034,-0.043 0.067,-0.09 0.098,-0.14 0.03,-0.038 0.055,-0.082 0.078,-0.125 0.082,-0.153 0.134,-0.331 0.171,-0.51 l 0.012,-0.051 0.007,-0.033 0.006,-0.042 c 0.001,0.002 0.005,-0.16 0.004,-0.144 -10e-4,0.002 -10e-4,0.008 -10e-4,0.018 l -0.003,-0.06 -0.008,-0.125 c -0.083,-1.308 -0.201,-2.649 -0.343,-4.005 l -0.87,-7.947 -1.834,-15.746 -0.197,-1.749 -0.245,-2.185 c -0.07,-0.679 -0.152,-1.358 -0.231,-2.037 -0.074,-0.632 -0.146,-1.264 -0.203,-1.895 l -0.396,-3.927 c -0.031,-0.332 -0.052,-0.661 -0.072,-0.989 l 6.74,-1.811 c -0.329,12.196 -4.122,31.152 -0.734,40.893 2.639,7.587 3.012,13.009 4.056,18.109 l -9.206,-14.58 c 0.367,0.011 0.737,0.002 1.134,-0.03"
           style="fill:#ff2500;fill-opacity:1;fill-rule:nonzero;stroke:none"
           id="path101705"
           inkscape:connector-curvature="0" /><path
           d="m 233.937,85.477 c 6.43,-5.131 17.836,-3.724 17.836,-3.724 0.803,3.165 2.612,6.179 2.612,6.179 0,0 2.576,-3.014 3.381,-6.179 0,0 11.787,-1.407 18.217,3.724 1.914,1.526 2.398,5.482 2.258,10.65 l -6.74,1.811 c -0.008,-0.118 -0.015,-0.236 -0.022,-0.353 -0.045,-0.846 -0.075,-1.684 -0.134,-2.534 -0.065,-0.793 -0.005,-1.298 -0.18,-2.088 -0.049,-0.284 -0.118,-0.555 -0.203,-0.815 -0.145,-0.446 -0.335,-0.862 -0.546,-1.265 -0.532,-0.951 -1.28,-1.741 -2.13,-2.363 -0.284,-0.208 -0.578,-0.396 -0.881,-0.567 -1.211,-0.675 -2.555,-1.081 -3.917,-1.164 -1.342,-0.085 -2.812,0.229 -3.753,1.192 0.2,-0.157 0.41,-0.287 0.627,-0.393 0.585,-0.282 1.231,-0.394 1.878,-0.405 0.405,-0.007 0.808,0.025 1.198,0.078 1.269,0.2 2.48,0.703 3.517,1.417 0.905,0.628 1.665,1.439 2.171,2.365 0.072,0.132 0.14,0.267 0.201,0.402 0.178,0.404 0.325,0.826 0.413,1.237 0.031,0.146 0.055,0.292 0.069,0.434 0.115,0.503 0.02,1.338 0.039,1.863 -0.009,1.129 -0.053,2.283 -0.029,3.411 l -20.585,5.534 -8.787,-4.537 0.018,-0.356 c 0.059,-1.164 0.015,-2.365 -0.003,-3.548 -0.003,-0.169 -0.005,-0.337 -0.006,-0.504 0.006,-0.174 -0.002,-0.385 -0.009,-0.605 -0.014,-0.44 -0.032,-0.924 0.046,-1.258 0.056,-0.543 0.242,-1.123 0.482,-1.671 0.142,-0.315 0.317,-0.617 0.514,-0.906 0.486,-0.717 1.123,-1.351 1.86,-1.861 1.035,-0.713 2.248,-1.217 3.516,-1.417 0.391,-0.053 0.795,-0.085 1.198,-0.078 0.524,0.007 1.045,0.086 1.534,0.263 0.031,0.011 0.061,0.021 0.091,0.033 0.032,0.011 0.062,0.028 0.094,0.041 0.274,0.117 0.538,0.266 0.782,0.46 -0.41,-0.421 -0.921,-0.718 -1.48,-0.912 -0.359,-0.125 -0.738,-0.205 -1.121,-0.25 -0.213,-0.025 -0.427,-0.039 -0.64,-0.042 -0.171,-0.003 -0.34,0.002 -0.507,0.012 -1.363,0.084 -2.705,0.49 -3.919,1.165 -1.206,0.68 -2.297,1.664 -3.01,2.931 -0.116,0.22 -0.222,0.448 -0.321,0.68 -0.187,0.438 -0.34,0.896 -0.426,1.399 -0.038,0.171 -0.065,0.326 -0.084,0.475 -0.052,0.394 -0.055,0.739 -0.07,1.132 -0.006,0.152 -0.013,0.309 -0.027,0.481 -0.081,1.162 -0.105,2.302 -0.196,3.466 l -7.069,-3.651 c -0.048,-4.546 0.488,-7.989 2.243,-9.389"
           style="fill:#ff2100;fill-opacity:1;fill-rule:nonzero;stroke:none"
           id="path101707"
           inkscape:connector-curvature="0" /></g></g></g></svg>